<svg xmlns="http://www.w3.org/2000/svg" width="16" height="16" fill="none">
  <path class="foreground-stroke transparent-fill" stroke="#241F30" stroke-linecap="round" stroke-linejoin="round" stroke-width="2" d="M8 13v2m0-2c1.11 0 2.14-.36 2.97-.98M8 13a4.98 4.98 0 0 1-2.97-.98M8 3V1m0 2c1.11 0 2.14.36 2.97.98M8 3c-1.11 0-2.14.36-2.97.98m5.94 0 1.14-1.64m-1.14 1.64a5.01 5.01 0 0 1 1.79 2.48M5.03 3.98 3.9 2.34m1.13 1.64a5.01 5.01 0 0 0-1.79 2.48m7.73 5.56 1.14 1.65m-1.14-1.65a5.01 5.01 0 0 0 1.79-2.48m-7.73 2.48L3.9 13.67m1.13-1.65a5.01 5.01 0 0 1-1.79-2.48m0-3.08-1.9-.62m1.9.62c-.32 1-.32 2.09 0 3.08m0 0-1.9.63m11.42-.63 1.9.63m-1.9-.63c.32-1 .32-2.09 0-3.08m0 0 1.9-.62"/>
</svg>
