<?xml version="1.0" encoding="UTF-8"?>
<svg height="16px" viewBox="0 0 16 16" width="16px" xmlns="http://www.w3.org/2000/svg">
    <path d="m 8 0 c -0.253906 0 -0.503906 0.0117188 -0.75 0.0351562 l -0.464844 2.3945318 c -0.382812 0.082031 -0.757812 0.199218 -1.105468 0.355468 l -1.75 -1.675781 c -0.445313 0.261719 -0.832032 0.585937 -1.214844 0.925781 l 1.035156 2.179688 c -0.253906 0.285156 -0.484375 0.597656 -0.675781 0.929687 l -2.394531 -0.324219 c -0.203126 0.46875 -0.351563 0.957032 -0.464844 1.464844 l 2.109375 1.140625 c -0.019531 0.195313 -0.039063 0.378907 -0.039063 0.574219 s 0.019532 0.378906 0.039063 0.570312 l -2.109375 1.144532 c 0.113281 0.507812 0.261718 0.996094 0.464844 1.460937 l 2.394531 -0.320312 c 0.191406 0.332031 0.421875 0.644531 0.675781 0.929687 l -1.035156 2.175782 c 0.382812 0.34375 0.769531 0.667968 1.214844 0.933593 l 1.75 -1.683593 c 0.347656 0.15625 0.722656 0.277343 1.105468 0.359374 l 0.464844 2.390626 c 0.246094 0.023437 0.496094 0.039062 0.75 0.039062 s 0.503906 -0.015625 0.75 -0.035156 l 0.464844 -2.394532 c 0.382812 -0.082031 0.757812 -0.203124 1.109375 -0.355468 l 1.75 1.679687 c 0.441406 -0.265625 0.828125 -0.589843 1.210937 -0.929687 l -1.035156 -2.179688 c 0.253906 -0.285156 0.484375 -0.597656 0.675781 -0.929687 l 2.398438 0.320312 c 0.199219 -0.464843 0.347656 -0.953125 0.460937 -1.460937 l -2.109375 -1.144532 c 0.019531 -0.191406 0.039063 -0.375 0.039063 -0.570312 s -0.019532 -0.378906 -0.039063 -0.574219 l 2.109375 -1.140625 c -0.113281 -0.507812 -0.261718 -0.996094 -0.460937 -1.464844 l -2.398438 0.324219 c -0.191406 -0.332031 -0.421875 -0.644531 -0.675781 -0.929687 l 1.035156 -2.179688 c -0.382812 -0.339844 -0.769531 -0.664062 -1.210937 -0.929687 l -1.75 1.679687 c -0.351563 -0.15625 -0.726563 -0.273437 -1.109375 -0.359375 l -0.464844 -2.3906248 c -0.246094 -0.0234374 -0.496094 -0.0351562 -0.75 -0.0351562 z m 0 5 c 1.65625 0 3 1.34375 3 3 s -1.34375 3 -3 3 s -3 -1.34375 -3 -3 s 1.34375 -3 3 -3 z m 0 0" fill="#2e3436"/>
</svg>
