<svg xmlns="http://www.w3.org/2000/svg" width="16" height="16">
    <path d="M8 1c-.22 0-.44.011-.656.031l-.406 2.094a5.012 5.012 0 0 0-.969.312L4.438 1.97c-.389.23-.727.514-1.063.812l.906 1.906a5.057 5.057 0 0 0-.593.813l-2.094-.281A6.91 6.91 0 0 0 1.188 6.5l1.843 1a4.826 4.826 0 0 0-.03.5c0 .173.013.332.03.5l-1.843 1c.097.445.228.872.406 1.281l2.094-.281c.17.29.371.563.593.812l-.906 1.907c.336.298.674.582 1.063.812l1.531-1.469c.306.137.634.24.969.313l.406 2.094a7.118 7.118 0 0 0 1.312 0l.407-2.094c.334-.073.663-.176.968-.313l1.532 1.47c.388-.23.727-.515 1.062-.813l-.906-1.907c.222-.249.424-.522.594-.812l2.093.281a6.91 6.91 0 0 0 .407-1.281l-1.844-1c.017-.168.031-.327.031-.5s-.014-.332-.031-.5l1.844-1a6.908 6.908 0 0 0-.407-1.281l-2.093.281a5.057 5.057 0 0 0-.594-.813l.906-1.906c-.335-.298-.674-.582-1.062-.812L10.03 3.437a5.015 5.015 0 0 0-.968-.312l-.407-2.094A7.118 7.118 0 0 0 8 1zm0 4a3 3 0 1 1 0 6 3 3 0 0 1 0-6z" style="marker:none" color="#000" overflow="visible" fill="#474747"/>
</svg>
