<?xml version="1.0" encoding="UTF-8"?>
<svg height="16px" viewBox="0 0 16 16" width="16px" xmlns="http://www.w3.org/2000/svg" xmlns:xlink="http://www.w3.org/1999/xlink">
    <filter id="a" height="100%" width="100%" x="0%" y="0%">
        <feColorMatrix in="SourceGraphic" type="matrix" values="0 0 0 0 1 0 0 0 0 1 0 0 0 0 1 0 0 0 1 0"/>
    </filter>
    <mask id="b">
        <g filter="url(#a)">
            <rect fill-opacity="0.396" height="16" width="16"/>
        </g>
    </mask>
    <clipPath id="c">
        <rect height="152" width="192"/>
    </clipPath>
    <g clip-path="url(#c)" mask="url(#b)" transform="matrix(1 0 0 1 -168 -16)">
        <path d="m 29 112 c -4.433594 0 -8 -3.566406 -8 -8 v -2 c 0 4.433594 3.566406 8 8 8 h 88 c 4.433594 0 8 -3.566406 8 -8 v 2 c 0 4.433594 -3.566406 8 -8 8 z m 0 0" fill="#f6f5f4"/>
    </g>
    <g fill="#2e3436">
        <path d="m 4 2 v 2 h 5.585938 l 2 -2 z m -2 3 c -0.5 0 -1 0.5 -1 1 v 4 c 0 0.5 0.5 1 1 1 h 1 v -2 h 2 c 0 -0.265625 0.105469 -0.519531 0.292969 -0.707031 l 3.292969 -3.292969 z m 11.414062 0 l -4 4 h 3.585938 v 2 h 1 c 0.5 0 1 -0.5 1 -1 v -4 c 0 -0.5 -0.5 -1 -1 -1 z m -9.414062 5 v 5 h 8 v -5 h -3.585938 l -0.707031 0.707031 c -0.1875 0.1875 -0.441406 0.292969 -0.707031 0.292969 h -1 c -0.550781 0 -1 -0.449219 -1 -1 z m 0 0"/>
        <path d="m 6 10 h 1 l 9 -9 l -1 -1 l -9 9 z m 0 0"/>
    </g>
</svg>
