<?xml version='1.0' encoding='utf-8'?>
<svg xmlns:cc="http://creativecommons.org/ns#" xmlns:dc="http://purl.org/dc/elements/1.1/" xmlns:gpa="https://www.gtk.org/grappa" xmlns:rdf="http://www.w3.org/1999/02/22-rdf-syntax-ns#" width="16" height="16" gpa:version="1" gpa:state="0" gpa:state-names="outline filled empty">
  <path d="M 8 1 C 4.12890577 1, 1 4.12890577, 1 8 C 1 11.8710938, 4.12890577 15, 8 15 C 11.8710938 15, 15 11.8710938, 15 8 C 15 4.12890577, 11.8710938 1, 8 1 Z M 5.4968462 6.26896524 L 10.5169458 6.26896524 C 11.476017 6.26896524, 12.2534981 7.04644632, 12.2534981 8.00551796 L 12.2534981 8.00827789 C 12.2534971 8.9673481, 11.476016 9.74482822, 10.5169458 9.74482822 L 5.4968462 9.74482822 C 4.53777504 9.74482822, 3.7602942 8.96734715, 3.7602942 8.00827599 L 3.7602942 8.00551605 C 3.76029515 7.04644537, 4.53777552 6.26896524, 5.4968462 6.26896524 Z" id="path0" gpa:states="filled" stroke="none" fill-rule="nonzero" fill="rgb(0,0,0)" gpa:fill="foreground">
    </path>
  <path d="M 8 1 C 4.12890577 1, 1 4.12890577, 1 8 C 1 11.8710938, 4.12890577 15, 8 15 C 11.8710938 15, 15 11.8710938, 15 8 C 15 4.12890577, 11.8710938 1, 8 1 Z" id="path1" gpa:states="outline" stroke-width="2" stroke-linecap="round" stroke-linejoin="round" stroke="rgb(0,0,0)" fill="none" gpa:stroke="foreground" visibility="hidden">
    </path>
  <path d="M 5.4968462 6.26896524 L 10.5169458 6.26896524 C 11.476017 6.26896524, 12.2534981 7.04644632, 12.2534981 8.00551796 L 12.2534981 8.00827789 C 12.2534971 8.9673481, 11.476016 9.74482822, 10.5169458 9.74482822 L 5.4968462 9.74482822 C 4.53777504 9.74482822, 3.7602942 8.96734715, 3.7602942 8.00827599 L 3.7602942 8.00551605 C 3.76029515 7.04644537, 4.53777552 6.26896524, 5.4968462 6.26896524 Z" gpa:states="outline" stroke-width="1" stroke-linecap="round" stroke-linejoin="round" stroke="rgb(0,0,0)" gpa:stroke-width="0.25 1 2" fill="none" gpa:stroke="foreground" visibility="hidden">
    </path>
  <metadata>
    <rdf:RDF>
      <cc:Work>
        <cc:license rdf:resource="https://creativecommons.org/publicdomain/zero/1.0/" />
        <dc:subject>
          <rdf:Bag>
            <rdf:li>dialog-error one-way sign traffic</rdf:li>
          </rdf:Bag>
        </dc:subject>
        <dc:creator>
          <cc:Agent>
            <dc:title>Jakub Steiner</dc:title>
          </cc:Agent>
        </dc:creator>
      </cc:Work>
    </rdf:RDF>
  </metadata>
</svg>