<?xml version='1.0' encoding='utf-8'?>
<svg xmlns="http://www.w3.org/2000/svg" xmlns:cc="http://creativecommons.org/ns#" xmlns:dc="http://purl.org/dc/elements/1.1/" xmlns:gpa="https://www.gtk.org/grappa" xmlns:rdf="http://www.w3.org/1999/02/22-rdf-syntax-ns#" gpa:version="1" gpa:state-names="outline empty" gpa:state="0" width="16" height="16">
  <metadata>
    <rdf:RDF>
      <cc:Work>
        <cc:license rdf:resource="https://creativecommons.org/publicdomain/zero/1.0/" />
        <dc:creator>
          <cc:Agent>
            <dc:title>Jakub Steiner</dc:title>
          </cc:Agent>
        </dc:creator>
        <dc:subject>
          <rdf:Bag>
            <rdf:li>display-brightness lightness light sun weather-clear</rdf:li>
          </rdf:Bag>
        </dc:subject>
      </cc:Work>
    </rdf:RDF>
  </metadata>
  <path id="path0" fill="none" stroke="url(#gpa:foreground) rgb(0,0,0)" stroke-width="2" stroke-linecap="round" stroke-linejoin="round" d="M 14 8 L 15 8 M 12.28 3.71 L 13 3.01 M 8 2 L 8 1 M 3.72 3.71 L 3 3 M 1 8 L 2 8 M 3 12.99 L 3.72 12.28 M 8 15 L 8 14 M 13 13 L 12.28 12.28" gpa:stroke="foreground" gpa:states="outline">
  </path>
  <path id="path1" fill="none" stroke="url(#gpa:foreground) rgb(0,0,0)" stroke-width="1.88168" stroke-linecap="round" stroke-linejoin="round" d="M 6 6 C 4.89543 7.10457, 4.89543 8.89543, 6 10 C 7.10457 11.1046, 8.89543 11.1046, 10 10 C 11.1046 8.89543, 11.1046 7.10457, 10 6 C 8.89543 4.89543, 7.10457 4.89543, 6 6 Z" gpa:stroke="foreground" gpa:states="outline">
  </path>
</svg>