<svg xmlns:cc="http://creativecommons.org/ns#" xmlns:dc="http://purl.org/dc/elements/1.1/" xmlns:gpa="https://www.gtk.org/grappa" xmlns:rdf="http://www.w3.org/1999/02/22-rdf-syntax-ns#" width="16" height="16" gpa:version="1" gpa:state="0">
  <path d="M 14 8 L 15 8 M 12.2799997 3.71000004 L 13 3.00999999 M 8 2 L 8 1 M 3.72000003 3.71000004 L 3 3 M 1 8 L 2 8 M 3 12.9899998 L 3.72000003 12.2799997 M 8 15 L 8 14 M 13 13 L 12.2799997 12.2799997" id="path0" stroke-width="2" stroke-linecap="round" stroke-linejoin="round" stroke="rgb(0,0,0)" fill="none" gpa:stroke="foreground">
    </path>
  <path d="M 6 6 C 4.89543056 7.10456944, 4.89543056 8.89543056, 6 10 C 7.10456944 11.1045694, 8.89543056 11.1045694, 10 10 C 11.1045694 8.89543056, 11.1045694 7.10456944, 10 6 C 8.89543056 4.89543056, 7.10456944 4.89543056, 6 6 Z" id="path1" stroke-width="1.88168" stroke-linecap="round" stroke-linejoin="round" stroke="rgb(0,0,0)" fill="none" gpa:stroke="foreground">
    </path>
  <metadata>
    <rdf:RDF>
      <cc:Work>
        <cc:license rdf:resource="https://creativecommons.org/publicdomain/zero/1.0/" />
        <dc:subject>
          <rdf:Bag>
            <rdf:li>display brightness lightness light sun weather-clear</rdf:li>
          </rdf:Bag>
        </dc:subject>
        <dc:creator>
          <cc:Agent>
            <dc:title>Jakub Steiner</dc:title>
          </cc:Agent>
        </dc:creator>
      </cc:Work>
    </rdf:RDF>
  </metadata>
</svg>
