<?xml version='1.0' encoding='utf-8'?>
<svg xmlns:cc="http://creativecommons.org/ns#" xmlns:dc="http://purl.org/dc/elements/1.1/" xmlns:gpa="https://www.gtk.org/grappa" xmlns:rdf="http://www.w3.org/1999/02/22-rdf-syntax-ns#" width="16" height="16" gpa:version="1" gpa:state="0" gpa:state-names="outline empty">
  <path d="M 15 8 C 15 11.8659935, 11.8659935 15, 8 15 C 4.13400698 15, 1 11.8659935, 1 8 C 1 4.13400698, 4.13400698 1, 8 1 C 11.8659935 1, 15 4.13400698, 15 8 Z" id="path0" stroke-width="2" stroke-linecap="round" stroke-linejoin="round" stroke="rgb(0,0,0)" fill="none" gpa:states="outline" gpa:stroke="foreground">
    </path>
  <path d="M 8.5 8.5 C 8.5 8.77614212, 8.27614212 9, 8 9 C 7.7238574 9, 7.5 8.77614212, 7.5 8.5 C 7.5 8.22385788, 7.7238574 8, 8 8 C 8.27614212 8, 8.5 8.22385788, 8.5 8.5 Z M 6 6.5079999 L 7.64639044 8.15439034 M 8.35470486 8.15550613 L 11.5299997 5" id="path1" stroke-width="0.75" stroke-linecap="round" stroke-linejoin="round" stroke="rgb(0,0,0)" gpa:stroke-width="0.25 0.75 2" fill="none" gpa:states="outline" gpa:stroke="foreground">
    </path>
  <metadata>
    <rdf:RDF>
      <cc:Work>
        <cc:license rdf:resource="https://creativecommons.org/publicdomain/zero/1.0/" />
        <dc:subject>
          <rdf:Bag>
            <rdf:li>clock document history recent emoji-recent document-open-recent documents-recent preferences-system-time</rdf:li>
          </rdf:Bag>
        </dc:subject>
        <dc:creator>
          <cc:Agent>
            <dc:title>Jakub Steiner</dc:title>
          </cc:Agent>
        </dc:creator>
      </cc:Work>
    </rdf:RDF>
  </metadata>
</svg>