<svg xmlns:cc="http://creativecommons.org/ns#" xmlns:dc="http://purl.org/dc/elements/1.1/" xmlns:gpa="https://www.gtk.org/grappa" xmlns:rdf="http://www.w3.org/1999/02/22-rdf-syntax-ns#" width="16" height="16" gpa:version="1" gpa:state="0">
  <path id="path0" fill="none" stroke="url(&quot;#gpa:foreground&quot;) rgb(0,0,0)" stroke-width="2" stroke-linecap="round" stroke-linejoin="round" d="M 3 10 C 1.89543045 10, 1 9.10456944, 1 8 L 1 3 C 1 1.89543045, 1.89543045 1, 3 1 L 8 1 C 9.10456944 1, 10 1.89543045, 10 3 M 6 8 L 6 13 C 6 14.1045694, 6.89543056 15, 8 15 L 13 15 C 14.1045694 15, 15 14.1045694, 15 13 L 15 8 C 15 6.89543056, 14.1045694 6, 13 6 L 8 6 C 6.89543056 6, 6 6.89543056, 6 8 Z" class="transparent-fill foreground-stroke" gpa:stroke-width="0.5 2 3" gpa:stroke="foreground" gpa:fill="none">
    </path>
  <metadata>
    <rdf:RDF>
      <cc:Work>
        <cc:license rdf:resource="https://creativecommons.org/publicdomain/zero/1.0/" />
        <dc:subject>
          <rdf:Bag>
            <rdf:li>edit-copy clipboard</rdf:li>
          </rdf:Bag>
        </dc:subject>
        <dc:creator>
          <cc:Agent>
            <dc:title>Jakub Steiner</dc:title>
          </cc:Agent>
        </dc:creator>
      </cc:Work>
    </rdf:RDF>
  </metadata>
</svg>