<svg xmlns:cc="http://creativecommons.org/ns#" xmlns:dc="http://purl.org/dc/elements/1.1/" xmlns:gpa="https://www.gtk.org/grappa" xmlns:rdf="http://www.w3.org/1999/02/22-rdf-syntax-ns#" width="16" height="16" gpa:version="1" gpa:state="0" gpa:state-names="outline empty">
  <path id="path0" fill="none" stroke="url(&quot;#gpa:foreground&quot;) rgb(0,0,0)" stroke-width="2" stroke-linecap="round" stroke-linejoin="round" d="M 8 7 L 14 7 C 14.5539999 7, 15 7.4460001, 15 8 L 15 14 C 15 14.5539999, 14.5539999 15, 14 15 L 8 15 C 7.4460001 15, 7 14.5539999, 7 14 L 7 8 C 7 7.4460001, 7.4460001 7, 8 7 M 12 4 L 7.36199999 4 C 6.47017956 3.99946904, 5.61473322 4.353508, 4.98412085 4.98412085 C 4.353508 5.61473322, 3.99946904 6.47017956, 4 7.36199999 L 4 12 M 1 9 L 1 6.80000019 C 1.00000012 3.59674859, 3.59674859 1.00000012, 6.80000019 1.00000012 L 9 1" class="transparent-fill foreground-stroke" gpa:stroke-width="0.5 2 3" gpa:stroke="foreground" gpa:fill="none" gpa:states="outline">
    </path>
  <path id="path1" fill="none" stroke="url(&quot;#gpa:foreground&quot;) rgb(0,0,0)" stroke-width="1" stroke-linecap="round" stroke-linejoin="round" d="M 12.5139999 12.4919996 L 9.50800037 9.50800037 M 9.50800037 12.5139999 L 12.5139999 9.50800037" class="transparent-fill foreground-stroke" gpa:stroke-width="0.25 1 1.5" gpa:stroke="foreground" gpa:fill="none" gpa:states="outline">
    </path>
  <metadata>
    <rdf:RDF>
      <cc:Work>
        <cc:license rdf:resource="https://creativecommons.org/publicdomain/zero/1.0/"></cc:license>
        <dc:subject>
          <rdf:Bag>
            <rdf:li>edit-clear-all clean</rdf:li>
          </rdf:Bag>
        </dc:subject>
        <dc:creator>
          <cc:Agent>
            <dc:title>Jakub Steiner</dc:title>
          </cc:Agent>
        </dc:creator>
      </cc:Work>
    </rdf:RDF>
  </metadata>
</svg>