<?xml version="1.0" encoding="UTF-8" standalone="no"?>
<svg
   width="16"
   height="16"
   gpa:version="1"
   gpa:keywords="face emoji smile people category"
   gpa:state="0"
   version="1.1"
   id="svg1"
   sodipodi:docname="face-smile-big-symbolic.svg"
   inkscape:version="1.4.2 (ebf0e940d0, 2025-05-08)"
   xmlns:inkscape="http://www.inkscape.org/namespaces/inkscape"
   xmlns:sodipodi="http://sodipodi.sourceforge.net/DTD/sodipodi-0.dtd"
   xmlns="http://www.w3.org/2000/svg"
   xmlns:svg="http://www.w3.org/2000/svg"
   xmlns:gpa="https://www.gtk.org/grappa">
  <defs
     id="defs1" />
  <sodipodi:namedview
     id="namedview1"
     pagecolor="#ffffff"
     bordercolor="#000000"
     borderopacity="0.25"
     inkscape:showpageshadow="2"
     inkscape:pageopacity="0.0"
     inkscape:pagecheckerboard="0"
     inkscape:deskcolor="#d1d1d1"
     inkscape:zoom="72.5"
     inkscape:cx="8"
     inkscape:cy="8"
     inkscape:window-width="2560"
     inkscape:window-height="1371"
     inkscape:window-x="0"
     inkscape:window-y="0"
     inkscape:window-maximized="1"
     inkscape:current-layer="svg1" />
  <path
     d="M 15 8 o 0 7, -7 7, 0.707106769 o -7 0, -7 -7, 0.707106769 o 0 -7, 7 -7, 0.707106769 o 7 0, 7 7, 0.707106769 z"
     id="path0"
     stroke-width="2"
     stroke-linecap="round"
     stroke-linejoin="round"
     stroke="rgb(0,0,0)"
     fill="none"
     class="foreground-stroke transparent-fill" />
  <path
     d="M 11 6 C 11 6.55228472, 10.5522852 7, 10 7 C 9.44771481 7, 9 6.55228472, 9 6 C 9 5.44771528, 9.44771481 5, 10 5 C 10.5522852 5, 11 5.44771528, 11 6 Z M 7 6 C 7 6.55228472, 6.55228472 7, 6 7 C 5.44771528 7, 5 6.55228472, 5 6 C 5 5.44771528, 5.44771528 5, 6 5 C 6.55228472 5, 7 5.44771528, 7 6 Z"
     id="path1"
     stroke-width="1"
     stroke-linecap="round"
     stroke-linejoin="round"
     stroke="rgb(0,0,0)"
     fill="none"
     class="foreground-stroke transparent-fill" />
  <path
     d="M 4.9689112,9.4840774 C 5.5941257,10.566981 6.7495704,11.234078 8,11.234078 c 1.2504292,0 2.405874,-0.667097 3.031089,-1.7500006 z"
     id="path2"
     stroke-width="1"
     stroke-linecap="round"
     stroke-linejoin="round"
     stroke="rgb(0,0,0)"
     fill="none"
     class="foreground-stroke transparent-fill" />
</svg>
