<?xml version='1.0' encoding='utf-8'?>
<svg xmlns:cc="http://creativecommons.org/ns#" xmlns:dc="http://purl.org/dc/elements/1.1/" xmlns:gpa="https://www.gtk.org/grappa" xmlns:rdf="http://www.w3.org/1999/02/22-rdf-syntax-ns#" width="16" height="16" gpa:version="1" gpa:state="0" gpa:state-names="outline empty">
  <style type="text/css">
    .not-initial-state {
      visibility: hidden;
    }
  </style>
  <path d="M 15.03125 12.9960938 C 15.03125 14.1006632, 14.1358194 14.9960938, 13.03125 14.9960938 C 11.9266806 14.9960938, 11.03125 14.1006632, 11.03125 12.9960938 C 11.03125 11.8915243, 11.9266806 10.9960938, 13.03125 10.9960938 C 14.1358194 10.9960938, 15.03125 11.8915243, 15.03125 12.9960938 Z M 5 8 C 5 9.10456944, 4.10456944 10, 3 10 C 1.89543045 10, 1 9.10456944, 1 8 C 1 6.89543056, 1.89543045 6, 3 6 C 4.10456944 6, 5 6.89543056, 5 8 Z M 15 3 C 15 4.10456944, 14.1045694 5, 13 5 C 11.8954306 5, 11 4.10456944, 11 3 C 11 1.89543045, 11.8954306 1, 13 1 C 14.1045694 1, 15 1.89543045, 15 3 Z" id="path0" stroke-width="2" stroke-linecap="round" stroke-linejoin="round" stroke="rgb(0,0,0)" fill="none" class="foreground-stroke transparent-fill" gpa:states="outline" gpa:stroke="foreground">
    </path>
  <path d="M 4.78745031 7.10277033 L 11.2108402 3.89381623 M 11.1805668 12.2378225 L 4.77585936 8.91995811" id="path1" stroke-width="2" stroke-linecap="round" stroke-linejoin="round" stroke="rgb(0,0,0)" fill="none" class="foreground-stroke transparent-fill" gpa:states="outline" gpa:stroke="foreground">
    </path>
  <metadata>
    <rdf:RDF>
      <cc:Work>
        <cc:license rdf:resource="https://creativecommons.org/publicdomain/zero/1.0/" />
        <dc:subject>
          <rdf:Bag>
            <rdf:li>share link public folder folder-publicshare preferences-system-sharing</rdf:li>
          </rdf:Bag>
        </dc:subject>
        <dc:creator>
          <cc:Agent>
            <dc:title>Jakub Steiner</dc:title>
          </cc:Agent>
        </dc:creator>
      </cc:Work>
    </rdf:RDF>
  </metadata>
</svg>