<?xml version='1.0' encoding='utf-8'?>
<svg xmlns:cc="http://creativecommons.org/ns#" xmlns:dc="http://purl.org/dc/elements/1.1/" xmlns:gpa="https://www.gtk.org/grappa" xmlns:rdf="http://www.w3.org/1999/02/22-rdf-syntax-ns#" width="16" height="16" gpa:version="1" gpa:state="0" gpa:state-names="outline empty">
  <style type="text/css">
    .not-initial-state {
      visibility: hidden;
    }
  </style>
  <path d="M 14 11.4851112 L 14 4 C 14 2.89543056, 13.1045694 2, 12 2 L 8 2 C 6.89548016 2, 6.00013828 2.89548039, 6.00030851 4 L 6.00146866 11.5385504 M 14 11.4851122 C 14 12.8576012, 12.8873777 13.9702225, 11.5148888 13.9702225 C 10.1423998 13.9702225, 9.02977753 12.8576002, 9.02977753 11.4851112 C 9.02977848 10.1126223, 10.1423998 9, 11.5148888 9.00000095 C 12.8873777 9, 14 10.1126223, 14 11.4851112 Z M 6.00147152 11.5385523 C 6.00147152 12.9110394, 4.85907078 14, 3.48658228 14 C 2.1140933 14, 1.0014714 12.8873777, 1.00147152 11.5148888 C 1.00147176 10.1423998, 2.11409354 9.02977848, 3.48658228 9.02977848 C 4.85907078 9.02977848, 6.00147152 10.1660614, 6.00147152 11.5385504 Z" id="path0" stroke-width="2" stroke-linecap="round" stroke-linejoin="round" stroke="rgb(0,0,0)" fill="none" class="foreground-stroke transparent-fill" gpa:states="outline" gpa:stroke="foreground">
    </path>
  <metadata>
    <rdf:RDF>
      <cc:Work>
        <cc:license rdf:resource="https://creativecommons.org/publicdomain/zero/1.0/" />
        <dc:subject>
          <rdf:Bag>
            <rdf:li>folder-music note folder sound tune audio-x-generic</rdf:li>
          </rdf:Bag>
        </dc:subject>
        <dc:creator>
          <cc:Agent>
            <dc:title>Jakub Steiner</dc:title>
          </cc:Agent>
        </dc:creator>
      </cc:Work>
    </rdf:RDF>
  </metadata>
</svg>