<svg xmlns:cc="http://creativecommons.org/ns#" xmlns:dc="http://purl.org/dc/elements/1.1/" xmlns:gpa="https://www.gtk.org/grappa" xmlns:rdf="http://www.w3.org/1999/02/22-rdf-syntax-ns#" width="16" height="16" gpa:version="1" gpa:state="0">
  <style type="text/css">
    .not-initial-state {
      display: none;
    }
  </style>
  <path d="M 1 4 L 1 12 C 1 13.1045694, 1.89543045 14, 3 14 L 13 14 C 14.1045694 14, 15 13.1045694, 15 12 L 15 6 C 15 4.89543056, 14.1045694 4, 13 4 L 9.55862045 4 C 9.20094204 4, 8.85791302 3.85791254, 8.60499573 3.60499549 L 7.39500427 2.39500451 C 7.14208698 2.14208746, 6.79905796 2, 6.44137907 2 L 3 2 C 1.89543045 2, 1 2.89543056, 1 4 Z" id="path0" stroke-width="2" stroke-linecap="round" stroke-linejoin="round" stroke="rgb(0,0,0)" fill="none" class="foreground-stroke transparent-fill" gpa:stroke="foreground">
    </path>
  <path d="M 1 4.5 L 9.48965549 4.5 C 9.7689724 4.5, 10 4.26825714, 10 4" id="path1" stroke-width="1" stroke-linecap="round" stroke-linejoin="round" stroke="rgb(0,0,0)" fill="none" class="foreground-stroke transparent-fill" gpa:stroke="foreground">
    </path>
  <metadata>
    <rdf:RDF>
      <cc:Work>
        <cc:license rdf:resource="https://creativecommons.org/publicdomain/zero/1.0/" />
        <dc:subject>
          <rdf:Bag>
            <rdf:li>folder user-desktop directory dir path inode-directory</rdf:li>
          </rdf:Bag>
        </dc:subject>
        <dc:creator>
          <cc:Agent>
            <dc:title>Jakub Steiner</dc:title>
          </cc:Agent>
        </dc:creator>
      </cc:Work>
    </rdf:RDF>
  </metadata>
</svg>