<?xml version="1.0" encoding="UTF-8" standalone="no"?>
<svg
   width="64"
   height="64"
   gpa:version="1"
   gpa:keywords="hand gesture touch swipe left two finger"
   gpa:state="0"
   version="1.1"
   id="svg1"
   sodipodi:docname="gesture-two-finger-swipe-right-symbolic.svg"
   inkscape:version="1.4.2 (ebf0e940d0, 2025-05-08)"
   xmlns:inkscape="http://www.inkscape.org/namespaces/inkscape"
   xmlns:sodipodi="http://sodipodi.sourceforge.net/DTD/sodipodi-0.dtd"
   xmlns="http://www.w3.org/2000/svg"
   xmlns:svg="http://www.w3.org/2000/svg"
   xmlns:gpa="https://www.gtk.org/grappa">
  <defs
     id="defs1" />
  <sodipodi:namedview
     id="namedview1"
     pagecolor="#ffffff"
     bordercolor="#000000"
     borderopacity="0.25"
     inkscape:showpageshadow="2"
     inkscape:pageopacity="0.0"
     inkscape:pagecheckerboard="0"
     inkscape:deskcolor="#d1d1d1"
     inkscape:zoom="18.125"
     inkscape:cx="32"
     inkscape:cy="32"
     inkscape:window-width="2560"
     inkscape:window-height="1371"
     inkscape:window-x="0"
     inkscape:window-y="0"
     inkscape:window-maximized="1"
     inkscape:current-layer="svg1" />
  <path
     d="M 23.9799995 61 L 44.0200005 61 C 48.4272308 61, 52 57.4272308, 52 53.0200005 L 52 39 C 52 37.3431473, 50.6568527 36, 49 36 C 47.3431473 36, 46 37.3431473, 46 39 L 46 39.5299988 C 46 40.3418579, 45.3418579 41, 44.5299988 41 L 44.4699974 41 C 43.6581421 41, 43 40.3418579, 43 39.5299988 L 43 36 C 43 34.3431473, 41.6568527 33, 40 33 C 38.3431473 33, 37 34.3431473, 37 36 L 37 37.5299988 C 37 38.3418579, 36.3418579 39, 35.5299988 39 L 35.4699974 39 C 34.6581421 39, 34 38.3418579, 34 37.5299988 L 34 18.3939934 C 34 16.7371368, 32.6568527 15.3939934, 31 15.3939934 C 29.3431454 15.3939934, 28 16.7371368, 28 18.3939934 L 28 38.4758606 C 28 39.3176193, 27.3176212 40, 26.4758625 40 C 25.6474342 39.9866676, 24.9866676 39.304287, 25 38.4758606 L 25 22 C 25 20.3317184, 23.6475906 18.9793091, 21.9793091 18.9793091 C 20.3224545 18.9907379, 18.9885731 20.3431454, 19 22 L 19 45 C 19.1027088 47.8279991, 17.7512016 47.3754425, 17.6849995 47.3419991 L 16.3150005 46.6580009 C 15.4508352 46.2269096, 14.7056999 45.5902824, 14.1450014 44.8040009 L 11.7440004 41.4410019 C 10.7592487 40.062561, 8.88083458 39.67173, 7.42799997 40.5429993 C 6.06462717 41.4147301, 5.65282822 43.2190781, 6.50299978 44.5960007 L 12.0019999 54.0940018 C 14.4764404 58.3683128, 19.0411129 61.0001068, 23.9799995 61"
     id="path0"
     stroke-width="2"
     stroke-linecap="round"
     stroke-linejoin="round"
     stroke="rgb(0,0,0)"
     fill="none"
     class="foreground-stroke transparent-fill" />
  <path
     d="M 48.603449,19 H 37.928003 m 6.675446,-4 4,4 -4,4"
     id="path1"
     stroke-width="2"
     stroke-linecap="round"
     stroke-linejoin="round"
     stroke="#000000"
     fill="none"
     class="foreground-stroke transparent-fill" />
  <path
     d="M 24.4792671 15.4533119 C 24.9705658 14.1952391, 25.8258705 13.0772448, 26.9845409 12.2659349 C 29.3951321 10.5780201, 32.6040192 10.5780201, 35.0146141 12.2659349 C 37.4252052 13.9538488, 38.5227089 16.9692154, 37.7610588 19.8117313 M 15.2385197 23.8117332 C 14.4768696 20.9692173, 15.5743732 17.9538517, 17.9849644 16.2659359 C 19.9115105 14.9169531, 22.3479481 14.6460781, 24.4792671 15.4533129"
     id="path2"
     stroke-width="3"
     stroke-linecap="round"
     stroke-linejoin="round"
     stroke="rgb(0,0,0)"
     fill="none"
     class="foreground-stroke transparent-fill" />
</svg>
