<svg width="64" height="64">
  <path
     d="M 22.387027,3.8130425 27.118815,8.5223082 22.17398,13.006685 Z"/>
  <path
     d="m 24.296407,8.427795 a 11.002,11.002 0 0 0 -8.765934,2.567446 11.002,11.002 0 0 0 -3.805993,8.302305"/>
  <path
     d="m 46.385458,12.420975 a 4,4 0 0 0 -3.773026,2.296787 L 31.832254,36.86651 c -0.03769,0.0592 -0.08544,0.107448 -0.121118,0.168636 l -0.148627,0.262782 -3e-5,-0.006 c -0.374864,0.599971 -1.137436,0.492962 -1.235649,-0.311534 l 1.166124,-14.87631 a 4,4 0 0 0 -2.652703,-4.138167 3.987,3.987 0 0 0 -0.111182,-0.03442 3.968,3.968 0 0 0 -0.664819,-0.154521 l -0.112071,-0.01341 c -0.09005,-0.0095 -0.180097,-0.01806 -0.270117,-0.02159 -0.05301,-0.0017 -0.107009,-0.0014 -0.161008,-0.0011 a 4.07,4.07 0 0 0 -0.157019,-0.0032 l -0.06197,0.0063 c -0.07998,0.0044 -0.159947,0.01084 -0.239893,0.02126 -0.04499,0.0033 -0.08994,0.01047 -0.13492,0.01571 a 4.031,4.031 0 0 0 -0.373628,0.07196 2.881,2.881 0 0 0 -0.107877,0.02357 4,4 0 0 0 -2.940252,3.779447 l -2.106498,26.839397 c 0,0 -3.311578,-0.292664 -3.318789,-1.669645 l -0.04662,-8.904879 c -0.01209,-2.317968 -1.805887,-4.175601 -4.021857,-4.163998 -2.21597,0.01163 -3.990169,1.887918 -3.978033,4.205886 l 0.05565,10.629855 c 6.81e-4,0.129998 0.02732,0.25086 0.03898,0.377801 l -0.04967,0.06326 c 0.0079,1.507979 0.148763,2.81926 0.642161,4.230695 l 0.04909,0.01774 3.291795,6.445853 c 0.669395,1.410514 1.513902,2.269104 3.546874,2.258459 l 26.803622,-0.142343 c 1.546979,-0.0081 3.615348,-1.088946 4.256773,-2.155318 L 56.722179,45.572307 C 57.871649,43.55826 57.246521,41.052499 55.321746,39.954562 53.39597,38.85663 50.9228,39.59459 49.77333,41.608636 l -0.390424,0.684053 -0.870606,-0.495448 1.664746,-2.917756 c 1.14947,-2.014046 0.524342,-4.519807 -1.399434,-5.61775 -1.925775,-1.097931 -4.399945,-0.359967 -5.549416,1.654079 l -1.664739,2.918757 -1.02006,-0.581667 8.920194,-18.320956 a 4,4 0 0 0 0.425361,-0.887241 c 1.149485,-2.584053 -0.671878,-5.513557 -3.499494,-5.623753 z"/>
  <path
     d="m 36.037909,19.561335 c 1.265297,4.787446 -1.615989,9.734418 -6.404435,10.999711 -4.788446,1.265293 -9.735425,-1.613993 -11.000719,-6.402439 -1.265292,-4.788445 1.61399,-9.734425 6.402435,-10.999718 4.788447,-1.265293 9.737426,1.614 11.002722,6.401446 z m -2.900691,0.765879 a 5.98,5.98 0 0 0 -7.335144,-4.26863 5.977,5.977 0 0 0 -4.268627,7.334144 5.977,5.977 0 0 0 7.333145,4.268624 5.98,5.98 0 0 0 4.270629,-7.335138 z m 21.834027,-5.985821 c 1.265294,4.788445 -1.613992,9.735425 -6.402439,11.000718 -4.788445,1.265293 -9.734424,-1.613989 -11.000718,-6.402438 -1.264292,-4.788443 1.61399,-9.7344262 6.402439,-11.0007191 4.788443,-1.2642929 9.735426,1.6139928 11.000718,6.4024391 z m -2.900694,0.766879 a 5.977,5.977 0 0 0 -7.333145,-4.268624 5.978,5.978 0 0 0 -4.268627,7.334145 5.978,5.978 0 0 0 7.334149,4.267627 5.977,5.977 0 0 0 4.267623,-7.333148 z"/>
</svg>
