<svg xmlns="http://www.w3.org/2000/svg" width="64" height="64">
  <path d="M46.037 10.148v7H30.54C29.34 13.585 25.968 11 22.012 11c-4.953 0-9 4.047-9 9 0 3.501 2.027 6.543 4.963 8.03V47h-1v-7.814c0-2.32-1.784-4.186-4-4.186s-4 1.867-4 4.186V60h40c2.216 0 4-1.867 4-4.186V34.186c0-2.32-1.784-4.186-4-4.186s-4 1.867-4 4.186V39h-1v-7.814c0-2.32-1.673-4.186-3.752-4.186h-.494c-2.08 0-3.754 1.867-3.754 4.186V39h-1v-7.814c0-2.32-1.784-4.186-4-4.186s-4 1.867-4 4.186V39h-1V28.064a9.046 9.046 0 0 0 4.765-5.916h15.297v7l10-9.5zM22.012 14c3.331 0 6 2.669 6 6a5.976 5.976 0 0 1-2.037 4.512v-4.326c0-2.32-1.784-4.186-4-4.186s-4 1.867-4 4.186v4.257A5.974 5.974 0 0 1 16.012 20c0-3.331 2.668-6 6-6z"/>
</svg>
