<svg xmlns="http://www.w3.org/2000/svg" width="64" height="64">
  <path d="M25 8c-4.953 0-9 4.047-9 9 0 4.85 3.882 8.82 8.693 8.984L27 30.894v12.6l-6.535.791-1.05-1.127A8.9 8.9 0 0 0 20 40c0-4.953-4.047-9-9-9s-9 4.047-9 9 4.047 9 9 9c.857 0 1.684-.13 2.47-.355L22 58h36c2.216 0 4-1.867 4-4.186V32.186C62 29.866 60.216 28 58 28s-4 1.867-4 4.186V37h-1V23.302c0-2.32-1.784-4.186-4-4.186s-4 1.867-4 4.186V37h-1V19.186C44 16.866 42.216 15 40 15s-4 1.867-4 4.186V37h-1v-6.814l-.002-.014a4 4 0 0 0-.377-1.871l-2.646-5.633A8.946 8.946 0 0 0 34 17c0-4.953-4.047-9-9-9Zm0 3c3.331 0 6 2.669 6 6 0 .883-.192 1.715-.53 2.467l-1.41-3.004c-.275-1.98-2.01-3.459-4.06-3.461-.058 0-.116.003-.174.006a4 4 0 0 0-3.93 3.99V17l.002.027a4 4 0 0 0 .4 1.729l1.858 3.955A5.971 5.971 0 0 1 19 17c0-3.331 2.669-6 6-6zM11 34a5.977 5.977 0 0 1 5.973 6.54l-3.008-3.227a4 4 0 0 0-2.826-1.311c-3.587-.123-5.509 4.174-3.026 6.766l2.944 3.23L11 46c-3.331 0-6-2.669-6-6s2.669-6 6-6Z"/>
</svg>
