<svg xmlns:cc="http://creativecommons.org/ns#" xmlns:dc="http://purl.org/dc/elements/1.1/" xmlns:gpa="https://www.gtk.org/grappa" xmlns:rdf="http://www.w3.org/1999/02/22-rdf-syntax-ns#" width="16" height="16" gpa:version="1" gpa:state="0" gpa:state-names="outline empty">
  <defs id="defs1" class="" gpa:states="none" gpa:animation-repeat="0" gpa:animation-segment="0">
    </defs>
  <path id="path0" fill="none" stroke="url(&quot;#gpa:foreground&quot;) rgb(0,0,0)" stroke-width="2" stroke-linecap="round" stroke-linejoin="round" d="M 3 4 L 3 13 C 3 14.1045694, 3.89543056 15, 5 15 L 11 15 C 12.1045694 15, 13 14.1045694, 13 13 L 13 6 C 13 5.35971069, 12.7456465 4.74564648, 12.2928934 4.29289341 L 10.7071066 2.70710683 C 10.2543535 2.254354, 9.64028931 2.00000024, 9 2 L 5 2 C 3.89543056 2, 3 2.89543056, 3 4 Z" class="transparent-fill foreground-stroke" gpa:stroke-width="0.5 2 3" gpa:stroke="foreground" gpa:fill="none" gpa:states="outline">
    </path>
  <path id="path5" fill="none" stroke="url(&quot;#gpa:foreground&quot;) rgb(0,0,0)" stroke-width="1" stroke-linecap="butt" stroke-linejoin="round" d="M 4.99816799 8.5 L 11 8.5 M 5 10.5 L 11 10.5 M 5 12.5 L 11 12.5 M 4.99816799 6.4931035 L 8 6.4931035" class="transparent-fill foreground-stroke" gpa:stroke-width="0.25 1 2" gpa:stroke="foreground" gpa:fill="none" gpa:states="outline">
    </path>
  <metadata>
    <rdf:RDF>
      <cc:Work>
        <cc:license rdf:resource="https://creativecommons.org/publicdomain/zero/1.0/"></cc:license>
        <dc:subject>
          <rdf:Bag>
            <rdf:li>document plain text x-office-document</rdf:li>
          </rdf:Bag>
        </dc:subject>
        <dc:creator>
          <cc:Agent>
            <dc:title>Jakub Steiner</dc:title>
          </cc:Agent>
        </dc:creator>
      </cc:Work>
    </rdf:RDF>
  </metadata>
</svg>