<svg xmlns:cc="http://creativecommons.org/ns#" xmlns:dc="http://purl.org/dc/elements/1.1/" xmlns:gpa="https://www.gtk.org/grappa" xmlns:rdf="http://www.w3.org/1999/02/22-rdf-syntax-ns#" width="16" height="16" gpa:version="1" gpa:state="0">
  <style type="text/css">
    .not-initial-state {
      display: none;
    }
  </style>
  <path d="M 1 2 L 1 5 C 1 5.55228472, 1.44771528 6, 2 6 L 5 6 C 5.55228472 6, 6 5.55228472, 6 5 L 6 2 C 6 1.44771528, 5.55228472 1, 5 1 L 2 1 C 1.44771528 1, 1 1.44771528, 1 2 M 10 2 L 10 5 C 10 5.55228472, 10.4477148 6, 11 6 L 14 6 C 14.5522852 6, 15 5.55228472, 15 5 L 15 2 C 15 1.44771528, 14.5522852 1, 14 1 L 11 1 C 10.4477148 1, 10 1.44771528, 10 2 M 10 11 L 10 14 C 10 14.5522852, 10.4477148 15, 11 15 L 14 15 C 14.5522852 15, 15 14.5522852, 15 14 L 15 11 C 15 10.4477148, 14.5522852 10, 14 10 L 11 10 C 10.4477148 10, 10 10.4477148, 10 11 M 6 11 L 6 14 C 6 14.5522852, 5.55228472 15, 5 15 L 2 15 C 1.44771528 15, 1 14.5522852, 1 14 L 1 11 C 1 10.4477148, 1.44771528 10, 2 10 L 5 10 C 5.55228472 10, 6 10.4477148, 6 11" id="path0" stroke-width="2" stroke-linecap="round" stroke-linejoin="round" stroke="rgb(0,0,0)" fill="none" class="foreground-stroke transparent-fill" gpa:stroke="foreground">
    </path>
  <metadata>
    <rdf:RDF>
      <cc:Work>
        <cc:license rdf:resource="https://creativecommons.org/publicdomain/zero/1.0/" />
        <dc:subject>
          <rdf:Bag>
            <rdf:li>view-grid rectangle</rdf:li>
          </rdf:Bag>
        </dc:subject>
        <dc:creator>
          <cc:Agent>
            <dc:title>Jakub Steiner</dc:title>
          </cc:Agent>
        </dc:creator>
      </cc:Work>
    </rdf:RDF>
  </metadata>
</svg>