<?xml version='1.0' encoding='utf-8'?>
<svg xmlns:cc="http://creativecommons.org/ns#" xmlns:dc="http://purl.org/dc/elements/1.1/" xmlns:gpa="https://www.gtk.org/grappa" xmlns:rdf="http://www.w3.org/1999/02/22-rdf-syntax-ns#" width="16" height="16" gpa:version="1" gpa:state="0" gpa:state-names="outline empty">
  <path d="M 9 14 C 9 14.5522852, 8.55228519 15, 8 15 C 7.44771528 15, 7 14.5522852, 7 14 C 7 13.4477148, 7.44771528 13, 8 13 C 8.55228519 13, 9 13.4477148, 9 14 M 9 8 C 9 8.55228519, 8.55228519 9, 8 9 C 7.44771528 9, 7 8.55228519, 7 8 C 7 7.44771528, 7.44771528 7, 8 7 C 8.55228519 7, 9 7.44771528, 9 8 M 9 2 C 9 2.55228472, 8.55228519 3, 8 3 C 7.44771528 3, 7 2.55228472, 7 2 C 7 1.44771528, 7.44771528 1, 8 1 C 8.55228519 1, 9 1.44771528, 9 2" id="path0" stroke-width="2" stroke-linecap="round" stroke-linejoin="round" stroke="rgb(0,0,0)" fill="none" gpa:states="outline" gpa:stroke="foreground">
    </path>
  <metadata>
    <rdf:RDF>
      <cc:Work>
        <cc:license rdf:resource="https://creativecommons.org/publicdomain/zero/1.0/" />
        <dc:subject>
          <rdf:Bag>
            <rdf:li>view-more kebab more inline menu</rdf:li>
          </rdf:Bag>
        </dc:subject>
        <dc:creator>
          <cc:Agent>
            <dc:title>Jakub Steiner</dc:title>
          </cc:Agent>
        </dc:creator>
      </cc:Work>
    </rdf:RDF>
  </metadata>
</svg>