<svg xmlns:cc="http://creativecommons.org/ns#" xmlns:dc="http://purl.org/dc/elements/1.1/" xmlns:gpa="https://www.gtk.org/grappa" xmlns:rdf="http://www.w3.org/1999/02/22-rdf-syntax-ns#" width="16" height="16" gpa:version="1" gpa:state="0">
  <path id="path0" fill="none" stroke="url(&quot;#gpa:foreground&quot;) rgb(0,0,0)" stroke-width="1" stroke-linecap="round" stroke-linejoin="round" d="M 6 8 C 6 9.10456944, 6.89543056 10, 8 10 C 9.10456944 10, 10 9.10456944, 10 8 C 10 6.89543056, 9.10456944 6, 8 6 C 6.89543056 6, 6 6.89543056, 6 8 Z" class="transparent-fill foreground-stroke" gpa:stroke-width="0.25 1 1.5" gpa:stroke="foreground" gpa:fill="none">
    </path>
  <path id="path1" fill="none" stroke="url(&quot;#gpa:foreground&quot;) rgb(0,0,0)" stroke-width="2" stroke-linecap="round" stroke-linejoin="round" d="M 1 8 L 3.57399988 5.05900002 C 4.69090891 3.78296852, 6.30419874 3.05107355, 8 3.05107355 C 9.69580078 3.05107355, 11.3090906 3.78296852, 12.4259996 5.05900002 L 15 8 L 12.4259996 10.941 C 11.3090906 12.2170315, 9.69580078 12.948926, 8 12.948926 C 6.30419874 12.948926, 4.69090891 12.2170315, 3.57399964 10.941 Z" class="transparent-fill foreground-stroke" gpa:stroke-width="0.5 2 3" gpa:stroke="foreground" gpa:fill="none">
    </path>
  <metadata>
    <rdf:RDF>
      <cc:Work>
        <cc:license rdf:resource="https://creativecommons.org/publicdomain/zero/1.0/" />
        <dc:subject>
          <rdf:Bag>
            <rdf:li>view-reveal visible toggle eye</rdf:li>
          </rdf:Bag>
        </dc:subject>
        <dc:creator>
          <cc:Agent>
            <dc:title>Jakub Steiner</dc:title>
          </cc:Agent>
        </dc:creator>
      </cc:Work>
    </rdf:RDF>
  </metadata>
</svg>