<svg xmlns:cc="http://creativecommons.org/ns#" xmlns:dc="http://purl.org/dc/elements/1.1/" xmlns:gpa="https://www.gtk.org/grappa" xmlns:rdf="http://www.w3.org/1999/02/22-rdf-syntax-ns#" width="16" height="16" gpa:version="1" gpa:state="0">
  <path id="path0" fill="none" stroke="url(&quot;#gpa:foreground&quot;) rgb(0,0,0)" stroke-width="2" stroke-linecap="round" stroke-linejoin="round" d="M 8 5 L 8 11 M 5 8 L 11 8 M 3.96499991 1 L 12.0349998 1 C 12.8217735 0.998669863, 13.5767059 1.31062567, 14.1330404 1.86695969 C 14.689374 2.42329359, 15.0013304 3.17822599, 15 3.96499991 L 15 12.0349998 C 15.0013304 12.8217735, 14.689374 13.5767059, 14.1330404 14.1330404 C 13.5767059 14.689374, 12.8217735 15.0013304, 12.0349998 15 L 3.96499991 15 C 3.17822599 15.0013304, 2.42329359 14.689374, 1.86695969 14.1330404 C 1.31062567 13.5767059, 0.998669863 12.8217735, 1 12.0349998 L 1 3.96499991 C 0.998669922 3.17822599, 1.31062579 2.42329359, 1.86695969 1.86695969 C 2.42329359 1.31062579, 3.17822599 0.998669922, 3.96499991 1" class="transparent-fill foreground-stroke" gpa:stroke-width="0.5 2 3" gpa:stroke="foreground" gpa:fill="none">
    </path>
  <metadata>
    <rdf:RDF>
      <cc:Work>
        <cc:license rdf:resource="https://creativecommons.org/publicdomain/zero/1.0/" />
        <dc:subject>
          <rdf:Bag>
            <rdf:li>tab-new zoom-in square rectangle plus add adw</rdf:li>
          </rdf:Bag>
        </dc:subject>
        <dc:creator>
          <cc:Agent>
            <dc:title>Jakub Steiner</dc:title>
          </cc:Agent>
        </dc:creator>
      </cc:Work>
    </rdf:RDF>
  </metadata>
</svg>