<svg xmlns="http://www.w3.org/2000/svg" width="16" height="16"><g fill="#2e3436"><path d="M8 3a4 4 0 014 4c0 2.21-1.813 4.312-4 4H4V7a4 4 0 014-4zm0 2a2 2 0 100 4 2 2 0 000-4z"/><path d="M3.197 0A2.217 2.217 0 001 2.201V13.8c0 1.199.995 2.2 2.197 2.2h9.607A2.215 2.215 0 0015 13.799V2.2c0-1.199-.994-2.2-2.196-2.2zm0 2h9.607c.124 0 .196.07.196.201V13.8c0 .13-.072.201-.196.201H3.197C3.073 14 3 13.93 3 13.799V2.2c0-.13.073-.201.197-.201z" style="line-height:normal;font-variant-ligatures:normal;font-variant-position:normal;font-variant-caps:normal;font-variant-numeric:normal;font-variant-alternates:normal;font-feature-settings:normal;text-indent:0;text-align:start;text-decoration-line:none;text-decoration-style:solid;text-decoration-color:#000;text-transform:none;text-orientation:mixed;shape-padding:0;isolation:auto;mix-blend-mode:normal;marker:none" color="#bebebe" font-weight="400" font-family="sans-serif" overflow="visible"/></g></svg>