<?xml version="1.0" encoding="UTF-8" standalone="no"?>
<!-- Created with Inkscape (http://www.inkscape.org/) -->
<svg
   xmlns:dc="http://purl.org/dc/elements/1.1/"
   xmlns:cc="http://web.resource.org/cc/"
   xmlns:rdf="http://www.w3.org/1999/02/22-rdf-syntax-ns#"
   xmlns:svg="http://www.w3.org/2000/svg"
   xmlns="http://www.w3.org/2000/svg"
   xmlns:xlink="http://www.w3.org/1999/xlink"
   xmlns:sodipodi="http://sodipodi.sourceforge.net/DTD/sodipodi-0.dtd"
   xmlns:inkscape="http://www.inkscape.org/namespaces/inkscape"
   width="16"
   height="16"
   id="svg2"
   sodipodi:version="0.32"
   inkscape:version="0.45+devel"
   version="1.0"
   sodipodi:docbase="/home/hbons/Desktop/gtk-stock"
   sodipodi:docname="gtk-clear.svg"
   inkscape:export-filename="/home/hbons/Desktop/Tango/GTK-stock/edit-clean.png"
   inkscape:export-xdpi="90"
   inkscape:export-ydpi="90"
   inkscape:output_extension="org.inkscape.output.svg.inkscape">
  <defs
     id="defs4">
    <linearGradient
       id="linearGradient5435">
      <stop
         style="stop-color:#fef5ae;stop-opacity:1;"
         offset="0"
         id="stop5437" />
      <stop
         style="stop-color:#bfab03;stop-opacity:1;"
         offset="1"
         id="stop5439" />
    </linearGradient>
    <linearGradient
       inkscape:collect="always"
       id="linearGradient5219">
      <stop
         style="stop-opacity:1;stop-color:#b4cd5a"
         offset="0"
         id="stop5221" />
      <stop
         style="stop-color:#677f0c;stop-opacity:1"
         offset="1"
         id="stop5223" />
    </linearGradient>
    <linearGradient
       inkscape:collect="always"
       id="linearGradient5165">
      <stop
         style="stop-color:#eeeeec;stop-opacity:1;"
         offset="0"
         id="stop5167" />
      <stop
         style="stop-color:#eeeeec;stop-opacity:0;"
         offset="1"
         id="stop5169" />
    </linearGradient>
    <linearGradient
       inkscape:collect="always"
       id="linearGradient5153">
      <stop
         style="stop-color:#886f00;stop-opacity:1;"
         offset="0"
         id="stop5155" />
      <stop
         style="stop-color:#886f00;stop-opacity:0;"
         offset="1"
         id="stop5157" />
    </linearGradient>
    <linearGradient
       inkscape:collect="always"
       id="linearGradient6108">
      <stop
         style="stop-color:#8f5902;stop-opacity:1;"
         offset="0"
         id="stop6110" />
      <stop
         style="stop-color:#8f5902;stop-opacity:0;"
         offset="1"
         id="stop6112" />
    </linearGradient>
    <linearGradient
       inkscape:collect="always"
       id="linearGradient6074">
      <stop
         style="stop-color:#8f5902;stop-opacity:1;"
         offset="0"
         id="stop6076" />
      <stop
         style="stop-color:#8f5902;stop-opacity:0;"
         offset="1"
         id="stop6078" />
    </linearGradient>
    <linearGradient
       inkscape:collect="always"
       id="linearGradient5184">
      <stop
         style="stop-color:#2e3436;stop-opacity:1;"
         offset="0"
         id="stop5186" />
      <stop
         style="stop-color:#2e3436;stop-opacity:0;"
         offset="1"
         id="stop5188" />
    </linearGradient>
    <linearGradient
       inkscape:collect="always"
       id="linearGradient5172">
      <stop
         style="stop-color:#babdb6;stop-opacity:1;"
         offset="0"
         id="stop5174" />
      <stop
         style="stop-color:#babdb6;stop-opacity:0;"
         offset="1"
         id="stop5176" />
    </linearGradient>
    <linearGradient
       inkscape:collect="always"
       id="linearGradient5152">
      <stop
         style="stop-color:white;stop-opacity:1;"
         offset="0"
         id="stop5154" />
      <stop
         style="stop-color:white;stop-opacity:0;"
         offset="1"
         id="stop5156" />
    </linearGradient>
    <linearGradient
       inkscape:collect="always"
       id="linearGradient30505">
      <stop
         style="stop-color:#000000;stop-opacity:1;"
         offset="0"
         id="stop30507" />
      <stop
         style="stop-color:#000000;stop-opacity:0;"
         offset="1"
         id="stop30509" />
    </linearGradient>
    <radialGradient
       inkscape:collect="always"
       xlink:href="#linearGradient30505"
       id="radialGradient30511"
       cx="25.375"
       cy="43.375"
       fx="25.375"
       fy="43.375"
       r="17.125"
       gradientTransform="matrix(1,0,0,0.343066,0,28.49453)"
       gradientUnits="userSpaceOnUse" />
    <radialGradient
       inkscape:collect="always"
       xlink:href="#linearGradient5152"
       id="radialGradient5158"
       cx="11.950698"
       cy="0.92213637"
       fx="11.950698"
       fy="0.92213637"
       r="8.2720985"
       gradientTransform="matrix(2.840731,0,0,1.975023,-21.99802,-0.253173)"
       gradientUnits="userSpaceOnUse" />
    <linearGradient
       inkscape:collect="always"
       xlink:href="#linearGradient5172"
       id="linearGradient5182"
       gradientUnits="userSpaceOnUse"
       x1="11.147169"
       y1="8.9595385"
       x2="18.361135"
       y2="8.9595385" />
    <linearGradient
       inkscape:collect="always"
       xlink:href="#linearGradient5184"
       id="linearGradient5190"
       x1="-14.58785"
       y1="8.9595385"
       x2="18.775976"
       y2="8.9595385"
       gradientUnits="userSpaceOnUse"
       gradientTransform="matrix(0.4312918,0,0,0.1671247,-0.7809774,8.172375)" />
    <linearGradient
       inkscape:collect="always"
       xlink:href="#linearGradient5184"
       id="linearGradient5194"
       gradientUnits="userSpaceOnUse"
       x1="-14.58785"
       y1="8.9595385"
       x2="18.622385"
       y2="8.9595385"
       gradientTransform="matrix(0.369679,0,0,0.1671247,-15.268644,8.172375)" />
    <linearGradient
       inkscape:collect="always"
       xlink:href="#linearGradient6074"
       id="linearGradient6080"
       x1="19.112127"
       y1="24.224634"
       x2="19.112127"
       y2="41.129253"
       gradientUnits="userSpaceOnUse" />
    <linearGradient
       inkscape:collect="always"
       xlink:href="#linearGradient6108"
       id="linearGradient6114"
       x1="10.128564"
       y1="21.668022"
       x2="10.128564"
       y2="20.305756"
       gradientUnits="userSpaceOnUse"
       gradientTransform="matrix(0.8890253,0,0,1.2803564,-0.8294343,-11.570393)" />
    <linearGradient
       inkscape:collect="always"
       xlink:href="#linearGradient5153"
       id="linearGradient5159"
       x1="24.734924"
       y1="43.215755"
       x2="24.734924"
       y2="34.389748"
       gradientUnits="userSpaceOnUse"
       gradientTransform="matrix(0.354432,0,0,0.3562179,-3.3248396e-2,-0.8261561)" />
    <linearGradient
       inkscape:collect="always"
       xlink:href="#linearGradient5165"
       id="linearGradient5171"
       x1="11.250001"
       y1="17.672302"
       x2="12.818466"
       y2="22.453552"
       gradientUnits="userSpaceOnUse"
       gradientTransform="matrix(0.6526764,0,0,0.6549773,0.5791617,0.1725676)" />
    <linearGradient
       inkscape:collect="always"
       xlink:href="#linearGradient5219"
       id="linearGradient5225"
       x1="7.65625"
       y1="6.9999571"
       x2="19"
       y2="6.9999571"
       gradientUnits="userSpaceOnUse"
       gradientTransform="matrix(0.6526764,0,0,0.6549773,0.5791617,0.1725676)" />
    <filter
       inkscape:collect="always"
       x="-0.41182265"
       width="1.8236454"
       y="-0.24022989"
       height="1.4804598"
       id="filter5313">
      <feGaussianBlur
         inkscape:collect="always"
         stdDeviation="0.3753592"
         id="feGaussianBlur5315" />
    </filter>
    <filter
       inkscape:collect="always"
       x="-0.29655173"
       width="1.5931034"
       y="-0.29655173"
       height="1.5931034"
       id="filter5431">
      <feGaussianBlur
         inkscape:collect="always"
         stdDeviation="0.28396028"
         id="feGaussianBlur5433" />
    </filter>
    <radialGradient
       inkscape:collect="always"
       xlink:href="#linearGradient5435"
       id="radialGradient5441"
       cx="12.198223"
       cy="23.843496"
       fx="12.198223"
       fy="23.843496"
       r="9.8232241"
       gradientTransform="matrix(2.1815957,0,0,0.5865362,-18.070935,0.5919904)"
       gradientUnits="userSpaceOnUse" />
    <linearGradient
       inkscape:collect="always"
       xlink:href="#linearGradient5184"
       id="linearGradient5444"
       gradientUnits="userSpaceOnUse"
       gradientTransform="matrix(0.369679,0,0,0.1671247,-14.915092,8.172375)"
       x1="-14.58785"
       y1="8.9595385"
       x2="18.622385"
       y2="8.9595385" />
    <filter
       inkscape:collect="always"
       x="-0.19652219"
       width="1.3930444"
       y="-0.19652219"
       height="1.3930444"
       id="filter5518">
      <feGaussianBlur
         inkscape:collect="always"
         stdDeviation="0.10313599"
         id="feGaussianBlur5520" />
    </filter>
  </defs>
  <sodipodi:namedview
     id="base"
     pagecolor="#ffffff"
     bordercolor="#e0e0e0"
     borderopacity="1"
     gridtolerance="10000"
     guidetolerance="10"
     objecttolerance="10"
     inkscape:pageopacity="0.0"
     inkscape:pageshadow="2"
     inkscape:zoom="1"
     inkscape:cx="21.68436"
     inkscape:cy="15.679779"
     inkscape:document-units="px"
     inkscape:current-layer="layer1"
     width="16px"
     height="16px"
     showgrid="false"
     inkscape:window-width="1274"
     inkscape:window-height="972"
     inkscape:window-x="413"
     inkscape:window-y="156"
     inkscape:showpageshadow="false"
     borderlayer="true" />
  <metadata
     id="metadata7">
    <rdf:RDF>
      <cc:Work
         rdf:about="">
        <dc:format>image/svg+xml</dc:format>
        <dc:type
           rdf:resource="http://purl.org/dc/dcmitype/StillImage" />
      </cc:Work>
    </rdf:RDF>
  </metadata>
  <g
     inkscape:label="Layer 1"
     inkscape:groupmode="layer"
     id="layer1">
    <path
       style="fill:url(#radialGradient5441);fill-opacity:1;stroke:#886f00;stroke-width:1.00000012;stroke-miterlimit:4;stroke-opacity:1"
       d="M 3.5864921,7.6349531 L 11.22134,7.6349531 C 12.345027,7.6349531 12.68964,8.8041835 12.68964,10.224175 L 12.68964,12.962897 C 12.68964,13.540206 12.984367,14.635217 13.728274,15.5 L 3.5864921,15.5 C 2.4628051,15.5 1.5581762,14.356829 1.5581762,12.936837 L 1.5581762,10.198115 C 1.5581762,8.7781232 2.4628051,7.6349531 3.5864921,7.6349531 z"
       id="rect5315"
       sodipodi:nodetypes="ccccccccc" />
    <path
       sodipodi:nodetypes="cssccsscccssccsscccssccsscccssccsscccssccsscc"
       id="path5161"
       d="M 3.6013022,12.945498 C 3.5718766,13.076382 3.5569982,13.222989 3.5569982,13.357374 C 3.5569978,13.943205 3.7759037,14.431104 4.1981533,14.782795 C 4.620403,15.134488 5.2362903,15.237045 5.8608062,15.237045 L 5.8608062,14.825169 C 5.2890142,14.825168 4.7155024,14.739456 4.3532172,14.437709 C 3.9909321,14.135962 3.8671257,13.767947 3.8671261,13.357374 C 3.8671261,13.256922 3.8668088,13.156759 3.8892781,13.056816 L 3.6013022,12.945498 z M 5.5012591,12.531981 C 5.4718337,12.662865 5.4569551,12.809471 5.4569551,12.943858 C 5.4569547,13.529688 5.9591285,14.328763 6.3813781,14.680455 C 6.8036278,15.032147 7.3628827,15.237045 7.9873981,15.237045 L 8.1505672,15.009381 C 7.5787756,15.00938 6.8987273,14.637116 6.5364423,14.335369 C 6.1741566,14.033621 5.7670831,13.35443 5.7670831,12.943858 C 5.7670831,12.843406 5.7667658,12.743241 5.7892351,12.643298 L 5.5012591,12.531981 z M 7.5454382,13.028201 C 7.516013,13.159085 7.5011346,13.305692 7.5011346,13.440078 C 7.5011346,14.025908 8.2488896,14.512976 8.6711393,14.864667 C 9.0933896,15.216359 9.4894744,15.237045 10.113992,15.237045 L 10.113992,14.825169 C 9.5421984,14.825168 9.1884885,14.821329 8.8262035,14.519581 C 8.4639184,14.217834 7.8112622,13.850651 7.8112622,13.440078 C 7.8112629,13.339626 7.810945,13.239462 7.8334141,13.139519 L 7.5454382,13.028201 z M 9.5484104,12.862794 C 9.5189854,12.993678 9.5041074,13.140285 9.5041074,13.274671 C 9.5041074,13.860502 9.783994,14.369699 10.206245,14.721391 C 10.628495,15.073083 11.616068,15.237045 12.240584,15.237045 L 12.240584,14.825169 C 11.668792,14.825168 10.723594,14.678052 10.361309,14.376305 C 9.9990238,14.074557 9.814235,13.685244 9.814235,13.274671 C 9.814236,13.174219 9.813918,13.074055 9.8363872,12.974112 L 9.5484104,12.862794 z M 11.465875,10.877913 C 11.43645,11.008797 11.433786,11.155965 11.421571,11.289791 C 11.256745,13.095495 12.305679,14.328763 12.727928,14.680455 C 13.150179,15.032147 13.709432,15.237045 14.333948,15.237045 L 14.333948,14.825169 C 13.762156,14.825168 13.245277,14.637116 12.882992,14.335369 C 12.520707,14.033621 11.525667,12.527396 11.731699,11.289791 C 11.748193,11.190711 11.731382,11.089174 11.753851,10.989231 L 11.465875,10.877913 z"
       style="opacity:1;fill:url(#linearGradient5171);fill-opacity:1;stroke:none;stroke-width:0.43938527;stroke-miterlimit:4;stroke-dasharray:none;stroke-opacity:1" />
    <path
       style="opacity:0.70305649;fill:none;fill-opacity:1;stroke:#ffffff;stroke-width:0.99999982;stroke-miterlimit:4;stroke-opacity:1"
       d="M 4.31137,9.7165778 L 9.9174406,9.7165778 C 10.878148,9.7165778 11.681367,9.4017964 11.681367,11.305808 L 11.719041,12.889173 C 11.719041,13.382563 11.938332,13.995114 12.167542,14.464119 L 5.0968492,14.464119 C 3.6463897,14.664567 2.5772425,14.013664 2.5772425,12.800085 L 2.5772425,11.907153 C 2.445386,9.1568039 3.3506633,9.7165778 4.31137,9.7165778 z"
       id="path4234"
       sodipodi:nodetypes="ccccccccc" />
    <path
       style="fill:url(#linearGradient5225);fill-opacity:1;stroke:#508303;stroke-width:0.99999994;stroke-miterlimit:4;stroke-dasharray:none;stroke-opacity:1"
       d="M 7.142424,0.50005627 C 6.005677,0.49263108 4.4951817,1.2197235 4.4951817,2.6696686 C 4.4951816,4.9762895 5.2992571,6.4873292 5.2992571,6.4873292 L 2.8173693,6.4873292 C 2.1370268,6.4873292 1.5946746,7.3538455 1.5946746,7.929955 L 1.5946746,7.9708911 C 1.5946747,8.5470006 1.5581762,8.2898965 1.5581762,9.0147611 L 12.653676,9.0147611 C 12.653677,8.3164453 12.653677,8.5470006 12.653676,7.9708911 L 12.653676,7.929955 C 12.653677,7.3538455 12.111323,6.4873292 11.430981,6.4873292 L 8.9490923,6.5077973 C 8.9490923,6.5077973 9.5647261,4.4463097 9.5647261,2.6696686 C 9.5647261,1.2494244 8.2791703,0.50748147 7.142424,0.50005627 z"
       id="rect5303"
       sodipodi:nodetypes="csccccccccccsc" />
    <rect
       style="opacity:1;fill:#d3d7cf;fill-opacity:1;stroke:#888a85;stroke-width:1.00000036;stroke-miterlimit:4;stroke-dasharray:none;stroke-opacity:1"
       id="rect5313"
       width="11.095499"
       height="1.3099546"
       x="1.558176"
       y="9.014761" />
    <path
       style="opacity:1;fill:url(#linearGradient5159);fill-opacity:1;stroke:none;stroke-width:0.43938527;stroke-miterlimit:4;stroke-dasharray:none;stroke-opacity:1"
       d="M 3.2341717,12.945498 C 3.2047461,13.076382 3.1898677,13.222989 3.1898677,13.357375 C 3.1898674,13.943205 3.4087732,14.431103 3.8310228,14.782795 C 4.2532725,15.134487 4.8691598,15.237045 5.4936757,15.237045 L 5.4936757,14.825168 C 4.9218837,14.825168 4.3483719,14.739456 3.9860868,14.437709 C 3.6238016,14.135961 3.4999952,13.767947 3.4999956,13.357375 C 3.4999956,13.256923 3.4996784,13.156759 3.5221477,13.056816 L 3.2341717,12.945498 z M 5.1341286,12.531981 C 5.1047033,12.662865 5.0898246,12.809472 5.0898246,12.943858 C 5.0898242,13.529688 5.591998,14.328763 6.0142478,14.680455 C 6.4364975,15.032147 6.9957519,15.237045 7.6202678,15.237045 L 7.783437,15.009381 C 7.2116449,15.00938 6.5315969,14.637116 6.1693118,14.335369 C 5.8070263,14.033621 5.3999526,13.35443 5.3999526,12.943858 C 5.3999526,12.843406 5.3996354,12.743242 5.4221046,12.643299 L 5.1341286,12.531981 z M 7.1783078,13.028201 C 7.1488825,13.159085 7.1340038,13.305692 7.1340038,13.440078 C 7.1340038,14.025908 7.8817593,14.512975 8.304009,14.864667 C 8.7262591,15.216359 9.122344,15.237045 9.7468608,15.237045 L 9.7468608,14.825168 C 9.1750682,14.825168 8.8213582,14.821328 8.459073,14.519581 C 8.0967879,14.217834 7.4441318,13.850651 7.4441318,13.440078 C 7.4441321,13.339626 7.4438146,13.239462 7.4662838,13.139519 L 7.1783078,13.028201 z M 9.1812804,12.862794 C 9.1518551,12.993678 9.1369764,13.140285 9.1369764,13.274671 C 9.1369764,13.860501 9.4168634,14.369699 9.8391132,14.721391 C 10.261365,15.073083 11.248938,15.237045 11.873454,15.237045 L 11.873454,14.825168 C 11.301662,14.825168 10.356464,14.678052 9.9941788,14.376305 C 9.6318914,14.074557 9.4471044,13.685244 9.4471044,13.274671 C 9.4471044,13.174219 9.4467874,13.074055 9.4692564,12.974112 L 9.1812804,12.862794 z M 11.098745,10.877913 C 11.069319,11.008797 11.066656,11.155965 11.054441,11.28979 C 10.889615,13.095495 11.938548,14.328763 12.360798,14.680455 C 12.783048,15.032147 13.342302,15.237045 13.966818,15.237045 L 13.966818,14.825168 C 13.395025,14.825168 12.878147,14.637116 12.515862,14.335369 C 12.153577,14.033621 11.158537,12.527396 11.364569,11.28979 C 11.381063,11.190712 11.364251,11.089175 11.386721,10.989232 L 11.098745,10.877913 z"
       id="path5349"
       sodipodi:nodetypes="cssccsscccssccsscccssccsscccssccsscccssccsscc" />
    <rect
       style="opacity:1;fill:url(#linearGradient5444);fill-opacity:1;stroke:none;stroke-width:1;stroke-miterlimit:4;stroke-dasharray:none;stroke-opacity:1"
       id="rect5192"
       width="3.9160609"
       height="0.6549744"
       x="-12.327336"
       y="9.342248"
       transform="scale(-1,1)" />
    <path
       style="opacity:0.29310345;fill:none;fill-opacity:1;stroke:#eeeeec;stroke-width:1;stroke-miterlimit:4;stroke-opacity:1"
       d="M 7.1374822,1.5340064 C 6.7682246,1.5315597 6.324343,1.6586088 6.0210823,1.8849832 C 5.7178217,2.1113576 5.5510192,2.3838125 5.5510192,2.787495 C 5.5510191,4.5536998 6.0798402,6.4454358 6.0798402,6.4454358 C 6.1313769,6.6046795 6.1116208,7.1574922 6.026876,7.2971347 C 5.9421312,7.4367772 5.8029875,7.5207993 5.6538455,7.5223894 L 3.6560773,7.5223894 C 3.4431501,7.5223894 3.2775337,7.5870942 3.2007037,7.6393816 C 3.1238737,7.691669 3.1272563,7.6713356 3.1272563,7.7229475 L 3.1272563,7.7563739 C 3.1272564,7.946894 3.1184786,8.0160138 3.1125669,8.0906375 L 11.11833,8.0906375 C 11.11833,8.0232853 11.11833,7.9408532 11.11833,7.7563739 L 11.11833,7.7229475 C 11.11833,7.6713362 11.121713,7.691669 11.044883,7.6393816 C 10.968053,7.5870942 10.802437,7.5223894 10.589509,7.5223894 L 8.5917399,7.5391025 C 8.4436573,7.5410386 8.3038695,7.4614838 8.2164194,7.3255033 C 8.1289698,7.1895232 7.9278481,6.6388611 7.974279,6.4788622 C 7.974279,6.4788622 8.5618579,4.073944 8.5618579,2.787495 C 8.5618579,2.4023823 8.3864807,2.1316869 8.0771053,1.9016964 C 7.76773,1.6717059 7.5071661,1.536456 7.1374822,1.5340064 z M 7.1081032,2.1022546 C 7.745387,2.1022547 8.0917948,2.6975153 8.0917948,3.4225959 C 8.0917948,4.1476765 7.745387,5.0081022 7.1081032,5.0081022 C 6.4708196,5.0081021 5.9476349,4.1476765 5.9476349,3.4225959 C 5.9476353,2.6975156 6.4708195,2.1022546 7.1081032,2.1022546 z"
       id="path5137"
       sodipodi:nodetypes="csscsccsccccccsccscssccsssc" />
    <path
       style="fill:none;fill-opacity:1;stroke:url(#linearGradient6114);stroke-width:1.00000012;stroke-miterlimit:4;stroke-opacity:1"
       d="M 3.3379279,7.6349531 L 10.239625,7.6349531 C 11.225607,7.6349531 11.527989,8.8041835 11.527989,10.224175 L 11.527989,12.962897 C 11.527989,13.540206 11.786598,14.635217 12.439341,15.5 L 3.3379279,15.5 C 2.3519455,15.5 1.5581763,14.356829 1.5581763,12.936837 L 1.5581763,10.198115 C 1.5581763,8.7781232 2.3519455,7.6349531 3.3379279,7.6349531 z"
       id="path6082"
       sodipodi:nodetypes="ccccccccc" />
    <rect
       style="opacity:0.60919542;color:#000000;fill:#ffffff;fill-opacity:1;fill-rule:evenodd;stroke:none;stroke-width:1;stroke-linecap:round;stroke-linejoin:round;marker:none;marker-start:none;marker-mid:none;marker-end:none;stroke-miterlimit:10;stroke-dasharray:none;stroke-dashoffset:0;stroke-opacity:1;visibility:visible;display:inline;overflow:visible;enable-background:accumulate"
       id="rect5217"
       width="9.6075163"
       height="1"
       x="2.0389299"
       y="7"
       rx="0.46403882"
       ry="0.46403882" />
    <path
       style="opacity:0.52298847;color:#000000;fill:#ffffff;fill-opacity:1;fill-rule:evenodd;stroke:none;stroke-width:1;stroke-linecap:round;stroke-linejoin:round;marker:none;marker-start:none;marker-mid:none;marker-end:none;stroke-miterlimit:10;stroke-dasharray:none;stroke-dashoffset:0;stroke-opacity:1;visibility:visible;display:inline;overflow:visible;filter:url(#filter5313);enable-background:accumulate"
       d="M 8.9375,11.03125 C 8.9375,10.78125 8,7.28125 8,7.28125 L 10.1875,7.625 L 9.8125,10.9375 L 8.9375,11.03125 z"
       id="path5227"
       transform="matrix(0.6526764,0,0,0.6549773,0.5791617,0.1725676)" />
    <path
       sodipodi:type="arc"
       style="opacity:0.52298847;color:#000000;fill:#ffffff;fill-opacity:1;fill-rule:evenodd;stroke:none;stroke-width:1;stroke-linecap:round;stroke-linejoin:round;marker:none;marker-start:none;marker-mid:none;marker-end:none;stroke-miterlimit:10;stroke-dasharray:none;stroke-dashoffset:0;stroke-opacity:1;visibility:visible;display:inline;overflow:visible;filter:url(#filter5431);enable-background:accumulate"
       id="path5317"
       sodipodi:cx="8.9714174"
       sodipodi:cy="2.4774373"
       sodipodi:rx="1.1490486"
       sodipodi:ry="1.1490486"
       d="M 10.120466,2.4774373 A 1.1490486,1.1490486 0 1 1 7.8223689,2.4774373 A 1.1490486,1.1490486 0 1 1 10.120466,2.4774373 z"
       transform="matrix(0.6526764,0,0,0.6549773,0.5791617,0.1725676)" />
    <path
       transform="matrix(1.7606667,0,0,2.5637778,-5.5206556,-5.1991883)"
       d="M 7.8002716,3.4378061 A 0.629767,0.629767 0 1 1 6.5407376,3.4378061 A 0.629767,0.629767 0 1 1 7.8002716,3.4378061 z"
       sodipodi:ry="0.629767"
       sodipodi:rx="0.629767"
       sodipodi:cy="3.4378061"
       sodipodi:cx="7.1705046"
       id="path5448"
       style="opacity:1;color:#000000;fill:#ffffff;fill-opacity:1;fill-rule:evenodd;stroke:none;stroke-width:1;stroke-linecap:round;stroke-linejoin:round;marker:none;marker-start:none;marker-mid:none;marker-end:none;stroke-miterlimit:10;stroke-dasharray:none;stroke-dashoffset:0;stroke-opacity:1;visibility:visible;display:inline;overflow:visible;filter:url(#filter5518);enable-background:accumulate"
       sodipodi:type="arc" />
    <path
       sodipodi:type="arc"
       style="opacity:1;color:#000000;fill:#508303;fill-opacity:1;fill-rule:evenodd;stroke:none;stroke-width:1;stroke-linecap:round;stroke-linejoin:round;marker:none;marker-start:none;marker-mid:none;marker-end:none;stroke-miterlimit:10;stroke-dasharray:none;stroke-dashoffset:0;stroke-opacity:1;visibility:visible;display:inline;overflow:visible;enable-background:accumulate"
       id="path5446"
       sodipodi:cx="7.1705046"
       sodipodi:cy="3.4378061"
       sodipodi:rx="0.629767"
       sodipodi:ry="0.629767"
       d="M 7.8002716,3.4378061 A 0.629767,0.629767 0 1 1 6.5407376,3.4378061 A 0.629767,0.629767 0 1 1 7.8002716,3.4378061 z"
       transform="matrix(1.753368,0,0,1.753368,-5.46832,-2.9434866)" />
  </g>
</svg>
