<?xml version="1.0" encoding="UTF-8" standalone="no"?>
<!-- Created with Inkscape (http://www.inkscape.org/) -->
<svg
   xmlns:dc="http://purl.org/dc/elements/1.1/"
   xmlns:cc="http://web.resource.org/cc/"
   xmlns:rdf="http://www.w3.org/1999/02/22-rdf-syntax-ns#"
   xmlns:svg="http://www.w3.org/2000/svg"
   xmlns="http://www.w3.org/2000/svg"
   xmlns:xlink="http://www.w3.org/1999/xlink"
   xmlns:sodipodi="http://sodipodi.sourceforge.net/DTD/sodipodi-0.dtd"
   xmlns:inkscape="http://www.inkscape.org/namespaces/inkscape"
   width="16"
   height="16"
   id="svg4220"
   sodipodi:version="0.32"
   inkscape:version="0.44+devel"
   version="1.0"
   sodipodi:docbase="/home/lapo/Icone/svn/gnome-icon-theme-extras/temp/stock-icons/16"
   sodipodi:docname="gtk-directory.svg"
   inkscape:export-filename="/home/hbons/GUI/Tango/GTK-stock/gtk-directory.png"
   inkscape:export-xdpi="90"
   inkscape:export-ydpi="90"
   inkscape:output_extension="org.inkscape.output.svg.inkscape"
   sodipodi:modified="true">
  <defs
     id="defs4222">
    <linearGradient
       inkscape:collect="always"
       id="linearGradient3166">
      <stop
         style="stop-color:#ffffff;stop-opacity:1;"
         offset="0"
         id="stop3168" />
      <stop
         style="stop-color:#ffffff;stop-opacity:0;"
         offset="1"
         id="stop3170" />
    </linearGradient>
    <linearGradient
       inkscape:collect="always"
       id="linearGradient3158">
      <stop
         style="stop-color:#ffffff;stop-opacity:1;"
         offset="0"
         id="stop3160" />
      <stop
         style="stop-color:#ffffff;stop-opacity:0;"
         offset="1"
         id="stop3162" />
    </linearGradient>
    <linearGradient
       id="linearGradient6166">
      <stop
         style="stop-color:#eeeeec;stop-opacity:1;"
         offset="0"
         id="stop6168" />
      <stop
         style="stop-color:#eeeeec;stop-opacity:0;"
         offset="1"
         id="stop6170" />
    </linearGradient>
    <linearGradient
       inkscape:collect="always"
       xlink:href="#linearGradient6166"
       id="linearGradient6172"
       x1="12.789749"
       y1="11.484631"
       x2="12.467748"
       y2="16.434399"
       gradientUnits="userSpaceOnUse"
       gradientTransform="matrix(0.7763942,0,0,0.775086,-1.6851282,-2.025951)" />
    <linearGradient
       inkscape:collect="always"
       xlink:href="#linearGradient3158"
       id="linearGradient3164"
       x1="4.0994225"
       y1="5.934823"
       x2="15.924249"
       y2="25.913677"
       gradientUnits="userSpaceOnUse" />
    <linearGradient
       inkscape:collect="always"
       xlink:href="#linearGradient3166"
       id="linearGradient3172"
       x1="10.125"
       y1="7.3125"
       x2="10.125"
       y2="25.3125"
       gradientUnits="userSpaceOnUse" />
  </defs>
  <sodipodi:namedview
     id="base"
     pagecolor="#ffffff"
     bordercolor="#666666"
     borderopacity="1.0"
     inkscape:pageopacity="0.0"
     inkscape:pageshadow="2"
     inkscape:zoom="1"
     inkscape:cx="5.5612445"
     inkscape:cy="6.0472426"
     inkscape:current-layer="layer1"
     showgrid="false"
     inkscape:grid-bbox="true"
     inkscape:document-units="px"
     width="16px"
     height="16px"
     inkscape:window-width="1274"
     inkscape:window-height="966"
     inkscape:window-x="350"
     inkscape:window-y="0"
     showguides="true"
     inkscape:guide-bbox="true"
     inkscape:showpageshadow="false"
     showborder="false" />
  <metadata
     id="metadata4225">
    <rdf:RDF>
      <cc:Work
         rdf:about="">
        <dc:format>image/svg+xml</dc:format>
        <dc:type
           rdf:resource="http://purl.org/dc/dcmitype/StillImage" />
      </cc:Work>
    </rdf:RDF>
  </metadata>
  <g
     id="layer1"
     inkscape:label="Layer 1"
     inkscape:groupmode="layer">
    <path
       style="fill:#ced3ae;fill-opacity:1;stroke:#777b61;stroke-width:1.31748343;stroke-miterlimit:4;stroke-opacity:1"
       d="M 4.012827,3.4879724 C 2.7424273,3.4879724 2.5,4.6029715 2.5,5.9879724 L 2.5,6.5 L 2.5,19.46875 C 2.5,20.032944 3.0159561,20.5 3.65625,20.5 L 18.056694,20.5 C 18.696988,20.5 19.212944,20.032944 19.212944,19.46875 L 19.253164,7.1627875 C 19.253164,6.5985927 18.737207,6.1315377 18.096914,6.1315375 L 10.54022,6.1315375 C 10.54022,5.472809 10.54022,6.07272 10.54022,5.6195099 C 10.54022,4.2345089 10.220981,3.4879724 8.9505814,3.4879724 L 4.012827,3.4879724 z "
       id="path6119"
       sodipodi:nodetypes="ccccccccccccc"
       transform="matrix(0.776967,0,0,0.763307,-1.435116,-1.155092)" />
    <path
       sodipodi:type="inkscape:offset"
       inkscape:radius="-1.389559"
       inkscape:original="M 4 3.5 C 2.7296004 3.4999999 2.5 4.6149991 2.5 6 L 2.5 6.5 L 2.5 19.46875 C 2.5 20.032944 3.0159561 20.5 3.65625 20.5 L 18.0625 20.5 C 18.702794 20.5 19.21875 20.032944 19.21875 19.46875 L 19.25 7.15625 C 19.25 6.5920553 18.734043 6.1250002 18.09375 6.125 L 10.53125 6.125 C 10.53125 5.4662716 10.53125 6.0782101 10.53125 5.625 C 10.53125 4.2399992 10.2079 3.5 8.9375 3.5 L 4 3.5 z "
       style="fill:none;fill-opacity:1.0;stroke:url(#linearGradient3164);stroke-width:1.31799916;stroke-miterlimit:4;stroke-opacity:1;stroke-dasharray:none;stroke-linejoin:round;opacity:0.71264368"
       id="path3155"
       d="M 9.0625,4.8125 C 9.0957614,4.8622073 9.3028972,4.875 8.9375,4.875 L 4.03125,4.875 C 3.9875015,4.9802667 3.875,5.4006274 3.875,6 L 3.875,6.5 L 3.875,19.125 L 17.84375,19.125 L 17.875,7.5 L 10.53125,7.5 C 9.7751781,7.4920449 9.1642051,6.8810719 9.15625,6.125 C 9.15625,5.9603179 9.15625,5.8860959 9.15625,5.84375 C 9.15625,5.8331635 9.15625,5.8182918 9.15625,5.8125 C 9.15625,5.8067082 9.15625,5.7833876 9.15625,5.78125 C 9.15625,5.758171 9.15625,5.7194188 9.15625,5.625 C 9.15625,5.0406377 9.0292386,4.7627927 9.0625,4.8125 z "
       transform="matrix(0.776967,0,0,0.763307,-1.435116,-1.155092)" />
    <path
       style="fill:#ced3ae;fill-opacity:1;stroke:#777b61;stroke-width:1.00000012;stroke-linecap:round;stroke-miterlimit:4;stroke-opacity:1"
       d="M 2.5,10.000003 L 2.6736191,8.1691415 L 2.8472382,6.338281 C 2.8472382,5.8738743 3.2179951,5.500001 3.6785318,5.500001 L 14.668702,5.500001 C 15.129238,5.500001 15.499995,5.8738743 15.499995,6.338281 L 14.805519,13.661724 C 14.805519,14.126131 14.434762,14.500004 13.974226,14.500004 L 2.9840554,14.500004"
       id="rect6106"
       sodipodi:nodetypes="ccccccccc" />
    <path
       style="opacity:0.7;fill:url(#linearGradient6172);fill-opacity:1.0;stroke:url(#linearGradient3172);stroke-width:0.99999976;stroke-miterlimit:4;stroke-opacity:1"
       d="M 3.8224182,6.499995 C 3.8063868,6.499995 3.7981558,6.5082125 3.7981558,6.5242164 C 3.802646,6.5725555 3.802646,6.621206 3.7981558,6.6695451 L 3.0312482,13.49999 L 13.708825,13.49999 C 13.724856,13.49999 13.733087,13.491774 13.733087,13.475769 C 13.728597,13.42743 13.728597,13.378779 13.733087,13.33044 L 14.499994,6.499995 L 3.8224182,6.499995 z "
       id="path6117"
       sodipodi:nodetypes="cscccsccc" />
    <path
       style="fill:none;fill-rule:evenodd;stroke:#e6e6e3;stroke-width:1px;stroke-linecap:round;stroke-linejoin:miter;stroke-opacity:1"
       d="M 1.4642857,13.5 L 13.785714,13.5"
       id="path3174"
       sodipodi:nodetypes="cc" />
  </g>
</svg>
