<?xml version="1.0" encoding="UTF-8" standalone="no"?>
<!-- Created with Inkscape (http://www.inkscape.org/) -->
<svg
   xmlns:dc="http://purl.org/dc/elements/1.1/"
   xmlns:cc="http://web.resource.org/cc/"
   xmlns:rdf="http://www.w3.org/1999/02/22-rdf-syntax-ns#"
   xmlns:svg="http://www.w3.org/2000/svg"
   xmlns="http://www.w3.org/2000/svg"
   xmlns:xlink="http://www.w3.org/1999/xlink"
   xmlns:sodipodi="http://sodipodi.sourceforge.net/DTD/sodipodi-0.dtd"
   xmlns:inkscape="http://www.inkscape.org/namespaces/inkscape"
   width="16"
   height="16"
   id="svg2"
   sodipodi:version="0.32"
   inkscape:version="0.45+devel"
   version="1.0"
   sodipodi:docbase="/home/jimmac/src/cvs/gnome/gnome-icon-theme-extras/temp/stock-icons/24"
   sodipodi:docname="gtk-execute.svg"
   inkscape:output_extension="org.inkscape.output.svg.inkscape">
  <defs
     id="defs4">
    <linearGradient
       id="linearGradient5130">
      <stop
         style="stop-color:#eef0ed;stop-opacity:1;"
         offset="0"
         id="stop5132" />
      <stop
         style="stop-color:#a5ad9d;stop-opacity:1;"
         offset="1"
         id="stop5134" />
    </linearGradient>
    <linearGradient
       inkscape:collect="always"
       id="linearGradient5367">
      <stop
         style="stop-color:#000000;stop-opacity:1;"
         offset="0"
         id="stop5369" />
      <stop
         style="stop-color:#000000;stop-opacity:0;"
         offset="1"
         id="stop5371" />
    </linearGradient>
    <linearGradient
       inkscape:collect="always"
       id="linearGradient5139">
      <stop
         style="stop-color:#ffffff;stop-opacity:1;"
         offset="0"
         id="stop5141" />
      <stop
         style="stop-color:#ffffff;stop-opacity:0;"
         offset="1"
         id="stop5143" />
    </linearGradient>
    <linearGradient
       inkscape:collect="always"
       xlink:href="#linearGradient5139"
       id="linearGradient5145"
       x1="8.53125"
       y1="20.53125"
       x2="8.53125"
       y2="5.03125"
       gradientUnits="userSpaceOnUse" />
    <filter
       inkscape:collect="always"
       x="-0.13490567"
       width="1.2698113"
       y="-0.3864865"
       height="1.7729729"
       id="filter5363">
      <feGaussianBlur
         inkscape:collect="always"
         stdDeviation="0.74479167"
         id="feGaussianBlur5365" />
    </filter>
    <radialGradient
       inkscape:collect="always"
       xlink:href="#linearGradient5367"
       id="radialGradient5373"
       cx="8.75"
       cy="21.0625"
       fx="8.75"
       fy="21.0625"
       r="6.625"
       gradientTransform="matrix(1,0,0,0.3490566,0,13.710495)"
       gradientUnits="userSpaceOnUse" />
    <radialGradient
       inkscape:collect="always"
       xlink:href="#linearGradient5130"
       id="radialGradient5136"
       cx="8.5533476"
       cy="10.605124"
       fx="8.5533476"
       fy="10.605124"
       r="8.4733343"
       gradientUnits="userSpaceOnUse"
       gradientTransform="matrix(1.6785995,0,0,1.6785995,-5.804297,-7.1966321)" />
  </defs>
  <sodipodi:namedview
     id="base"
     pagecolor="#ffffff"
     bordercolor="#dedede"
     borderopacity="1"
     gridtolerance="10000"
     guidetolerance="10"
     objecttolerance="10"
     inkscape:pageopacity="0.0"
     inkscape:pageshadow="2"
     inkscape:zoom="1"
     inkscape:cx="39.045735"
     inkscape:cy="8.3809738"
     inkscape:document-units="px"
     inkscape:current-layer="layer1"
     width="16px"
     height="16px"
     borderlayer="true"
     inkscape:showpageshadow="false"
     showgrid="false"
     inkscape:window-width="872"
     inkscape:window-height="775"
     inkscape:window-x="553"
     inkscape:window-y="160" />
  <metadata
     id="metadata7">
    <rdf:RDF>
      <cc:Work
         rdf:about="">
        <dc:format>image/svg+xml</dc:format>
        <dc:type
           rdf:resource="http://purl.org/dc/dcmitype/StillImage" />
        <dc:title>Execute</dc:title>
        <dc:creator>
          <cc:Agent>
            <dc:title>Jakub Steiner</dc:title>
          </cc:Agent>
        </dc:creator>
        <cc:license
           rdf:resource="http://creativecommons.org/licenses/LGPL/2.1/" />
      </cc:Work>
      <cc:License
         rdf:about="http://creativecommons.org/licenses/LGPL/2.1/">
        <cc:permits
           rdf:resource="http://web.resource.org/cc/Reproduction" />
        <cc:permits
           rdf:resource="http://web.resource.org/cc/Distribution" />
        <cc:requires
           rdf:resource="http://web.resource.org/cc/Notice" />
        <cc:permits
           rdf:resource="http://web.resource.org/cc/DerivativeWorks" />
        <cc:requires
           rdf:resource="http://web.resource.org/cc/ShareAlike" />
        <cc:requires
           rdf:resource="http://web.resource.org/cc/SourceCode" />
      </cc:License>
    </rdf:RDF>
  </metadata>
  <g
     inkscape:label="Layer 1"
     inkscape:groupmode="layer"
     id="layer1">
    <path
       sodipodi:nodetypes="cccccccccsccccccccsccccccccsccccccccccsssc"
       style="opacity:1;color:#000000;fill:#d3d7cf;fill-opacity:1;fill-rule:evenodd;stroke:#888a85;stroke-width:1;stroke-linecap:round;stroke-linejoin:round;marker:none;marker-start:none;marker-mid:none;marker-end:none;stroke-miterlimit:10;stroke-dasharray:none;stroke-dashoffset:0;stroke-opacity:1;visibility:visible;display:inline;overflow:visible;enable-background:accumulate"
       d="M 5.3475992,5.4955442 C 5.0573142,5.4955442 4.7737152,5.5264836 4.4969432,5.5740663 L 4.1697692,6.8696801 C 3.9865172,6.9289848 3.8162482,7.0070182 3.6462882,7.0921593 L 2.4946322,6.3985479 C 2.0221722,6.7293118 1.5978352,7.1451562 1.2644532,7.6156401 L 1.9580652,8.7672969 C 1.8699062,8.9399928 1.7969352,9.1172244 1.7355842,9.3038639 L 0.42688417,9.6310391 C 0.37787017,9.9117894 0.34836217,10.20007 0.34836217,10.494782 C 0.34836217,10.785067 0.37930117,11.068667 0.42688417,11.345437 L 1.7224982,11.672613 C 1.7818032,11.855865 1.8598352,12.026134 1.9449782,12.196093 L 1.2513652,13.34775 C 1.5821302,13.820208 1.9979742,14.244546 2.4684572,14.577929 L 3.6201152,13.884318 C 3.7928102,13.972476 3.9700422,14.045448 4.1566812,14.106797 L 4.4838562,15.415496 C 4.7646072,15.46451 5.0528882,15.494019 5.3475992,15.494019 C 5.6378842,15.494019 5.9214842,15.46308 6.1982552,15.415496 L 6.5254312,14.119884 C 6.7086832,14.06058 6.8789522,13.982546 7.0489112,13.897404 L 8.2005672,14.591015 C 8.6730272,14.260252 9.0973652,13.844408 9.4307462,13.373924 L 8.7371342,12.222267 C 8.8252932,12.049571 8.8982642,11.872339 8.9596142,11.6857 L 10.268315,11.358525 C 10.317329,11.077774 10.346837,10.789493 10.346837,10.494782 C 10.346837,10.204497 10.315897,9.9208968 10.268315,9.6441264 L 8.9727022,9.3169512 C 8.9133972,9.1336994 8.8353632,8.9634295 8.7502222,8.7934709 L 9.4438332,7.641814 C 9.1130702,7.1693559 8.6972242,6.745017 8.2267412,6.4116349 L 7.0750842,7.1052465 C 6.9023882,7.0170878 6.7251572,6.9441164 6.5385172,6.8827673 L 6.2113422,5.5740663 C 5.9305912,5.5250529 5.6423112,5.4955442 5.3475992,5.4955442 z M 5.3475992,9.489567 C 5.9024782,9.489567 6.3528142,9.9399032 6.3528142,10.494782 C 6.3528142,11.049661 5.9024782,11.499997 5.3475992,11.499997 C 4.7927212,11.499997 4.3423852,11.049661 4.3423852,10.494782 C 4.3423852,9.9399032 4.7927212,9.489567 5.3475992,9.489567 z"
       id="path4557" />
    <path
       id="path5135"
       d="M 10.385735,0.54579671 C 10.09545,0.54579671 9.811851,0.57673617 9.535079,0.62431882 L 9.207905,1.9199326 C 9.024653,1.9792373 8.854384,2.0572707 8.684424,2.1424118 L 7.532768,1.4488004 C 7.060308,1.7795643 6.635971,2.1954087 6.302589,2.6658926 L 6.996201,3.8175494 C 6.908042,3.9902453 6.835071,4.1674769 6.77372,4.3541164 L 5.46502,4.6812916 C 5.416006,4.9620419 5.386498,5.2503229 5.386498,5.5450345 C 5.386498,5.8353193 5.417437,6.1189196 5.46502,6.3956898 L 6.760634,6.7228651 C 6.819939,6.9061176 6.897971,7.0763868 6.983114,7.2463456 L 6.289501,8.3980027 C 6.620266,8.8704604 7.03611,9.294799 7.506593,9.6281811 L 8.658251,8.9345701 C 8.830946,9.0227281 9.008178,9.0957001 9.194817,9.1570491 L 9.521992,10.465749 C 9.802743,10.514763 10.091024,10.544272 10.385735,10.544272 C 10.67602,10.544272 10.95962,10.513333 11.236391,10.465749 L 11.563567,9.1701361 C 11.746819,9.1108321 11.917088,9.0327981 12.087047,8.9476569 L 13.238703,9.641268 C 13.711163,9.3105043 14.135501,8.8946606 14.468882,8.4241765 L 13.77527,7.2725195 C 13.863429,7.0998236 13.9364,6.9225911 13.99775,6.7359523 L 15.306451,6.4087772 C 15.355465,6.128027 15.384973,5.8397458 15.384973,5.5450345 C 15.384973,5.2547496 15.354033,4.9711493 15.306451,4.6943789 L 14.010838,4.3672037 C 13.951533,4.1839519 13.873499,4.013682 13.788358,3.8437234 L 14.481969,2.6920665 C 14.151206,2.2196084 13.73536,1.7952695 13.264877,1.4618874 L 12.11322,2.155499 C 11.940524,2.0673403 11.763293,1.9943689 11.576653,1.9330198 L 11.249478,0.62431882 C 10.968727,0.57530545 10.680447,0.54579671 10.385735,0.54579671 z M 10.385735,4.5398195 C 10.940614,4.5398195 11.39095,4.9901557 11.39095,5.5450345 C 11.39095,6.0999131 10.940614,6.5502492 10.385735,6.5502492 C 9.830857,6.5502492 9.380521,6.0999131 9.380521,5.5450345 C 9.380521,4.9901557 9.830857,4.5398195 10.385735,4.5398195 z"
       style="opacity:1;color:#000000;fill:#d3d7cf;fill-opacity:1;fill-rule:evenodd;stroke:#555753;stroke-width:1;stroke-linecap:round;stroke-linejoin:round;marker:none;marker-start:none;marker-mid:none;marker-end:none;stroke-miterlimit:10;stroke-dasharray:none;stroke-dashoffset:0;stroke-opacity:1;visibility:visible;display:inline;overflow:visible;enable-background:accumulate"
       sodipodi:nodetypes="cccccccccsccccccccsccccccccsccccccccccsssc" />
  </g>
</svg>
