<?xml version="1.0" encoding="UTF-8" standalone="no"?>
<!-- Created with Inkscape (http://www.inkscape.org/) -->
<svg
   xmlns:dc="http://purl.org/dc/elements/1.1/"
   xmlns:cc="http://web.resource.org/cc/"
   xmlns:rdf="http://www.w3.org/1999/02/22-rdf-syntax-ns#"
   xmlns:svg="http://www.w3.org/2000/svg"
   xmlns="http://www.w3.org/2000/svg"
   xmlns:sodipodi="http://sodipodi.sourceforge.net/DTD/sodipodi-0.dtd"
   xmlns:inkscape="http://www.inkscape.org/namespaces/inkscape"
   width="16"
   height="16"
   id="svg2"
   sodipodi:version="0.32"
   inkscape:version="0.45+devel"
   version="1.0"
   sodipodi:docbase="/home/jimmac/src/cvs/gnome/gnome-icon-theme-extras/temp/stock-icons/24"
   sodipodi:docname="gtk-spell-check.svg"
   inkscape:output_extension="org.inkscape.output.svg.inkscape">
  <defs
     id="defs4">
    <linearGradient
       id="linearGradient5139">
      <stop
         id="stop5143"
         offset="0"
         style="stop-color:#ffffff;stop-opacity:1;" />
      <stop
         id="stop5141"
         offset="1"
         style="stop-color:#d3d7cf;stop-opacity:1;" />
    </linearGradient>
  </defs>
  <sodipodi:namedview
     id="base"
     pagecolor="#ffffff"
     bordercolor="#dedede"
     borderopacity="1"
     gridtolerance="10000"
     guidetolerance="10"
     objecttolerance="10"
     inkscape:pageopacity="0.0"
     inkscape:pageshadow="2"
     inkscape:zoom="1"
     inkscape:cx="19.033177"
     inkscape:cy="6.6047633"
     inkscape:document-units="px"
     inkscape:current-layer="layer1"
     width="16px"
     height="16px"
     borderlayer="true"
     inkscape:showpageshadow="false"
     showgrid="false"
     inkscape:window-width="958"
     inkscape:window-height="927"
     inkscape:window-x="643"
     inkscape:window-y="231" />
  <metadata
     id="metadata7">
    <rdf:RDF>
      <cc:Work
         rdf:about="">
        <dc:format>image/svg+xml</dc:format>
        <dc:type
           rdf:resource="http://purl.org/dc/dcmitype/StillImage" />
      </cc:Work>
    </rdf:RDF>
  </metadata>
  <g
     inkscape:label="Layer 1"
     inkscape:groupmode="layer"
     id="layer1">
    <path
       style="font-size:8.79292583px;font-style:normal;font-variant:normal;font-weight:bold;font-stretch:normal;text-align:start;line-height:125%;writing-mode:lr-tb;text-anchor:start;fill:#2e3436;fill-opacity:1;stroke:none;stroke-width:1px;stroke-linecap:butt;stroke-linejoin:miter;stroke-opacity:1;font-family:'Bitstream Vera Sans'"
       d="M 5.5339904,6.6115035 L 2.8135256,6.6115035 L 2.3842163,7.9656835 L 0.63534595,7.9656835 L 3.1343777,1 L 5.2086191,1 L 7.7076508,7.9656835 L 5.9587806,7.9656835 L 5.5339904,6.6115035 M 3.2473538,5.3597281 L 5.0956431,5.3597281 L 4.173758,2.6754156 L 3.2473538,5.3597281 M 10.706542,3.7057578 C 10.980693,3.7057619 11.188569,3.6455081 11.33017,3.524996 C 11.471762,3.4044926 11.54256,3.2267437 11.542564,2.9917487 C 11.54256,2.7597762 11.471762,2.5835336 11.33017,2.4630205 C 11.188569,2.3395055 10.980693,2.2777452 10.706542,2.2777397 L 10.056485,2.2777397 L 10.056485,3.7057578 L 10.706542,3.7057578 M 10.765289,6.6566939 C 11.114758,6.656695 11.376862,6.5828841 11.551603,6.4352607 C 11.729347,6.2876401 11.818222,6.0647008 11.818226,5.7664421 C 11.818222,5.4742129 11.730854,5.2557927 11.556122,5.1111807 C 11.381381,4.9635614 11.117771,4.8897504 10.765289,4.8897474 L 10.056485,4.8897474 L 10.056485,6.6566939 L 10.765289,6.6566939 M 12.383107,4.2299669 C 12.756676,4.3384275 13.244769,4.5387716 13.449638,4.8309999 C 13.654495,5.1232342 13.823217,5.5259388 13.823224,5.9507266 C 13.823217,6.6014703 13.492806,7.1673199 13.052959,7.4866648 C 12.6131,7.8060108 11.789601,7.9656835 10.891823,7.9656835 L 8.0041524,7.9656835 L 8.0041524,1 L 10.616161,1 C 11.553105,1.0000068 12.230961,1.2353533 12.649731,1.5185402 C 13.071502,1.8017397 13.282391,2.25515 13.282397,2.8787726 C 13.282391,3.2071612 13.205568,3.4873416 13.051926,3.7193149 C 12.898272,3.9482837 12.675334,4.1185009 12.383107,4.2299669"
       id="text5145"
       sodipodi:nodetypes="ccccccccccccccssscccccssscccccsssccccsssc" />
    <path
       style="opacity:1;color:#000000;fill:#73d216;fill-opacity:1;fill-rule:evenodd;stroke:#4e9a06;stroke-width:0.99999994;stroke-linecap:round;stroke-linejoin:miter;marker:none;marker-start:none;marker-mid:none;marker-end:none;stroke-miterlimit:10;stroke-dasharray:none;stroke-dashoffset:0;stroke-opacity:1;visibility:visible;display:inline;overflow:visible;enable-background:accumulate"
       d="M 6.5747479,10.325218 L 10.569202,15.074525 L 15.538936,6.0714654 C 15.389657,5.4413778 14.599675,5.266954 14.29323,5.7977329 L 10.233532,10.90471 L 9.362555,9.9731852 C 8.3622265,8.8715584 6.8966397,9.9360539 6.5747479,10.325218 z"
       id="path4566"
       sodipodi:nodetypes="ccccccc" />
    <path
       style="opacity:0.52298847;color:#000000;fill:#ffffff;fill-opacity:1;fill-rule:evenodd;stroke:none;stroke-width:0.99999994;stroke-linecap:round;stroke-linejoin:miter;marker:none;marker-start:none;marker-mid:none;marker-end:none;stroke-miterlimit:10;stroke-dasharray:none;stroke-dashoffset:0;stroke-opacity:1;visibility:visible;display:inline;overflow:visible;enable-background:accumulate"
       d="M 7.2298329,10.315555 C 7.6515334,10.228519 8.4781634,9.7365644 8.9694506,10.207312 L 10.178739,11.640102 L 14.67641,6.1299102 L 10.267127,12.687954 L 8.7484797,10.724833 C 8.1953544,10.107417 7.7186771,10.452442 7.2298329,10.315555 z"
       id="path5150"
       sodipodi:nodetypes="ccccccc" />
  </g>
</svg>
