<?xml version="1.0" encoding="UTF-8"?>
<svg height="16px" viewBox="0 0 16 16" width="16px" xmlns="http://www.w3.org/2000/svg">
    <path d="m 6 0 c -1.644531 0 -3 1.355469 -3 3 v 6 c 0 1.644531 1.355469 3 3 3 h 1.03125 v 1.996094 h -5.5 c -0.277344 0 -0.5 0.222656 -0.5 0.5 v 1 c 0 0.273437 0.222656 0.5 0.5 0.5 h 13 c 0.277344 0 0.5 -0.226563 0.5 -0.5 v -1 c 0 -0.277344 -0.222656 -0.5 -0.5 -0.5 h -5.5 v -1.996094 h 0.96875 c 1.644531 0 3 -1.355469 3 -3 v -6 c 0 -1.644531 -1.355469 -3 -3 -3 z m 0 2 h 4 c 0.570312 0 1 0.429688 1 1 v 6 c 0 0.570312 -0.429688 1 -1 1 h -4 c -0.570312 0 -1 -0.429688 -1 -1 v -6 c 0 -0.570312 0.429688 -1 1 -1 z m 0 1 v 1 h 4 v -1 z m 3 2 v 1 h 1 v -1 z m 0 0" fill="#2e3436"/>
</svg>
