<?xml version="1.0" encoding="UTF-8"?>
<svg height="16px" viewBox="0 0 16 16" width="16px">
  <path d="M 6.99218798 12.2708378 C 6.70385027 12.4383917, 6.45736885 12.6778479, 6.28125 12.9726562 L 2.99609399 12.9726562 C 2.44140601 12.9726562, 1.99609399 13.421875, 1.99609399 13.9726562 C 1.99609399 14.5234385, 2.44140601 14.9726562, 2.99609399 14.9726562 L 6.24218798 14.9726562 C 6.59375 15.6132812, 7.265625 16.0078125, 7.99609423 16.0117188 C 8.72265625 16.0078125, 9.39453125 15.6132812, 9.74609375 14.9726562 L 13.0078115 14.9726562 C 13.5585938 14.9726562, 14.0078115 14.5234385, 14.0078115 13.9726562 C 14.0078115 13.421875, 13.5585938 12.9726562, 13.0078115 12.9726562 L 9.71484375 12.9726562 C 9.53670311 12.6776724, 9.28905678 12.4381056, 9 12.2705383 L 9 10.984375 L 11.9921885 10.984375 C 14.2109385 10.984375, 16 9.19921875, 16 6.98046923 L 16 4.00781202 C 16 1.78906202, 14.2109385 0, 11.9921885 0 L 4.00781202 0 C 1.78906202 0, -1.77635684e-15 1.78906202, -1.77635684e-15 4.00781202 L 0 6.98046923 C 0 9.19921875, 1.78906202 10.984375, 4.00781202 10.984375 L 6.99218798 10.984375 L 6.99218798 12.2708378 Z M 7.99609423 13 C 8.55078125 13, 9 13.4492188, 9 14.0078115 C 9 14.5625, 8.55078125 15.0117188, 7.99609423 15.0117188 C 7.4375 15.0117188, 6.98828077 14.5625, 6.98828077 14.0078115 C 6.98828077 13.4492188, 7.4375 13, 7.99609423 13 Z M 11.9921885 2 C 13.1054688 2, 14 2.89453101, 14 4.00781202 L 14 6.98046923 C 14 8.08984375, 13.1054688 8.984375, 11.9921885 8.984375 L 4.00781202 8.984375 C 2.89453101 8.984375, 2 8.08984375, 2 6.98046923 L 2 4.00781202 C 2 2.89453101, 2.89453101 2, 4.00781202 2 L 11.9921885 2 Z M 6 5 C 6 4.44921923, 5.55078077 4, 5 4 C 4.44921923 4, 4 4.44921923, 4 5 C 4 5.55078077, 4.44921923 6, 5 6 C 5.55078077 6, 6 5.55078077, 6 5 Z M 9 5 C 9 4.44921923, 8.55078125 4, 8 4 C 7.44921923 4, 7 4.44921923, 7 5 C 7 5.55078077, 7.44921923 6, 8 6 C 8.55078125 6, 9 5.55078077, 9 5 Z"/>
</svg>
