<?xml version="1.0" encoding="UTF-8"?>
<svg height="16px" viewBox="0 0 16 16" width="16px">
  <path d="M 10.9921875 12.272274 C 10.7038498 12.4393301, 10.4573689 12.6778488, 10.28125 12.9726562 L 9.02734375 12.9726562 L 6.99609423 12.9726562 L 5.74218798 12.9726562 C 5.56446171 12.6783581, 5.31848717 12.440155, 5.03124905 12.27314 L 5.03125 10 L 3.02343798 10 L 3.02343798 10.9830675 L 3.11328101 10.984375 L 4.93359423 10.984375 C 6.53487587 10.984375, 7.87357903 9.73449612, 8.01169491 8.16280079 C 8.14647102 9.70232582, 9.43088722 10.933362, 10.9921913 10.9828291 L 10.9921885 12.272274 Z M 3.02343798 10.9830675 L 3.02343798 12.2705383 C 2.73438025 12.4381056, 2.48673368 12.6776724, 2.30859399 12.9726562 L 0.996093988 12.9726562 C 0.445311993 12.9726562, -0.00390625 13.421875, -0.00390625 13.9726562 C -0.00390625 14.5234385, 0.445311993 14.9726562, 0.996093988 14.9726562 L 2.27734399 14.9726562 C 2.62890601 15.6132812, 3.296875 16.0078125, 4.02734423 16.0117188 C 4.75781202 16.0078125, 5.42968798 15.6132812, 5.78125 14.9726562 L 6.99524164 14.9726562 L 9.02734375 14.9726562 L 10.2421885 14.9726562 C 10.59375 15.6132812, 11.265625 16.0078125, 11.9960938 16.0117188 C 12.7265615 16.0078125, 13.3945312 15.6132812, 13.7460938 14.9726562 L 15.0273438 14.9726562 C 15.578125 14.9726562, 16.0273438 14.5234385, 16.0273438 13.9726562 C 16.0273438 13.421875, 15.578125 12.9726562, 15.0273438 12.9726562 L 13.7148438 12.9726562 C 13.5367041 12.6776724, 13.2890577 12.4381056, 13 12.2705383 L 13 10.9830608 C 14.6507988 10.9347401, 16 9.55973148, 16 7.89453077 L 16 5.08593798 C 16 3.390625, 14.6015615 1.99609399, 12.9101562 1.99609399 L 11.0898438 1.99609399 C 9.48486328 1.99609399, 8.14946556 3.24597287, 8.01171303 4.81766796 C 7.87357903 3.24597287, 6.53487587 1.99609399, 4.93359423 1.99609399 L 3.11328101 1.99609399 C 1.41796899 1.99609399, 0.0234375 3.390625, 0.0234375 5.08593798 L 0.0234375 7.89453077 C 0.0234375 9.55979824, 1.36897779 10.9348516, 3.02343488 10.9830675 Z M 11.9960938 13 C 12.5507812 13, 13 13.4492188, 13 14.0078115 C 13 14.5625, 12.5507812 15.0117188, 11.9960938 15.0117188 C 11.4414062 15.0117188, 10.9882812 14.5625, 10.9882812 14.0078115 C 10.9882812 13.4492188, 11.4414062 13, 11.9960938 13 Z M 11.0898438 3.99609399 L 12.9101562 3.99609399 C 13.53125 3.99609399, 14 4.46484423, 14 5.08593798 L 14 7 L 10 7 L 10 5.08593798 C 10 4.46484423, 10.46875 3.99609399, 11.0898438 3.99609399 Z M 13.9898548 8.0507803 C 13.9184713 8.59258461, 13.4779797 8.984375, 12.9101562 8.984375 L 11.0898438 8.984375 C 10.5220203 8.984375, 10.0815287 8.59258461, 10.0101452 8.05077934 L 13.9898548 8.05078125 Z M 3.02343798 14.0078115 C 3.01953101 13.4492188, 3.47265601 13, 4.02734423 13 C 4.58203077 13, 5.03515577 13.4492188, 5.03515577 14.0078115 C 5.03515577 14.5625, 4.58203077 15.0117188, 4.02734423 15.0117188 C 3.47265601 15.0117188, 3.01953101 14.5625, 3.02343798 14.0078115 Z M 3.11328101 3.99609399 L 4.93359423 3.99609399 C 5.55468798 3.99609399, 6.02343798 4.46484423, 6.02343798 5.08593798 L 6.02343798 7 L 2.02343798 7 L 2.02343798 5.08593798 C 2.02343798 4.46484423, 2.49218798 3.99609399, 3.11328101 3.99609399 Z M 6.01329279 8.0507803 C 5.94190931 8.59258461, 5.50141764 8.984375, 4.93359423 8.984375 L 3.11328101 8.984375 C 2.54545808 8.984375, 2.1049664 8.59258461, 2.03358293 8.05077934 L 6.01329279 8.05078125 Z"/>
</svg>
