<?xml version="1.0" encoding="UTF-8"?>
<svg height="16px" viewBox="0 0 16 16" width="16px">
  <path fill="#2e3436" d="M 4 3 L 1 3 C 0.449218988 3, 0 3.44921899, 0 4 C 0 4.55078077, 0.449218988 5, 1 5 L 2 5 L 2 13 C 2 14.6601562, 3.33984399 16, 5 16 L 11 16 C 12.6601562 16, 14 14.6601562, 14 13 L 14 5 L 15 5 C 15.5507812 5, 16 4.55078077, 16 4 C 16 3.44921899, 15.5507812 3, 15 3 L 11.9804688 3 L 11.9804688 2.5 C 11.9804688 1.11328101, 10.8632812 0, 9.48046875 0 L 6.5 0 C 5.11328077 0, 4 1.11328101, 4 2.5 L 4 3 Z M 4 5 L 12 5 L 12 13 C 12 13.546875, 11.546875 14, 11 14 L 5 14 C 4.453125 14, 4 13.546875, 4 13 L 4 5 Z M 9.98046875 3 L 6 3 L 6 2.5 C 6 2.23046899, 6.23046923 2, 6.5 2 L 9.48046875 2 C 9.75 2, 9.98046875 2.23046899, 9.98046875 2.5 L 9.98046875 3 Z M 7 12 L 7 7 C 7 6.72265577, 6.77734423 6.5, 6.5 6.5 C 6.22265577 6.5, 6 6.72265577, 6 7 L 6 12 C 6 12.2773438, 6.22265577 12.5, 6.5 12.5 C 6.77734423 12.5, 7 12.2773438, 7 12 Z M 10 12 L 10 7 C 10 6.72265577, 9.77734375 6.5, 9.5 6.5 C 9.22265625 6.5, 9 6.72265577, 9 7 L 9 12 C 9 12.2773438, 9.22265625 12.5, 9.5 12.5 C 9.77734375 12.5, 10 12.2773438, 10 12 Z"/>
</svg>
