/* XPM */
static char * DRings_xpm[] = {
"48 48 65 1",
" 	c None",
".	c #104010404103",
"X	c #1040208130C2",
"o	c #104014515144",
"O	c #000010402081",
"+	c #1040104030C2",
"@	c #208120815144",
"#	c #28A241035965",
"$	c #30C230C26185",
"%	c #208130C24103",
"&	c #104010402081",
"*	c #104000002081",
"=	c #000010401040",
"-	c #492441036185",
";	c #596559659E79",
":	c #30C220815144",
">	c #0820186128A2",
",	c #000000001040",
"<	c #2081104030C2",
"1	c #514459659658",
"2	c #514455556185",
"3	c #104000001040",
"4	c #000008200000",
"5	c #618569A6AEBA",
"6	c #618569A69658",
"7	c #410345148E38",
"8	c #104020814103",
"9	c #79E782079658",
"0	c #208120814103",
"q	c #596571C69E79",
"w	c #4103514471C6",
"e	c #2081208130C2",
"r	c #6185618571C6",
"t	c #28A228A25965",
"y	c #596561858617",
"u	c #96589E79BEFB",
"i	c #28A230C271C6",
"p	c #38E345145144",
"a	c #79E78207A699",
"s	c #30C2492469A6",
"d	c #410330C25965",
"f	c #410351446185",
"g	c #AEBAAAAAD75C",
"h	c #38E338E34103",
"j	c #EFBEEBADEFBE",
"k	c #208130C25144",
"l	c #9658A289DF7D",
"z	c #208110404103",
"x	c #28A228A26185",
"c	c #8E388A28BEFB",
"v	c #208118612081",
"b	c #38E3451479E7",
"n	c #4924618579E7",
"m	c #86178617B6DA",
"M	c #30C220814103",
"N	c #104030C25144",
"B	c #4103410371C6",
"V	c #86178A28D75C",
"C	c #DF7DDB6CE79D",
"Z	c #BEFBC30BD75C",
"A	c #410330C271C6",
"S	c #30C228A230C2",
"D	c #082008201861",
"F	c #186130C238E3",
"G	c #0000208130C2",
"                                .Xo             ",
"                              O+O@#$%           ",
"                             &*=+X-;:           ",
"                            >&=,=<11#2          ",
"                            +O34,X567&          ",
"                           8X+=,90q9w.          ",
"                          +e<>3r tyu-&          ",
"                          Xi%.=  paus+          ",
"                         Od-@=   fga$h          ",
"                         @y7X,  Xrjak           ",
"                       2:eaw+   $ag;@           ",
"                   .X@8@k@o@X+ +pl9tO           ",
"                 +zX@x$$isikt8o02crv            ",
"                8@%ip7757ywbs$Ohn6#.            ",
"               &0%$p7r215ybw1pzp2-0=            ",
"              8tk$#yw21665n;1+%-p$O             ",
"             O<e7pbryq5am9ay6XMpM>3&            ",
"            9.NtpBw16amclVcm1t%kX*88            ",
"            +&etd7r6y9ulgglm6>e>3s@83           ",
"            +0k$y-y69cgCCCZVam%+#ik8X           ",
"           O&oi$d725amgCjCZu962ybtx8+p          ",
"           &X0x$sBym9VZCCCZca;yBbi%08&          ",
"           =++@sApMy5muZZgum6y2wds:>+&          ",
"          #tp;1;yB#i25cVucma5;w-pti@8&          ",
"        .#2alumnBp:@1r59y9y6ywBS$%0X+=          ",
"      %$wmZVu;#tX8X07r1656y2wbp$k@%@OD          ",
"     0Byc9a;h%0>&D&hBrr2r1bwB-AF:0<&*=          ",
"    kBf;yr#@X+&<%MkhsBwBwpsB#Bktkt8+Oh          ",
"   xt7B-t8*,3O.X00:$i#dBd#bptFek0X.+*           ",
"  Xt#b#@=,  =&O+X0Ft%ibsp$p$ki%l5sX&=           ",
" &<kvX&4    +O*&<X0e:%$pAti%:edugn0=            ",
" +X@&+,     V,O&>+Xt>tktktv0%@k;Cls+            ",
" =+O*4*X:p;9cy3&&8ve0FMtt$ee0>z7cZ6k            ",
" D=D4,=.k$sBs$ee=+X0Fk%-#t%0X&O0nu9bG           ",
" ,,434*&ze@F<eeeeee><tdhdSMe<&&XAaawx           ",
"  4,4,=+><peeeeee&=<%M%$hSF0X&O&kw5r%Z          ",
"                   D&vSFMF<>&D =0S-2i&          ",
"                       +>puB>   >0h7s.          ",
"                       SM5VqM   &0t#$8          ",
"                        XpVV70  &0kMk.          ",
"                         XdyB%z *X<%@+          ",
"                         &k$b0X+=8X08o          ",
"                          &e:e+=*X.X+&          ",
"                           +X.O+X0O.=,          ",
"                            +>&+0>3&*           ",
"                             &X0k+O,            ",
"                               >v,3             ",
"                                                "};
