/* XPM */
static char *openfile[] = {
/* width height num_colors chars_per_pixel */
"    10    9       5            1",
/* colors */
". c None",
"# c #000000",
"i c #ff0fff",
"y c #ff1f00",
"# c #9f9f9f",
/* pixels */
"..........",
"........yy",
".......yy.",
"......yy..",
".yyy.yy...",
"..yyyy....",
"...yy.....",
"..........",
"..........",
};
