/* XPM */
static char * FilesQueue_xpm[] = {
"44 31 64 1",
" 	c None",
".	c #E79DE38DDF7D",
"X	c #CF3CC71BCF3C",
"o	c #71C675D671C6",
"O	c #B6DAB2CAB6DA",
"+	c #CF3CD34CCF3C",
"@	c #DF7DE38DE79D",
"#	c #FFFFFBEEFFFF",
"$	c #EFBEEFBEEFBE",
"%	c #DF7DDB6CDF7D",
"&	c #BEFBBAEAC71B",
"*	c #BEFBBAEABEFB",
"=	c #BEFBC30BC71B",
"-	c #71C66DB671C6",
";	c #D75CD34CD75C",
":	c #9E799A699E79",
">	c #E79DE38DE79D",
",	c #CF3CCB2BC71B",
"<	c #B6DAB2CABEFB",
"1	c #BEFBBAEAB6DA",
"2	c #B6DAB6DAB6DA",
"3	c #618561856185",
"4	c #C71BBAEABEFB",
"5	c #AEBAAAAAAEBA",
"6	c #965892488E38",
"7	c #A699A699A699",
"8	c #38E338E338E3",
"9	c #F7DEF7DEF7DE",
"0	c #E79DEFBEEFBE",
"q	c #DF7DE38DDF7D",
"w	c #C71BC71BC71B",
"e	c #C71BC30BBEFB",
"r	c #BEFBC30BBEFB",
"t	c #B6DAAAAAAEBA",
"y	c #410345144103",
"u	c #D75CDB6CD75C",
"i	c #C71BCB2BC71B",
"p	c #BEFBCB2BBEFB",
"a	c #9E79A289A699",
"s	c #86178E388E38",
"d	c #CF3CCF3CD75C",
"f	c #CF3CD75CCF3C",
"g	c #C71BC30BCF3C",
"h	c #28A22CB228A2",
"j	c #000000000000",
"k	c #D75CD34CDF7D",
"l	c #10400C300820",
"z	c #E79DEBADEFBE",
"x	c #DF7DDB6CD75C",
"c	c #514459655965",
"v	c #8617861779E7",
"b	c #DF7DD34CD75C",
"n	c #CF3CCB2BCF3C",
"m	c #618555555965",
"M	c #861786178617",
"N	c #30C234D330C2",
"B	c #EFBEEBADE79D",
"V	c #DF7DDB6CE79D",
"C	c #D75CE38DD75C",
"Z	c #514449245144",
"A	c #186120812081",
"S	c #79E77DF779E7",
"D	c #6185659569A6",
"F	c #9E7992489E79",
"                      .XoOX+                ",
"                   @#$%&*=-o;:              ",
"                  @>,=O<12*&:-<3X           ",
"                 >%&1*4*2*OO**56758790      ",
"               9qX+we=r*&e<<<251t5555yu9    ",
"             $qu++;ipi=p*=p**2tOOO27a5s<-   ",
"           #9udfXi;,gi&**4**4r*Ot5t55tehj   ",
"          0qku+u;+d,gg=*=r*&**&<255t<*yl1   ",
"       $$zq@%xk%uf;,w,i=i=e**r=12tO1=8cvj   ",
"     $@%>.%.%%%xbkx,w+ni,wwrwe*4*1=;8mMNj   ",
"    zz@Bz>>>V%%%C+u;;dfnnfwggi&=&X+yZsNll   ",
"  af#9@B0>q>qqq>xk.;;;kfX+XnXw=g,fycMhhN5   ",
"  al5#9$$>qzBV.%x%%b;x+fnf+,X,iiqym6NAo-j   ",
"  #roS%#$zz>>V%%xkk%f;;+df,XnwnVZD:8AS-j*   ",
"  D-9Oy*9$Bz>q%qx%%u;x;;dknX+d>Zm:hhSDjr    ",
"  a3o+>S3z#90@@z.%>qCC%uu;ff%@Zm:NhMoj=     ",
"  wlvvo#:3599$>B>q>%%%%+f;fk$ymaalMvjr      ",
"  0.a--S49mct9$z@.qkkqC;xu%@Zm5AlvSj*       ",
"  ohu%3:Z:9@y609q@@>..>Cx>$Zm5NhMvjr        ",
"   -j797Zv5705y=#$0>>V.%>#Z378AMMj*         ",
"     Zj9Xo-McBXDv%90.%%#9cc78AsMj*          ",
"      8hM#M-DSF96cvz0>z#c35Nhs6j1           ",
"        jl9#o63vx#-D###mmt8N66j*            ",
"         5jc@fZF3o%+ZFDm<8A6FjO             ",
"           :j50sSay<$ss2Nh:FjO              ",
"            6880&SDMF.rNNFFj1               ",
"              8jr#:SFScA6ajO                ",
"                Alr$DSysajO                 ",
"                 >jy#51:jO                  ",
"                  %Dy*gjO                   ",
"                    alla                    "};
