/* XPM */
static char * InterfaceModeller_app_2_Tile_xpm[] = {
"48 48 66 1",
" 	c None",
".	c #86174D344103",
"X	c #69A651445144",
"o	c #8617410330C2",
"O	c #69A6410338E3",
"+	c #30C218611861",
"@	c #AEBA6DB66185",
"#	c #71C638E328A2",
"$	c #69A634D328A2",
"%	c #30C228A228A2",
"&	c #79E73CF330C2",
"*	c #BEFB9E799E79",
"=	c #8E3869A66185",
"-	c #514424921861",
";	c #A699A289B6DA",
":	c #A6999E79A699",
">	c #71C65D756185",
",	c #9E799A69A699",
"<	c #8E3882078E38",
"1	c #861779E78617",
"2	c #A6999A69AEBA",
"3	c #8E388A289658",
"4	c #71C675D679E7",
"5	c #96588A289E79",
"6	c #30C230C238E3",
"7	c #C71BC71BC71B",
"8	c #9E79A289AEBA",
"9	c #AEBAAAAABEFB",
"0	c #96589248A699",
"q	c #A699AAAAB6DA",
"w	c #AEBAAAAAB6DA",
"e	c #D75CD34CD75C",
"r	c #EFBEE79DEFBE",
"t	c #BEFBB6DABEFB",
"y	c #B6DABAEAC71B",
"u	c #AEBAAEBAB6DA",
"i	c #E79DDB6CDF7D",
"p	c #96588E389658",
"a	c #596559656185",
"s	c #AEBA8E388E38",
"d	c #CF3CCB2BCF3C",
"f	c #9E799A699E79",
"g	c #86177DF78E38",
"h	c #69A6659571C6",
"j	c #AEBAAEBABEFB",
"k	c #96589E799E79",
"l	c #B6DAA699A699",
"z	c #E79DC71BC71B",
"x	c #B6DAB6DAB6DA",
"c	c #861786179658",
"v	c #B6DAB2CABEFB",
"b	c #BEFBAAAAAEBA",
"n	c #C71BBEFBC71B",
"m	c #514441034103",
"M	c #41033CF34103",
"N	c #492428A228A2",
"B	c #AEBAA289B6DA",
"V	c #618530C22081",
"C	c #69A630C228A2",
"Z	c #69A630C22081",
"A	c #596528A22081",
"S	c #492428A22081",
"D	c #618528A22081",
"F	c #596520811861",
"G	c #69A628A22081",
"H	c #FFFF14514103",
"                                            .X  ",
"                                           .oO+ ",
"                                         @.o#++ ",
"                                        @.o$%+  ",
"                                       @.&#++   ",
"                                      @.o#++    ",
"                                     @.o$++     ",
"                                    @.&#++      ",
"                                    .O#++       ",
"                                  *=-$++        ",
"                                 ;:>+++         ",
"                                ;,<1%           ",
"                               2,34             ",
"                             2;,51              ",
"                            2,,,,6              ",
"           7777            28888,6              ",
"         77777777        2829,,,06              ",
"    9qwwe7rrrrr77rr     828,9tyt,6              ",
" uuwriirrieiiieii77pa< 82,8,,,8,06              ",
" s=1ttiieeeeded77eufgh>j,8,8,k,0,6              ",
" =@lzieeeeee77eeex:fpcg4>9,,,,qjv6              ",
" =O=blt7eeee7deenw:ffp<gha:t979;06              ",
" =OO@=@zieeee7ex:::fffff0,v72444h6              ",
" =OOo&Osst7iee7wkf:f:ff;t721444ham              ",
" =#&&&&OO@di7eu:ff:fferiv114444hmMX             ",
" =O&&&..o.sdp33fff:errrii7cc1hhh6mmNX=          ",
" =O&&&@.o.@sberrrrrriiuxuxnB;44aMmVCO#OX        ",
" =O&&o@..o.zrrrie777nnxtuxx:x;n:>mV##&&O$mX     ",
" =O&&o....zrrieieuxunx7txx:nnfwpMmVZ#$ZZZVVN    ",
" =O&oooo.*rrde77ewxnxxtnw:f4M%M%+NA#$Z$ZZVmN>   ",
" =Oo&ooo@iree7inxn7nnuuff4h%M>m%S-AZ$CCZDZmSX   ",
" =O&o.o.@rrn7eulun7xxuwp4mm6ahM%--AZCCZDDDANX   ",
" =Ooooo.*rixenuwwn7nxupph%M>>h6mAADVVZVVDDANX   ",
" =O&o.o.zrexwwnwuxxnughX%mahhmMN-AZCCVVDDAAN>   ",
" *XOoo.*iin7n777xxxtphaM+ama>MSNFVCZZVVDAAAS>   ",
"   1O..izewxux7nuuux4%++%hha>%N-DDCZZVDAAAASX   ",
"    1.=ituu:uButnxxuX%>hh>M%++NADZZZVDADAA--X   ",
"     :e7f::lnn7*ppnx6ahm6++mNN-ADCZVDDAAAA-SX   ",
"     7nupp:wxxg%MMau6%++NmmmADADVVVVVDAA---NX   ",
"    7uBgh1wwxg6h>m%:MmmVNAVDZVZCVZZDAAAAF-S+X   ",
"    nfgaM%pnwhX6%mXb6$DVVZC$C#C$ZZDVAAA---+NX   ",
"   27a%MaM47:mN.OoolmODGZ####$$ZZVDDA-----SSX   ",
"   2gmg<m6p7wmmOo...O$GZ####$$CZVVDAAA----++X   ",
"  qBcaM  <gxgmXmo.@.o&$$##$$$CZZZDADA-A-++-NX   ",
"   M6>    paMa HX.@@@oZ$###$$CZVDDAAAA---SS+X   ",
"  43            p=&@@&&$##$CCCVVVAAA--+S+S+%X   ",
"        k         =o@.##$VVmmmNNNSSSSSS%XXXX    ",
"                   s>OSSNmN>>aaa177777          "};
