<svg xmlns="http://www.w3.org/2000/svg" width="16" height="16"><g fill="#474747"><path d="M3.988 9.106c.948-.277 1.953.294 2.253 1.282l.675 2.226c.3.988-.224 2.006-1.172 2.283-.949.278-1.954-.294-2.253-1.282l-.675-2.226c-.3-.987.223-2.006 1.172-2.283z"/><path d="M7.969 1C4.663 1 1.945 4.008 2 6.719c.048 2.365.809 4.695 1 5.281h1.526c-1.162-2.292-1.05-5.156-1.05-5.156 0-2.373 2.007-4.313 4.493-4.313 2.485 0 4.5 1.827 4.492 4.282-.024 1.674-.172 2.658-1.006 5.187h1.571c.225-.645.974-3.19.974-5.281C14 3.889 11.274 1 7.969 1z"/><path d="M12.012 9.139c-.948-.278-1.953.294-2.253 1.282l-.675 2.226c-.3.987.224 2.006 1.172 2.283.949.277 1.954-.294 2.253-1.282l.675-2.226c.3-.988-.223-2.006-1.172-2.283z"/></g></svg>