<svg xmlns="http://www.w3.org/2000/svg" width="16" height="16"><defs><clipPath id="a"><path style="marker:none" color="#bebebe" overflow="visible" fill="#bebebe" stroke-width="2" d="M26.85 220.75h3.825v6.375H26.85z"/></clipPath><clipPath id="b"><path style="marker:none" color="#bebebe" overflow="visible" fill="#bebebe" stroke-width="2" d="M26.966 221.282h2.898v5.313h-2.898z"/></clipPath><clipPath id="c"><path style="marker:none" color="#bebebe" overflow="visible" fill="#bebebe" stroke-width="2" d="M26.999 221.502h1.876v4.878h-1.876z"/></clipPath></defs><g fill="#474747"><path transform="matrix(0 -.78431 .94118 0 -202.765 31.059)" clip-path="url(#a)" d="M27.18 220.508a1.164 1.164 0 00-.81 1.998c.379.38.59.894.59 1.432 0 .537-.211 1.051-.59 1.431a1.164 1.164 0 101.644 1.645 4.352 4.352 0 001.275-3.077c0-1.153-.46-2.26-1.275-3.076a1.164 1.164 0 00-.834-.353z" style="line-height:normal;font-variant-ligatures:normal;font-variant-position:normal;font-variant-caps:normal;font-variant-numeric:normal;font-variant-alternates:normal;font-feature-settings:normal;text-indent:0;text-align:start;text-decoration-line:none;text-decoration-style:solid;text-decoration-color:#000;text-transform:none;text-orientation:mixed;shape-padding:0;isolation:auto;mix-blend-mode:normal" color="#000" font-weight="400" font-family="sans-serif" overflow="visible"/><path transform="matrix(0 -1.72549 1.88219 0 -413.493 54.529)" clip-path="url(#b)" d="M27.186 221.123a.555.555 0 00-.387.953 2.632 2.632 0 010 3.723.555.555 0 10.785.785 3.743 3.743 0 000-5.293.555.555 0 00-.398-.168z" style="line-height:normal;font-variant-ligatures:normal;font-variant-position:normal;font-variant-caps:normal;font-variant-numeric:normal;font-variant-alternates:normal;font-feature-settings:normal;text-indent:0;text-align:start;text-decoration-line:none;text-decoration-style:solid;text-decoration-color:#000;text-transform:none;text-orientation:mixed;shape-padding:0;isolation:auto;mix-blend-mode:normal" color="#000" font-weight="400" font-family="sans-serif" overflow="visible"/><path transform="matrix(0 -2.66667 2.86852 0 -634.374 78)" clip-path="url(#c)" d="M27.188 221.318a.362.362 0 00-.252.621 2.825 2.825 0 010 3.997.362.362 0 10.511.511 3.55 3.55 0 000-5.02.362.362 0 00-.26-.109z" style="line-height:normal;font-variant-ligatures:normal;font-variant-position:normal;font-variant-caps:normal;font-variant-numeric:normal;font-variant-alternates:normal;font-feature-settings:normal;text-indent:0;text-align:start;text-decoration-line:none;text-decoration-style:solid;text-decoration-color:#000;text-transform:none;text-orientation:mixed;shape-padding:0;isolation:auto;mix-blend-mode:normal" color="#000" font-weight="400" font-family="sans-serif" overflow="visible"/><path d="M10 13a2 2 0 01-2 2 2 2 0 01-2-2 2 2 0 012-2 2 2 0 012 2z"/></g></svg>