<svg xmlns="http://www.w3.org/2000/svg" width="16" height="16"><g color="#000" fill="#2e3436"><path d="M4 0C2.993.005 3 1 3 1v13c0 2 2.003 2 2.003 2h7c2 0 2-2 2-2V4s0-2-2-2h-6.75c-.25 0-.25-.25-.25-.25L5 1S4.99.006 4 0zm1.003 4.25c0-.25.25-.25.25-.25h6.5s.25 0 .25.25v9.5c0 .25-.25.25-.25.25h-6.5c-.25 0-.252-.277-.252-.277z" style="marker:none" overflow="visible"/><path d="M6.003 5.25c0-.25.25-.25.25-.25h4.5s.25 0 .25.25v2.5c0 .25-.25.25-.25.25h-4.5C6.003 8 6 7.723 6 7.723zM6.253 9h1.5a.25.25 0 01.25.25v.5a.25.25 0 01-.25.25h-1.5a.25.25 0 01-.25-.25v-.5a.25.25 0 01.25-.25zm3 0h1.5a.25.25 0 01.25.25v.5a.25.25 0 01-.25.25h-1.5a.25.25 0 01-.25-.25v-.5a.25.25 0 01.25-.25zm-3 2h1.5a.25.25 0 01.25.25v.5a.25.25 0 01-.25.25h-1.5a.25.25 0 01-.25-.25v-.5a.25.25 0 01.25-.25zm3 0h1.5a.25.25 0 01.25.25v.5a.25.25 0 01-.25.25h-1.5a.25.25 0 01-.25-.25v-.5a.25.25 0 01.25-.25z" style="marker:none" overflow="visible"/></g></svg>