<?xml version="1.0" encoding="UTF-8" standalone="no"?>
<svg height="16.03125px" width="16px" xmlns="http://www.w3.org/2000/svg">
  <path d="m 2.21855 1 c -0.64785 0 -1.1875 0.539653 -1.1875 1.1875 v 4.625 c 0 0.647847 0.53965 1.1875 1.1875 1.1875 h 11.65625 c 0.64785 0 1.15625 -0.539653 1.15625 -1.1875 v -4.625 c 0 -0.647847 -0.5084 -1.1875 -1.15625 -1.1875 z m 0 1 h 11.65625 c 0.11114 0 0.15625 0.07636 0.15625 0.1875 v 4.625 c 0 0.111144 -0.0451 0.1875 -0.15625 0.1875 h -11.65625 c -0.11114 0 -0.1875 -0.07636 -0.1875 -0.1875 v -4.625 c 0 -0.111144 0.0764 -0.1875 0.1875 -0.1875 z"/>
  <path d="m 10 3 v 1 v 0.0312 l 1.53125 1.375 l 1.46875 -1.4062 v -1 h -0.75781 l -0.73828 0.74609 l -0.72657 -0.74609 z"/>
  <path d="m 2.21855 9 c -0.64785 0 -1.1875 0.539653 -1.1875 1.1875 v 4.65625 c 0 0.647847 0.53965 1.1875 1.1875 1.1875 h 11.65625 c 0.64785 0 1.15625 -0.539653 1.15625 -1.1875 v -4.65625 c 0 -0.647847 -0.5084 -1.1875 -1.15625 -1.1875 z m 0 1 h 11.65625 c 0.11114 0 0.15625 0.07636 0.15625 0.1875 v 4.65625 c 0 0.111144 -0.0451 0.1875 -0.15625 0.1875 h -11.65625 c -0.11114 0 -0.1875 -0.07636 -0.1875 -0.1875 v -4.65625 c 0 -0.111144 0.0764 -0.1875 0.1875 -0.1875 z"/>
  <path d="m 4.00001 11 h 8 v 2 h -8 z"/>
  <path d="m 1.53062 6 h 12.860504 v 1 h -12.860504 z" opacity="0.3"/>
  <path d="m 1.53065 14.03125 h 12.860504 v 1 h -12.860504 z" opacity="0.3"/>
</svg>
