<svg xmlns="http://www.w3.org/2000/svg" xmlns:xlink="http://www.w3.org/1999/xlink" width="128" height="128" version="1.0"><defs><linearGradient id="f"><stop offset="0" stop-color="#ff7800"/><stop offset="1" stop-color="#ed333b"/></linearGradient><linearGradient id="e"><stop offset="0" stop-color="#f5c211"/><stop offset="1" stop-color="#33d17a" stop-opacity=".899"/></linearGradient><linearGradient id="d"><stop offset="0" stop-color="#c0bfbc"/><stop offset=".036" stop-color="#fafaf9"/><stop offset=".088" stop-color="#c0bfbc"/><stop offset=".399" stop-color="#d5d5d3"/><stop offset=".491" stop-color="#eaeae9"/><stop offset=".569" stop-color="#a7a5a1"/><stop offset=".966" stop-color="#a9a7a3"/><stop offset="1" stop-color="#fff"/></linearGradient><linearGradient id="a"><stop offset="0" stop-color="#d5d3cf"/><stop offset="1" stop-color="#f6f5f4"/></linearGradient><linearGradient id="b"><stop offset="0" stop-color="#d5d3cf"/><stop offset="1" stop-color="#949390"/></linearGradient><linearGradient id="c"><stop offset="0" stop-color="#9a9996"/><stop offset="1" stop-color="#77767b"/></linearGradient><linearGradient xlink:href="#d" id="g" x1="-142.049" y1="236.001" x2="-9.951" y2="236.001" gradientUnits="userSpaceOnUse"/><radialGradient xlink:href="#e" id="h" cx="90.974" cy="263.479" fx="90.974" fy="263.479" r="22.703" gradientTransform="matrix(1.90297 -.05506 .0501 1.73133 -89.25 -176.863)" gradientUnits="userSpaceOnUse"/><radialGradient xlink:href="#f" id="i" cx="61.718" cy="270.719" fx="61.718" fy="270.719" r="22.703" gradientTransform="matrix(2.49049 0 0 2.92132 -91.99 -503.52)" gradientUnits="userSpaceOnUse"/></defs><path transform="translate(123.265 -118.118) scale(.7798)" d="M-75.74 161.438a10.997 10.997 0 0 0-5.758 1.468l-55.053 31.785a10.997 10.997 0 0 0-5.498 9.524v63.57a10.997 10.997 0 0 0 5.498 9.524l55.053 31.785a10.997 10.997 0 0 0 10.996 0l55.053-31.785a10.997 10.997 0 0 0 5.498-9.524v-63.57a10.997 10.997 0 0 0-5.498-9.524l-55.053-31.785a10.997 10.997 0 0 0-5.238-1.469z" style="marker:none" fill="url(#g)"/><path style="marker:none" d="M64.203 3.77a8.575 8.575 0 0 0-4.49 1.146l-42.93 24.786a8.575 8.575 0 0 0-4.288 7.427V86.7a8.575 8.575 0 0 0 4.287 7.426l42.93 24.786a8.575 8.575 0 0 0 8.575 0l42.93-24.786a8.575 8.575 0 0 0 4.288-7.426V37.129a8.575 8.575 0 0 0-4.287-7.427L68.288 4.916a8.575 8.575 0 0 0-4.085-1.145z" fill="#fff"/><path style="marker:none" d="M109.869 33.297L64 59.779 18.131 33.297 64 6.814z" fill="#98c1f1"/><path style="marker:none" d="M66.263 287.505l45.35-25.884.056-52.762-45.406 26.215z" fill="url(#h)" transform="translate(0 -172)"/><path d="M61.718 287.34l-45.35-25.885-.056-52.761 45.406 26.215z" style="marker:none" fill="url(#i)" transform="translate(0 -172)"/></svg>