<svg xmlns="http://www.w3.org/2000/svg" xmlns:xlink="http://www.w3.org/1999/xlink" width="128" height="128" version="1.0"><defs><linearGradient id="a"><stop offset="0" stop-color="#7a1521"/><stop offset=".042" stop-color="#c01c28"/><stop offset=".083" stop-color="#7a1521"/><stop offset=".917" stop-color="#7a1521"/><stop offset=".958" stop-color="#c01c28"/><stop offset="1" stop-color="#7a1521"/></linearGradient><linearGradient id="b"><stop offset="0" stop-color="#babdb6"/><stop offset=".042" stop-color="#f6f5f4"/><stop offset=".083" stop-color="#d5d3cf"/><stop offset=".917" stop-color="#deddda"/><stop offset=".958" stop-color="#f6f5f4"/><stop offset="1" stop-color="#babdb6"/></linearGradient><linearGradient xlink:href="#b" id="c" gradientUnits="userSpaceOnUse" gradientTransform="matrix(.25 0 0 .25 0 225)" x1="48" y1="44" x2="464" y2="44"/></defs><g transform="translate(0 -172)"><rect ry="8" rx="8" y="204" x="12" height="84" width="104" style="marker:none" fill="url(#c)"/><rect style="marker:none" width="104" height="100" x="12" y="184" rx="8" ry="8" fill="#f6f5f4"/><rect rx="5.345" width="92" height="26" x="18" y="-278.048" ry="5.345" transform="scale(1 -1)" fill="#3584e4"/><path d="M23.346 278.048A5.335 5.335 0 0 1 18 272.702v-2a5.335 5.335 0 0 0 5.346 5.346h81.308a5.335 5.335 0 0 0 5.346-5.346v2a5.335 5.335 0 0 1-5.346 5.346z" fill="#1a5fb4"/><rect transform="scale(1 -1)" ry="5.345" y="-245" x="19" height="24" width="90" rx="5.345" fill="#fff" stroke="#deddda" stroke-width="2" stroke-linecap="round" stroke-linejoin="round"/><rect rx="5.345" width="90" height="24" x="19" y="-215" ry="5.345" transform="scale(1 -1)" fill="#fff" stroke="#deddda" stroke-width="2" stroke-linecap="round" stroke-linejoin="round"/><path style="marker:none" d="M99 228.948v8.23M103.167 233h-8.334M83.333 233H75" fill="#fff" stroke="#000" stroke-width="2" stroke-linecap="square" stroke-linejoin="round"/><path style="marker:none" d="M89 221.125V245M69 221.125V245" fill="#fff" stroke="#deddda" stroke-width="2" stroke-linecap="square" stroke-linejoin="round"/><path d="M24.406 222a5.335 5.335 0 0 0-5.345 5.346v2A5.335 5.335 0 0 1 24.406 224h79.276a5.335 5.335 0 0 1 5.346 5.346v-2a5.335 5.335 0 0 0-5.346-5.346zM24.406 192a5.335 5.335 0 0 0-5.345 5.346v2A5.335 5.335 0 0 1 24.406 194h79.276a5.335 5.335 0 0 1 5.346 5.346v-2a5.335 5.335 0 0 0-5.346-5.346z" opacity=".3" fill="#deddda"/><path style="marker:none" d="M95.106 201.846l3.8 3.8 3.934-3.933" fill="none" stroke="#000" stroke-width="2" stroke-linecap="square" stroke-linejoin="round"/><path style="marker:none" fill="#deddda" d="M26.02 228h36.583v10H26.02zM26 197.974h59.979V208H26z"/><path style="marker:none" fill="#98c1f1" d="M44 260h36v8H44z"/></g></svg>