<svg xmlns="http://www.w3.org/2000/svg" xmlns:xlink="http://www.w3.org/1999/xlink" width="128" height="128" version="1.0"><defs><linearGradient xlink:href="#a" id="b" x1="384" y1="120" x2="416" y2="120" gradientUnits="userSpaceOnUse" gradientTransform="matrix(.25 0 0 .25 12 221)"/><linearGradient id="a"><stop offset="0" stop-color="#e8e7e4"/><stop offset=".511" stop-color="#fff"/><stop offset="1" stop-color="#c2bfba"/></linearGradient></defs><path d="M12 32v84h96c4.432 0 8-3.568 8-8V40c0-4.432-3.568-8-8-8z" fill="#63452c"/><path d="M14 216v70h94c4.432 0 8-3.568 8-8v-54c0-4.432-3.568-8-8-8z" style="marker:none" fill="url(#b)" transform="translate(0 -172)"/><path d="M12 34v74h96c4.432 0 8-3.568 8-8V42c0-4.432-3.568-8-8-8z" fill="#63452c"/><path d="M12 12v94h96c4.432 0 8-3.568 8-8V20c0-4.432-3.568-8-8-8z" fill="#865e3c"/><g fill="#63452c"><path style="isolation:auto;mix-blend-mode:normal;solid-color:#000;solid-opacity:1" d="M39 26.008a5 5 0 0 0 0 10c.892 0 1.712-.278 2.438-.688l3.937 3.688-3.938 3.687c-.725-.41-1.545-.687-2.437-.687a5 5 0 1 0 5 5c0-.459-.072-.891-.187-1.313l4.25-4.125L57 50.008h3v-2L43.812 32.32A4.92 4.92 0 0 0 44 31.008a5 5 0 0 0-5-5zm0 3a2 2 0 1 1 0 4 2 2 0 0 1 0-4zm18-1l-7.875 7.437 2.625 2.563 8.25-8v-2zm-18 17a2 2 0 1 1 0 4 2 2 0 0 1 0-4z" color="#000" overflow="visible"/><path d="M92 63.994v2.961c2.53 3.039 4 6.439 4 11.039s-1.559 8-4 11.038v2.962h2.763c2.931-3.281 5.237-8.372 5.237-14 0-5.629-2-10.344-5.17-14zm-11.094 2l-5.937 5.999H70v11.999h4.969l6.08 6.001.951-.002V65.993zm7.094 2v4c1.213 1.577 2 3.518 2 6s-.787 4.439-2 6v4h2c2.446-1.99 4-5.747 4-10 0-4.334-1.478-8.04-4-10zm-4 4v12h2c1.344-1.674 2-3.486 2-6 0-2.515-.623-4.432-2-6z" style="marker:none" color="#bebebe" overflow="visible"/><path d="M86.021 24.038a1.997 1.997 0 0 0-1.197.37l-13.98 9.986a1.998 1.998 0 0 0-.835 1.626v1.997h1.948a1.998 1.998 0 0 0 .023 0h.024a1.998 1.998 0 0 0 1.162-.37L74 37.05v10.953A1.997 1.997 0 0 0 75.998 50h19.971a1.997 1.997 0 0 0 1.997-1.997V37.048l.838.599a1.998 1.998 0 0 0 1.16.37h1.997v-1.97a1.998 1.998 0 0 0-.836-1.653l-13.98-9.986a1.997 1.997 0 0 0-1.123-.37zm-.038 4.45l7.988 5.707v11.81h-5.99v-7.988h-5.992v7.989h-3.995v-11.81z" style="line-height:normal;font-variant-ligatures:normal;font-variant-position:normal;font-variant-caps:normal;font-variant-numeric:normal;font-variant-alternates:normal;font-feature-settings:normal;text-indent:0;text-align:start;text-decoration-line:none;text-decoration-style:solid;text-decoration-color:#000;text-transform:none;text-orientation:mixed;white-space:normal;shape-padding:0;isolation:auto;mix-blend-mode:normal;solid-color:#000;solid-opacity:1" color="#000" font-weight="400" font-family="sans-serif" overflow="visible"/><path d="M56.063 64A1.93 1.93 0 0 1 58 65.937v.125C57.966 79.288 47.234 90 34 90h-.062C32.848 90 32 89.108 32 88v-6c0-1.108.892-2 2-2h4c1.108 0 2 .892 2 2v.937A17.935 17.935 0 0 0 50.938 72H50c-1.108 0-2-.892-2-2v-4c0-1.108.892-2 2-2h6.062z"/></g><path style="marker:none" d="M92 65.994v2.961c2.53 3.039 4 6.439 4 11.039s-1.56 8-4 11.038v2.962h2.763c2.931-3.281 5.237-8.372 5.237-14 0-5.629-2-10.344-5.17-14zm-11.094 2l-5.937 5.999H70v11.999h4.969l6.08 6.001.951-.002V67.993zm7.094 2v4c1.213 1.577 2 3.518 2 6s-.787 4.439-2 6v4h2c2.446-1.99 4-5.747 4-10 0-4.334-1.478-8.04-4-10zm-4 4v12h2c1.344-1.674 2-3.486 2-6 0-2.515-.623-4.432-2-6z" color="#bebebe" overflow="visible" fill="#f6f5f4"/><path d="M56.063 66A1.93 1.93 0 0 1 58 67.937v.125C57.966 81.288 47.234 92 34 92h-.062C32.848 92 32 91.108 32 90v-6c0-1.108.892-2 2-2h4c1.108 0 2 .892 2 2v.937A17.935 17.935 0 0 0 50.938 74H50c-1.108 0-2-.892-2-2v-4c0-1.108.892-2 2-2h6.062z" fill="#f6f5f4"/><path style="isolation:auto;mix-blend-mode:normal;solid-color:#000;solid-opacity:1" d="M39 28.008a5 5 0 0 0 0 10c.892 0 1.712-.278 2.438-.688l3.937 3.688-3.938 3.687c-.725-.41-1.545-.687-2.437-.687a5 5 0 1 0 5 5c0-.459-.072-.891-.187-1.313l4.25-4.125L57 52.008h3v-2L43.812 34.32A4.92 4.92 0 0 0 44 33.008a5 5 0 0 0-5-5zm0 3a2 2 0 1 1 0 4 2 2 0 0 1 0-4zm18-1l-7.875 7.437 2.625 2.563 8.25-8v-2zm-18 17a2 2 0 1 1 0 4 2 2 0 0 1 0-4z" color="#000" overflow="visible" fill="#f6f5f4"/><g fill="#f6f5f4"><path style="line-height:normal;font-variant-ligatures:normal;font-variant-position:normal;font-variant-caps:normal;font-variant-numeric:normal;font-variant-alternates:normal;font-feature-settings:normal;text-indent:0;text-align:start;text-decoration-line:none;text-decoration-style:solid;text-decoration-color:#000;text-transform:none;text-orientation:mixed;white-space:normal;shape-padding:0;isolation:auto;mix-blend-mode:normal;solid-color:#000;solid-opacity:1" d="M86.02 26.038a1.997 1.997 0 0 0-1.196.37l-13.98 9.986a1.998 1.998 0 0 0-.835 1.626h-.002v1.997h1.947a1.998 1.998 0 0 0 .025 0h.025a1.998 1.998 0 0 0 1.162-.37L74 39.05v10.953A1.997 1.997 0 0 0 75.998 52h19.971a1.997 1.997 0 0 0 1.997-1.997V39.048l.838.599a1.998 1.998 0 0 0 1.16.37h1.997v-1.97a1.998 1.998 0 0 0-.836-1.653l-13.98-9.986a1.997 1.997 0 0 0-1.123-.37zm-.038 4.45l7.989 5.707v11.81H87.98v-7.988h-5.992v7.989h-3.994v-11.81z" color="#000" font-weight="400" font-family="sans-serif" overflow="visible"/></g><path fill="#3d3846" d="M12 12h8v94h-8z"/><path d="M12 106v10h8v-2h-6v-6h6v-2z" fill="#241f31"/><path d="M15 106V12" opacity=".15" fill="none" stroke="#fff" stroke-width="2"/></svg>