<svg xmlns="http://www.w3.org/2000/svg" width="16.003" height="16">
    <path d="M8 .002C3.591.002 0 3.596 0 8s3.591 7.998 8 7.998S16 12.404 16 8 12.409.002 8 .002zm0 1.996c.127 0 .252.012.377.02-.52 1.637-.187 3.433.98 4.705 1.178 1.282 2.957 1.759 4.64 1.353A5.984 5.984 0 0 1 8 14.002h-.006c.364-1.653-.115-3.388-1.373-4.543-1.244-1.142-2.99-1.483-4.598-1.012A6.064 6.064 0 0 1 2.002 8 5.985 5.985 0 0 1 8 1.998zm1.377.162a5.976 5.976 0 0 1 4.545 4.914c-1.393.4-2.867.021-3.828-1.025C9.14 5.01 8.882 3.515 9.377 2.16zM3.48 9.316c.905-.027 1.781.251 2.465.88 1.016.932 1.29 2.343.93 3.699a5.978 5.978 0 0 1-4.664-4.336c.42-.143.846-.23 1.27-.243z" style="line-height:normal;font-variant-ligatures:normal;font-variant-position:normal;font-variant-caps:normal;font-variant-numeric:normal;font-variant-alternates:normal;font-feature-settings:normal;text-indent:0;text-align:start;text-decoration-line:none;text-decoration-style:solid;text-decoration-color:#000;text-transform:none;text-orientation:mixed;shape-padding:0;isolation:auto;mix-blend-mode:normal;marker:none" color="#000" font-weight="400" font-family="sans-serif" white-space="normal" overflow="visible" fill="#474747"/>
</svg>
