<svg xmlns="http://www.w3.org/2000/svg" width="16" height="16"><g fill="#2e3436"><path style="line-height:normal;font-variant-ligatures:normal;font-variant-position:normal;font-variant-caps:normal;font-variant-numeric:normal;font-variant-alternates:normal;font-feature-settings:normal;text-indent:0;text-align:start;text-decoration-line:none;text-decoration-style:solid;text-decoration-color:#000;text-transform:none;text-orientation:mixed;shape-padding:0;isolation:auto;mix-blend-mode:normal;marker:none" d="M5.207 1.294a1 1 0 00-1.414 0l-2.5 2.5a1 1 0 000 1.414l2.5 2.5a1 1 0 001.414 0l2.5-2.5a1 1 0 000-1.415z" color="#000" font-weight="400" font-family="sans-serif" overflow="visible"/><path d="M10 12a3 3 0 01-3 3 3 3 0 01-3-3 3 3 0 013-3 3 3 0 013 3z"/><path d="M11.945 2.002a1 1 0 00-.81.496l-2.32 4A1 1 0 009.678 8h4.644a1 1 0 00.864-1.502l-2.32-4a1 1 0 00-.92-.496z" style="line-height:normal;font-variant-ligatures:normal;font-variant-position:normal;font-variant-caps:normal;font-variant-numeric:normal;font-variant-alternates:normal;font-feature-settings:normal;text-indent:0;text-align:start;text-decoration-line:none;text-decoration-style:solid;text-decoration-color:#000;text-transform:none;text-orientation:mixed;shape-padding:0;isolation:auto;mix-blend-mode:normal" color="#000" font-weight="400" font-family="sans-serif" overflow="visible"/></g></svg>