<svg xmlns="http://www.w3.org/2000/svg" width="16" height="16"><path d="M6.003 1s-3 0-3 3v5s.044 1.419.028 2c0 1-.537 1.413-1.404 2.121-.627.49-.774 1.31-.307 1.697.43.356 1.162.304 1.66-.343L4 13c.698-1.014.983-1.876 1-3l.003-6C5.003 3 6 3 6 3v6.574L9.003 6.5V4c0-1 .997-1 .997-1l.003 2.5L12 3.465c.338-.312.503-.465 1-.465l.003 1L9 8h4s.003 1-1 1H8l-2 2c0 .426 0 2.006 2 2.006L12.003 13s3 0 2.997-2.99V1z" style="line-height:normal;font-variant-ligatures:normal;font-variant-position:normal;font-variant-caps:normal;font-variant-numeric:normal;font-variant-alternates:normal;font-feature-settings:normal;text-indent:0;text-align:start;text-decoration-line:none;text-decoration-style:solid;text-decoration-color:#000;text-transform:none;text-orientation:mixed;white-space:normal;shape-padding:0;isolation:auto;mix-blend-mode:normal;solid-color:#000;solid-opacity:1" color="#000" font-weight="400" font-family="sans-serif" overflow="visible" fill="#2e3436"/></svg>