<svg xmlns="http://www.w3.org/2000/svg" width="16" height="16">
    <g fill="#474747">
        <path d="M9.997 1v8.092c-.582.205-1 .752-1 1.404v3.008c0 .877.653 1.496 1.5 1.496.855 0 1.5-.609 1.5-1.496v-3.008c0-.652-.419-1.199-1-1.404V8h.664a1.32 1.32 0 0 0 1.326-1.322V5c0-2.382-.99-4-2.99-4zM1.997 2v3.45c0 .849.698 1.548 1.55 1.548h.45v2.094c-.582.205-1 .752-1 1.404v3.008c0 .829.669 1.496 1.5 1.496.83 0 1.5-.667 1.5-1.496v-3.008c0-.652-.419-1.199-1-1.404V6.998h.449c.852 0 1.552-.699 1.552-1.549V2c0-.516-.467-1-1.001-1v4.45c0 .314-.238.55-.551.55h-.45V1.018l-1-.002V6h-.449a.538.538 0 0 1-.55-.55V1c-.548 0-1 .46-1 1z" style="marker:none"/>
    </g>
</svg>
