<svg xmlns="http://www.w3.org/2000/svg" width="16" height="16">
    <g fill="#474747">
        <path d="M8 .05a2.03 2.03 0 1 1 0 4.06A2.03 2.03 0 0 1 8 .05zM1.486 5.051c3.533-.05 9.423-.014 12.927.015 0 0 .471-.008.471.463v.228c0 .247-.257.315-.257.315L10 6.448V10l2.095 4.608c.168.278-.195.357-.195.357l-.647.006c-.311 0-.428-.262-.428-.262L8.31 10.363c-.296-.672-.315-.587-.595 0l-2.65 4.34c-.09.268-.438.274-.438.274l-.701-.01s-.256-.008-.197-.258L6 10V6.448l-4.654-.346c-.256-.086-.362-.324-.362-.324v-.24s-.01-.488.502-.488z" style="marker:none" overflow="visible"/>
    </g>
</svg>
