/* XPM */
static char * theme_led_on1_xpm[] = {
"12 12 81 1",
" 	c None",
".	c #A7A7A7",
"+	c #9F9F9F",
"@	c #ACACAC",
"#	c #C7C7C7",
"$	c #909090",
"%	c #7B7B7B",
"&	c #888888",
"*	c #969696",
"=	c #A5A5A5",
"-	c #B4B4B4",
";	c #C4C4C4",
">	c #DBDBDB",
",	c #666666",
"'	c #A65353",
")	c #B94343",
"!	c #CD0000",
"~	c #CA0000",
"{	c #C53838",
"]	c #CA6565",
"^	c #D2D2D2",
"/	c #E7E7E7",
"(	c #A94D4D",
"_	c #CF0101",
":	c #E68080",
"<	c #DE5656",
"[	c #D90101",
"}	c #D50000",
"|	c #C20000",
"1	c #CC7171",
"2	c #E2E2E2",
"3	c #BC3D3D",
"4	c #F9F1F1",
"5	c #F9DBDB",
"6	c #F94545",
"7	c #EF0000",
"8	c #B60000",
"9	c #B84747",
"0	c #E5E5E5",
"a	c #F6F6F6",
"b	c #E04949",
"c	c #FAD1D1",
"d	c #FEADAD",
"e	c #FE1717",
"f	c #F00000",
"g	c #A20000",
"h	c #720000",
"i	c #EAEAEA",
"j	c #F8F8F8",
"k	c #CB0000",
"l	c #DB0000",
"m	c #F72E2E",
"n	c #FE1212",
"o	c #FE0000",
"p	c #E70000",
"q	c #8F0000",
"r	c #670000",
"s	c #F0F0F0",
"t	c #FEFEFE",
"u	c #C43D3D",
"v	c #CE0000",
"w	c #E60000",
"x	c #DD0000",
"y	c #B10000",
"z	c #7D0000",
"A	c #9C3D3D",
"B	c #F7F7F7",
"C	c #FFFFFF",
"D	c #C76A6A",
"E	c #AE0000",
"F	c #A70000",
"G	c #950000",
"H	c #790000",
"I	c #640000",
"J	c #BF7979",
"K	c #C96B6B",
"L	c #B14747",
"M	c #690000",
"N	c #560000",
"O	c #8F3F3F",
"P	c #BC8282",
"    .+@#    ",
"  $%&*=-;>  ",
" $,')!~{]^/ ",
" %(_:<[}|12 ",
".&3:4567890a",
"+*!bcdefghij",
"@=klmnopqrst",
"#-uvw7xyzABC",
" ;DEFGHIrJC ",
" >^KLMNOPCC ",
"  /20isBCC  ",
"    ajtC    "};
