/* XPM */
static char * theme_btn3_xpm[] = {
"64 64 39 1",
" 	c None",
".	c #000000000000",
"X	c #525251515252",
"o	c #636361616363",
"O	c #6B6B6D6D6B6B",
"+	c #737371717373",
"@	c #737375757373",
"#	c #7B7B79797B7B",
"$	c #848486868484",
"%	c #949496969494",
"&	c #9C9C9A9A9C9C",
"*	c #9C9C9E9E9C9C",
"=	c #A5A5A6A6A5A5",
"-	c #C6C6C7C7C6C6",
";	c #4A4A49494A4A",
":	c #8C8C8E8E8C8C",
">	c #949492929494",
",	c #B5B5B2B2B5B5",
"<	c #B5B5B6B6B5B5",
"1	c #BDBDBEBEBDBD",
"2	c #D6D6D3D3D6D6",
"3	c #5A5A59595A5A",
"4	c #7B7B7D7D7B7B",
"5	c #ADADAEAEADAD",
"6	c #BDBDBABABDBD",
"7	c #C6C6C3C3C6C6",
"8	c #CECECBCBCECE",
"9	c #CECECFCFCECE",
"0	c #D6D6D7D7D6D6",
"q	c #DEDEDBDBDEDE",
"w	c #DEDEDFDFDEDE",
"e	c #E7E7E3E3E7E7",
"r	c #E7E7E7E7E7E7",
"t	c #EFEFEBEBEFEF",
"y	c #EFEFEFEFEFEF",
"u	c #F7F7F3F3F7F7",
"i	c #F7F7F7F7F7F7",
"p	c #ADADAAAAADAD",
"a	c #FFFFFBFBFFFF",
"  ............................................................  ",
" .XoOO++++++@@++@@@++@@@@+@@@@+@@@@+@@@@@@##@@@##@@####@$%&*=-. ",
".;o$::>>>>:>>>>>>>>>>>>>>>>%%%>%%%%>%%%%%%%%%%%&&&%&&&&&=,<1-22.",
".345<<<66<<66666666666116661116111111771117771777777--7--8920qq.",
".O:611111177777777777777777---------------8888888888888889992qw.",
".+>61111177777777777777777---------------88888888888888899999qw.",
".+>6111177777777777777777---------------888888888888888999999qw.",
".+>611177777777777777777---------------8888888888888889999999qw.",
".+>61177777777777777777---------------88888888888888899999992qe.",
".+>6177777777777777777---------------888888888888888999999992we.",
".@%677777777777777777---------------8888888888888889999999992we.",
".@%67777777777777777---------------88888888888888899999999992qe.",
".+>6777777777777777---------------888888888888888999999999992we.",
".+>677777777777777---------------8888888888888889999999999992we.",
".@%67777777777777---------------88888888888888899999999999922we.",
".@%6777777777777---------------888888888888888999999999999222we.",
".@%677777777777---------------8888888888888889999999999992222we.",
".+>67777777777---------------88888888888888899999999999922222we.",
".+>6777777777---------------888888888888888999999999999222220we.",
".@%177777777---------------8888888888888889999999999992222220we.",
".@%17777777---------------88888888888888899999999999922222220we.",
".@%1777777---------------888888888888888999999999999222222222we.",
".@%177777---------------8888888888888889999999999992222222220we.",
".+>17777---------------88888888888888899999999999922222222220we.",
".@%1777---------------888888888888888999999999999222222222220er.",
".@%177---------------8888888888888889999999999992222222222200wr.",
".@%17---------------88888888888888899999999999922222222222000wr.",
".@%1---------------888888888888888999999999999222222222220000er.",
".@%1--------------8888888888888889999999999992222222222200000er.",
".@%1-------------8888888888888889999999999992222222222200000qer.",
".@%1------------88888888888888899999999999922222222222000000qer.",
".@%1-----------8888888888888889999999999992222222222200000000er.",
".@%1----------8888888888888889999999999992222222222200000000qer.",
".@%1---------88888888888888899999999999922222222222000000000qer.",
".@%1--------88888888888888899999999999922222222222000000000qqer.",
".@&1-------88888888888888899999999999922222222222000000000qqqer.",
".@%1------88888888888888899999999999922222222222000000000qqqqer.",
".@%1-----88888888888888899999999999922222222222000000000qqqqqer.",
".@%7----88888888888888899999999999922222222222000000000qqqqqqrt.",
".@&7---88888888888888899999999999922222222222000000000qqqqqqwrt.",
".#&7--88888888888888899999999999922222222222000000000qqqqqqqwrt.",
".#&7-88888888888888899999999999922222222222000000000qqqqqqqqwrt.",
".@%788888888888888899999999999922222222222000000000qqqqqqqqwwrt.",
".@%78888888888888899999999999922222222222000000000qqqqqqqqwwwrt.",
".#&7888888888888899999999999922222222222000000000qqqqqqqqwwwwrt.",
".#&788888888888899999999999922222222222000000000qqqqqqqqwwwwwrt.",
".#&78888888888899999999999922222222222000000000qqqqqqqqwwwwwwtt.",
".@%7888888888899999999999922222222222000000000qqqqqqqqwwwwwwett.",
".@&788888888899999999999922222222222000000000qqqqqqqqwwwwwweety.",
".#&78888888899999999999922222222222000000000qqqqqqqqwwwwwweeety.",
".#&-888888899999999999922222222222000000000qqqqqqqqwwwwwweeeety.",
".#&788888899999999999922222222222000000000qqqqqqqqwwwwwweeeeety.",
".#&78888899999999999922222222222000000000qqqqqqqqwwwwwweeeeerty.",
".@&-888899999999999922222222222000000000qqqqqqqqwwwwwweeeeerrty.",
".#&-88899999999999922222222222000000000qqqqqqqqwwwwwweeeeerrryu.",
".#&-8899999999999922222222222000000000qqqqqqqqwwwwwweeeeerrrryu.",
".#*-899999999999922222222222000000000qqqqqqqqwwwwwweeeeerrrrtyu.",
".#&-99999999999922222222222000000000qqqqqqqqwwwwwweeeeerrrrttuu.",
".#&-9999999999922222222222000000000qqqqqqqqwwwwwweeeeerrrrttyui.",
".#*-999999999922222222222000000000qqqqqqqqwwwwwweeeeerrrrtttyui.",
".$p899999922222222220000000000qqqqqqqqqqwwwwwwweeeeerrrrtttyyia.",
".5720qqqqqwwwwwwwwwwwewwwweeeeeeeeeererrrrrrrrttttttttyyyuuuiaa.",
" .2qwweeeeeeeeeeeeeeeeeeerrrrrrrrrrrttttttttttttyyyyyyuuuuiiaa. ",
"  ............................................................  "};
