/* XPM */
static char * theme_btn2_xpm[] = {
"64 64 90 1",
" 	c None",
".	c #000000000000",
"X	c #FFFFF7F7FFFF",
"o	c #EFEFEBEBEFEF",
"O	c #EFEFDBDBEFEF",
"+	c #CECECBCBCECE",
"@	c #CECEBEBECECE",
"#	c #B5B5B2B2B5B5",
"$	c #B5B5A2A2B5B5",
"%	c #949496969494",
"&	c #94948A8A9494",
"*	c #7B7B75757B7B",
"=	c #C6C6BEBEC6C6",
"-	c #C6C6BABAC6C6",
";	c #BDBDBABABDBD",
":	c #BDBDB6B6BDBD",
">	c #BDBDB2B2BDBD",
",	c #BDBDAEAEBDBD",
"<	c #B5B5AEAEB5B5",
"1	c #B5B5AAAAB5B5",
"2	c #ADADAAAAADAD",
"3	c #ADADA2A2ADAD",
"4	c #A5A59E9EA5A5",
"5	c #9C9C9E9E9C9C",
"6	c #9C9C9A9A9C9C",
"7	c #9C9C96969C9C",
"8	c #9C9C92929C9C",
"9	c #949492929494",
"0	c #94948E8E9494",
"q	c #8C8C8A8A8C8C",
"w	c #8C8C86868C8C",
"e	c #84847D7D8484",
"r	c #73736D6D7373",
"t	c #5A5A55555A5A",
"y	c #313134343131",
"u	c #EFEFE7E7EFEF",
"i	c #E7E7DBDBE7E7",
"p	c #DEDED3D3DEDE",
"a	c #D6D6CBCBD6D6",
"s	c #CECEC7C7CECE",
"d	c #C6C6C3C3C6C6",
"f	c #ADADA6A6ADAD",
"g	c #A5A5A2A2A5A5",
"h	c #8C8C8E8E8C8C",
"j	c #8C8C82828C8C",
"k	c #848482828484",
"l	c #7B7B79797B7B",
"z	c #737375757373",
"x	c #5A5A59595A5A",
"c	c #18181C1C1818",
"v	c #D6D6CFCFD6D6",
"b	c #848486868484",
"n	c #737371717373",
"m	c #6B6B6D6D6B6B",
"M	c #6B6B69696B6B",
"N	c #636365656363",
"B	c #525251515252",
"V	c #292928282929",
"C	c #181818181818",
"Z	c #DEDED7D7DEDE",
"A	c #7B7B7D7D7B7B",
"S	c #7B7B71717B7B",
"D	c #5A5A5D5D5A5A",
"F	c #4A4A49494A4A",
"G	c #CECEC3C3CECE",
"H	c #4A4A4D4D4A4A",
"J	c #636361616363",
"K	c #313130303131",
"L	c #6B6B65656B6B",
"P	c #63635D5D6363",
"I	c #4A4A45454A4A",
"U	c #6B6B61616B6B",
"Y	c #424241414242",
"T	c #31312C2C3131",
"R	c #636359596363",
"E	c #52524D4D5252",
"W	c #29292C2C2929",
"Q	c #39393C3C3939",
"!	c #525255555252",
"~	c #525259595252",
"^	c #393938383939",
"/	c #393934343939",
"(	c #212124242121",
")	c #292924242929",
"_	c #42423C3C4242",
"`	c #424245454242",
"'	c #212120202121",
"]	c #101014141010",
"[	c #101010101010",
"{	c #08080C0C0808",
"  ............................................................  ",
" .XXooOOOO++++++@@@@@@@@@@@@###########$$$$$$$$$$$$$$$$$$$%%&*. ",
".XXoOOO+++@@=-;:>,<<<<12##$#$$$34444566777888888889000000qwerty.",
".Xuipasd=;:>><12f3gg4444466677789900hqqwwwwwjjkkkkeeeeeellzrxyc.",
".oivsd-:><<1ff3446677%999000&qqqwwbkkkeeeeellll***zznnnnrmMNBVC.",
".oZ+=;:#<2f3g4467%99000&qqqwwbkkkAAAllll*****SnnnrrmmMMMMNNDFyC.",
".OpG->#<1ffg4466799900qqqwwbkkkkAAAllll*****SnnnrmmmMMMMMNNDHyC.",
".Ov=:<<1ff344667%9900qqqwwbkkkeAAAllll*****SnnnrmmmMMMMMNNJxFKC.",
".Oa-><1ff344667%9900&qqwwbkkkAAAAlll******SnnnrmmmMMMMMMNNJJFKC.",
".Os;<2ff344667%9900&qqwwbkkkAAAAlll*****SSnnnrmmmMMMMMMLNJJPFKC.",
".+d:<ff344667%9900&qqwwbkkkAAAAlll*****SSnnnrmmmMMMMMMLLNJJPFKC.",
".+=#23g44667%9900&qqwwbkkkAAAAlll*****SSnnnrmmmMMMMMMLLLJJPPFKC.",
".+;<fg44667%9900&qqwwbkkkAAAAlll*****SSnnnrmmmMMMMMMLLLLJJPPIKC.",
".+;<f44667%9900&qqwwbkkkAAAAlll*****SSnnnrmmmMMMMMMLLLLUJJPPIKC.",
".+;1g4667%9900&qqwwbkkkAAAAlll*****SSnnnrmmmMMMMMMLLLLUUJPPPIKC.",
".+:24677%9900&qqwwbkkkAAAAlll*****SSnnnrmmmMMMMMMLLLLUUUJPPxIKC.",
".@>f477%9900&qqwwbkkkAAAAlll*****SSnnnrmmmMMMMMMLLLLUUUJJPPtYTC.",
".@>f6%99900&qqwwbkkkAAAAlll*****SSnnnrmmmMMMMMMLLLLUUUUJJPPBYTC.",
".@,3699900&qqwwbkkkAAAAlll*****SSnnnrmmmMMMMMMLLLLUUUUUJJPPBYKC.",
".@<g79900&qqwwbkkkAAAAlll*****SSnnnrmmmMMMMMMLLLLUUUUUJJPPPBYTC.",
".@<47900&qqwwbkkkAAAAlll*****SSnnnrmmmMMMMMMLLLLUUUUUUJJPPPBYTC.",
".@<4%00qqqwwbkkkAAAAlll*****SSnnnrmmmMMMMMMLLLLUUUUUUJJJPPRBYTC.",
".@1490qqqwwbkkkAAAAlll*****SSnnnrmmmMMMMMMLLLLUUUUUUJJJPPPxEYTC.",
".@149qqqwwbkkkAAAAlll*****SSnnnrmmmMMMMMMLLLLUUUUUUJJJPPPPxEYTC.",
".@169qqwwbkkkAAAAlll*****SSnnnrmmmMMMMMMLLLLUUUUUUJJJPPPPxxEYWC.",
".@f60qwwbkkkAAAAlll*****SSnnnrmmmMMMMMMLLLLUUUUUUJJJJPPPDxxHYWC.",
".#f70wwbkkkAAAAlll*****SSnnnrmmmMMMMMMLLLLUUUUUUJJJJPPPDxxtHQWC.",
".#g70wbkkkAAAAlll*****SSnnnrmmmMMMMMMLLLLUUUUUUJJJJPPPDxxx!HQWC.",
".#g9qbkkkAAAAlll*****SSnnnrmmmMMMMMMLLLLUUUUUUJJJJPPPDDxx~!FQWC.",
".#49qkkkAAAAlll*****SSnnnrmmmMMMMMMLLLLUUUUUUJJJJPPPDDxxx!!FQWC.",
".#49qkkAAAAlll*****SSnnnrmmmMMMMMMLLLLUUUUUUJJJJPPPDDxxx~!!FQWC.",
".#49wkkAAAlll*****SSnnnrmmmMMMMMMLLLLUUUUUUJJJJPPPDDxxxx~!!FQWC.",
".#49wkAAAlll*****SSnnnrmmmMMMMMMLLLLUUUUUUJJJJPPPDDxxxx~~!!FQWC.",
".#40bAAAlll*****SSnnnrmmmMMMMMMLLLLUUUUUUJJJJPPPDDxxxxx~~!!FQWC.",
".#40bAAlll*****SSnnnrmmmMMMMMMLLLLUUUUUUJJJJPPPDDxxxxx~~!!!FQWC.",
".#50kAlll*****SSnnnrmmmMMMMMMLLLLUUUUUUJJJJPPPDDxxxxxx~~!!!FQWC.",
".#5hkllll****SSnnnrmmmMMMMMMLLLLUUUUUUJJJJPPPDDxxxxxxx~~!!!FQWC.",
".#5qklll****SSnnnrmmmMMMMMMLLLLUUUUUUJJJJPPPDDxxxxxxx~~!!!BFQWC.",
".#6qell****SSnnnrmmmMMMMMMLLLLUUUUUUJJJJPPPDDxxxxxxxx~!!!!BFQVC.",
".#6qel****SSnnnrmmmMMMMMMLLLLUUUUUUJJJJPPPDDxxxxxxxx~~!!!BBFQVC.",
".$7we****SSnnnrmmmMMMMMMLLLLUUUUUUJJJJPPPDDxxxxxxxxx~!!!!BBFQVC.",
".$8we****SnnnrmmmMMMMMMLLLLUUUUUUJJJJPPPDDxxxxxxxxxx!!!!!BBI^VC.",
".$8wl***SnnnrmmmMMMMMMLLLLUUUUUUJJJJPPPDDxxxxxxxxxxt!!!!BBBI^VC.",
".$8wl**SnnnrmmmMMMMMMLLLLUUUUUUJJJJPPPDDxxxxxxxxxxtt!!!BBBBI^VC.",
".$8wl**nnnrmmmMMMMMMLLLLUUUUUUJJJJPPPDDxxxxxxxxxxttt!!!BBBEI^VC.",
".$8jl*nnnrmmmMMMMMMLLLLUUUUUUJJJJPPPDDxxxxxxxxxxtttt!!BBBBEI^VC.",
".$8klnnnrmmmMMMMMMLLLLUUUUUUJJJJPPPDDxxxxxxxxxxttttt!BBBBBEI^VC.",
".$8klnnrmmmMMMMMMLLLLUUUUUUJJJJPPPDDxxxxxxxxxxttttt!BBBBBBEI^VC.",
".$8k*nrmmmMMMMMMLLLLUUUUUUJJJJPPPDDxxxxxxxxxxttttttBBBBBBEEY^VC.",
".$8k*rmmmMMMMMMLLLLUUUUUUJJJJPPPDDxxxxxxxxxxttttttBBBBBBBEEY/VC.",
".$9kzrmmMMMMMMLLLLUUUUUUJJJJPPPDDxxxxxxxxxxttttttBBBBBBBBEFY/(C.",
".$0ezmmMMMMMMLLLLUUUUUUJJJJPPPDDxxxxxxxxxxttttt!BBBBBBBBBEFY/VC.",
".$0enmmMMMMMLLLLUUUJJJJJJJPPPDDxxxxx~~~~~!!!!!!BBBBBBBBBBEFY/VC.",
".$0enmMMMMMLLLLUUUJJJJJJPPPPDDxxxxx~~~~!!!!!!!BBBBBBBBBBEEEY^VC.",
".$0AnmMMMMLLLLUUJJJJJJJPPPPDDxxxx~~~~~!!!!!!BBBBBBBBBBBBEEHY/VC.",
".$qlnmMMMLLLUUJJJJJJJPPPPPDxxxxx~~~~~!!!!!!BBBBBBBBBBBBEEEFY/VC.",
".%wlmMMMLNNJJJJJJPPPPPPPDxxxxx~~!!!!!!!!!BBBBBBBBBBBBEEEHFFY/)C.",
".%blmMMLNNJJJJPPPPPPPPPxxxxx~!!!!!!!!!!BBBBBBBBBEEEEEEEHFFI_y)C.",
".%b*mMMNNJJPPPPPPPPRRxxxxt!!!!!!!!!BBBBBBEEEEEEEEEEEEHFFFII^K(C.",
".%kzmNPxxtt!BBBBBBBBEEEEHHHFFFFFFFFFFFIIIIIIIIIIIIFFFFF`Y_QyW'].",
".&lrJxBHFIII`YYYYYYYYYYY_QQQQQQQQQQQQ^^^^^^^^^^^^^^^^^^^yKKW(c[.",
".**xFYQ^yKKKKKTKTTTTTWWWWWWVVVWWWWWVVVVVVVVVVVVVVVVVVVVV)(((']{.",
" .xKVV(cCCCCCCCCCCCCCCCCCCCCCCCCCCCCCCCCCCCCCCCCCCCCCCCCCC]]][. ",
"  ............................................................  "};
