/* XPM */
static char * theme_button_xpm[] = {
"64 64 39 1",
" 	c None",
".	c #000000000000",
"X	c #FFFFFBFBFFFF",
"o	c #F7F7F7F7F7F7",
"O	c #F7F7F3F3F7F7",
"+	c #EFEFEFEFEFEF",
"@	c #EFEFEBEBEFEF",
"#	c #E7E7E7E7E7E7",
"$	c #E7E7E3E3E7E7",
"%	c #DEDEDFDFDEDE",
"&	c #DEDEDBDBDEDE",
"*	c #D6D6D3D3D6D6",
"=	c #D6D6D7D7D6D6",
"-	c #C6C6C3C3C6C6",
";	c #ADADAEAEADAD",
":	c #CECECFCFCECE",
">	c #CECECBCBCECE",
",	c #ADADAAAAADAD",
"<	c #848486868484",
"1	c #C6C6C7C7C6C6",
"2	c #9C9C9E9E9C9C",
"3	c #7B7B79797B7B",
"4	c #9C9C9A9A9C9C",
"5	c #737375757373",
"6	c #949496969494",
"7	c #BDBDBEBEBDBD",
"8	c #949492929494",
"9	c #737371717373",
"0	c #BDBDBABABDBD",
"q	c #8C8C8E8E8C8C",
"w	c #6B6B6D6D6B6B",
"e	c #B5B5B6B6B5B5",
"r	c #7B7B7D7D7B7B",
"t	c #5A5A59595A5A",
"y	c #B5B5B2B2B5B5",
"u	c #A5A5A6A6A5A5",
"i	c #636361616363",
"p	c #4A4A49494A4A",
"a	c #525251515252",
"  ............................................................  ",
" .XXooOOOO++++++@@@@@@@@@@@@###########$$$$$$$$$$$$$$$$$$$%%&*. ",
".XXoOOO+++@@@@@@@@########$#$$$$$$$$$$%%%%$%%%%%%%%%%%&&&&&=*-;.",
".Xo++@@@####$$$$$%%%%%%%&&&&&&&&&&==========**********::::::>,<.",
".oO+@@@####$$$$$%%%%%%&&&&&&&&=========***********::::::::::123.",
".oO+@@####$$$$$%%%%%%&&&&&&&&=========***********:::::::::::143.",
".OO@@####$$$$$%%%%%%&&&&&&&&=========***********::::::::::::143.",
".O+@####$$$$$%%%%%%&&&&&&&&=========***********::::::::::::>123.",
".O+####$$$$$%%%%%%&&&&&&&&=========***********::::::::::::>>143.",
".O+###$$$$$%%%%%%&&&&&&&&=========***********::::::::::::>>>143.",
".+@##$$$$$%%%%%%&&&&&&&&=========***********::::::::::::>>>>145.",
".+@#$$$$$%%%%%%&&&&&&&&=========***********::::::::::::>>>>>-43.",
".+@$$$$$%%%%%%&&&&&&&&=========***********::::::::::::>>>>>>-43.",
".+@$$$$%%%%%%&&&&&&&&=========***********::::::::::::>>>>>>>143.",
".+@$$$%%%%%%&&&&&&&&=========***********::::::::::::>>>>>>>>-43.",
".+@$$%%%%%%&&&&&&&&=========***********::::::::::::>>>>>>>>>-45.",
".@@$%%%%%%&&&&&&&&=========***********::::::::::::>>>>>>>>>>-65.",
".@@%%%%%%&&&&&&&&=========***********::::::::::::>>>>>>>>>>>-43.",
".@#%%%%%&&&&&&&&=========***********::::::::::::>>>>>>>>>>>>-43.",
".@#%%%%&&&&&&&&=========***********::::::::::::>>>>>>>>>>>>>-43.",
".@#%%%&&&&&&&&=========***********::::::::::::>>>>>>>>>>>>>>-65.",
".@#%%&&&&&&&&=========***********::::::::::::>>>>>>>>>>>>>>>-65.",
".@#%&&&&&&&&=========***********::::::::::::>>>>>>>>>>>>>>>1-43.",
".@#%&&&&&&&=========***********::::::::::::>>>>>>>>>>>>>>>11-43.",
".@#%&&&&&&=========***********::::::::::::>>>>>>>>>>>>>>>111-45.",
".@#&&&&&&=========***********::::::::::::>>>>>>>>>>>>>>>1111-65.",
".#$&&&&&=========***********::::::::::::>>>>>>>>>>>>>>>11111765.",
".#$&&&&=========***********::::::::::::>>>>>>>>>>>>>>>111111765.",
".#$&&&=========***********::::::::::::>>>>>>>>>>>>>>>1111111745.",
".#$&&=========***********::::::::::::>>>>>>>>>>>>>>>11111111765.",
".#$&=========***********::::::::::::>>>>>>>>>>>>>>>111111111765.",
".#$&========***********::::::::::::>>>>>>>>>>>>>>>1111111111765.",
".#$========***********::::::::::::>>>>>>>>>>>>>>>11111111111765.",
".#$&======***********::::::::::::>>>>>>>>>>>>>>>111111111111765.",
".#$&=====***********::::::::::::>>>>>>>>>>>>>>>1111111111111765.",
".#$=====***********::::::::::::>>>>>>>>>>>>>>>11111111111111765.",
".#$====***********::::::::::::>>>>>>>>>>>>>>>111111111111111765.",
".#%===***********::::::::::::>>>>>>>>>>>>>>>111111111111111-765.",
".#%==***********::::::::::::>>>>>>>>>>>>>>>111111111111111--765.",
".#$=***********::::::::::::>>>>>>>>>>>>>>>111111111111111---765.",
".$%=**********::::::::::::>>>>>>>>>>>>>>>111111111111111----789.",
".$%=*********::::::::::::>>>>>>>>>>>>>>>111111111111111-----765.",
".$%*********::::::::::::>>>>>>>>>>>>>>>111111111111111------765.",
".$%=*******::::::::::::>>>>>>>>>>>>>>>111111111111111-------765.",
".$%=******::::::::::::>>>>>>>>>>>>>>>111111111111111--------765.",
".$%=*****::::::::::::>>>>>>>>>>>>>>>111111111111111---------089.",
".$%*****::::::::::::>>>>>>>>>>>>>>>111111111111111----------089.",
".$%****::::::::::::>>>>>>>>>>>>>>>111111111111111-----------065.",
".$%***::::::::::::>>>>>>>>>>>>>>>111111111111111------------065.",
".$%**::::::::::::>>>>>>>>>>>>>>>111111111111111-------------065.",
".$%*::::::::::::>>>>>>>>>>>>>>>111111111111111--------------089.",
".$%*:::::::::::>>>>>>>>>>>>>>>111111111111111---------------089.",
".$&*::::::::::>>>>>>>>>>>>>>>111111111111111----------------065.",
".$%*:::::::::>>>>>>>>>>>>>>>111111111111111-----------------065.",
".$%*::::::::>>>>>>>>>>>>>>>111111111111111-----------------7089.",
".$&*:::::::>>>>>>>>>>>>>>>111111111111111-----------------77089.",
".%&:::::::>>>>>>>>>>>>>>>111111111111111-----------------777089.",
".%&::::::>>>>>>>>>>>>>>>111111111111111-----------------7777089.",
".%&:::::>>>>>>>>>>>>>>>111111111111111-----------------77777089.",
".%&*:::>>>>>>>>>>>>>>>111111111111111-----------------7777770qw.",
".&&=*:>11-11------7---777--77777707770007700000000000ee00eee;rt.",
".**17eyu444446444666666666668666686668888888888888888q8888qq<ip.",
" .1u246<53333553355533555555955559555595555995559955999999wwia. ",
"  ............................................................  "};
