<?xml version="1.0" encoding="UTF-8"?>
<svg xmlns="http://www.w3.org/2000/svg" height="16px" viewBox="0 0 16 16" width="16px"><path d="m 6.832031 0 c -0.460937 0 -0.832031 0.382812 -0.832031 0.855469 v 4.289062 c 0 0.472657 0.371094 0.855469 0.832031 0.855469 h 8.332031 c 0.464844 0 0.835938 -0.382812 0.835938 -0.855469 v -4.289062 c 0 -0.472657 -0.371094 -0.855469 -0.835938 -0.855469 z m -0.832031 8 l 2 2 l -3 3 l 1 1 l 3 -3 l 2 2 v -5 z m -5.53125 6 c -0.261719 0 -0.46875 0.230469 -0.46875 0.511719 v 0.976562 c 0 0.28125 0.207031 0.511719 0.46875 0.511719 h 3.0625 c 0.261719 0 0.46875 -0.230469 0.46875 -0.511719 v -0.976562 c 0 -0.28125 -0.207031 -0.511719 -0.46875 -0.511719 z m 0 0" fill="#222222"/></svg>
