<?xml version="1.0" encoding="UTF-8"?>
<svg xmlns="http://www.w3.org/2000/svg" height="16px" viewBox="0 0 16 16" width="16px"><path d="m 13 0 c -1.644531 0 -3 1.355469 -3 3 c 0 0.203125 0.019531 0.398438 0.058594 0.589844 l -2.222656 1.085937 c -0.515626 -0.421875 -1.175782 -0.675781 -1.890626 -0.675781 c -1.644531 0 -3 1.355469 -3 3 c 0 0.8125 0.332032 1.554688 0.863282 2.097656 l -0.445313 0.921875 h -0.003906 c -0.117187 -0.011719 -0.238281 -0.019531 -0.359375 -0.019531 c -1.644531 0 -3 1.355469 -3 3 s 1.355469 3 3 3 c 1.296875 0 2.410156 -0.839844 2.824219 -2 h 4.347656 c 0.417969 1.160156 1.53125 2 2.828125 2 c 1.644531 0 3 -1.355469 3 -3 c 0 -1.296875 -0.839844 -2.410156 -2 -2.824219 v -4.351562 c 1.160156 -0.414063 2 -1.527344 2 -2.824219 c 0 -1.644531 -1.355469 -3 -3 -3 z m 0 2 c 0.5625 0 1 0.4375 1 1 s -0.4375 1 -1 1 s -1 -0.4375 -1 -1 s 0.4375 -1 1 -1 z m -1.90625 3.3125 c 0.265625 0.21875 0.574219 0.394531 0.90625 0.511719 v 4.351562 c -0.847656 0.300781 -1.523438 0.976563 -1.828125 1.824219 h -4.347656 c -0.144531 -0.40625 -0.378907 -0.777344 -0.675781 -1.082031 l 0.457031 -0.9375 c 0.113281 0.011719 0.226562 0.019531 0.339843 0.019531 c 1.644532 0 3 -1.355469 3 -3 c 0 -0.207031 -0.019531 -0.410156 -0.0625 -0.605469 z m -5.148438 0.6875 c 0.5625 0 1 0.4375 1 1 s -0.4375 1 -1 1 s -1 -0.4375 -1 -1 s 0.4375 -1 1 -1 z m -2.945312 6 c 0.5625 0 1 0.4375 1 1 s -0.4375 1 -1 1 s -1 -0.4375 -1 -1 s 0.4375 -1 1 -1 z m 10 0 c 0.5625 0 1 0.4375 1 1 s -0.4375 1 -1 1 s -1 -0.4375 -1 -1 s 0.4375 -1 1 -1 z m 0 0" fill="#222222" fill-rule="evenodd"/></svg>
