<?xml version="1.0" encoding="UTF-8" standalone="no"?>
<!-- Created with Inkscape (http://www.inkscape.org/) -->

<svg
   xmlns:dc="http://purl.org/dc/elements/1.1/"
   xmlns:cc="http://creativecommons.org/ns#"
   xmlns:rdf="http://www.w3.org/1999/02/22-rdf-syntax-ns#"
   xmlns:svg="http://www.w3.org/2000/svg"
   xmlns="http://www.w3.org/2000/svg"
   xmlns:sodipodi="http://sodipodi.sourceforge.net/DTD/sodipodi-0.dtd"
   xmlns:inkscape="http://www.inkscape.org/namespaces/inkscape"
   width="64"
   height="64"
   viewBox="0 0 64.000001 64"
   id="svg6660"
   version="1.1"
   inkscape:version="0.91 r13725"
   sodipodi:docname="rotate-clockwise.svg"
   inkscape:export-filename="/home/aday/Scratch/two-finger-swipe-left.png"
   inkscape:export-xdpi="90"
   inkscape:export-ydpi="90">
  <defs
     id="defs6662" />
  <sodipodi:namedview
     id="base"
     pagecolor="#ffffff"
     bordercolor="#666666"
     borderopacity="1.0"
     inkscape:pageopacity="0.0"
     inkscape:pageshadow="2"
     inkscape:zoom="1"
     inkscape:cx="4.1189941"
     inkscape:cy="19.498065"
     inkscape:document-units="px"
     inkscape:current-layer="layer1"
     showgrid="false"
     inkscape:showpageshadow="false"
     units="px"
     fit-margin-top="0"
     fit-margin-left="0"
     fit-margin-right="0"
     fit-margin-bottom="0"
     inkscape:window-width="2560"
     inkscape:window-height="1376"
     inkscape:window-x="0"
     inkscape:window-y="27"
     inkscape:window-maximized="1"
     inkscape:snap-bbox="true"
     inkscape:bbox-paths="true"
     inkscape:bbox-nodes="true"
     inkscape:snap-nodes="false">
    <inkscape:grid
       type="xygrid"
       id="grid4169" />
  </sodipodi:namedview>
  <metadata
     id="metadata6665">
    <rdf:RDF>
      <cc:Work
         rdf:about="">
        <dc:format>image/svg+xml</dc:format>
        <dc:type
           rdf:resource="http://purl.org/dc/dcmitype/StillImage" />
        <dc:title />
      </cc:Work>
    </rdf:RDF>
  </metadata>
  <g
     inkscape:label="Layer 1"
     inkscape:groupmode="layer"
     id="layer1"
     transform="translate(1077.1429,-641.07582)">
    <rect
       style="color:#000000;clip-rule:nonzero;display:inline;overflow:visible;visibility:visible;opacity:1;isolation:auto;mix-blend-mode:normal;color-interpolation:sRGB;color-interpolation-filters:linearRGB;solid-color:#000000;solid-opacity:1;fill:#000000;fill-opacity:1;fill-rule:nonzero;stroke:#4a90d9;stroke-width:0;stroke-linecap:round;stroke-linejoin:miter;stroke-miterlimit:4;stroke-dasharray:none;stroke-dashoffset:0;stroke-opacity:1;marker:none;color-rendering:auto;image-rendering:auto;shape-rendering:auto;text-rendering:auto;enable-background:accumulate"
       id="rect4211"
       width="7.99999"
       height="18.999975"
       x="-986.80017"
       y="674.72986"
       ry="4.1854858"
       rx="3.999995" />
    <rect
       rx="3.999995"
       ry="4.1854858"
       y="1058.2362"
       x="-488.08203"
       height="27.193785"
       width="8"
       id="rect4215"
       style="color:#000000;clip-rule:nonzero;display:inline;overflow:visible;visibility:visible;opacity:1;isolation:auto;mix-blend-mode:normal;color-interpolation:sRGB;color-interpolation-filters:linearRGB;solid-color:#000000;solid-opacity:1;fill:#000000;fill-opacity:1;fill-rule:nonzero;stroke:#4a90d9;stroke-width:0;stroke-linecap:round;stroke-linejoin:miter;stroke-miterlimit:4;stroke-dasharray:none;stroke-dashoffset:0;stroke-opacity:1;marker:none;color-rendering:auto;image-rendering:auto;shape-rendering:auto;text-rendering:auto;enable-background:accumulate"
       transform="matrix(0.8660254,0.5,-0.5,0.8660254,0,0)" />
    <rect
       style="color:#000000;clip-rule:nonzero;display:inline;overflow:visible;visibility:visible;opacity:1;isolation:auto;mix-blend-mode:normal;color-interpolation:sRGB;color-interpolation-filters:linearRGB;solid-color:#000000;solid-opacity:1;fill:#000000;fill-opacity:1;fill-rule:nonzero;stroke:#4a90d9;stroke-width:0;stroke-linecap:round;stroke-linejoin:miter;stroke-miterlimit:4;stroke-dasharray:none;stroke-dashoffset:0;stroke-opacity:1;marker:none;color-rendering:auto;image-rendering:auto;shape-rendering:auto;text-rendering:auto;enable-background:accumulate"
       id="rect4217"
       width="8"
       height="24.624201"
       x="-479.08203"
       y="1060.8058"
       ry="4.1854858"
       rx="3.999995"
       transform="matrix(0.8660254,0.5,-0.5,0.8660254,0,0)" />
    <path
       style="color:#000000;clip-rule:nonzero;display:inline;overflow:visible;visibility:visible;opacity:1;isolation:auto;mix-blend-mode:normal;color-interpolation:sRGB;color-interpolation-filters:linearRGB;solid-color:#000000;solid-opacity:1;fill:#000000;fill-opacity:1;fill-rule:nonzero;stroke:#4a90d9;stroke-width:0;stroke-linecap:round;stroke-linejoin:miter;stroke-miterlimit:4;stroke-dasharray:none;stroke-dashoffset:0;stroke-opacity:1;marker:none;color-rendering:auto;image-rendering:auto;shape-rendering:auto;text-rendering:auto;enable-background:accumulate"
       d="m -983.2276,685.33054 31.238,17.58202 -9.596,0.0501 -24.6089,-8.74318 c -0.4862,-1.41421 -0.6185,-2.72414 -0.6185,-4.23285 z"
       id="rect4219"
       inkscape:connector-curvature="0"
       sodipodi:nodetypes="cccccc" />
    <rect
       rx="3.999995"
       ry="4.1854858"
       y="1065.7794"
       x="-497.03296"
       height="21"
       width="22.205551"
       id="rect4221"
       style="color:#000000;clip-rule:nonzero;display:inline;overflow:visible;visibility:visible;opacity:1;isolation:auto;mix-blend-mode:normal;color-interpolation:sRGB;color-interpolation-filters:linearRGB;solid-color:#000000;solid-opacity:1;fill:#000000;fill-opacity:1;fill-rule:nonzero;stroke:#4a90d9;stroke-width:0;stroke-linecap:round;stroke-linejoin:miter;stroke-miterlimit:4;stroke-dasharray:none;stroke-dashoffset:0;stroke-opacity:1;marker:none;color-rendering:auto;image-rendering:auto;shape-rendering:auto;text-rendering:auto;enable-background:accumulate"
       transform="matrix(0.8660254,0.5,-0.5,0.8660254,0,0)" />
    <ellipse
       transform="matrix(-0.25881906,-0.96592582,-0.96592582,0.25881906,0,0)"
       style="color:#000000;display:inline;overflow:visible;visibility:visible;fill:none;stroke:#000000;stroke-width:3;stroke-linecap:round;stroke-linejoin:miter;stroke-miterlimit:4;stroke-dasharray:none;stroke-dashoffset:0;stroke-opacity:1;marker:none;enable-background:accumulate"
       id="path4223"
       cx="-389.37766"
       cy="1108.3384"
       rx="7.4999938"
       ry="7.5000024" />
    <ellipse
       transform="matrix(-0.25881906,-0.96592582,-0.96592582,0.25881906,0,0)"
       id="path4225"
       style="color:#000000;display:inline;overflow:visible;visibility:visible;fill:none;stroke:#000000;stroke-width:3;stroke-linecap:round;stroke-linejoin:miter;stroke-miterlimit:4;stroke-dasharray:none;stroke-dashoffset:0;stroke-opacity:1;marker:none;enable-background:accumulate"
       cx="-389.1694"
       cy="1088.6989"
       rx="7.4999938"
       ry="7.5000024" />
    <circle
       style="opacity:1;fill:#215d9c;fill-opacity:0.31564989;stroke:#ffffff;stroke-width:0;stroke-linecap:square;stroke-miterlimit:4;stroke-dasharray:none;stroke-dashoffset:0;stroke-opacity:1"
       id="path4231"
       cx="-1108.0631"
       cy="389.25458"
       r="3.9994948"
       transform="matrix(0.96592583,-0.25881905,0.25881905,0.96592583,0,0)" />
    <circle
       transform="matrix(0.96592583,-0.25881905,0.25881905,0.96592583,0,0)"
       r="3.9994948"
       cy="389.39093"
       cx="-1088.8269"
       id="circle4249"
       style="opacity:1;fill:#215d9c;fill-opacity:0.31564989;stroke:#ffffff;stroke-width:0;stroke-linecap:square;stroke-miterlimit:4;stroke-dasharray:none;stroke-dashoffset:0;stroke-opacity:1" />
    <path
       style="fill:none;fill-rule:evenodd;stroke:#000000;stroke-width:8;stroke-linecap:round;stroke-linejoin:miter;stroke-miterlimit:4;stroke-dasharray:none;stroke-opacity:1"
       d="m -950.8205,657.612 -17.5247,35.52131"
       id="path4284"
       inkscape:connector-curvature="0"
       sodipodi:nodetypes="cc" />
    <path
       style="fill:none;fill-rule:evenodd;stroke:#000000;stroke-width:8;stroke-linecap:round;stroke-linejoin:miter;stroke-miterlimit:4;stroke-dasharray:none;stroke-opacity:1"
       d="m -969.5554,662.8355 -2.4658,29.44488"
       id="path4300"
       inkscape:connector-curvature="0"
       sodipodi:nodetypes="cc" />
    <path
       sodipodi:nodetypes="cccc"
       inkscape:connector-curvature="0"
       id="path4245"
       d="m -1054.7641,644.89328 4.7401,4.70081 -4.9374,4.49282 z"
       style="color:#000000;display:inline;overflow:visible;visibility:visible;fill:#000000;fill-opacity:1;fill-rule:nonzero;stroke:none;stroke-width:6;marker:none;enable-background:accumulate" />
    <path
       id="ellipse4229"
       style="color:#000000;display:inline;overflow:visible;visibility:visible;fill:none;stroke:#000000;stroke-width:2.99999976;stroke-linecap:butt;stroke-linejoin:miter;stroke-miterlimit:4;stroke-dasharray:none;stroke-dashoffset:0;stroke-opacity:1;marker:none;enable-background:accumulate"
       transform="matrix(-0.50000001,-0.8660254,-0.8660254,0.5,0,0)"
       sodipodi:type="arc"
       sodipodi:cx="-44.708977"
       sodipodi:cy="1243.3279"
       sodipodi:rx="11.002314"
       sodipodi:ry="11.002327"
       sodipodi:start="5.6181739"
       sodipodi:end="1.0471976"
       sodipodi:open="true"
       d="m -36.051149,1236.5387 a 11.002314,11.002327 0 0 1 2.144213,8.8789 11.002314,11.002327 0 0 1 -5.300884,7.4386" />
    <path
       style="color:#000000;clip-rule:nonzero;display:inline;overflow:visible;visibility:visible;opacity:1;isolation:auto;mix-blend-mode:normal;color-interpolation:sRGB;color-interpolation-filters:linearRGB;solid-color:#000000;solid-opacity:1;fill:#000000;fill-opacity:1;fill-rule:nonzero;stroke:none;stroke-width:2;stroke-linecap:butt;stroke-linejoin:miter;stroke-miterlimit:4;stroke-dasharray:none;stroke-dashoffset:0;stroke-opacity:1;marker:none;marker-start:none;marker-mid:none;marker-end:none;paint-order:normal;color-rendering:auto;image-rendering:auto;shape-rendering:auto;text-rendering:auto;enable-background:accumulate"
       d="m -952.8599,702.9766 -26.8038,0.001 c -2.0329,0 -2.8726,-0.86313 -3.5355,-2.27734 l -2.961,-6.49654 z"
       id="path8621"
       inkscape:connector-curvature="0"
       sodipodi:nodetypes="ccccc" />
    <path
       style="color:#000000;clip-rule:nonzero;display:inline;overflow:visible;visibility:visible;opacity:1;isolation:auto;mix-blend-mode:normal;color-interpolation:sRGB;color-interpolation-filters:linearRGB;solid-color:#000000;solid-opacity:1;fill:#000000;fill-opacity:1;fill-rule:nonzero;stroke:none;stroke-width:2;stroke-linecap:butt;stroke-linejoin:miter;stroke-miterlimit:4;stroke-dasharray:none;stroke-dashoffset:0;stroke-opacity:1;marker:none;marker-start:none;marker-mid:none;marker-end:none;paint-order:normal;color-rendering:auto;image-rendering:auto;shape-rendering:auto;text-rendering:auto;enable-background:accumulate"
       d="m -966.8304,677.79457 c -0.05,1.03036 0.8352,1.21821 1.25,0.5625 l 1.5,2.03125 -3.25,3.71875 -1.75,-5.0625 z"
       id="path9400"
       inkscape:connector-curvature="0"
       sodipodi:nodetypes="cccccc" />
    <path
       inkscape:connector-curvature="0"
       style="color:#000000;clip-rule:nonzero;display:inline;overflow:visible;visibility:visible;opacity:1;isolation:auto;mix-blend-mode:normal;color-interpolation:sRGB;color-interpolation-filters:linearRGB;solid-color:#000000;solid-opacity:1;fill:#000000;fill-opacity:1;fill-rule:nonzero;stroke:none;stroke-width:0;stroke-linecap:round;stroke-linejoin:miter;stroke-miterlimit:4;stroke-dasharray:none;stroke-dashoffset:0;stroke-opacity:1;marker:none;color-rendering:auto;image-rendering:auto;shape-rendering:auto;text-rendering:auto;enable-background:accumulate"
       d="m -1030.6277,653.56411 c -1.6045,-0.0695 -3.095,0.82725 -3.7852,2.27734 l -10.8965,22.0918 c -0.038,0.0587 -0.086,0.10692 -0.1211,0.16797 l -0.1504,0.26171 0,-0.006 c -0.3784,0.59815 -1.14,0.48659 -1.2343,-0.31836 l 1.2441,-14.8691 c 0.1772,-1.82322 -0.9067,-3.53383 -2.6309,-4.15234 -0.037,-0.0123 -0.074,-0.024 -0.1113,-0.0352 -0.085,-0.0283 -0.171,-0.0537 -0.2578,-0.0762 -0.043,-0.0105 -0.086,-0.0202 -0.1289,-0.0293 -0.092,-0.0208 -0.1843,-0.0384 -0.2774,-0.0527 -0.037,-0.005 -0.074,-0.01 -0.1113,-0.0137 -0.09,-0.0108 -0.1794,-0.0186 -0.2695,-0.0234 -0.054,-0.002 -0.1081,-0.002 -0.1621,-0.002 -0.052,-0.002 -0.1042,-0.004 -0.1563,-0.004 -0.021,0.002 -0.041,0.004 -0.062,0.006 -0.08,0.004 -0.1603,0.0106 -0.2402,0.0195 -0.045,0.004 -0.09,0.01 -0.1348,0.0156 -0.1016,0.0144 -0.2025,0.0326 -0.3027,0.0547 -0.024,0.005 -0.048,0.0102 -0.072,0.0156 -0.036,0.007 -0.072,0.0151 -0.1074,0.0234 -1.712,0.45978 -2.917,1.99158 -2.9609,3.76367 l -2.2461,26.82813 c 0,0 -3.3106,-0.31108 -3.3106,-1.6875 l 0,-8.9043 c 0,-2.31876 -1.784,-4.18555 -4,-4.18555 -2.216,0 -4,1.86679 -4,4.18555 l 0,10.62891 c 0,0.12987 0.026,0.25211 0.037,0.3789 l -0.049,0.0625 c 0,1.50871 0.1329,2.82017 0.6191,4.23438 l 0.049,0.0176 3.2578,6.46289 c 0.6629,1.41421 1.5022,2.27734 3.5351,2.27734 l 26.8047,-0.002 c 1.5463,0 3.6207,-1.06935 4.2676,-2.13286 l 8.127,-14.07422 c 1.1593,-2.00811 0.548,-4.517 -1.3711,-5.625 -1.9192,-1.108 -4.3973,-0.38311 -5.5567,1.625 l -0.3945,0.68164 -0.8672,-0.5 1.6797,-2.9082 c 1.1594,-2.00811 0.548,-4.51701 -1.3711,-5.625 -1.9191,-1.108 -4.3973,-0.38311 -5.5566,1.625 l -1.6797,2.91015 -1.0176,-0.58789 9.0156,-18.27344 c 0.1791,-0.27612 0.3234,-0.57328 0.4297,-0.88476 1.164,-2.57828 -0.6427,-5.51725 -3.4688,-5.64258 z"
       id="rect4211-4"
       sodipodi:nodetypes="ccccccccccccccccccccccccccssssccccccccccccccsccccccc" />
    <path
       style="color:#000000;font-style:normal;font-variant:normal;font-weight:normal;font-stretch:normal;font-size:medium;line-height:normal;font-family:sans-serif;text-indent:0;text-align:start;text-decoration:none;text-decoration-line:none;text-decoration-style:solid;text-decoration-color:#000000;letter-spacing:normal;word-spacing:normal;text-transform:none;direction:ltr;block-progression:tb;writing-mode:lr-tb;baseline-shift:baseline;text-anchor:start;white-space:normal;clip-rule:nonzero;display:inline;overflow:visible;visibility:visible;opacity:1;isolation:auto;mix-blend-mode:normal;color-interpolation:sRGB;color-interpolation-filters:linearRGB;solid-color:#000000;solid-opacity:1;fill:#000000;fill-opacity:1;fill-rule:nonzero;stroke:none;stroke-width:3;stroke-linecap:round;stroke-linejoin:miter;stroke-miterlimit:4;stroke-dasharray:none;stroke-dashoffset:0;stroke-opacity:1;marker:none;color-rendering:auto;image-rendering:auto;shape-rendering:auto;text-rendering:auto;enable-background:accumulate"
       d="m -1041.1043,660.63912 c 1.2819,4.78403 -1.5819,9.74134 -6.3659,11.02322 -4.7841,1.28188 -9.7408,-1.57993 -11.0227,-6.36396 -1.2819,-4.78404 1.5799,-9.74083 6.3639,-11.0227 4.7841,-1.28188 9.7428,1.5794 11.0247,6.36344 z m -2.8978,0.77646 c -0.8623,-3.21797 -4.1324,-5.10438 -7.3504,-4.24213 -3.218,0.86226 -5.1049,4.13051 -4.2426,7.34847 0.8622,3.21796 4.1304,5.1049 7.3484,4.24264 3.218,-0.86225 5.1068,-4.13103 4.2446,-7.34898 z"
       id="path4223-3"
       inkscape:connector-curvature="0" />
    <path
       style="color:#000000;font-style:normal;font-variant:normal;font-weight:normal;font-stretch:normal;font-size:medium;line-height:normal;font-family:sans-serif;text-indent:0;text-align:start;text-decoration:none;text-decoration-line:none;text-decoration-style:solid;text-decoration-color:#000000;letter-spacing:normal;word-spacing:normal;text-transform:none;direction:ltr;block-progression:tb;writing-mode:lr-tb;baseline-shift:baseline;text-anchor:start;white-space:normal;clip-rule:nonzero;display:inline;overflow:visible;visibility:visible;opacity:1;isolation:auto;mix-blend-mode:normal;color-interpolation:sRGB;color-interpolation-filters:linearRGB;solid-color:#000000;solid-opacity:1;fill:#000000;fill-opacity:1;fill-rule:nonzero;stroke:none;stroke-width:3;stroke-linecap:round;stroke-linejoin:miter;stroke-miterlimit:4;stroke-dasharray:none;stroke-dashoffset:0;stroke-opacity:1;marker:none;color-rendering:auto;image-rendering:auto;shape-rendering:auto;text-rendering:auto;enable-background:accumulate"
       d="m -1022.189,655.35441 c 1.2819,4.78402 -1.5799,9.74082 -6.3639,11.0227 -4.7841,1.28188 -9.7409,-1.57993 -11.0227,-6.36396 -1.2819,-4.78403 1.5799,-9.74083 6.3639,-11.02271 4.784,-1.28187 9.7408,1.57994 11.0227,6.36397 z m -2.8978,0.77645 c -0.8622,-3.21795 -4.1305,-5.10489 -7.3484,-4.24264 -3.2179,0.86223 -5.1049,4.13052 -4.2427,7.34847 0.8623,3.21795 4.1306,5.10487 7.3485,4.24264 3.218,-0.86225 5.1049,-4.13051 4.2426,-7.34847 z"
       id="path4225-3"
       inkscape:connector-curvature="0" />
  </g>
</svg>
