<?xml version="1.0" encoding="UTF-8" standalone="no"?>
<!-- Created with Inkscape (http://www.inkscape.org/) -->

<svg
   xmlns:dc="http://purl.org/dc/elements/1.1/"
   xmlns:cc="http://creativecommons.org/ns#"
   xmlns:rdf="http://www.w3.org/1999/02/22-rdf-syntax-ns#"
   xmlns:svg="http://www.w3.org/2000/svg"
   xmlns="http://www.w3.org/2000/svg"
   xmlns:sodipodi="http://sodipodi.sourceforge.net/DTD/sodipodi-0.dtd"
   xmlns:inkscape="http://www.inkscape.org/namespaces/inkscape"
   width="64"
   height="64"
   viewBox="0 0 64.000001 64.000001"
   id="svg4317"
   version="1.1"
   inkscape:version="0.91 r13725"
   sodipodi:docname="stretch.svg">
  <defs
     id="defs4319" />
  <sodipodi:namedview
     id="base"
     pagecolor="#ffffff"
     bordercolor="#666666"
     borderopacity="1.0"
     inkscape:pageopacity="0.0"
     inkscape:pageshadow="2"
     inkscape:zoom="1"
     inkscape:cx="8.9492826"
     inkscape:cy="17.544631"
     inkscape:document-units="px"
     inkscape:current-layer="layer1"
     showgrid="false"
     units="px"
     inkscape:showpageshadow="false"
     inkscape:window-width="2560"
     inkscape:window-height="1376"
     inkscape:window-x="0"
     inkscape:window-y="27"
     inkscape:window-maximized="1">
    <inkscape:grid
       type="xygrid"
       id="grid9205" />
  </sodipodi:namedview>
  <metadata
     id="metadata4322">
    <rdf:RDF>
      <cc:Work
         rdf:about="">
        <dc:format>image/svg+xml</dc:format>
        <dc:type
           rdf:resource="http://purl.org/dc/dcmitype/StillImage" />
        <dc:title />
      </cc:Work>
    </rdf:RDF>
  </metadata>
  <g
     inkscape:label="Layer 1"
     inkscape:groupmode="layer"
     id="layer1"
     transform="translate(0,-988.3622)">
    <path
       style="color:#000000;clip-rule:nonzero;display:inline;overflow:visible;visibility:visible;opacity:1;isolation:auto;mix-blend-mode:normal;color-interpolation:sRGB;color-interpolation-filters:linearRGB;solid-color:#000000;solid-opacity:1;fill:#000000;fill-opacity:1;fill-rule:nonzero;stroke:#4a90d9;stroke-width:0;stroke-linecap:round;stroke-linejoin:miter;stroke-miterlimit:4;stroke-dasharray:none;stroke-dashoffset:0;stroke-opacity:1;marker:none;color-rendering:auto;image-rendering:auto;shape-rendering:auto;text-rendering:auto;enable-background:accumulate"
       d="M 25 8 C 20.047207 8 16 12.0472 16 17 C 16 21.849398 19.882333 25.820253 24.693359 25.984375 L 27 30.894531 L 27 41.185547 L 27 43.494141 L 20.464844 44.285156 L 19.414062 43.158203 C 19.786753 42.17281 20 41.112337 20 40 C 20 35.0472 15.952793 31 11 31 C 6.0472067 31 2 35.0472 2 40 C 2 44.9528 6.0472067 49 11 49 C 11.857115 49 12.684113 48.870665 13.470703 48.644531 L 22 58 L 31 58 L 35 58 L 58 58 C 60.215997 58 62 56.133212 62 53.814453 L 62 41.185547 L 62 32.185547 C 62 29.866788 60.215997 28 58 28 C 55.784003 28 54 29.866788 54 32.185547 L 54 37 L 53 37 L 53 26.185547 C 53 23.866788 51.215997 22 49 22 C 46.784003 22 45 23.866788 45 26.185547 L 45 37 L 44 37 L 44 13.185547 C 44 10.866788 42.215997 9 40 9 C 37.784003 9 36 10.866788 36 13.185547 L 36 37 L 35 37 L 35 30.185547 C 35 30.18084 34.998062 30.176578 34.998047 30.171875 A 4.0004 4.0004 0 0 0 34.621094 28.300781 L 31.974609 22.667969 C 33.238019 21.117771 34 19.145357 34 17 C 34 12.0472 29.952793 8 25 8 z M 25 11 C 28.331471 11 31 13.6686 31 17 C 31 17.882507 30.807929 18.714615 30.470703 19.466797 L 29.060547 16.462891 A 4.1028752 3.9987371 0 0 0 25 13.001953 A 4.1028752 3.9987371 0 0 0 24.826172 13.007812 A 4.0004 4.0004 0 0 0 20.896484 16.998047 A 4.1028752 3.9987371 0 0 1 20.896484 17 A 4.1028752 3.9987371 0 0 0 20.898438 17.027344 A 4.0004 4.0004 0 0 0 21.298828 18.755859 L 23.15625 22.710938 C 20.73678 21.938685 19 19.686937 19 17 C 19 13.6686 21.668529 11 25 11 z M 11 34 C 14.331471 34 17 36.6686 17 40 C 17 40.182439 16.988332 40.36093 16.972656 40.539062 L 13.964844 37.3125 C 13.238574 36.5117 12.219112 36.038953 11.138672 36.001953 C 7.5520017 35.879253 5.6304813 40.176278 8.1132812 42.767578 L 11.056641 45.998047 C 11.037592 45.998222 11.019093 46 11 46 C 7.6685289 46 5 43.3315 5 40 C 5 36.6686 7.6685289 34 11 34 z "
       transform="translate(0,988.3622)"
       id="rect4249" />
    <rect
       style="color:#000000;clip-rule:nonzero;display:inline;overflow:visible;visibility:visible;opacity:1;isolation:auto;mix-blend-mode:normal;color-interpolation:sRGB;color-interpolation-filters:linearRGB;solid-color:#000000;solid-opacity:1;fill:#000000;fill-opacity:1;fill-rule:nonzero;stroke:#4a90d9;stroke-width:0;stroke-linecap:round;stroke-linejoin:miter;stroke-miterlimit:4;stroke-dasharray:none;stroke-dashoffset:0;stroke-opacity:1;marker:none;color-rendering:auto;image-rendering:auto;shape-rendering:auto;text-rendering:auto;enable-background:accumulate"
       id="rect7301"
       width="7.99999"
       height="32"
       x="-73.000008"
       y="1014.3622"
       ry="4.1854858"
       rx="3.999995" />
    <rect
       rx="3.999995"
       ry="4.1854858"
       y="997.36218"
       x="-64.000008"
       height="49.000015"
       width="7.99999"
       id="rect7303"
       style="color:#000000;clip-rule:nonzero;display:inline;overflow:visible;visibility:visible;opacity:1;isolation:auto;mix-blend-mode:normal;color-interpolation:sRGB;color-interpolation-filters:linearRGB;solid-color:#000000;solid-opacity:1;fill:#000000;fill-opacity:1;fill-rule:nonzero;stroke:#4a90d9;stroke-width:0;stroke-linecap:round;stroke-linejoin:miter;stroke-miterlimit:4;stroke-dasharray:none;stroke-dashoffset:0;stroke-opacity:1;marker:none;color-rendering:auto;image-rendering:auto;shape-rendering:auto;text-rendering:auto;enable-background:accumulate" />
    <rect
       style="color:#000000;clip-rule:nonzero;display:inline;overflow:visible;visibility:visible;opacity:1;isolation:auto;mix-blend-mode:normal;color-interpolation:sRGB;color-interpolation-filters:linearRGB;solid-color:#000000;solid-opacity:1;fill:#000000;fill-opacity:1;fill-rule:nonzero;stroke:#4a90d9;stroke-width:0;stroke-linecap:round;stroke-linejoin:miter;stroke-miterlimit:4;stroke-dasharray:none;stroke-dashoffset:0;stroke-opacity:1;marker:none;color-rendering:auto;image-rendering:auto;shape-rendering:auto;text-rendering:auto;enable-background:accumulate"
       id="rect7305"
       width="7.99999"
       height="36.000011"
       x="-55.000008"
       y="1010.3622"
       ry="4.1854858"
       rx="3.999995" />
    <rect
       rx="3.999995"
       ry="4.1854858"
       y="1016.3622"
       x="-46.000008"
       height="30.000006"
       width="7.99999"
       id="rect7307"
       style="color:#000000;clip-rule:nonzero;display:inline;overflow:visible;visibility:visible;opacity:1;isolation:auto;mix-blend-mode:normal;color-interpolation:sRGB;color-interpolation-filters:linearRGB;solid-color:#000000;solid-opacity:1;fill:#000000;fill-opacity:1;fill-rule:nonzero;stroke:#4a90d9;stroke-width:0;stroke-linecap:round;stroke-linejoin:miter;stroke-miterlimit:4;stroke-dasharray:none;stroke-dashoffset:0;stroke-opacity:1;marker:none;color-rendering:auto;image-rendering:auto;shape-rendering:auto;text-rendering:auto;enable-background:accumulate" />
    <rect
       style="color:#000000;clip-rule:nonzero;display:inline;overflow:visible;visibility:visible;opacity:1;isolation:auto;mix-blend-mode:normal;color-interpolation:sRGB;color-interpolation-filters:linearRGB;solid-color:#000000;solid-opacity:1;fill:#000000;fill-opacity:1;fill-rule:nonzero;stroke:#4a90d9;stroke-width:0;stroke-linecap:round;stroke-linejoin:miter;stroke-miterlimit:4;stroke-dasharray:none;stroke-dashoffset:0;stroke-opacity:1;marker:none;color-rendering:auto;image-rendering:auto;shape-rendering:auto;text-rendering:auto;enable-background:accumulate"
       id="rect7309"
       width="34.999985"
       height="21"
       x="-73.000008"
       y="1025.3622"
       ry="4.1854858"
       rx="3.999995" />
    <ellipse
       style="color:#000000;display:inline;overflow:visible;visibility:visible;fill:none;stroke:#000000;stroke-width:3;stroke-linecap:round;stroke-linejoin:miter;stroke-miterlimit:4;stroke-dasharray:none;stroke-dashoffset:0;stroke-opacity:1;marker:none;enable-background:accumulate"
       id="ellipse7311"
       cx="-89.000008"
       cy="1028.3622"
       rx="7.4999938"
       ry="7.5000024" />
    <path
       sodipodi:nodetypes="cccccccc"
       inkscape:connector-curvature="0"
       id="path7313"
       d="m -88.861346,1024.3646 c -3.58667,-0.1227 -5.50819,4.1743 -3.02539,6.7656 l 13.88672,15.232 13,0 -6.03516,-14.7437 -8.5,1.0283 -6.5,-6.9716 c -0.72627,-0.8008 -1.74573,-1.2736 -2.82617,-1.3106 z"
       style="color:#000000;font-style:normal;font-variant:normal;font-weight:normal;font-stretch:normal;font-size:medium;line-height:normal;font-family:sans-serif;text-indent:0;text-align:start;text-decoration:none;text-decoration-line:none;text-decoration-style:solid;text-decoration-color:#000000;letter-spacing:normal;word-spacing:normal;text-transform:none;direction:ltr;block-progression:tb;writing-mode:lr-tb;baseline-shift:baseline;text-anchor:start;white-space:normal;clip-rule:nonzero;display:inline;overflow:visible;visibility:visible;opacity:1;isolation:auto;mix-blend-mode:normal;color-interpolation:sRGB;color-interpolation-filters:linearRGB;solid-color:#000000;solid-opacity:1;fill:#000000;fill-opacity:1;fill-rule:evenodd;stroke:none;stroke-width:8;stroke-linecap:round;stroke-linejoin:miter;stroke-miterlimit:4;stroke-dasharray:none;stroke-dashoffset:0;stroke-opacity:1;color-rendering:auto;image-rendering:auto;shape-rendering:auto;text-rendering:auto;enable-background:accumulate" />
    <ellipse
       ry="7.5000024"
       rx="7.4999938"
       cy="1005.3622"
       cx="-75.000008"
       id="ellipse7315"
       style="color:#000000;display:inline;overflow:visible;visibility:visible;fill:none;stroke:#000000;stroke-width:3;stroke-linecap:round;stroke-linejoin:miter;stroke-miterlimit:4;stroke-dasharray:none;stroke-dashoffset:0;stroke-opacity:1;marker:none;enable-background:accumulate" />
    <ellipse
       ry="3.9987371"
       rx="4.1028752"
       cy="1005.3622"
       cx="-75.000008"
       id="ellipse7317"
       style="opacity:1;fill:#4a90d9;fill-opacity:0.31564989;stroke:#ffffff;stroke-width:0;stroke-linecap:round;stroke-miterlimit:4;stroke-dasharray:none;stroke-dashoffset:0;stroke-opacity:1" />
    <path
       sodipodi:nodetypes="cc"
       inkscape:connector-curvature="0"
       id="path7319"
       d="m -75.081156,1005.4162 6.08114,12.946"
       style="fill:none;fill-rule:evenodd;stroke:#000000;stroke-width:8;stroke-linecap:round;stroke-linejoin:miter;stroke-miterlimit:4;stroke-dasharray:none;stroke-opacity:1" />
  </g>
</svg>
