<?xml version="1.0" encoding="UTF-8" standalone="no"?>
<!-- Created with Inkscape (http://www.inkscape.org/) -->

<svg
   xmlns:dc="http://purl.org/dc/elements/1.1/"
   xmlns:cc="http://creativecommons.org/ns#"
   xmlns:rdf="http://www.w3.org/1999/02/22-rdf-syntax-ns#"
   xmlns:svg="http://www.w3.org/2000/svg"
   xmlns="http://www.w3.org/2000/svg"
   xmlns:sodipodi="http://sodipodi.sourceforge.net/DTD/sodipodi-0.dtd"
   xmlns:inkscape="http://www.inkscape.org/namespaces/inkscape"
   width="96"
   height="64"
   viewBox="0 0 96.000001 64"
   id="svg6660"
   version="1.1"
   inkscape:version="0.91 r13725"
   sodipodi:docname="two-finger-swipe-left.svg"
   inkscape:export-filename="/home/aday/Scratch/two-finger-swipe-left.png"
   inkscape:export-xdpi="90"
   inkscape:export-ydpi="90">
  <defs
     id="defs6662" />
  <sodipodi:namedview
     id="base"
     pagecolor="#ffffff"
     bordercolor="#666666"
     borderopacity="1.0"
     inkscape:pageopacity="0.0"
     inkscape:pageshadow="2"
     inkscape:zoom="1"
     inkscape:cx="8.3029609"
     inkscape:cy="6.867595"
     inkscape:document-units="px"
     inkscape:current-layer="layer1"
     showgrid="false"
     inkscape:showpageshadow="false"
     units="px"
     fit-margin-top="0"
     fit-margin-left="0"
     fit-margin-right="0"
     fit-margin-bottom="0"
     inkscape:window-width="2560"
     inkscape:window-height="1376"
     inkscape:window-x="0"
     inkscape:window-y="27"
     inkscape:window-maximized="1">
    <inkscape:grid
       type="xygrid"
       id="grid9814" />
  </sodipodi:namedview>
  <metadata
     id="metadata6665">
    <rdf:RDF>
      <cc:Work
         rdf:about="">
        <dc:format>image/svg+xml</dc:format>
        <dc:type
           rdf:resource="http://purl.org/dc/dcmitype/StillImage" />
        <dc:title />
      </cc:Work>
    </rdf:RDF>
  </metadata>
  <g
     inkscape:label="Layer 1"
     inkscape:groupmode="layer"
     id="layer1"
     transform="translate(1077.1429,-641.07582)">
    <path
       style="color:#000000;clip-rule:nonzero;display:inline;overflow:visible;visibility:visible;opacity:1;isolation:auto;mix-blend-mode:normal;color-interpolation:sRGB;color-interpolation-filters:linearRGB;solid-color:#000000;solid-opacity:1;fill:#000000;fill-opacity:1;fill-rule:nonzero;stroke:#4a90d9;stroke-width:0;stroke-linecap:round;stroke-linejoin:miter;stroke-miterlimit:4;stroke-dasharray:none;stroke-dashoffset:0;stroke-opacity:1;marker:none;color-rendering:auto;image-rendering:auto;shape-rendering:auto;text-rendering:auto;enable-background:accumulate"
       d="M 64.271484 6.0039062 C 63.981891 5.9956392 63.6927 6.0019069 63.40625 6.0214844 C 60.246792 6.2373908 57.33315 8.1255752 55.902344 11.082031 C 55.173791 10.99004 54.447851 10.978702 53.738281 11.0625 C 50.416148 11.454832 47.461724 13.69486 46.292969 17 L 16 17 L 16 10 L 6 19.5 L 16 29 L 16 22 L 46.009766 22 C 46.623079 24.656405 48.425112 26.97211 51 28.162109 L 51 47 L 50 47 L 50 39.185547 C 50 36.866788 48.215997 35 46 35 C 43.784003 35 42 36.866788 42 39.185547 L 42 47 L 42 55.814453 L 42 60 L 46 60 L 71 60 L 82 60 C 84.215997 60 86 58.133212 86 55.814453 L 86 43.185547 L 86 34.185547 C 86 31.866788 84.215997 30 82 30 C 79.784003 30 78 31.866788 78 34.185547 L 78 39 L 77 39 L 77 28.185547 C 77 25.866788 75.215997 24 73 24 C 70.784003 24 69 25.866788 69 28.185547 L 69 39 L 68 39 L 68 23.039062 C 70.136871 21.97775 71.853221 20.084507 72.603516 17.640625 C 74.028816 12.998085 71.481759 8.0270562 66.880859 6.4726562 C 66.018209 6.1812064 65.140266 6.0287073 64.271484 6.0039062 z M 64.171875 8.9980469 C 64.75212 9.0163779 65.340003 9.1185269 65.919922 9.3144531 C 69.012922 10.359403 70.694428 13.638816 69.736328 16.759766 C 69.402066 17.848487 68.787392 18.768943 68 19.474609 L 68 15.185547 C 68 12.866788 66.215997 11 64 11 C 61.784003 11 60 12.866788 60 15.185547 L 60 22.945312 C 59.725034 23.436938 59.386637 23.876947 59 24.261719 L 59 20.185547 C 59 17.866788 57.215997 16 55 16 C 52.784003 16 51 17.866788 51 20.185547 L 51 24.666016 C 49.150265 23.179658 48.297097 20.683819 49.027344 18.265625 C 49.981544 15.105475 53.261594 13.320315 56.433594 14.234375 A 1.50015 1.50015 0 0 0 58.361328 12.947266 A 1.50015 1.50015 0 0 0 58.371094 12.921875 C 59.28995 10.433529 61.657479 8.9186122 64.171875 8.9980469 z M 60 27.296875 L 60 39 L 59 39 L 59 27.925781 C 59.347573 27.73989 59.678838 27.526728 60 27.296875 z "
       transform="translate(-1077.1429,641.07582)"
       id="rect6617" />
    <rect
       rx="3.999995"
       ry="4.1854858"
       y="676.07581"
       x="-1195.1428"
       height="24.999994"
       width="7.99999"
       id="rect7302"
       style="color:#000000;clip-rule:nonzero;display:inline;overflow:visible;visibility:visible;opacity:1;isolation:auto;mix-blend-mode:normal;color-interpolation:sRGB;color-interpolation-filters:linearRGB;solid-color:#000000;solid-opacity:1;fill:#000000;fill-opacity:1;fill-rule:nonzero;stroke:#4a90d9;stroke-width:0;stroke-linecap:round;stroke-linejoin:miter;stroke-miterlimit:4;stroke-dasharray:none;stroke-dashoffset:0;stroke-opacity:1;marker:none;color-rendering:auto;image-rendering:auto;shape-rendering:auto;text-rendering:auto;enable-background:accumulate" />
    <rect
       style="color:#000000;clip-rule:nonzero;display:inline;overflow:visible;visibility:visible;opacity:1;isolation:auto;mix-blend-mode:normal;color-interpolation:sRGB;color-interpolation-filters:linearRGB;solid-color:#000000;solid-opacity:1;fill:#000000;fill-opacity:1;fill-rule:nonzero;stroke:#4a90d9;stroke-width:0;stroke-linecap:round;stroke-linejoin:miter;stroke-miterlimit:4;stroke-dasharray:none;stroke-dashoffset:0;stroke-opacity:1;marker:none;color-rendering:auto;image-rendering:auto;shape-rendering:auto;text-rendering:auto;enable-background:accumulate"
       id="rect7304"
       width="7.99999"
       height="43.999989"
       x="-1186.1428"
       y="657.07581"
       ry="4.1854858"
       rx="3.999995" />
    <rect
       rx="3.999995"
       ry="4.1854858"
       y="652.07581"
       x="-1177.1428"
       height="49.000015"
       width="7.99999"
       id="rect7306"
       style="color:#000000;clip-rule:nonzero;display:inline;overflow:visible;visibility:visible;opacity:1;isolation:auto;mix-blend-mode:normal;color-interpolation:sRGB;color-interpolation-filters:linearRGB;solid-color:#000000;solid-opacity:1;fill:#000000;fill-opacity:1;fill-rule:nonzero;stroke:#4a90d9;stroke-width:0;stroke-linecap:round;stroke-linejoin:miter;stroke-miterlimit:4;stroke-dasharray:none;stroke-dashoffset:0;stroke-opacity:1;marker:none;color-rendering:auto;image-rendering:auto;shape-rendering:auto;text-rendering:auto;enable-background:accumulate" />
    <rect
       style="color:#000000;clip-rule:nonzero;display:inline;overflow:visible;visibility:visible;opacity:1;isolation:auto;mix-blend-mode:normal;color-interpolation:sRGB;color-interpolation-filters:linearRGB;solid-color:#000000;solid-opacity:1;fill:#000000;fill-opacity:1;fill-rule:nonzero;stroke:#4a90d9;stroke-width:0;stroke-linecap:round;stroke-linejoin:miter;stroke-miterlimit:4;stroke-dasharray:none;stroke-dashoffset:0;stroke-opacity:1;marker:none;color-rendering:auto;image-rendering:auto;shape-rendering:auto;text-rendering:auto;enable-background:accumulate"
       id="rect7308"
       width="7.99999"
       height="36.000011"
       x="-1168.1428"
       y="665.07581"
       ry="4.1854858"
       rx="3.999995" />
    <rect
       rx="3.999995"
       ry="4.1854858"
       y="671.07581"
       x="-1159.1428"
       height="30.000006"
       width="7.99999"
       id="rect7310"
       style="color:#000000;clip-rule:nonzero;display:inline;overflow:visible;visibility:visible;opacity:1;isolation:auto;mix-blend-mode:normal;color-interpolation:sRGB;color-interpolation-filters:linearRGB;solid-color:#000000;solid-opacity:1;fill:#000000;fill-opacity:1;fill-rule:nonzero;stroke:#4a90d9;stroke-width:0;stroke-linecap:round;stroke-linejoin:miter;stroke-miterlimit:4;stroke-dasharray:none;stroke-dashoffset:0;stroke-opacity:1;marker:none;color-rendering:auto;image-rendering:auto;shape-rendering:auto;text-rendering:auto;enable-background:accumulate" />
    <rect
       style="color:#000000;clip-rule:nonzero;display:inline;overflow:visible;visibility:visible;opacity:1;isolation:auto;mix-blend-mode:normal;color-interpolation:sRGB;color-interpolation-filters:linearRGB;solid-color:#000000;solid-opacity:1;fill:#000000;fill-opacity:1;fill-rule:nonzero;stroke:#4a90d9;stroke-width:0;stroke-linecap:round;stroke-linejoin:miter;stroke-miterlimit:4;stroke-dasharray:none;stroke-dashoffset:0;stroke-opacity:1;marker:none;color-rendering:auto;image-rendering:auto;shape-rendering:auto;text-rendering:auto;enable-background:accumulate"
       id="rect7312"
       width="28.999994"
       height="12.99999"
       x="-1195.1428"
       y="688.07581" />
    <rect
       style="color:#000000;clip-rule:nonzero;display:inline;overflow:visible;visibility:visible;opacity:1;isolation:auto;mix-blend-mode:normal;color-interpolation:sRGB;color-interpolation-filters:linearRGB;solid-color:#000000;solid-opacity:1;fill:#000000;fill-opacity:1;fill-rule:nonzero;stroke:#4a90d9;stroke-width:0;stroke-linecap:round;stroke-linejoin:miter;stroke-miterlimit:4;stroke-dasharray:none;stroke-dashoffset:0;stroke-opacity:1;marker:none;color-rendering:auto;image-rendering:auto;shape-rendering:auto;text-rendering:auto;enable-background:accumulate"
       id="rect7314"
       width="34.999985"
       height="21"
       x="-1186.1428"
       y="680.07581"
       ry="4.1854858"
       rx="3.999995" />
    <path
       sodipodi:open="true"
       d="m -1180.1784,653.47773 a 7.4999938,7.5000024 0 0 1 9.4361,-4.50737 7.4999938,7.5000024 0 0 1 4.7692,9.3066 7.4999938,7.5000024 0 0 1 -9.1698,5.02725"
       sodipodi:end="1.8407347"
       sodipodi:start="3.4953343"
       sodipodi:ry="7.5000024"
       sodipodi:rx="7.4999938"
       sodipodi:cy="656.07581"
       sodipodi:cx="-1173.1428"
       sodipodi:type="arc"
       id="path7316"
       style="color:#000000;display:inline;overflow:visible;visibility:visible;fill:none;stroke:#000000;stroke-width:3;stroke-linecap:round;stroke-linejoin:miter;stroke-miterlimit:4;stroke-dasharray:none;stroke-dashoffset:0;stroke-opacity:1;marker:none;enable-background:accumulate" />
    <path
       sodipodi:open="true"
       style="color:#000000;display:inline;overflow:visible;visibility:visible;fill:none;stroke:#000000;stroke-width:3;stroke-linecap:round;stroke-linejoin:miter;stroke-miterlimit:4;stroke-dasharray:none;stroke-dashoffset:0;stroke-opacity:1;marker:none;enable-background:accumulate"
       id="path7318"
       sodipodi:type="arc"
       sodipodi:cx="-1182.3708"
       sodipodi:cy="661.07544"
       sodipodi:rx="7.4999938"
       sodipodi:ry="7.5000024"
       sodipodi:start="0.31864739"
       sodipodi:end="4.9929531"
       d="m -1175.2484,663.42506 a 7.4999938,7.5000024 0 0 1 -9.3815,4.80208 7.4999938,7.5000024 0 0 1 -4.9207,-9.31975 7.4999938,7.5000024 0 0 1 9.2565,-5.0387" />
    <path
       sodipodi:nodetypes="cccc"
       inkscape:connector-curvature="0"
       id="path7320"
       d="m -1221.1429,670.07579 -10,-9.5 10,-9.5 z"
       style="color:#000000;display:inline;overflow:visible;visibility:visible;fill:#000000;fill-opacity:1;fill-rule:nonzero;stroke:none;stroke-width:6;marker:none;enable-background:accumulate" />
    <rect
       y="-663.07581"
       x="1190.1428"
       height="4.99999"
       width="31.999987"
       id="rect7322"
       style="color:#000000;clip-rule:nonzero;display:inline;overflow:visible;visibility:visible;opacity:1;isolation:auto;mix-blend-mode:normal;color-interpolation:sRGB;color-interpolation-filters:linearRGB;solid-color:#000000;solid-opacity:1;fill:#000000;fill-opacity:1;fill-rule:nonzero;stroke:#4a90d9;stroke-width:0;stroke-linecap:round;stroke-linejoin:miter;stroke-miterlimit:4;stroke-dasharray:none;stroke-dashoffset:0;stroke-opacity:1;marker:none;color-rendering:auto;image-rendering:auto;shape-rendering:auto;text-rendering:auto;enable-background:accumulate"
       transform="scale(-1,-1)" />
  </g>
</svg>
