clip {
  clip: 0 0 10 10;
  child: shadow {
    shadows: yellow 100.6 0,
             blue 100.2 0;
    child: transform {
      transform: translate(-100.6,0);
      child: fill {
        path: {
          0 0 0.4 1;
          2 0 0.4 1;
          4 0 0.4 1;
          6 0 0.4 1;
          8 0 0.4 1;
          10 0 0.4 1;
          1 1 0.4 1;
          3 1 0.4 1;
          5 1 0.4 1;
          7 1 0.4 1;
          9 1 0.4 1;
          0 2 0.4 1;
          2 2 0.4 1;
          4 2 0.4 1;
          6 2 0.4 1;
          8 2 0.4 1;
          10 2 0.4 1;
          1 3 0.4 1;
          3 3 0.4 1;
          5 3 0.4 1;
          7 3 0.4 1;
          9 3 0.4 1;
          0 4 0.4 1;
          2 4 0.4 1;
          4 4 0.4 1;
          6 4 0.4 1;
          8 4 0.4 1;
          10 4 0.4 1;
          1 5 0.4 1;
          3 5 0.4 1;
          5 5 0.4 1;
          7 5 0.4 1;
          9 5 0.4 1;
          0 6 0.4 1;
          2 6 0.4 1;
          4 6 0.4 1;
          6 6 0.4 1;
          8 6 0.4 1;
          10 6 0.4 1;
          1 7 0.4 1;
          3 7 0.4 1;
          5 7 0.4 1;
          7 7 0.4 1;
          9 7 0.4 1;
          0 8 0.4 1;
          2 8 0.4 1;
          4 8 0.4 1;
          6 8 0.4 1;
          8 8 0.4 1;
          10 8 0.4 1;
          1 9 0.4 1;
          3 9 0.4 1;
          5 9 0.4 1;
          7 9 0.4 1;
          9 9 0.4 1;
        }
      }
    }
  }
}
