<?xml version="1.0" encoding="UTF-8" standalone="no"?>
<!-- Created with Inkscape (http://www.inkscape.org/) -->

<svg
   width="210mm"
   height="297mm"
   viewBox="0 0 210 297"
   version="1.1"
   id="svg1"
   inkscape:version="1.3 (0e150ed6c4, 2023-07-21)"
   sodipodi:docname="caps.svg"
   xmlns:inkscape="http://www.inkscape.org/namespaces/inkscape"
   xmlns:sodipodi="http://sodipodi.sourceforge.net/DTD/sodipodi-0.dtd"
   xmlns="http://www.w3.org/2000/svg"
   xmlns:svg="http://www.w3.org/2000/svg">
  <sodipodi:namedview
     id="namedview1"
     pagecolor="#ffffff"
     bordercolor="#000000"
     borderopacity="0.25"
     inkscape:showpageshadow="2"
     inkscape:pageopacity="0.0"
     inkscape:pagecheckerboard="0"
     inkscape:deskcolor="#d1d1d1"
     inkscape:document-units="mm"
     inkscape:zoom="2.1493149"
     inkscape:cx="438.74445"
     inkscape:cy="288.69664"
     inkscape:window-width="1920"
     inkscape:window-height="1123"
     inkscape:window-x="0"
     inkscape:window-y="0"
     inkscape:window-maximized="1"
     inkscape:current-layer="layer1" />
  <defs
     id="defs1">
    <linearGradient
       id="swatch1"
       inkscape:swatch="solid">
      <stop
         style="stop-color:#000000;stop-opacity:1;"
         offset="0"
         id="stop1" />
    </linearGradient>
  </defs>
  <g
     inkscape:label="Layer 1"
     inkscape:groupmode="layer"
     id="layer1">
    <path
       style="fill:none;stroke:#000064;stroke-width:1;stroke-miterlimit:0;stroke-dasharray:none"
       d="m 73.096455,77.084329 c 0,0 6.439436,18.711677 18.172676,26.635721"
       id="path1"
       sodipodi:nodetypes="cc" />
    <path
       style="color:#000000;fill:none;stroke:#000064;stroke-width:0.2;stroke-miterlimit:10;stroke-dasharray:none;stroke-opacity:1"
       d="m 94.214979,99.722163 c -4.705477,-3.177832 -9.013472,-9.233699 -11.888672,-14.531169 -2.8752,-5.29748 -4.353516,-9.587833 -4.353516,-9.587833 L 68.51576,78.85704 c 0,0 1.743663,5.064163 5.021484,11.103457 3.277822,6.039297 8.05428,13.302573 15.082031,18.048773"
       id="path1-1"
       sodipodi:nodetypes="csccsc" />
    <path
       style="fill:none;stroke:#000064;stroke-width:1;stroke-miterlimit:0;stroke-dasharray:none"
       d="m 112.14213,75.736452 c 0,0 6.43944,18.711675 18.17268,26.635728"
       id="path1-4"
       sodipodi:nodetypes="cc" />
    <path
       style="color:#000000;fill:none;stroke:#000064;stroke-width:0.2;stroke-linecap:round;stroke-miterlimit:0;stroke-dasharray:none;stroke-opacity:1"
       d="m 132.83284,98.590758 c -4.70551,-3.177807 -9.01347,-9.233742 -11.88867,-14.53125 -2.8752,-5.297508 -4.35351,-9.587891 -4.35351,-9.587891 -0.89828,-2.611719 -3.74396,-4.000453 -6.35547,-3.101562 -2.61172,0.898277 -4.00046,3.743958 -3.10157,6.355468 0,0 1.74367,5.064185 5.02149,11.103516 3.27782,6.039331 8.05428,13.302641 15.08203,18.048851"
       id="path1-4-5"
       sodipodi:nodetypes="cscccsc" />
    <path
       style="fill:none;stroke:#000064;stroke-width:1;stroke-miterlimit:0;stroke-dasharray:none"
       d="m 154.10911,73.84561 c 0,0 6.43943,18.711677 18.17267,26.63572"
       id="path1-0"
       sodipodi:nodetypes="cc" />
    <path
       style="color:#000000;fill:none;stroke:#000064;stroke-width:0.2;stroke-linecap:square;stroke-miterlimit:10;stroke-dasharray:none;stroke-opacity:1"
       d="M 175.16683,96.47344 C 170.46135,93.295592 166.1514,87.239699 163.2762,81.94219 160.401,76.644682 158.92269,72.3543 158.92269,72.3543 l -1.62696,-4.728516 -9.45508,3.253906 1.62696,4.728516 c 0,0 1.74171,5.066138 5.01953,11.105469 3.27782,6.039331 8.05428,13.300675 15.08203,18.046895"
       id="path1-4-1"
       sodipodi:nodetypes="csccccsc" />
  </g>
</svg>
