<?xml version="1.0" encoding="UTF-8" standalone="no"?>
<!-- Created with Inkscape (http://www.inkscape.org/) -->

<svg
   width="210mm"
   height="297mm"
   viewBox="0 0 210 297"
   version="1.1"
   id="svg1"
   inkscape:version="1.3 (0e150ed6c4, 2023-07-21)"
   sodipodi:docname="join.svg"
   xmlns:inkscape="http://www.inkscape.org/namespaces/inkscape"
   xmlns:sodipodi="http://sodipodi.sourceforge.net/DTD/sodipodi-0.dtd"
   xmlns="http://www.w3.org/2000/svg"
   xmlns:svg="http://www.w3.org/2000/svg">
  <sodipodi:namedview
     id="namedview1"
     pagecolor="#ffffff"
     bordercolor="#000000"
     borderopacity="0.25"
     inkscape:showpageshadow="2"
     inkscape:pageopacity="0.0"
     inkscape:pagecheckerboard="0"
     inkscape:deskcolor="#d1d1d1"
     inkscape:document-units="mm"
     inkscape:zoom="0.75989759"
     inkscape:cx="118.43701"
     inkscape:cy="570.47161"
     inkscape:window-width="1920"
     inkscape:window-height="1123"
     inkscape:window-x="0"
     inkscape:window-y="0"
     inkscape:window-maximized="1"
     inkscape:current-layer="layer1" />
  <defs
     id="defs1" />
  <g
     inkscape:label="Layer 1"
     inkscape:groupmode="layer"
     id="layer1">
    <path
       style="fill:none;stroke:#000064;stroke-width:1;stroke-linecap:square;stroke-miterlimit:10;stroke-dasharray:none"
       d="m 12.748727,122.15935 c 4.449842,-15.44496 4.175632,-15.92044 16.908788,-26.568585 0,0 8.478091,16.421195 35.150804,33.660325"
       id="path1"
       sodipodi:nodetypes="ccc" />
    <path
       style="color:#000000;fill:none;stroke:#000064;stroke-width:0.2;stroke-linecap:square;stroke-miterlimit:10;stroke-dasharray:none;stroke-opacity:1"
       d="m 17.59375,123.72266 c 3.810222,-13.2249 3.591775,-14.13123 11.107422,-20.53516 1.289688,1.82186 2.604788,3.71164 4.800781,6.23242 5.743296,6.59272 14.891452,15.32766 28.632813,24.20899 M 67.5625,125.23047 C 54.631174,116.87268 46.204933,108.77726 41.041016,102.84961 35.877098,96.921954 34.140625,93.474609 34.140625,93.474609 l -2.861328,-5.544922 -4.789063,4.003907 C 13.673794,102.6514 12.411529,105.58692 7.984375,120.95313"
       id="path1-3"
       sodipodi:nodetypes="ccsccscccc" />
    <path
       style="fill:none;stroke:#000064;stroke-width:1;stroke-linecap:square;stroke-miterlimit:10;stroke-dasharray:none"
       d="m 147.99215,122.60257 c 4.44988,-15.44499 4.17566,-15.92048 16.90889,-26.568657 0,0 8.47814,16.421267 35.15101,33.660397"
       id="path1-5"
       sodipodi:nodetypes="ccc" />
    <path
       style="color:#000000;fill:none;stroke:#000064;stroke-width:0.2;stroke-linecap:square;stroke-linejoin:bevel;stroke-miterlimit:10;stroke-dasharray:none;stroke-opacity:1"
       d="m 152.79687,123.98633 c 3.81053,-13.22586 3.59005,-14.12993 11.10743,-20.53516 1.28968,1.82184 2.6029,3.71173 4.79882,6.23242 5.74333,6.59274 14.89333,15.32961 28.63477,24.21094 m 5.42773,-8.40039 c -12.9314,-8.35778 -21.35753,-16.45123 -26.52148,-22.37891 -5.16395,-5.927668 -6.90039,-9.374996 -6.90039,-9.374996 l -7.65039,-1.541015 C 148.87685,102.91706 147.61469,105.85252 143.1875,121.21875"
       id="path1-5-8"
       sodipodi:nodetypes="ccsccsccc" />
    <path
       style="fill:none;stroke:#000064;stroke-width:1;stroke-linecap:square;stroke-miterlimit:10;stroke-dasharray:none"
       d="m 79.729342,122.0734 c 4.449844,-15.44499 4.175634,-15.92048 16.908794,-26.568654 0,0 8.478114,16.421264 35.150984,33.660394"
       id="path1-7"
       sodipodi:nodetypes="ccc" />
    <path
       style="color:#000000;fill:none;stroke:#000064;stroke-width:0.2;stroke-linecap:square;stroke-linejoin:round;stroke-miterlimit:10;stroke-dasharray:none;stroke-opacity:1"
       d="m 84.533203,123.19336 c 3.810222,-13.22495 3.591776,-14.1312 11.107422,-20.53516 1.289696,1.82187 2.604775,3.71164 4.800785,6.23243 5.74333,6.59275 14.89136,15.32765 28.63281,24.20898 m 5.42969,-8.39844 c -12.93141,-8.35778 -21.35949,-16.45122 -26.52344,-22.3789 -5.16395,-5.927686 -6.90039,-9.375004 -6.90039,-9.375004 -0.69636,-1.348401 -1.967393,-2.307601 -3.45508,-2.607422 -1.487509,-0.300132 -3.03083,0.09145 -4.195313,1.064453 C 80.61325,102.12215 79.350982,105.05756 74.923828,120.42383"
       id="path1-7-4"
       sodipodi:nodetypes="ccsccscccc" />
  </g>
</svg>
