<?xml version="1.0" encoding="UTF-8"?>
<svg height="128px" viewBox="0 0 128 128" width="128px" xmlns="http://www.w3.org/2000/svg" xmlns:xlink="http://www.w3.org/1999/xlink">
    <linearGradient id="a" gradientUnits="userSpaceOnUse" x1="43.000351" x2="85.000351" y1="39.000164" y2="39.000164">
        <stop offset="0" stop-color="#26a269"/>
        <stop offset="0.0934161" stop-color="#84e3b7"/>
        <stop offset="0.330831" stop-color="#26a269"/>
        <stop offset="0.686952" stop-color="#26a269"/>
        <stop offset="0.89736" stop-color="#175e3c"/>
        <stop offset="1" stop-color="#26a269"/>
    </linearGradient>
    <linearGradient id="b" gradientUnits="userSpaceOnUse">
        <stop offset="0" stop-color="#c0bfbc"/>
        <stop offset="0.154754" stop-color="#ffffff"/>
        <stop offset="0.433722" stop-color="#bdbbb5"/>
        <stop offset="0.650505" stop-color="#c1c0ba"/>
        <stop offset="0.825253" stop-color="#ffffff"/>
        <stop offset="1" stop-color="#c0bfbc"/>
    </linearGradient>
    <linearGradient id="c" gradientTransform="matrix(0.0811899 -0.046875 0.069079 0.119648 307.03142 127.069456)" x1="-1710.210571" x2="-1774.45166" xlink:href="#b" y1="-1202.376709" y2="-1202.376709"/>
    <linearGradient id="d" gradientTransform="matrix(-0.0811899 -0.046875 -0.069079 0.119648 -177.242852 127.069447)" x1="-1710.210571" x2="-1774.45166" xlink:href="#b" y1="-1202.376709" y2="-1202.376709"/>
    <linearGradient id="e" gradientUnits="userSpaceOnUse" x1="14" x2="56" y1="94.999964" y2="94.999964">
        <stop offset="0" stop-color="#813d9c"/>
        <stop offset="0.109119" stop-color="#b378ca"/>
        <stop offset="0.241583" stop-color="#813d9c"/>
        <stop offset="0.731841" stop-color="#813d9c"/>
        <stop offset="0.872163" stop-color="#4d255d"/>
        <stop offset="1" stop-color="#813d9c"/>
    </linearGradient>
    <linearGradient id="f" gradientUnits="userSpaceOnUse" x1="72" x2="114" y1="94.999964" y2="94.999964">
        <stop offset="0" stop-color="#e66100"/>
        <stop offset="0.0678478" stop-color="#ff903e"/>
        <stop offset="0.168852" stop-color="#e66100"/>
        <stop offset="0.886626" stop-color="#e66100"/>
        <stop offset="1" stop-color="#9d4200"/>
    </linearGradient>
    <clipPath id="g">
        <rect height="128" width="128"/>
    </clipPath>
    <clipPath id="h">
        <rect height="128" width="128"/>
    </clipPath>
    <filter id="i" height="100%" width="100%" x="0%" y="0%">
        <feColorMatrix in="SourceGraphic" type="matrix" values="0 0 0 0 1 0 0 0 0 1 0 0 0 0 1 0 0 0 1 0"/>
    </filter>
    <mask id="j">
        <g clip-path="url(#h)" filter="url(#i)">
            <g clip-path="url(#g)">
                <path d="m 51 18 h 26 c 4.417969 0 8 3.582031 8 8 v 26 c 0 4.417969 -3.582031 8 -8 8 h -26 c -4.417969 0 -8 -3.582031 -8 -8 v -26 c 0 -4.417969 3.582031 -8 8 -8 z m 0 0" fill="url(#a)"/>
                <path d="m 51 12 h 26 c 4.417969 0 8 3.582031 8 8 v 26 c 0 4.417969 -3.582031 8 -8 8 h -26 c -4.417969 0 -8 -3.582031 -8 -8 v -26 c 0 -4.417969 3.582031 -8 8 -8 z m 0 0" fill="#57e389"/>
                <path d="m 76.976562 55.453125 c 1.480469 -0.855469 3.371094 -0.347656 4.226563 1.132813 l 6.742187 11.679687 c 0.855469 1.480469 0.347657 3.371094 -1.132812 4.226563 c -1.480469 0.851562 -3.371094 0.347656 -4.226562 -1.132813 l -6.742188 -11.679687 c -0.855469 -1.480469 -0.347656 -3.371094 1.132812 -4.226563 z m 0 0" fill="url(#c)"/>
                <path d="m 52.8125 55.453125 c -1.480469 -0.855469 -3.371094 -0.347656 -4.226562 1.132813 l -6.742188 11.679687 c -0.855469 1.480469 -0.347656 3.371094 1.132812 4.226563 c 1.480469 0.851562 3.371094 0.347656 4.226563 -1.132813 l 6.742187 -11.679687 c 0.855469 -1.480469 0.347657 -3.371094 -1.132812 -4.226563 z m 0 0" fill="url(#d)"/>
                <path d="m 22 74 h 26 c 4.417969 0 8 3.582031 8 8 v 26 c 0 4.417969 -3.582031 8 -8 8 h -26 c -4.417969 0 -8 -3.582031 -8 -8 v -26 c 0 -4.417969 3.582031 -8 8 -8 z m 0 0" fill="url(#e)"/>
                <path d="m 22 68 h 26 c 4.417969 0 8 3.582031 8 8 v 26 c 0 4.417969 -3.582031 8 -8 8 h -26 c -4.417969 0 -8 -3.582031 -8 -8 v -26 c 0 -4.417969 3.582031 -8 8 -8 z m 0 0" fill="#dc8add"/>
                <path d="m 80 74 h 26 c 4.417969 0 8 3.582031 8 8 v 26 c 0 4.417969 -3.582031 8 -8 8 h -26 c -4.417969 0 -8 -3.582031 -8 -8 v -26 c 0 -4.417969 3.582031 -8 8 -8 z m 0 0" fill="url(#f)"/>
                <path d="m 80 68 h 26 c 4.417969 0 8 3.582031 8 8 v 26 c 0 4.417969 -3.582031 8 -8 8 h -26 c -4.417969 0 -8 -3.582031 -8 -8 v -26 c 0 -4.417969 3.582031 -8 8 -8 z m 0 0" fill="#ffa348"/>
            </g>
        </g>
    </mask>
    <mask id="k">
        <g filter="url(#i)">
            <rect fill-opacity="0.8" height="128" width="128"/>
        </g>
    </mask>
    <linearGradient id="l" gradientTransform="matrix(0 0.37 -0.98462 0 295.38501 -30.360001)" gradientUnits="userSpaceOnUse" x1="300" x2="428" y1="235" y2="235">
        <stop offset="0" stop-color="#f9f06b"/>
        <stop offset="1" stop-color="#f5c211"/>
    </linearGradient>
    <clipPath id="m">
        <rect height="128" width="128"/>
    </clipPath>
    <clipPath id="n">
        <rect height="128" width="128"/>
    </clipPath>
    <path d="m 51 18 h 26 c 4.417969 0 8 3.582031 8 8 v 26 c 0 4.417969 -3.582031 8 -8 8 h -26 c -4.417969 0 -8 -3.582031 -8 -8 v -26 c 0 -4.417969 3.582031 -8 8 -8 z m 0 0" fill="url(#a)"/>
    <path d="m 51 12 h 26 c 4.417969 0 8 3.582031 8 8 v 26 c 0 4.417969 -3.582031 8 -8 8 h -26 c -4.417969 0 -8 -3.582031 -8 -8 v -26 c 0 -4.417969 3.582031 -8 8 -8 z m 0 0" fill="#57e389"/>
    <path d="m 76.976562 55.453125 c 1.480469 -0.855469 3.371094 -0.347656 4.226563 1.132813 l 6.742187 11.679687 c 0.855469 1.480469 0.347657 3.371094 -1.132812 4.226563 c -1.480469 0.851562 -3.371094 0.347656 -4.226562 -1.132813 l -6.742188 -11.679687 c -0.855469 -1.480469 -0.347656 -3.371094 1.132812 -4.226563 z m 0 0" fill="url(#c)"/>
    <path d="m 52.8125 55.453125 c -1.480469 -0.855469 -3.371094 -0.347656 -4.226562 1.132813 l -6.742188 11.679687 c -0.855469 1.480469 -0.347656 3.371094 1.132812 4.226563 c 1.480469 0.851562 3.371094 0.347656 4.226563 -1.132813 l 6.742187 -11.679687 c 0.855469 -1.480469 0.347657 -3.371094 -1.132812 -4.226563 z m 0 0" fill="url(#d)"/>
    <path d="m 22 74 h 26 c 4.417969 0 8 3.582031 8 8 v 26 c 0 4.417969 -3.582031 8 -8 8 h -26 c -4.417969 0 -8 -3.582031 -8 -8 v -26 c 0 -4.417969 3.582031 -8 8 -8 z m 0 0" fill="url(#e)"/>
    <path d="m 22 68 h 26 c 4.417969 0 8 3.582031 8 8 v 26 c 0 4.417969 -3.582031 8 -8 8 h -26 c -4.417969 0 -8 -3.582031 -8 -8 v -26 c 0 -4.417969 3.582031 -8 8 -8 z m 0 0" fill="#dc8add"/>
    <path d="m 80 74 h 26 c 4.417969 0 8 3.582031 8 8 v 26 c 0 4.417969 -3.582031 8 -8 8 h -26 c -4.417969 0 -8 -3.582031 -8 -8 v -26 c 0 -4.417969 3.582031 -8 8 -8 z m 0 0" fill="url(#f)"/>
    <path d="m 80 68 h 26 c 4.417969 0 8 3.582031 8 8 v 26 c 0 4.417969 -3.582031 8 -8 8 h -26 c -4.417969 0 -8 -3.582031 -8 -8 v -26 c 0 -4.417969 3.582031 -8 8 -8 z m 0 0" fill="#ffa348"/>
    <g clip-path="url(#n)" mask="url(#j)">
        <g clip-path="url(#m)" mask="url(#k)">
            <path d="m 128 80.640625 v 47.359375 h -128 v -47.359375 z m 0 0" fill="url(#l)"/>
            <path d="m 13.308594 80.640625 l 47.355468 47.359375 h 21.214844 l -47.359375 -47.359375 z m 42.421875 0 l 47.363281 47.359375 h 21.214844 l -47.363282 -47.359375 z m 42.429687 0 l 29.839844 29.839844 v -21.210938 l -8.628906 -8.628906 z m -98.160156 7.90625 v 21.214844 l 18.238281 18.238281 h 21.214844 z m 0 0"/>
        </g>
    </g>
</svg>
