<svg xmlns="http://www.w3.org/2000/svg" width="16" height="16"><g color="#bebebe" fill="#474747"><path d="M3 9h10c.554 0 1 .446 1 1v3c0 .554-.446 1-1 1H3c-.554 0-1-.446-1-1v-3c0-.554.446-1 1-1z" style="marker:none" overflow="visible"/><path d="M7 0s-.709-.014-1.447.356C4.814.725 4 1.666 4 3v3h2V3c0-.667.186-.725.447-.855C6.71 2.014 7 2 7 2h2s.291.014.553.145c.261.13.447.188.447.855v8h2V3c0-1.333-.814-2.275-1.553-2.644C9.71-.014 9 0 9 0z" style="line-height:normal;font-variant-ligatures:normal;font-variant-position:normal;font-variant-caps:normal;font-variant-numeric:normal;font-variant-alternates:normal;font-feature-settings:normal;text-indent:0;text-align:start;text-decoration-line:none;text-decoration-style:solid;text-decoration-color:#000;text-transform:none;text-orientation:mixed;shape-padding:0;isolation:auto;mix-blend-mode:normal;marker:none" font-weight="400" font-family="sans-serif" overflow="visible"/><path d="M2 12h12v4H2z" style="marker:none" overflow="visible"/></g></svg>