<svg xmlns="http://www.w3.org/2000/svg" width="16" height="16">
    <path d="M8 .031c-.4 0-.816.16-1.125.469L.5 6.875c-.62.62-.62 1.63 0 2.25L6.875 15.5c.62.62 1.63.62 2.25 0L15.5 9.125c.62-.62.62-1.63 0-2.25L9.125.5A1.604 1.604 0 0 0 8 .031zM7.812 3C9.455 2.908 10.908 4.17 11 5.813c0 1.4-.378 1.921-1.594 2.843-.19.144-.326.25-.375.313C8.981 9.03 9 9.002 9 9c.007.528-.472 1-1 1-.529 0-1.007-.472-1-1 0-.502.224-.943.469-1.25a3.82 3.82 0 0 1 .718-.688c.204-.16.461-.384.688-.656.093-.112.129-.307.125-.437v-.031A.988.988 0 0 0 7.937 5c-.563.032-.969.437-.937 1H5c-.092-1.642 1.17-2.908 2.812-3zM8 11a1 1 0 1 1 0 2 1 1 0 0 1 0-2z" style="marker:none" color="#bebebe" overflow="visible" fill="#474747"/>
</svg>
