<svg xmlns="http://www.w3.org/2000/svg" width="16" height="16">
    <g color="#000" fill="#474747">
        <path d="M5 3C2.25 3 0 5.25 0 8s2.25 5 5 5c1.589 0 2.902-.842 3.81-2h5.61l1.56-6H8.81C7.903 3.842 6.59 3 5 3zm0 2c1.116 0 2.048.597 2.573 1.502L7.862 7h5.53l-.519 2H7.862l-.29.498C7.049 10.403 6.117 11 5 11c-1.668 0-3-1.331-3-3s1.332-3 3-3z" style="line-height:normal;font-variant-ligatures:normal;font-variant-position:normal;font-variant-caps:normal;font-variant-numeric:normal;font-variant-alternates:normal;font-feature-settings:normal;text-indent:0;text-align:start;text-decoration-line:none;text-decoration-style:solid;text-decoration-color:#000;text-transform:none;text-orientation:mixed;shape-padding:0;isolation:auto;mix-blend-mode:normal;marker:none" font-weight="400" font-family="sans-serif" white-space="normal" overflow="visible"/>
        <path d="M14.498 8H9l-.562 2H14z" style="marker:none" overflow="visible" opacity=".35"/>
        <path d="M5 8a1 1 0 0 1-1 1 1 1 0 0 1-1-1 1 1 0 0 1 1-1 1 1 0 0 1 1 1z" style="marker:none" overflow="visible"/>
    </g>
</svg>
