<svg xmlns="http://www.w3.org/2000/svg" width="16" height="16">
    <g color="#000" font-weight="400" font-family="sans-serif" white-space="normal" fill="#474747">
        <path d="M8 0C5.25 0 3 2.25 3 5c0 1.588.842 2.902 2 3.81V12h6V8.81c1.158-.908 2-2.222 2-3.81 0-2.75-2.25-5-5-5zm0 2c1.669 0 3 1.331 3 3 0 1.116-.597 2.048-1.502 2.572L9 7.862V10H7V7.861l-.498-.289C5.597 7.048 5 6.116 5 5c0-1.669 1.332-3 3-3zM6 15v1h4v-1zM5 13v1h6v-1z" style="line-height:normal;font-variant-ligatures:normal;font-variant-position:normal;font-variant-caps:normal;font-variant-numeric:normal;font-variant-alternates:normal;font-feature-settings:normal;text-indent:0;text-align:start;text-decoration-line:none;text-decoration-style:solid;text-decoration-color:#000;text-transform:none;text-orientation:mixed;shape-padding:0;isolation:auto;mix-blend-mode:normal;marker:none" overflow="visible"/>
        <path d="M7 5v1h2V5z" style="line-height:normal;font-variant-ligatures:normal;font-variant-position:normal;font-variant-caps:normal;font-variant-numeric:normal;font-variant-alternates:normal;font-feature-settings:normal;text-indent:0;text-align:start;text-decoration-line:none;text-decoration-style:solid;text-decoration-color:#000;text-transform:none;text-orientation:mixed;shape-padding:0;isolation:auto;mix-blend-mode:normal;marker:none" overflow="visible" opacity=".35"/>
    </g>
</svg>
