<?xml version="1.0" encoding="UTF-8" standalone="no"?>
<!-- Created with Inkscape (http://www.inkscape.org/) -->
<svg
   xmlns:dc="http://purl.org/dc/elements/1.1/"
   xmlns:cc="http://web.resource.org/cc/"
   xmlns:rdf="http://www.w3.org/1999/02/22-rdf-syntax-ns#"
   xmlns:svg="http://www.w3.org/2000/svg"
   xmlns="http://www.w3.org/2000/svg"
   xmlns:xlink="http://www.w3.org/1999/xlink"
   xmlns:sodipodi="http://sodipodi.sourceforge.net/DTD/sodipodi-0.dtd"
   xmlns:inkscape="http://www.inkscape.org/namespaces/inkscape"
   width="16px"
   height="16px"
   id="svg4259"
   sodipodi:version="0.32"
   inkscape:version="0.44.1"
   sodipodi:docbase="/home/hbons/Desktop"
   sodipodi:docname="gtk-home16.svg"
   inkscape:export-filename="/home/hbons/Desktop/gtk-home16.png"
   inkscape:export-xdpi="90"
   inkscape:export-ydpi="90">
  <defs
     id="defs4261">
    <linearGradient
       inkscape:collect="always"
       id="linearGradient5198">
      <stop
         style="stop-color:#eeeeec;stop-opacity:1;"
         offset="0"
         id="stop5200" />
      <stop
         style="stop-color:#eeeeec;stop-opacity:0;"
         offset="1"
         id="stop5202" />
    </linearGradient>
    <linearGradient
       inkscape:collect="always"
       xlink:href="#linearGradient5198"
       id="linearGradient5204"
       x1="12.632643"
       y1="18.377447"
       x2="12.632643"
       y2="19.844744"
       gradientUnits="userSpaceOnUse" />
    <linearGradient
       inkscape:collect="always"
       id="linearGradient5165">
      <stop
         style="stop-color:#2e3436;stop-opacity:1;"
         offset="0"
         id="stop5167" />
      <stop
         style="stop-color:#2e3436;stop-opacity:0;"
         offset="1"
         id="stop5169" />
    </linearGradient>
    <linearGradient
       inkscape:collect="always"
       xlink:href="#linearGradient5165"
       id="linearGradient5171"
       x1="13.013734"
       y1="12.604882"
       x2="13.013734"
       y2="13.579983"
       gradientUnits="userSpaceOnUse" />
    <linearGradient
       inkscape:collect="always"
       xlink:href="#linearGradient5149"
       id="linearGradient5159"
       gradientUnits="userSpaceOnUse"
       x1="1.2054209"
       y1="12.231067"
       x2="0.079593651"
       y2="12.231067" />
    <linearGradient
       inkscape:collect="always"
       id="linearGradient5149">
      <stop
         style="stop-color:#819e07;stop-opacity:1;"
         offset="0"
         id="stop5151" />
      <stop
         style="stop-color:#819e07;stop-opacity:0;"
         offset="1"
         id="stop5153" />
    </linearGradient>
    <linearGradient
       inkscape:collect="always"
       xlink:href="#linearGradient5149"
       id="linearGradient5155"
       x1="1.2054209"
       y1="12.231067"
       x2="0.079593651"
       y2="12.231067"
       gradientUnits="userSpaceOnUse" />
    <linearGradient
       inkscape:collect="always"
       xlink:href="#linearGradient5206"
       id="linearGradient5212"
       x1="9.3516083"
       y1="15.120126"
       x2="9.3516083"
       y2="19.327343"
       gradientUnits="userSpaceOnUse" />
    <linearGradient
       inkscape:collect="always"
       id="linearGradient5206">
      <stop
         style="stop-color:#eeeeec;stop-opacity:1;"
         offset="0"
         id="stop5208" />
      <stop
         style="stop-color:#eeeeec;stop-opacity:0;"
         offset="1"
         id="stop5210" />
    </linearGradient>
    <linearGradient
       inkscape:collect="always"
       xlink:href="#linearGradient5206"
       id="linearGradient5191"
       gradientUnits="userSpaceOnUse"
       x1="9.3516083"
       y1="15.120126"
       x2="9.3516083"
       y2="19.327343" />
  </defs>
  <sodipodi:namedview
     id="base"
     pagecolor="#ffffff"
     bordercolor="#666666"
     borderopacity="1.0"
     inkscape:pageopacity="0.0"
     inkscape:pageshadow="2"
     inkscape:zoom="36.060436"
     inkscape:cx="8.7210118"
     inkscape:cy="8.2085335"
     inkscape:current-layer="layer1"
     showgrid="true"
     inkscape:grid-bbox="true"
     inkscape:document-units="px"
     inkscape:window-width="1024"
     inkscape:window-height="832"
     inkscape:window-x="232"
     inkscape:window-y="55" />
  <metadata
     id="metadata4264">
    <rdf:RDF>
      <cc:Work
         rdf:about="">
        <dc:format>image/svg+xml</dc:format>
        <dc:type
           rdf:resource="http://purl.org/dc/dcmitype/StillImage" />
      </cc:Work>
    </rdf:RDF>
  </metadata>
  <g
     id="layer1"
     inkscape:label="Layer 1"
     inkscape:groupmode="layer">
    <rect
       style="opacity:1;fill:#cc4000;fill-opacity:1;stroke:#a43500;stroke-width:1.0254209;stroke-miterlimit:4;stroke-dasharray:none;stroke-opacity:1"
       id="rect5161"
       width="2.2462292"
       height="4.3335342"
       x="0"
       y="3"
       transform="matrix(0.890381,0,0,1.06812,3.5,-1.70436)" />
    <rect
       style="opacity:0.37991267;fill:#c00;fill-opacity:1;stroke:url(#linearGradient5191);stroke-width:19.53719139;stroke-miterlimit:4;stroke-dasharray:none;stroke-opacity:1"
       id="rect5189"
       width="2.7032163"
       height="5.4129071"
       x="8"
       y="14"
       transform="matrix(9.664e-3,0,0,0.271093,4.396564,-1.295307)" />
    <path
       style="fill:#eeeeec;fill-opacity:1;stroke:#888a85;stroke-width:1.12544179;stroke-miterlimit:4;stroke-opacity:1"
       d="M 5.2308439,11.726053 L 7.2489807,11.740999 L 7.2834303,21.5 L 18.796069,21.5 L 18.747132,11.694156 L 20.796623,11.693674 L 13.334495,3.7097642 C 10.726959,6.4899913 8.3579145,8.391883 5.2308439,11.726053 z "
       id="rect4228"
       sodipodi:nodetypes="cccccccc"
       transform="matrix(0.963653,0,0,0.819282,-4.540717,-2.120086)" />
    <rect
       style="opacity:1;fill:#cdd2c8;fill-opacity:1;stroke:none;stroke-width:1;stroke-miterlimit:4;stroke-dasharray:none;stroke-opacity:1"
       id="rect4311"
       width="9.8112822"
       height="1.5290309"
       x="-8.4733801"
       y="-3.4588468"
       transform="matrix(0,-0.407695,0.654009,0,6.262117,4.545455)"
       rx="0"
       ry="0" />
    <rect
       style="opacity:1;fill:#cdd2c8;fill-opacity:1;stroke:none;stroke-width:1;stroke-miterlimit:4;stroke-dasharray:none;stroke-opacity:1"
       id="rect5179"
       width="9.8112822"
       height="1.5290309"
       x="-8.4733801"
       y="-3.4588468"
       transform="matrix(1.018893,0,0,0.654008,11.63347,13.26212)"
       rx="0"
       ry="0" />
    <path
       transform="matrix(1.078158,0,0,0.936865,-31.12526,1.206492)"
       style="opacity:0.82096073;fill:none;fill-opacity:1;stroke:#eeeeec;stroke-width:0.99499375;stroke-miterlimit:4;stroke-opacity:1"
       d="M 8,10 L 12.379208,5.2539501 L 16.758416,10 L 16.758416,18.458911 L 8,18.458911 L 8,10 z "
       id="path5128"
       sodipodi:nodetypes="cccccc" />
    <rect
       style="opacity:1;fill:#cdd2c8;fill-opacity:1;stroke:none;stroke-width:1;stroke-miterlimit:4;stroke-dasharray:none;stroke-opacity:1"
       id="rect5177"
       width="9.8112822"
       height="1.5290309"
       x="-8.4733801"
       y="-3.4588468"
       transform="matrix(1.019235,0,0,0.654011,11.63637,15.26212)"
       rx="0"
       ry="0" />
    <rect
       style="opacity:1;fill:#cdd2c8;fill-opacity:1;stroke:none;stroke-width:1;stroke-miterlimit:4;stroke-dasharray:none;stroke-opacity:1"
       id="rect4309"
       width="9.8112822"
       height="1.5290309"
       x="-8.4733801"
       y="-3.4588468"
       transform="matrix(1.018893,0,0,0.654008,11.63682,11.26211)"
       rx="0"
       ry="0" />
    <rect
       style="opacity:1;fill:#cc4d00;fill-opacity:1;stroke:#a43500;stroke-width:0.90202653;stroke-miterlimit:4;stroke-dasharray:none;stroke-opacity:1"
       id="rect5176"
       width="2.7032163"
       height="5.4129071"
       x="8"
       y="14"
       transform="matrix(1.109789,0,0,1.107442,-4.378313,-6.004183)" />
    <rect
       style="opacity:1;fill:#cdd2c8;fill-opacity:1;stroke:none;stroke-width:1;stroke-miterlimit:4;stroke-dasharray:none;stroke-opacity:1"
       id="rect5180"
       width="9.8112822"
       height="1.5290309"
       x="-8.4733801"
       y="-3.4588468"
       transform="matrix(1.019235,0,0,0.654007,11.63637,10.26211)" />
    <rect
       style="opacity:1;fill:#cdd2c8;fill-opacity:1;stroke:none;stroke-width:1;stroke-miterlimit:4;stroke-dasharray:none;stroke-opacity:1"
       id="rect5182"
       width="9.8112822"
       height="1.5290309"
       x="-8.4733801"
       y="-3.4588468"
       transform="matrix(0,-0.509618,0.654009,0,8.262116,3.681818)"
       rx="0"
       ry="0" />
    <rect
       style="opacity:1;fill:#cdd2c8;fill-opacity:1;stroke:none;stroke-width:1;stroke-miterlimit:4;stroke-dasharray:none;stroke-opacity:1"
       id="rect5184"
       width="9.8112822"
       height="1.5290309"
       x="-8.4733801"
       y="-3.4588468"
       transform="matrix(0,-0.611541,0.654008,0,10.26211,2.818182)"
       rx="0"
       ry="0" />
    <rect
       style="opacity:1;fill:#cdd2c8;fill-opacity:1;stroke:none;stroke-width:1;stroke-miterlimit:4;stroke-dasharray:none;stroke-opacity:1"
       id="rect5186"
       width="9.8112822"
       height="1.5290309"
       x="-8.4733801"
       y="-3.4588468"
       transform="matrix(0,-0.51401,0.654011,0,12.26212,3.644598)"
       rx="0"
       ry="0" />
    <rect
       style="opacity:0.16593885;fill:#c00;fill-opacity:1;stroke:url(#linearGradient5212);stroke-width:1.91260946;stroke-miterlimit:4;stroke-dasharray:none;stroke-opacity:1"
       id="rect5204"
       width="2.7032163"
       height="5.4129071"
       x="8"
       y="14"
       transform="matrix(0.369929,0,0,0.738975,2.540575,0.154344)" />
    <rect
       style="opacity:1;fill:#a40000;fill-opacity:1;stroke:none;stroke-width:1;stroke-miterlimit:4;stroke-dasharray:none;stroke-opacity:1"
       id="rect5214"
       width="3.5040293"
       height="2.5742133"
       x="-3.5677388"
       y="-1"
       transform="matrix(0.207298,0,0,0.279868,6.931623,12.53237)"
       rx="1.2871066"
       ry="1.2871066" />
    <rect
       style="opacity:1;fill:url(#linearGradient5155);fill-opacity:1;stroke:none;stroke-width:1;stroke-miterlimit:4;stroke-dasharray:none;stroke-opacity:1"
       id="rect5145"
       width="3.1890907"
       height="2.4621348"
       x="0"
       y="11"
       transform="matrix(2.508552,0,0,0.406149,0,10.53236)" />
    <rect
       style="opacity:1;fill:url(#linearGradient5159);fill-opacity:1;stroke:none;stroke-width:1;stroke-miterlimit:4;stroke-dasharray:none;stroke-opacity:1"
       id="rect5157"
       width="3.1890907"
       height="2.4621348"
       x="0"
       y="11"
       transform="matrix(-2.508552,0,0,0.406153,16,10.53232)" />
    <rect
       style="opacity:1;fill:#cdd2c8;fill-opacity:1;stroke:none;stroke-width:1;stroke-miterlimit:4;stroke-dasharray:none;stroke-opacity:1"
       id="rect4313"
       width="9.8112822"
       height="1.5290309"
       x="-8.4733801"
       y="-3.4588468"
       transform="matrix(0,-0.305771,0.654009,0,14.26212,5.409092)"
       rx="0"
       ry="0" />
    <path
       sodipodi:type="inkscape:offset"
       inkscape:radius="-0.57619202"
       inkscape:original="M 13.34375 3.71875 C 10.736214 6.4989771 8.3458206 8.38458 5.21875 11.71875 L 7.25 11.75 L 7.28125 21.5 L 18.78125 21.5 L 18.75 11.65625 L 20.78125 11.65625 L 13.34375 3.71875 z "
       style="opacity:0.88646288;fill:none;fill-opacity:1;stroke:url(#linearGradient5204);stroke-width:1.18232727;stroke-miterlimit:4;stroke-opacity:1"
       id="path5196"
       d="M 13.3125,4.53125 C 11.143589,6.7892446 9.0366868,8.6974454 6.59375,11.1875 L 7.25,11.1875 C 7.5576045,11.194756 7.8052439,11.442396 7.8125,11.75 L 7.84375,20.9375 L 18.21875,20.9375 L 18.1875,11.65625 C 18.194756,11.348646 18.442396,11.101006 18.75,11.09375 L 19.46875,11.09375 L 13.3125,4.53125 z "
       transform="matrix(0.883237,0,0,0.809929,-3.450831,-1.919002)" />
    <rect
       style="opacity:1;fill:#888a85;fill-opacity:1;stroke:#555753;stroke-width:1.69453382;stroke-miterlimit:4;stroke-dasharray:none;stroke-opacity:1"
       id="rect5178"
       width="3.7588677"
       height="3.0556512"
       x="13.44273"
       y="14"
       transform="matrix(0.532075,0,0,0.654525,2.34746,0.33665)"
       rx="0.43537435"
       ry="0.36239049" />
    <path
       style="fill:none;fill-opacity:1;stroke:url(#linearGradient5171);stroke-width:1.14855599;stroke-miterlimit:4;stroke-opacity:1"
       d="M 5.2883983,11.338271 L 7.3065351,11.353217 L 7.2834303,21.5 L 18.796069,21.5 L 18.747132,11.273827 L 20.796623,11.273345 L 13.334495,2.652179 C 10.726959,5.4324061 8.4154689,8.0041017 5.2883983,11.338271 z "
       id="path5163"
       sodipodi:nodetypes="cccccccc"
       transform="matrix(0.963653,0,0,0.786638,-4.540717,-1.418241)" />
  </g>
</svg>
