<?xml version="1.0" encoding="UTF-8"?>
<svg height="16px" viewBox="0 0 16 16" width="16px" xmlns="http://www.w3.org/2000/svg">
    <path d="m 6.5 0 c -3.578125 0 -6.5 2.921875 -6.5 6.5 s 2.921875 6.5 6.5 6.5 c 0.171875 0 0.332031 -0.019531 0.5 -0.03125 v -2.03125 c -0.167969 0.019531 -0.328125 0.0625 -0.5 0.0625 c -2.496094 0 -4.5 -2.003906 -4.5 -4.5 s 2.003906 -4.5 4.5 -4.5 s 4.5 2.003906 4.5 4.5 c 0 0.171875 -0.042969 0.332031 -0.0625 0.5 h 2.03125 c 0.011719 -0.167969 0.03125 -0.328125 0.03125 -0.5 c 0 -3.578125 -2.921875 -6.5 -6.5 -6.5 z m 0 3 c -0.277344 0 -0.5 0.222656 -0.5 0.5 v 2.5 h -1.5 c -0.277344 0 -0.5 0.222656 -0.5 0.5 s 0.222656 0.5 0.5 0.5 h 2 c 0.277344 0 0.5 -0.222656 0.5 -0.5 v -3 c 0 -0.277344 -0.222656 -0.5 -0.5 -0.5 z m 0 0" fill="#2e3436"/>
    <path d="m 8.875 8.070312 c -0.492188 0 -0.875 0.378907 -0.875 0.867188 v 6.195312 c 0 0.488282 0.382812 0.867188 0.875 0.867188 h 6.25 c 0.492188 0 0.875 -0.378906 0.875 -0.867188 v -6.195312 c 0 -0.488281 -0.382812 -0.867188 -0.875 -0.867188 z m 2.125 0.929688 h 2 v 2.5 s 0 0.5 -0.5 0.5 h -1 c -0.5 0 -0.5 -0.5 -0.5 -0.5 z m 0.5 4 h 1 c 0.277344 0 0.5 0.222656 0.5 0.5 v 1 c 0 0.277344 -0.222656 0.5 -0.5 0.5 h -1 c -0.277344 0 -0.5 -0.222656 -0.5 -0.5 v -1 c 0 -0.277344 0.222656 -0.5 0.5 -0.5 z m 0 0" class="warning"  fill="#ff7800"/>
</svg>
