<svg xmlns="http://www.w3.org/2000/svg" width="16" height="16"><g color="#bebebe" font-weight="400" font-family="Sans" fill="#474747"><path d="M6.815 1.107C3.519 1.672.992 4.548.992 8c0 3.854 3.148 7 7.002 7a6.96 6.96 0 004.58-1.723C8.8 12.295 5.992 8.86 5.992 4.785a8.69 8.69 0 01.823-3.678z" style="line-height:normal;-inkscape-font-specification:Sans;text-indent:0;text-align:start;text-decoration-line:none;text-transform:none;marker:none" overflow="visible"/><path d="M7.994 1c-.402 0-.795.042-1.18.107a8.69 8.69 0 00-.822 3.678c0 4.075 2.807 7.51 6.582 8.492A6.983 6.983 0 0014.994 8c0-3.854-3.146-7-7-7z" style="line-height:normal;-inkscape-font-specification:Sans;text-indent:0;text-align:start;text-decoration-line:none;text-transform:none;marker:none" overflow="visible" opacity=".35"/></g></svg>