<svg xmlns="http://www.w3.org/2000/svg" width="16" height="16"><g fill="#474747"><path d="M9.5 10A2.5 2.5 0 007 12.5c0 .218.041.423.094.625A1.549 1.549 0 006.5 13a1.5 1.5 0 100 3h8a1.5 1.5 0 100-3 2 2 0 00-2-2c-.316 0-.61.088-.875.219A2.47 2.47 0 009.5 10z" style="marker:none" color="#000" overflow="visible"/><path d="M6.82 1.107C3.526 1.672.999 4.548.999 8c0 2.33 1.155 4.394 2.916 5.668.311-.813 1.064-1.394 1.942-1.639A3.806 3.806 0 017.37 9.475a8.69 8.69 0 01-1.373-4.69c0-1.314.3-2.556.823-3.678z" style="line-height:normal;-inkscape-font-specification:Sans;text-indent:0;text-align:start;text-decoration-line:none;text-transform:none;marker:none" color="#bebebe" font-weight="400" font-family="Sans" overflow="visible"/><path d="M8 1c-.402 0-.795.042-1.18.107a8.69 8.69 0 00-.822 3.678 8.69 8.69 0 001.373 4.69 3.567 3.567 0 012.13-.715c.997 0 1.82.484 2.486 1.125.18-.035.315-.125.513-.125.775 0 1.474.288 2.02.756.305-.782.48-1.628.48-2.516 0-3.854-3.146-7-7-7z" style="line-height:normal;-inkscape-font-specification:Sans;text-indent:0;text-align:start;text-decoration-line:none;text-transform:none;marker:none" color="#bebebe" font-weight="400" font-family="Sans" overflow="visible" opacity=".35"/></g></svg>