<svg xmlns="http://www.w3.org/2000/svg" width="16" height="16"><g color="#000" fill="#2e3436"><path d="M8.5 9A2.5 2.5 0 006 11.5c0 .218.041.423.094.625A1.549 1.549 0 005.5 12a1.5 1.5 0 100 3h8a1.5 1.5 0 100-3 2 2 0 00-2-2c-.316 0-.61.088-.875.219A2.47 2.47 0 008.5 9z" style="marker:none" overflow="visible"/><path d="M9.5 2a2.49 2.49 0 00-2.469 2.219C6.705 4.097 6.37 4 6.001 4a3 3 0 00-3 3c0 .098.021.185.03.281A2.013 2.013 0 002.001 7a2 2 0 100 4H5.1c.25-1.68 1.655-3 3.4-3 .98 0 1.786.49 2.416 1.143.199-.047.361-.143.584-.143 1.262 0 2.19.874 2.604 2h.396a1.5 1.5 0 100-3c-.207 0-.414.05-.594.125A2.44 2.44 0 0014 7.5c0-1.23-.893-2.228-2.062-2.437A2.5 2.5 0 009.5 2zm-1 8c-.663 0-1.207.414-1.41 1h2.838l-.16-.266C9.498 10.285 9.052 10 8.5 10z" style="marker:none" overflow="visible"/></g></svg>