<svg xmlns="http://www.w3.org/2000/svg" width="16.014" height="16"><path d="M3.33.994c-.623 0-1 .33-1.273.594-.273.265-.482.543-.676.793a6.48 6.48 0 01-.484.582c-.114.11-.122.031.115.031a.997.997 0 10-.002 1.994c.624 0 1.003-.329 1.276-.593.272-.265.48-.543.673-.793a7.56 7.56 0 01.372-.444c.108.121.223.253.37.444.194.25.402.53.674.794.273.265.652.594 1.276.594.623 0 1-.329 1.273-.594.273-.264.483-.542.676-.792a7.64 7.64 0 01.37-.444c.107.121.223.253.37.444.194.25.401.53.674.794.273.265.652.594 1.276.594.623 0 1-.329 1.273-.594.273-.264.482-.543.676-.793.147-.19.26-.324.369-.445.108.121.223.254.371.445.193.25.401.53.674.795s.652.594 1.275.594a.997.997 0 100-1.994c.237 0 .23.08.115-.031a6.55 6.55 0 01-.486-.582c-.193-.25-.401-.53-.674-.795-.272-.265-.65-.594-1.273-.594-.624 0-1.003.33-1.276.594-.272.264-.48.543-.673.793a8.56 8.56 0 01-.371.443 7.546 7.546 0 01-.372-.443c-.193-.25-.4-.53-.673-.795S8.595.996 7.97.996c-.623 0-1.002.33-1.275.594-.273.265-.48.543-.674.793a7.56 7.56 0 01-.371.443 7.55 7.55 0 01-.371-.443c-.194-.25-.401-.53-.674-.795S3.954.994 3.331.994zm0 5.002c-.623 0-1 .33-1.273.594-.273.265-.482.543-.676.793a6.48 6.48 0 01-.484.582c-.114.11-.122.031.115.031A.997.997 0 101.01 9.99c.624 0 1.003-.329 1.276-.594.272-.264.48-.542.673-.792.148-.191.264-.323.372-.444.108.121.223.253.37.444.194.25.402.53.674.794.273.265.652.594 1.276.594.623 0 1-.329 1.273-.594.273-.264.483-.543.676-.793a7.64 7.64 0 01.37-.443c.107.121.223.253.37.443.194.25.401.53.674.795s.652.594 1.276.594c.623 0 1-.329 1.273-.594.273-.264.482-.543.676-.793.147-.19.26-.324.369-.445.108.121.223.254.371.445.193.25.401.53.674.795s.652.594 1.275.594a.997.997 0 100-1.994c.237 0 .23.08.115-.031a6.55 6.55 0 01-.486-.582c-.193-.25-.401-.53-.674-.795-.272-.265-.65-.594-1.273-.594-.624 0-1.003.33-1.276.594-.272.264-.48.543-.673.793a8.56 8.56 0 01-.371.443 7.546 7.546 0 01-.372-.443c-.193-.25-.4-.53-.673-.795s-.65-.594-1.274-.594c-.623 0-1.002.33-1.275.594-.273.264-.48.543-.674.793a7.56 7.56 0 01-.371.443 7.55 7.55 0 01-.371-.443c-.194-.25-.401-.53-.674-.795s-.652-.594-1.275-.594zm0 5.002c-.623 0-1 .33-1.273.594-.273.264-.482.543-.676.793-.193.25-.37.471-.484.582-.114.11-.122.03.115.031a.997.997 0 10-.002 1.994c.624 0 1.003-.329 1.276-.594.272-.264.48-.543.673-.793.148-.19.264-.322.372-.443.108.121.223.253.37.443.194.25.402.53.674.795.273.265.652.594 1.276.594.623 0 1-.329 1.273-.594.273-.264.483-.543.676-.793a7.3 7.3 0 01.37-.443c.107.12.223.253.37.443.194.25.401.53.674.795s.652.594 1.276.594c.623 0 1-.33 1.273-.594.273-.264.482-.543.676-.793.147-.19.26-.324.369-.445.108.121.223.254.371.445.193.25.401.53.674.795s.652.594 1.275.594a.997.997 0 100-1.994c.237 0 .23.08.115-.031a6.55 6.55 0 01-.486-.582c-.193-.25-.401-.529-.674-.793-.272-.265-.65-.596-1.273-.596-.624 0-1.003.329-1.276.594-.272.264-.48.543-.673.793a8.56 8.56 0 01-.371.443 7.545 7.545 0 01-.372-.443c-.193-.25-.4-.53-.673-.795S8.595 11 7.97 11c-.623 0-1.002.33-1.275.594-.273.264-.48.543-.674.793-.147.19-.263.322-.371.443a7.549 7.549 0 01-.371-.443c-.194-.25-.401-.53-.674-.795s-.652-.594-1.275-.594z" style="line-height:normal;font-variant-ligatures:normal;font-variant-position:normal;font-variant-caps:normal;font-variant-numeric:normal;font-variant-alternates:normal;font-feature-settings:normal;text-indent:0;text-align:start;text-decoration-line:none;text-decoration-style:solid;text-decoration-color:#000;text-transform:none;text-orientation:mixed;shape-padding:0;isolation:auto;mix-blend-mode:normal" overflow="visible" opacity=".5" color="#000" font-weight="400" font-family="sans-serif" fill="#474747"/></svg>