<?xml version="1.0" encoding="utf-8"?>
<!-- Generator: Adobe Illustrator 17.0.0, SVG Export Plug-In . SVG Version: 6.00 Build 0)  -->
<!DOCTYPE svg PUBLIC "-//W3C//DTD SVG 1.1//EN" "http://www.w3.org/Graphics/SVG/1.1/DTD/svg11.dtd">
<svg version="1.1" id="Layer_1" xmlns="http://www.w3.org/2000/svg" xmlns:xlink="http://www.w3.org/1999/xlink" x="0px" y="0px"
	 width="12px" height="18px" viewBox="-0.5 0.5 12 18" enable-background="new -0.5 0.5 12 18" xml:space="preserve">
<g id="Captions">
</g>
<path d="M9.5,11.5h-7l-3-3v3v5c0,1.105,0.895,2,2,2h8c1.105,0,2-0.895,2-2v-3C11.5,12.395,10.605,11.5,9.5,11.5z M9.5,16.5h-8v-1h8
	V16.5z M9.5,14.5h-8v-1h8V14.5z"/>
<path d="M9.5,0.5h-8c-1.105,0-2,0.895-2,2v3c0,1.105,0.895,2,2,2h7l3,3v-3v-5C11.5,1.395,10.605,0.5,9.5,0.5z M9.5,5.5h-8v-1h8V5.5z
	 M9.5,3.5h-8v-1h8V3.5z"/>
</svg>
