#define X_cursor_width 14
#define X_cursor_height 14
#define X_cursor_x_hot 6
#define X_cursor_y_hot 6
static unsigned char X_cursor_bits[] = {
0x07, 0xb8, 0x0f, 0x3c, 0x1f, 0x3e, 0x3e, 0x1f, 0xfc, 0x0f, 0xf8, 0x07, 0xf0, 0x03, 0xf0, 0x03, 0xf8, 0x07, 0xfc, 0x0f, 0x3e, 0x1f, 0x1f, 0x3e, 0x0f, 0x3c, 0x07, 0x38};
#define X_cursor_mask_width 16
#define X_cursor_mask_height 16
#define X_cursor_mask_x_hot 7
#define X_cursor_mask_y_hot 7
static unsigned char X_cursor_mask_bits[] = {
0x0f, 0xf0, 0x1f, 0xf8, 0x3f, 0xfc, 0x7f, 0xfe, 0xfe, 0x7f, 0xfc, 0x3f, 0xf8, 0x1f, 0xf0, 0x0f, 0xf0, 0x0f, 0xf8, 0x1f, 0xfc, 0x3f, 0xfe, 0x7f, 0x7f, 0xfe, 0x3f, 0xfc, 0x1f, 0xf8, 0x0f, 0xf0};
#define arrow_width 14
#define arrow_height 14
#define arrow_x_hot 13
#define arrow_y_hot 0
static unsigned char arrow_bits[] = {
00, 0xb0, 00, 0x3c, 00, 0x1f, 0xc0, 0x1f, 0xf0, 0x0f, 0xfc, 0x0f, 0xc0, 0x07, 0xe0, 0x07, 0x70, 0x03, 0x38, 0x03, 0x1c, 0x01, 0x0e, 0x01, 0x07, 00, 0x02, 00};
#define arrow_mask_width 16
#define arrow_mask_height 16
#define arrow_mask_x_hot 14
#define arrow_mask_y_hot 1
static unsigned char arrow_mask_bits[] = {
00, 0xe0, 00, 0xf8, 00, 0xfe, 0x80, 0x7f, 0xe0, 0x7f, 0xf8, 0x3f, 0xfc, 0x3f, 0xfc, 0x1f, 0xe0, 0x1f, 0xf0, 0x0f, 0xf8, 0x0f, 0x7c, 0x07, 0x3e, 0x07, 0x1f, 0x02, 0x0e, 00, 0x04, 00};
#define based_arrow_down_width 8
#define based_arrow_down_height 10
#define based_arrow_down_x_hot 3
#define based_arrow_down_y_hot 9
static unsigned char based_arrow_down_bits[] = {
0xff, 00, 0xff, 0x18, 0x18, 0x18, 0x18, 0x5a, 0x3c, 0x18};
#define based_arrow_down_mask_width 10
#define based_arrow_down_mask_height 12
#define based_arrow_down_mask_x_hot 4
#define based_arrow_down_mask_y_hot 10
static unsigned char based_arrow_down_mask_bits[] = {
0xff, 0x23, 0xff, 0x03, 0xff, 0x03, 0xff, 0x03, 0xff, 0x03, 0x78, 00, 0x78, 00, 0xfe, 0x01, 0xfe, 0x01, 0xfe, 0x01, 0xfc, 00, 0x78, 00};
#define based_arrow_up_width 8
#define based_arrow_up_height 10
#define based_arrow_up_x_hot 3
#define based_arrow_up_y_hot 9
static unsigned char based_arrow_up_bits[] = {
0x18, 0x3c, 0x5a, 0x18, 0x18, 0x18, 0x18, 0xff, 00, 0xff};
#define based_arrow_up_mask_width 10
#define based_arrow_up_mask_height 12
#define based_arrow_up_mask_x_hot 4
#define based_arrow_up_mask_y_hot 10
static unsigned char based_arrow_up_mask_bits[] = {
0x30, 0x20, 0x78, 00, 0xfe, 0x01, 0xfe, 0x01, 0xfe, 0x01, 0x78, 00, 0x78, 00, 0xff, 0x03, 0xff, 0x03, 0xff, 0x03, 0xff, 0x03, 0xff, 0x03};
#define boat_width 16
#define boat_height 8
#define boat_x_hot 14
#define boat_y_hot 3
static unsigned char boat_bits[] = {
0x80, 00, 0xe0, 0x03, 0x11, 0x06, 0xff, 0xff, 00, 0x18, 00, 0x04, 00, 0x02, 0xff, 0x03};
#define boat_mask_width 16
#define boat_mask_height 9
#define boat_mask_x_hot 14
#define boat_mask_y_hot 4
static unsigned char boat_mask_bits[] = {
0xe0, 00, 0xf0, 0x03, 0xf9, 0x07, 0xff, 0xff, 0xff, 0xff, 0xff, 0xff, 0xff, 0x1f, 0xff, 0x07, 0xff, 0x03};
#define bogosity_width 13
#define bogosity_height 14
#define bogosity_x_hot 6
#define bogosity_y_hot 6
static unsigned char bogosity_bits[] = {
0x47, 0x9c, 0x44, 0x04, 0x44, 0x04, 0x44, 0x04, 0xff, 0x1f, 0x45, 0x14, 0x45, 0x14, 0x45, 0x14, 0x45, 0x14, 0xff, 0x1f, 0x44, 0x04, 0x44, 0x04, 0x44, 0x04, 0x47, 0x1c};
#define bogosity_mask_width 15
#define bogosity_mask_height 16
#define bogosity_mask_x_hot 7
#define bogosity_mask_y_hot 7
static unsigned char bogosity_mask_bits[] = {
0xdf, 0x7d, 0xdf, 0x7d, 0xdf, 0x7d, 0xdc, 0x1d, 0xff, 0x7f, 0xff, 0x7f, 0xff, 0x7f, 0xdf, 0x7d, 0xdf, 0x7d, 0xff, 0x7f, 0xff, 0x7f, 0xff, 0x7f, 0xdc, 0x1d, 0xdf, 0x7d, 0xdf, 0x7d, 0xdf, 0x7d};
#define bottom_left_corner_width 14
#define bottom_left_corner_height 14
#define bottom_left_corner_x_hot 0
#define bottom_left_corner_y_hot 13
static unsigned char bottom_left_corner_bits[] = {
0x03, 0x80, 0x03, 00, 0x23, 0x08, 0x23, 0x04, 0x23, 0x02, 0x23, 0x01, 0xa3, 00, 0x63, 00, 0xe3, 0x0f, 0x03, 00, 0x03, 00, 0x03, 00, 0xff, 0x3f, 0xff, 0x3f};
#define bottom_left_corner_mask_width 16
#define bottom_left_corner_mask_height 16
#define bottom_left_corner_mask_x_hot 1
#define bottom_left_corner_mask_y_hot 14
static unsigned char bottom_left_corner_mask_bits[] = {
0x0f, 00, 0x0f, 00, 0xef, 0x30, 0xef, 0x38, 0xef, 0x1c, 0xef, 0x0e, 0xef, 0x07, 0xef, 0x03, 0xef, 0x3f, 0xef, 0x3f, 0xef, 0x3f, 0x0f, 00, 0xff, 0xff, 0xff, 0xff, 0xff, 0xff, 0xff, 0xff};
#define bottom_right_corner_width 14
#define bottom_right_corner_height 14
#define bottom_right_corner_x_hot 13
#define bottom_right_corner_y_hot 13
static unsigned char bottom_right_corner_bits[] = {
00, 0xb0, 00, 0x30, 0x04, 0x31, 0x08, 0x31, 0x10, 0x31, 0x20, 0x31, 0x40, 0x31, 0x80, 0x31, 0xfc, 0x31, 00, 0x30, 00, 0x30, 00, 0x30, 0xff, 0x3f, 0xff, 0x3f};
#define bottom_right_corner_mask_width 16
#define bottom_right_corner_mask_height 16
#define bottom_right_corner_mask_x_hot 14
#define bottom_right_corner_mask_y_hot 14
static unsigned char bottom_right_corner_mask_bits[] = {
00, 0xf0, 00, 0xf0, 0x0c, 0xf7, 0x1c, 0xf7, 0x38, 0xf7, 0x70, 0xf7, 0xe0, 0xf7, 0xc0, 0xf7, 0xfc, 0xf7, 0xfc, 0xf7, 0xfc, 0xf7, 00, 0xf0, 0xff, 0xff, 0xff, 0xff, 0xff, 0xff, 0xff, 0xff};
#define bottom_side_width 13
#define bottom_side_height 14
#define bottom_side_x_hot 6
#define bottom_side_y_hot 13
static unsigned char bottom_side_bits[] = {
0x40, 0x80, 0x40, 00, 0x40, 00, 0x40, 00, 0x40, 00, 0x40, 00, 0x44, 0x04, 0x48, 0x02, 0x50, 0x01, 0xe0, 00, 0x40, 00, 00, 00, 0xff, 0x1f, 0xff, 0x1f};
#define bottom_side_mask_width 15
#define bottom_side_mask_height 16
#define bottom_side_mask_x_hot 7
#define bottom_side_mask_y_hot 14
static unsigned char bottom_side_mask_bits[] = {
0xc0, 0x01, 0xc0, 0x01, 0xc0, 0x01, 0xc0, 0x01, 0xc0, 0x01, 0xc0, 0x01, 0xcc, 0x19, 0xdc, 0x1d, 0xf8, 0x0f, 0xf0, 0x07, 0xe0, 0x03, 0xc0, 0x01, 0xff, 0x7f, 0xff, 0x7f, 0xff, 0x7f, 0xff, 0x7f};
#define bottom_tee_width 14
#define bottom_tee_height 10
#define bottom_tee_x_hot 7
#define bottom_tee_y_hot 9
static unsigned char bottom_tee_bits[] = {
0xc0, 0x80, 0xc0, 00, 0xc0, 00, 0xc0, 00, 0xc0, 00, 0xc0, 00, 0xc0, 00, 0xc0, 00, 0xff, 0x3f, 0xff, 0x3f};
#define bottom_tee_mask_width 16
#define bottom_tee_mask_height 12
#define bottom_tee_mask_x_hot 8
#define bottom_tee_mask_y_hot 10
static unsigned char bottom_tee_mask_bits[] = {
0xc0, 0x03, 0xc0, 0x03, 0xc0, 0x03, 0xc0, 0x03, 0xc0, 0x03, 0xc0, 0x03, 0xc0, 0x03, 0xc0, 0x03, 0xff, 0xff, 0xff, 0xff, 0xff, 0xff, 0xff, 0xff};
#define box_spiral_width 15
#define box_spiral_height 16
#define box_spiral_x_hot 8
#define box_spiral_y_hot 8
static unsigned char box_spiral_bits[] = {
0xff, 0xff, 0x01, 00, 0xfd, 0x7f, 0x05, 0x40, 0xf5, 0x5f, 0x15, 0x50, 0xd5, 0x57, 0x55, 0x54, 0x55, 0x55, 0xd5, 0x55, 0x15, 0x54, 0xf5, 0x57, 0x05, 0x50, 0xfd, 0x5f, 0x01, 0x40, 0xff, 0x7f};
#define box_spiral_mask_width 16
#define box_spiral_mask_height 16
#define box_spiral_mask_x_hot 8
#define box_spiral_mask_y_hot 8
static unsigned char box_spiral_mask_bits[] = {
0xff, 0xff, 0xff, 0xff, 0xff, 0xff, 0xff, 0xff, 0xff, 0xff, 0xff, 0xff, 0xff, 0xff, 0xff, 0xff, 0xff, 0xff, 0xff, 0xff, 0xff, 0xff, 0xff, 0xff, 0xff, 0xff, 0xff, 0xff, 0xff, 0xff, 0xff, 0xff};
#define center_ptr_width 10
#define center_ptr_height 14
#define center_ptr_x_hot 4
#define center_ptr_y_hot 0
static unsigned char center_ptr_bits[] = {
0x30, 0x90, 0x30, 00, 0x78, 00, 0x78, 00, 0xfc, 00, 0xfc, 00, 0xfe, 0x01, 0xfe, 0x01, 0x33, 0x03, 0x31, 0x02, 0x30, 00, 0x30, 00, 0x30, 00, 0x30, 00};
#define center_ptr_mask_width 12
#define center_ptr_mask_height 16
#define center_ptr_mask_x_hot 5
#define center_ptr_mask_y_hot 1
static unsigned char center_ptr_mask_bits[] = {
0xf0, 0x20, 0xf0, 00, 0xf8, 0x01, 0xf8, 0x01, 0xfc, 0x03, 0xfc, 0x03, 0xfe, 0x07, 0xfe, 0x07, 0xff, 0x0f, 0xff, 0x0f, 0xff, 0x0f, 0xf7, 0x0e, 0xf0, 00, 0xf0, 00, 0xf0, 00, 0xf0, 00};
#define circle_width 14
#define circle_height 14
#define circle_x_hot 7
#define circle_y_hot 7
static unsigned char circle_bits[] = {
0xe0, 0x81, 0xf8, 0x07, 0xfc, 0x0f, 0x1e, 0x1e, 0x0e, 0x1c, 0x07, 0x38, 0x07, 0x38, 0x07, 0x38, 0x07, 0x38, 0x0e, 0x1c, 0x1e, 0x1e, 0xfc, 0x0f, 0xf8, 0x07, 0xe0, 0x01};
#define circle_mask_width 16
#define circle_mask_height 16
#define circle_mask_x_hot 8
#define circle_mask_y_hot 8
static unsigned char circle_mask_bits[] = {
0xe0, 0x07, 0xf8, 0x1f, 0xfc, 0x3f, 0xfe, 0x7f, 0xfe, 0x7f, 0x3f, 0xfc, 0x1f, 0xf8, 0x1f, 0xf8, 0x1f, 0xf8, 0x1f, 0xf8, 0x3f, 0xfc, 0xfe, 0x7f, 0xfe, 0x7f, 0xfc, 0x3f, 0xf8, 0x1f, 0xe0, 0x07};
#define clock_width 14
#define clock_height 16
#define clock_x_hot 6
#define clock_y_hot 3
static unsigned char clock_bits[] = {
0xfc, 0x8f, 0xe6, 0x19, 0x13, 0x33, 0xc9, 0x24, 0x79, 0x24, 0x11, 0x22, 0xe3, 0x31, 0xfe, 0x1f, 0xca, 0x14, 0xca, 0x14, 0xca, 0x14, 0xea, 0x15, 0xcb, 0x34, 0x0f, 0x3c, 0xff, 0x3f, 0xff, 0x3f};
#define clock_mask_width 15
#define clock_mask_height 16
#define clock_mask_x_hot 6
#define clock_mask_y_hot 3
static unsigned char clock_mask_bits[] = {
0xfe, 0x1f, 0xf7, 0x39, 0xdb, 0x77, 0xed, 0x6d, 0xfd, 0x6f, 0xf9, 0x66, 0xf3, 0x73, 0xff, 0x3f, 0xeb, 0x35, 0xeb, 0x35, 0xeb, 0x35, 0xfb, 0x37, 0xeb, 0x75, 0xcf, 0x7c, 0xff, 0x7f, 0xff, 0x7f};
#define coffee_mug_width 15
#define coffee_mug_height 16
#define coffee_mug_x_hot 7
#define coffee_mug_y_hot 9
static unsigned char coffee_mug_bits[] = {
0xf8, 0x8f, 0x04, 0x10, 0x06, 0x60, 0x0a, 0x58, 0xf2, 0x47, 0x03, 0x40, 0x03, 0x40, 0x02, 0x40, 0x02, 0x40, 0x9a, 0x58, 0x56, 0x55, 0xd7, 0x55, 0x5b, 0x59, 0x02, 0x40, 0x02, 0x40, 0xfc, 0x3f};
#define coffee_mug_mask_width 16
#define coffee_mug_mask_height 16
#define coffee_mug_mask_x_hot 7
#define coffee_mug_mask_y_hot 9
static unsigned char coffee_mug_mask_bits[] = {
0xf8, 0x0f, 0xfc, 0x1f, 0xfe, 0xff, 0xfe, 0xff, 0xff, 0xff, 0xff, 0xff, 0xff, 0xff, 0xff, 0xff, 0xfe, 0xff, 0xfe, 0xff, 0xff, 0xff, 0xff, 0xff, 0xff, 0xff, 0xff, 0xff, 0xfe, 0xff, 0xfc, 0x3f};
#define cross_width 16
#define cross_height 15
#define cross_x_hot 7
#define cross_y_hot 7
static unsigned char cross_bits[] = {
0x40, 0x01, 0x40, 0x01, 0x40, 0x01, 0x40, 0x01, 0x40, 0x01, 0x40, 0x01, 0x7f, 0xff, 00, 00, 0x7f, 0xff, 0x40, 0x01, 0x40, 0x01, 0x40, 0x01, 0x40, 0x01, 0x40, 0x01, 0x40, 0x01};
#define cross_mask_width 16
#define cross_mask_height 16
#define cross_mask_x_hot 7
#define cross_mask_y_hot 7
static unsigned char cross_mask_bits[] = {
0xe0, 0x03, 0xe0, 0x03, 0xe0, 0x03, 0xe0, 0x03, 0xe0, 0x03, 0xff, 0xff, 0xff, 0xff, 0xff, 0xff, 0xff, 0xff, 0xff, 0xff, 0xe0, 0x03, 0xe0, 0x03, 0xe0, 0x03, 0xe0, 0x03, 0xe0, 0x03, 0xe0, 0x03};
#define cross_reverse_width 16
#define cross_reverse_height 15
#define cross_reverse_x_hot 7
#define cross_reverse_y_hot 7
static unsigned char cross_reverse_bits[] = {
0x42, 0x21, 0x45, 0x51, 0x4a, 0x29, 0x54, 0x15, 0x68, 0x0b, 0x50, 0x05, 0xbf, 0xfe, 0x40, 0x01, 0xbf, 0xfe, 0x50, 0x05, 0x68, 0x0b, 0x54, 0x15, 0x4a, 0x29, 0x45, 0x51, 0x42, 0x21};
#define cross_reverse_mask_width 16
#define cross_reverse_mask_height 15
#define cross_reverse_mask_x_hot 7
#define cross_reverse_mask_y_hot 7
static unsigned char cross_reverse_mask_bits[] = {
0x66, 0x33, 0x6d, 0xdb, 0x7b, 0x6f, 0x76, 0x37, 0x6c, 0x1b, 0x5f, 0xfd, 0x3f, 0xfe, 0x80, 00, 0x3f, 0xfe, 0x5f, 0xfd, 0x6c, 0x1b, 0x76, 0x37, 0x7b, 0x6f, 0x6d, 0xdb, 0x66, 0x33};
#define crosshair_width 16
#define crosshair_height 15
#define crosshair_x_hot 7
#define crosshair_y_hot 7
static unsigned char crosshair_bits[] = {
0x80, 00, 0x80, 00, 0x80, 00, 0x80, 00, 0x80, 00, 0x80, 00, 0x80, 00, 0x7f, 0xff, 0x80, 00, 0x80, 00, 0x80, 00, 0x80, 00, 0x80, 00, 0x80, 00, 0x80, 00};
#define crosshair_mask_width 16
#define crosshair_mask_height 16
#define crosshair_mask_x_hot 7
#define crosshair_mask_y_hot 7
static unsigned char crosshair_mask_bits[] = {
0xc0, 0x01, 0xc0, 0x01, 0xc0, 0x01, 0xc0, 0x01, 0xc0, 0x01, 0xc0, 0x01, 0xff, 0xff, 0xff, 0xff, 0xff, 0xff, 0xc0, 0x01, 0xc0, 0x01, 0xc0, 0x01, 0xc0, 0x01, 0xc0, 0x01, 0xc0, 0x01, 0xc0, 0x01};
#define diamond_cross_width 15
#define diamond_cross_height 15
#define diamond_cross_x_hot 7
#define diamond_cross_y_hot 7
static unsigned char diamond_cross_bits[] = {
0x40, 0x81, 0x60, 0x03, 0x50, 0x05, 0x48, 0x09, 0x44, 0x11, 0x42, 0x21, 0x7f, 0x7f, 00, 00, 0x7f, 0x7f, 0x42, 0x21, 0x44, 0x11, 0x48, 0x09, 0x50, 0x05, 0x60, 0x03, 0x40, 0x01};
#define diamond_cross_mask_width 16
#define diamond_cross_mask_height 16
#define diamond_cross_mask_x_hot 7
#define diamond_cross_mask_y_hot 7
static unsigned char diamond_cross_mask_bits[] = {
0xe0, 0x03, 0xf0, 0x07, 0xf8, 0x0f, 0xdc, 0x1d, 0xce, 0x39, 0xc7, 0x71, 0xff, 0xff, 0x7f, 0xff, 0xff, 0xff, 0xc7, 0x71, 0xce, 0x39, 0xdc, 0x1d, 0xf8, 0x0f, 0xf0, 0x07, 0xe0, 0x03, 0xc0, 0x01};
#define dot_width 10
#define dot_height 10
#define dot_x_hot 5
#define dot_y_hot 5
static unsigned char dot_bits[] = {
0x78, 0x90, 0xfe, 0x01, 0xfe, 0x01, 0xff, 0x03, 0xff, 0x03, 0xff, 0x03, 0xff, 0x03, 0xfe, 0x01, 0xfe, 0x01, 0x78, 00};
#define dot_mask_width 12
#define dot_mask_height 12
#define dot_mask_x_hot 6
#define dot_mask_y_hot 6
static unsigned char dot_mask_bits[] = {
0xf8, 0x21, 0xfe, 0x07, 0xfe, 0x07, 0xff, 0x0f, 0xff, 0x0f, 0xff, 0x0f, 0xff, 0x0f, 0xff, 0x0f, 0xff, 0x0f, 0xfe, 0x07, 0xfe, 0x07, 0xf8, 0x01};
#define dotbox_width 12
#define dotbox_height 12
#define dotbox_x_hot 6
#define dotbox_y_hot 5
static unsigned char dotbox_bits[] = {
0xff, 0x9f, 0x01, 0x08, 0x01, 0x08, 0x01, 0x08, 0x01, 0x08, 0x61, 0x08, 0x61, 0x08, 0x01, 0x08, 0x01, 0x08, 0x01, 0x08, 0x01, 0x08, 0xff, 0x0f};
#define dotbox_mask_width 14
#define dotbox_mask_height 14
#define dotbox_mask_x_hot 7
#define dotbox_mask_y_hot 6
static unsigned char dotbox_mask_bits[] = {
0xff, 0x3f, 0xff, 0x3f, 0xff, 0x3f, 0x07, 0x38, 0x07, 0x38, 0xe7, 0x39, 0xe7, 0x39, 0xe7, 0x39, 0xe7, 0x39, 0x07, 0x38, 0x07, 0x38, 0xff, 0x3f, 0xff, 0x3f, 0xff, 0x3f};
#define double_arrow_width 10
#define double_arrow_height 14
#define double_arrow_x_hot 5
#define double_arrow_y_hot 7
static unsigned char double_arrow_bits[] = {
0x30, 0x90, 0x78, 00, 0xfc, 00, 0xb6, 0x01, 0x33, 0x03, 0x30, 00, 0x30, 00, 0x30, 00, 0x30, 00, 0x33, 0x03, 0xb6, 0x01, 0xfc, 00, 0x78, 00, 0x30, 00};
#define double_arrow_mask_width 12
#define double_arrow_mask_height 16
#define double_arrow_mask_x_hot 6
#define double_arrow_mask_y_hot 8
static unsigned char double_arrow_mask_bits[] = {
0xf0, 0x20, 0xf8, 0x01, 0xfc, 0x03, 0xfe, 0x07, 0xff, 0x0f, 0xff, 0x0f, 0xff, 0x0f, 0xf0, 00, 0xf0, 00, 0xff, 0x0f, 0xff, 0x0f, 0xff, 0x0f, 0xfe, 0x07, 0xfc, 0x03, 0xf8, 0x01, 0xf0, 00};
#define draft_large_width 15
#define draft_large_height 15
#define draft_large_x_hot 14
#define draft_large_y_hot 0
static unsigned char draft_large_bits[] = {
00, 0xc0, 00, 0x30, 00, 0x3c, 00, 0x1f, 0xc0, 0x1f, 0xf0, 0x0f, 0xfc, 0x0f, 0x80, 0x07, 0x40, 0x07, 0x20, 0x03, 0x10, 0x03, 0x08, 0x01, 0x04, 0x01, 0x02, 00, 0x01, 00};
#define draft_large_mask_width 15
#define draft_large_mask_height 16
#define draft_large_mask_x_hot 14
#define draft_large_mask_y_hot 0
static unsigned char draft_large_mask_bits[] = {
00, 0x60, 00, 0x78, 00, 0x7e, 0x80, 0x3f, 0xe0, 0x1f, 0xf8, 0x1f, 0xfe, 0x0f, 0xfe, 0x0f, 0xe0, 0x07, 0xf0, 0x07, 0xb8, 0x03, 0x9c, 0x03, 0x8e, 0x01, 0x87, 0x01, 0x03, 00, 0x01, 00};
#define draft_small_width 15
#define draft_small_height 15
#define draft_small_x_hot 14
#define draft_small_y_hot 0
static unsigned char draft_small_bits[] = {
00, 0x40, 00, 0x30, 00, 0x3c, 00, 0x1f, 0xc0, 0x1f, 00, 0x0e, 00, 0x0d, 0x80, 0x04, 0x40, 0x04, 0x20, 00, 0x10, 00, 0x08, 00, 0x04, 00, 0x02, 00, 0x01, 00};
#define draft_small_mask_width 15
#define draft_small_mask_height 15
#define draft_small_mask_x_hot 14
#define draft_small_mask_y_hot 0
static unsigned char draft_small_mask_bits[] = {
00, 0x60, 00, 0x78, 00, 0x3e, 0x80, 0x3f, 0xe0, 0x1f, 0xe0, 0x1f, 0x80, 0x0f, 0xc0, 0x0f, 0xe0, 0x06, 0x70, 0x02, 0x38, 00, 0x1c, 00, 0x0e, 00, 0x07, 00, 0x03, 00};
#define draped_box_width 12
#define draped_box_height 12
#define draped_box_x_hot 6
#define draped_box_y_hot 5
static unsigned char draped_box_bits[] = {
0xff, 0x1f, 0x91, 0x08, 0x99, 0x09, 0x0d, 0x0b, 0x07, 0x0e, 0x61, 0x08, 0x61, 0x08, 0x07, 0x0e, 0x0d, 0x0b, 0x99, 0x09, 0x91, 0x08, 0xff, 0x0f};
#define draped_box_mask_width 14
#define draped_box_mask_height 14
#define draped_box_mask_x_hot 7
#define draped_box_mask_y_hot 6
static unsigned char draped_box_mask_bits[] = {
0xff, 0x3f, 0xff, 0x3f, 0xf3, 0x33, 0xfb, 0x37, 0x3f, 0x3f, 0xdf, 0x3e, 0xef, 0x3d, 0xef, 0x3d, 0xdf, 0x3e, 0x3f, 0x3f, 0xfb, 0x37, 0xf3, 0x33, 0xff, 0x3f, 0xff, 0x3f};
#define exchange_width 14
#define exchange_height 14
#define exchange_x_hot 6
#define exchange_y_hot 6
static unsigned char exchange_bits[] = {
0xf1, 0x03, 0xfb, 0x07, 0x1f, 0x0c, 0x09, 0x08, 0x19, 00, 0x3f, 00, 00, 00, 00, 00, 00, 0x3f, 00, 0x26, 0x04, 0x24, 0x0c, 0x3e, 0xf8, 0x37, 0xf0, 0x23};
#define exchange_mask_width 16
#define exchange_mask_height 16
#define exchange_mask_x_hot 7
#define exchange_mask_y_hot 7
static unsigned char exchange_mask_bits[] = {
0xe3, 0x07, 0xf7, 0x0f, 0xff, 0x1f, 0xff, 0x3f, 0x3f, 0x38, 0xff, 0x30, 0xff, 00, 0xff, 00, 00, 0xff, 00, 0xff, 0x0c, 0xfe, 0x1c, 0xfc, 0xfc, 0xff, 0xf8, 0xff, 0xf0, 0xef, 0xe0, 0xc7};
#define fleur_width 14
#define fleur_height 14
#define fleur_x_hot 7
#define fleur_y_hot 7
static unsigned char fleur_bits[] = {
0xc0, 00, 0xe0, 0x01, 0xf0, 0x03, 0xc0, 00, 0xc4, 0x08, 0xc6, 0x18, 0xff, 0x3f, 0xff, 0x3f, 0xc6, 0x18, 0xc4, 0x08, 0xc0, 00, 0xf0, 0x03, 0xe0, 0x01, 0xc0, 00};
#define fleur_mask_width 16
#define fleur_mask_height 16
#define fleur_mask_x_hot 8
#define fleur_mask_y_hot 8
static unsigned char fleur_mask_bits[] = {
0xc0, 0x03, 0xc0, 0x07, 0xe0, 0x07, 0xf0, 0x0f, 0xe8, 0x17, 0xdc, 0x3b, 0xff, 0xff, 0xff, 0xff, 0xff, 0xff, 0xff, 0xff, 0xdc, 0x3b, 0xe8, 0x17, 0xf0, 0x0f, 0xe0, 0x07, 0xc0, 0x03, 0xc0, 0x03};
#define gobbler_width 16
#define gobbler_height 15
#define gobbler_x_hot 14
#define gobbler_y_hot 2
static unsigned char gobbler_bits[] = {
00, 0x1e, 00, 0x0e, 0x01, 0xcc, 0xf9, 0x0d, 0xff, 0x0f, 0x7f, 0x0c, 0x3f, 0x0c, 0x06, 0x1c, 00, 0x0f, 0xf8, 0x07, 0x10, 00, 0x10, 00, 0x10, 00, 0x10, 00, 0x78, 00};
#define gobbler_mask_width 16
#define gobbler_mask_height 16
#define gobbler_mask_x_hot 14
#define gobbler_mask_y_hot 3
static unsigned char gobbler_mask_bits[] = {
00, 0x3f, 00, 0x3f, 0x03, 0xff, 0xff, 0xff, 0xff, 0xff, 0xff, 0x3f, 0xff, 0x3f, 0xff, 0x3f, 0xff, 0x3f, 0xff, 0x3f, 0xfe, 0x1f, 0xf8, 0x0f, 0x38, 00, 0x38, 00, 0xfc, 00, 0xfc, 00};
#define gumby_width 16
#define gumby_height 16
#define gumby_x_hot 2
#define gumby_y_hot 0
static unsigned char gumby_bits[] = {
0xfc, 00, 0x08, 0x01, 0x13, 0x02, 0x57, 0x05, 0x13, 0x04, 0xd3, 0x05, 0x1f, 0x3c, 0x1c, 0xfc, 0x10, 0xe4, 0x10, 0xe4, 0x90, 0xf4, 0x90, 0xe4, 0x90, 0x04, 0x88, 0x08, 0x84, 0x10, 0x7c, 0x1f};
#define gumby_mask_width 16
#define gumby_mask_height 16
#define gumby_mask_x_hot 2
#define gumby_mask_y_hot 0
static unsigned char gumby_mask_bits[] = {
0xfc, 00, 0xfb, 0x01, 0xf7, 0x03, 0xff, 0x07, 0xf7, 0x07, 0xf7, 0x3f, 0xff, 0x7f, 0xff, 0xff, 0xfc, 0xf7, 0xf0, 0xf7, 0xf0, 0xff, 0xf0, 0xf7, 0xf0, 0xe7, 0xf8, 0x0f, 0xfc, 0x1f, 0x7c, 0x1f};
#define hand1_width 13
#define hand1_height 16
#define hand1_x_hot 12
#define hand1_y_hot 0
static unsigned char hand1_bits[] = {
00, 0x18, 00, 0x1e, 0x80, 0x07, 0xc0, 0x03, 0xe0, 0x01, 0xf0, 0x03, 0xf8, 0x07, 0xfa, 0x03, 0xff, 0x07, 0xfd, 0x07, 0xf0, 0x03, 0xf0, 0x01, 0x29, 00, 0x23, 00, 0x16, 00, 0x0c, 00};
#define hand1_mask_width 13
#define hand1_mask_height 16
#define hand1_mask_x_hot 12
#define hand1_mask_y_hot 0
static unsigned char hand1_mask_bits[] = {
00, 0xdc, 00, 0x1f, 0xc0, 0x0f, 0xe0, 0x07, 0xf0, 0x03, 0xf8, 0x07, 0xfe, 0x0f, 0xff, 0x0f, 0xff, 0x0f, 0xff, 0x0f, 0xff, 0x07, 0xff, 0x03, 0xff, 0x01, 0x7f, 00, 0x3f, 00, 0x1e, 00};
#define hand2_width 15
#define hand2_height 14
#define hand2_x_hot 0
#define hand2_y_hot 0
static unsigned char hand2_bits[] = {
0xfe, 0x01, 0x01, 0x02, 0x7e, 0x04, 0x08, 0x08, 0x70, 0x08, 0x08, 0x08, 0x70, 0x14, 0x08, 0x22, 0x30, 0x41, 0xc0, 0x20, 0x40, 0x12, 0x80, 0x08, 00, 0x05, 00, 0x02};
#define hand2_mask_width 16
#define hand2_mask_height 16
#define hand2_mask_x_hot 0
#define hand2_mask_y_hot 1
static unsigned char hand2_mask_bits[] = {
0xfe, 0x01, 0xff, 0x03, 0xff, 0x07, 0xff, 0x0f, 0xfe, 0x1f, 0xf8, 0x1f, 0xfc, 0x1f, 0xf8, 0x3f, 0xfc, 0x7f, 0xf8, 0xff, 0xf0, 0x7f, 0xe0, 0x3f, 0xc0, 0x1f, 0x80, 0x0f, 00, 0x07, 00, 0x02};
#define heart_width 15
#define heart_height 14
#define heart_x_hot 6
#define heart_y_hot 8
static unsigned char heart_bits[] = {
0x7c, 0x1f, 0xc6, 0x31, 0x83, 0x60, 0x01, 0x40, 0x01, 0x40, 0x01, 0x40, 0x01, 0x40, 0x03, 0x60, 0x06, 0x30, 0x0c, 0x18, 0x18, 0x0c, 0x30, 0x06, 0x60, 0x03, 0xc0, 0x01};
#define heart_mask_width 15
#define heart_mask_height 14
#define heart_mask_x_hot 6
#define heart_mask_y_hot 8
static unsigned char heart_mask_bits[] = {
0x7c, 0x9f, 0xfe, 0x3f, 0xc7, 0x71, 0x83, 0x60, 0x03, 0x60, 0x03, 0x60, 0x43, 0x61, 0x87, 0x70, 0x0e, 0x38, 0x1c, 0x1c, 0x38, 0x0e, 0xf0, 0x07, 0xe0, 0x03, 0xc0, 0x01};
#define icon_width 16
#define icon_height 16
#define icon_x_hot 8
#define icon_y_hot 8
static unsigned char icon_bits[] = {
0xff, 0xff, 0xab, 0xaa, 0x55, 0xd5, 0xab, 0xaa, 0x05, 0xd0, 0x0b, 0xa0, 0x05, 0xd0, 0x0b, 0xa0, 0x05, 0xd0, 0x0b, 0xa0, 0x05, 0xd0, 0x0b, 0xa0, 0x55, 0xd5, 0xab, 0xaa, 0x55, 0xd5, 0xff, 0xff};
#define icon_mask_width 16
#define icon_mask_height 16
#define icon_mask_x_hot 8
#define icon_mask_y_hot 8
static unsigned char icon_mask_bits[] = {
0xff, 0xff, 0xff, 0xff, 0xff, 0xff, 0xff, 0xff, 0xff, 0xff, 0xff, 0xff, 0xff, 0xff, 0xff, 0xff, 0xff, 0xff, 0xff, 0xff, 0xff, 0xff, 0xff, 0xff, 0xff, 0xff, 0xff, 0xff, 0xff, 0xff, 0xff, 0xff};
#define iron_cross_width 14
#define iron_cross_height 14
#define iron_cross_x_hot 7
#define iron_cross_y_hot 6
static unsigned char iron_cross_bits[] = {
0xfe, 0x1f, 0xfc, 0x0f, 0xf9, 0x27, 0xf3, 0x33, 0xe7, 0x39, 0xcf, 0x3c, 0xff, 0x3f, 0xff, 0x3f, 0xcf, 0x3c, 0xe7, 0x39, 0xf3, 0x33, 0xf9, 0x27, 0xfc, 0x0f, 0xfe, 0x1f};
#define iron_cross_mask_width 16
#define iron_cross_mask_height 16
#define iron_cross_mask_x_hot 8
#define iron_cross_mask_y_hot 7
static unsigned char iron_cross_mask_bits[] = {
0xfc, 0x3f, 0xfe, 0x7f, 0xfe, 0x7f, 0xff, 0xff, 0xff, 0xff, 0xff, 0xff, 0xff, 0xff, 0xff, 0xff, 0xff, 0xff, 0xff, 0xff, 0xff, 0xff, 0xff, 0xff, 0xff, 0xff, 0xfe, 0x7f, 0xfe, 0x7f, 0xfc, 0x3f};
#define left_ptr_width 8
#define left_ptr_height 14
#define left_ptr_x_hot 0
#define left_ptr_y_hot 0
static unsigned char left_ptr_bits[] = {
0x01, 0x03, 0x07, 0x0f, 0x1f, 0x3f, 0x7f, 0xff, 0x1f, 0x1b, 0x31, 0x30, 0x60, 0x60};
#define left_ptr_mask_width 10
#define left_ptr_mask_height 16
#define left_ptr_mask_x_hot 1
#define left_ptr_mask_y_hot 1
static unsigned char left_ptr_mask_bits[] = {
0x03, 0xc0, 0x07, 00, 0x0f, 00, 0x1f, 00, 0x3f, 00, 0x7f, 00, 0xff, 00, 0xff, 0x01, 0xff, 0x03, 0xff, 0x03, 0x7f, 00, 0xf7, 00, 0xf3, 00, 0xe0, 0x01, 0xe0, 0x01, 0xc0, 00};
#define left_side_width 14
#define left_side_height 13
#define left_side_x_hot 0
#define left_side_y_hot 6
static unsigned char left_side_bits[] = {
0x03, 00, 0x03, 00, 0x83, 00, 0x43, 00, 0x23, 00, 0x13, 00, 0xfb, 0x3f, 0x13, 00, 0x23, 00, 0x43, 00, 0x83, 00, 0x03, 00, 0x03, 00};
#define left_side_mask_width 16
#define left_side_mask_height 15
#define left_side_mask_x_hot 1
#define left_side_mask_y_hot 7
static unsigned char left_side_mask_bits[] = {
0x0f, 00, 0x0f, 00, 0x0f, 0x03, 0x8f, 0x03, 0xcf, 0x01, 0xef, 00, 0xff, 0xff, 0xff, 0xff, 0xff, 0xff, 0xef, 00, 0xcf, 0x01, 0x8f, 0x03, 0x0f, 0x03, 0x0f, 00, 0x0f, 00};
#define left_tee_width 10
#define left_tee_height 14
#define left_tee_x_hot 0
#define left_tee_y_hot 7
static unsigned char left_tee_bits[] = {
0x03, 0x10, 0x03, 00, 0x03, 00, 0x03, 00, 0x03, 00, 0x03, 00, 0xff, 0x03, 0xff, 0x03, 0x03, 00, 0x03, 00, 0x03, 00, 0x03, 00, 0x03, 00, 0x03, 00};
#define left_tee_mask_width 12
#define left_tee_mask_height 16
#define left_tee_mask_x_hot 1
#define left_tee_mask_y_hot 8
static unsigned char left_tee_mask_bits[] = {
0x0f, 0xc0, 0x0f, 00, 0x0f, 00, 0x0f, 00, 0x0f, 00, 0x0f, 00, 0xff, 0x0f, 0xff, 0x0f, 0xff, 0x0f, 0xff, 0x0f, 0x0f, 00, 0x0f, 00, 0x0f, 00, 0x0f, 00, 0x0f, 00, 0x0f, 00};
#define leftbutton_width 16
#define leftbutton_height 16
#define leftbutton_x_hot 8
#define leftbutton_y_hot 8
static unsigned char leftbutton_bits[] = {
0x01, 0xc0, 0xfe, 0xbf, 0xfe, 0xbf, 0x22, 0xa2, 0xa2, 0xaa, 0xa2, 0xaa, 0xa2, 0xaa, 0xa2, 0xaa, 0x22, 0xa2, 0xfe, 0xbf, 0xfe, 0xbf, 0xfe, 0xbf, 0xfe, 0xbf, 0xfe, 0xbf, 0xfe, 0xbf, 0x01, 0xc0};
#define leftbutton_mask_width 15
#define leftbutton_mask_height 16
#define leftbutton_mask_x_hot 8
#define leftbutton_mask_y_hot 8
static unsigned char leftbutton_mask_bits[] = {
0xfe, 0xbf, 0xff, 0x7f, 0xff, 0x7f, 0xff, 0x7f, 0xff, 0x7f, 0xff, 0x7f, 0xff, 0x7f, 0xff, 0x7f, 0xff, 0x7f, 0xff, 0x7f, 0xff, 0x7f, 0xff, 0x7f, 0xff, 0x7f, 0xff, 0x7f, 0xff, 0x7f, 0xfe, 0x3f};
#define ll_angle_width 10
#define ll_angle_height 10
#define ll_angle_x_hot 0
#define ll_angle_y_hot 9
static unsigned char ll_angle_bits[] = {
0x03, 0x10, 0x03, 00, 0x03, 00, 0x03, 00, 0x03, 00, 0x03, 00, 0x03, 00, 0x03, 00, 0xff, 0x03, 0xff, 0x03};
#define ll_angle_mask_width 12
#define ll_angle_mask_height 12
#define ll_angle_mask_x_hot 1
#define ll_angle_mask_y_hot 10
static unsigned char ll_angle_mask_bits[] = {
0x0f, 0xc0, 0x0f, 00, 0x0f, 00, 0x0f, 00, 0x0f, 00, 0x0f, 00, 0x0f, 00, 0x0f, 00, 0xff, 0x0f, 0xff, 0x0f, 0xff, 0x0f, 0xff, 0x0f};
#define lr_angle_width 10
#define lr_angle_height 10
#define lr_angle_x_hot 9
#define lr_angle_y_hot 9
static unsigned char lr_angle_bits[] = {
00, 0x13, 00, 0x03, 00, 0x03, 00, 0x03, 00, 0x03, 00, 0x03, 00, 0x03, 00, 0x03, 0xff, 0x03, 0xff, 0x03};
#define lr_angle_mask_width 12
#define lr_angle_mask_height 12
#define lr_angle_mask_x_hot 10
#define lr_angle_mask_y_hot 10
static unsigned char lr_angle_mask_bits[] = {
00, 0xcf, 00, 0x0f, 00, 0x0f, 00, 0x0f, 00, 0x0f, 00, 0x0f, 00, 0x0f, 00, 0x0f, 0xff, 0x0f, 0xff, 0x0f, 0xff, 0x0f, 0xff, 0x0f};
#define man_width 16
#define man_height 16
#define man_x_hot 14
#define man_y_hot 5
static unsigned char man_bits[] = {
0xc0, 0x01, 0x78, 0x0f, 0x40, 0x01, 0x81, 00, 0xc2, 0xe1, 0x24, 0xd2, 0xb8, 0x0e, 0xa0, 0x02, 0x20, 0x02, 0x40, 0x01, 0x20, 0x02, 0x90, 0x04, 0x48, 0x09, 0x28, 0x0a, 0x1e, 0x3c, 0x1f, 0xfc};
#define man_mask_width 16
#define man_mask_height 16
#define man_mask_x_hot 14
#define man_mask_y_hot 5
static unsigned char man_mask_bits[] = {
0xf8, 0x07, 0xfc, 0x0f, 0xfc, 0x1f, 0xc3, 0x41, 0xe7, 0xe3, 0xfe, 0xff, 0xfc, 0xdf, 0xf8, 0x0f, 0xe0, 0x07, 0xe0, 0x03, 0xf0, 0x07, 0xf8, 0x0f, 0xfc, 0x1f, 0x7e, 0x3f, 0x3f, 0xfe, 0x3f, 0xfe};
#define middlebutton_width 16
#define middlebutton_height 16
#define middlebutton_x_hot 8
#define middlebutton_y_hot 8
static unsigned char middlebutton_bits[] = {
0x01, 0xc0, 0xfe, 0xbf, 0xfe, 0xbf, 0x22, 0xa2, 0x2a, 0xaa, 0x2a, 0xaa, 0x2a, 0xaa, 0x2a, 0xaa, 0x22, 0xa2, 0xfe, 0xbf, 0xfe, 0xbf, 0xfe, 0xbf, 0xfe, 0xbf, 0xfe, 0xbf, 0xfe, 0xbf, 0x01, 0xc0};
#define middlebutton_mask_width 15
#define middlebutton_mask_height 16
#define middlebutton_mask_x_hot 8
#define middlebutton_mask_y_hot 8
static unsigned char middlebutton_mask_bits[] = {
0xfe, 0xbf, 0xff, 0x7f, 0xff, 0x7f, 0xff, 0x7f, 0xff, 0x7f, 0xff, 0x7f, 0xff, 0x7f, 0xff, 0x7f, 0xff, 0x7f, 0xff, 0x7f, 0xff, 0x7f, 0xff, 0x7f, 0xff, 0x7f, 0xff, 0x7f, 0xff, 0x7f, 0xfe, 0x3f};
#define mouse_width 15
#define mouse_height 14
#define mouse_x_hot 4
#define mouse_y_hot 1
static unsigned char mouse_bits[] = {
0xe0, 00, 0x30, 00, 0x60, 00, 0xc0, 00, 0xfe, 0x1f, 0x01, 0x20, 0xcd, 0x6c, 0xcd, 0x6c, 0xcd, 0x6c, 0x01, 0x60, 0x01, 0x60, 0x06, 0x38, 0x18, 0x06, 0xe0, 0x01};
#define mouse_mask_width 16
#define mouse_mask_height 16
#define mouse_mask_x_hot 4
#define mouse_mask_y_hot 1
static unsigned char mouse_mask_bits[] = {
0xf0, 0x01, 0x78, 00, 0xf0, 00, 0xe0, 00, 0xfe, 0x1f, 0xff, 0x3f, 0xff, 0xff, 0xff, 0xff, 0xff, 0xff, 0xff, 0xff, 0xff, 0xff, 0xff, 0xff, 0xfc, 0xef, 0xf8, 0x07, 0xf0, 0x03, 0xe0, 0x01};
#define pencil_width 11
#define pencil_height 16
#define pencil_x_hot 10
#define pencil_y_hot 15
static unsigned char pencil_bits[] = {
0x0e, 0x10, 0x11, 00, 0x31, 00, 0x52, 00, 0x5e, 00, 0x84, 00, 0x88, 00, 0x08, 0x01, 0x10, 0x01, 0x30, 0x02, 0x20, 0x02, 0x40, 0x04, 0x80, 0x07, 00, 0x07, 00, 0x06, 00, 0x04};
#define pencil_mask_width 13
#define pencil_mask_height 16
#define pencil_mask_x_hot 11
#define pencil_mask_y_hot 15
static unsigned char pencil_mask_bits[] = {
0x3f, 0xc0, 0x7f, 00, 0xff, 00, 0xfe, 00, 0xfc, 0x01, 0xfc, 0x01, 0xf8, 0x03, 0xf0, 0x03, 0xf0, 0x07, 0xe0, 0x07, 0xe0, 0x0f, 0xc0, 0x1f, 0x80, 0x1f, 00, 0x1f, 00, 0x1e, 00, 0x1c};
#define pirate_width 15
#define pirate_height 16
#define pirate_x_hot 7
#define pirate_y_hot 12
static unsigned char pirate_bits[] = {
0xe0, 0x01, 0xf0, 0x03, 0xf8, 0x07, 0xcc, 0x0c, 0xcc, 0x0c, 0xf8, 0x07, 0xf0, 0x03, 0xe0, 0x01, 0xe1, 0x21, 0xe1, 0x61, 0xc2, 0x10, 0x1c, 0x0e, 0xe0, 0x01, 0xf8, 0x47, 0x0f, 0x7c, 0x01, 0x20};
#define pirate_mask_width 16
#define pirate_mask_height 16
#define pirate_mask_x_hot 7
#define pirate_mask_y_hot 12
static unsigned char pirate_mask_bits[] = {
0xf0, 0x03, 0xf8, 0x07, 0xfc, 0x0f, 0xfe, 0x1f, 0xfe, 0x1f, 0xfc, 0x0f, 0xf8, 0x07, 0xf1, 0x83, 0xf1, 0xe3, 0xf3, 0xf3, 0xef, 0x39, 0x1e, 0x1e, 0xe0, 0x01, 0xfe, 0xc7, 0xff, 0xff, 0x0f, 0x7c};
#define plus_width 10
#define plus_height 10
#define plus_x_hot 4
#define plus_y_hot 5
static unsigned char plus_bits[] = {
0x30, 0x10, 0x30, 00, 0x30, 00, 0x30, 00, 0xff, 0x03, 0xff, 0x03, 0x30, 00, 0x30, 00, 0x30, 00, 0x30, 00};
#define plus_mask_width 12
#define plus_mask_height 12
#define plus_mask_x_hot 5
#define plus_mask_y_hot 6
static unsigned char plus_mask_bits[] = {
0xf0, 0xc0, 0xf0, 00, 0xf0, 00, 0xf0, 00, 0xff, 0x0f, 0xff, 0x0f, 0xff, 0x0f, 0xff, 0x0f, 0xf0, 00, 0xf0, 00, 0xf0, 00, 0xf0, 00};
#define question_arrow_width 9
#define question_arrow_height 15
#define question_arrow_x_hot 4
#define question_arrow_y_hot 7
static unsigned char question_arrow_bits[] = {
0x7c, 0x10, 0xfe, 00, 0xc7, 0x01, 0x83, 0x01, 0x87, 0x01, 0xc6, 0x01, 0xe0, 00, 0x78, 00, 0x38, 00, 0x28, 00, 0x28, 00, 0xee, 00, 0x6c, 00, 0x38, 00, 0x10, 00};
#define question_arrow_mask_width 11
#define question_arrow_mask_height 16
#define question_arrow_mask_x_hot 5
#define question_arrow_mask_y_hot 8
static unsigned char question_arrow_mask_bits[] = {
0xf8, 0xc0, 0xfc, 0x01, 0xfe, 0x03, 0xff, 0x07, 0x8f, 0x07, 0x9f, 0x07, 0xde, 0x07, 0xfc, 0x03, 0xf8, 0x01, 0xf8, 00, 0xf8, 00, 0xfc, 0x01, 0xfe, 0x03, 0xfc, 0x01, 0xf8, 00, 0x70, 00};
#define right_ptr_width 8
#define right_ptr_height 14
#define right_ptr_x_hot 7
#define right_ptr_y_hot 0
static unsigned char right_ptr_bits[] = {
0x80, 0xc0, 0xe0, 0xf0, 0xf8, 0xfc, 0xfe, 0xff, 0xf8, 0xd8, 0x8c, 0x0c, 0x06, 0x06};
#define right_ptr_mask_width 10
#define right_ptr_mask_height 16
#define right_ptr_mask_x_hot 8
#define right_ptr_mask_y_hot 1
static unsigned char right_ptr_mask_bits[] = {
00, 0xc3, 0x80, 0x03, 0xc0, 0x03, 0xe0, 0x03, 0xf0, 0x03, 0xf8, 0x03, 0xfc, 0x03, 0xfe, 0x03, 0xff, 0x03, 0xff, 0x03, 0xf8, 0x03, 0xbc, 0x03, 0x3c, 0x03, 0x1e, 00, 0x1e, 00, 0x0c, 00};
#define right_side_width 14
#define right_side_height 13
#define right_side_x_hot 13
#define right_side_y_hot 6
static unsigned char right_side_bits[] = {
00, 0x30, 00, 0x30, 0x40, 0x30, 0x80, 0x30, 00, 0x31, 00, 0x32, 0xff, 0x37, 00, 0x32, 00, 0x31, 0x80, 0x30, 0x40, 0x30, 00, 0x30, 00, 0x30};
#define right_side_mask_width 16
#define right_side_mask_height 15
#define right_side_mask_x_hot 14
#define right_side_mask_y_hot 7
static unsigned char right_side_mask_bits[] = {
00, 0xf0, 00, 0xf0, 0xc0, 0xf0, 0xc0, 0xf1, 0x80, 0xf3, 00, 0xf7, 0xff, 0xff, 0xff, 0xff, 0xff, 0xff, 00, 0xf7, 0x80, 0xf3, 0xc0, 0xf1, 0xc0, 0xf0, 00, 0xf0, 00, 0xf0};
#define right_tee_width 10
#define right_tee_height 14
#define right_tee_x_hot 9
#define right_tee_y_hot 7
static unsigned char right_tee_bits[] = {
00, 0x13, 00, 0x03, 00, 0x03, 00, 0x03, 00, 0x03, 00, 0x03, 0xff, 0x03, 0xff, 0x03, 00, 0x03, 00, 0x03, 00, 0x03, 00, 0x03, 00, 0x03, 00, 0x03};
#define right_tee_mask_width 12
#define right_tee_mask_height 16
#define right_tee_mask_x_hot 10
#define right_tee_mask_y_hot 8
static unsigned char right_tee_mask_bits[] = {
00, 0xcf, 00, 0x0f, 00, 0x0f, 00, 0x0f, 00, 0x0f, 00, 0x0f, 0xff, 0x0f, 0xff, 0x0f, 0xff, 0x0f, 0xff, 0x0f, 00, 0x0f, 00, 0x0f, 00, 0x0f, 00, 0x0f, 00, 0x0f, 00, 0x0f};
#define rightbutton_width 16
#define rightbutton_height 16
#define rightbutton_x_hot 8
#define rightbutton_y_hot 8
static unsigned char rightbutton_bits[] = {
0x01, 0xc0, 0xfe, 0xbf, 0xfe, 0xbf, 0x22, 0xa2, 0xaa, 0xa2, 0xaa, 0xa2, 0xaa, 0xa2, 0xaa, 0xa2, 0x22, 0xa2, 0xfe, 0xbf, 0xfe, 0xbf, 0xfe, 0xbf, 0xfe, 0xbf, 0xfe, 0xbf, 0xfe, 0xbf, 0x01, 0xc0};
#define rightbutton_mask_width 15
#define rightbutton_mask_height 16
#define rightbutton_mask_x_hot 8
#define rightbutton_mask_y_hot 8
static unsigned char rightbutton_mask_bits[] = {
0xfe, 0xbf, 0xff, 0x7f, 0xff, 0x7f, 0xff, 0x7f, 0xff, 0x7f, 0xff, 0x7f, 0xff, 0x7f, 0xff, 0x7f, 0xff, 0x7f, 0xff, 0x7f, 0xff, 0x7f, 0xff, 0x7f, 0xff, 0x7f, 0xff, 0x7f, 0xff, 0x7f, 0xfe, 0x3f};
#define rtl_logo_width 14
#define rtl_logo_height 14
#define rtl_logo_x_hot 6
#define rtl_logo_y_hot 6
static unsigned char rtl_logo_bits[] = {
0xff, 0x3f, 0x01, 0x22, 0x01, 0x22, 0x01, 0x22, 0xff, 0x23, 0x11, 0x22, 0x11, 0x22, 0x11, 0x22, 0x11, 0x22, 0xf1, 0x3f, 0x11, 0x20, 0x11, 0x20, 0x11, 0x20, 0xff, 0x3f};
#define rtl_logo_mask_width 16
#define rtl_logo_mask_height 16
#define rtl_logo_mask_x_hot 7
#define rtl_logo_mask_y_hot 7
static unsigned char rtl_logo_mask_bits[] = {
0xff, 0xff, 0xff, 0xff, 0xff, 0xff, 0x07, 0xee, 0xff, 0xef, 0xff, 0xef, 0xff, 0xef, 0x77, 0xee, 0x77, 0xee, 0xf7, 0xff, 0xf7, 0xff, 0xf7, 0xff, 0x77, 0xe0, 0xff, 0xff, 0xff, 0xff, 0xff, 0xff};
#define sailboat_width 12
#define sailboat_height 13
#define sailboat_x_hot 6
#define sailboat_y_hot -1
static unsigned char sailboat_bits[] = {
0x80, 0x10, 0x80, 00, 0xa0, 0x01, 0xa0, 0x01, 0xb0, 0x01, 0xb0, 0x03, 0xb8, 0x03, 0xb8, 0x03, 0xbc, 0x07, 0xbc, 0x07, 0xbe, 0x07, 0xbe, 0x0f, 0x1f, 0x07};
#define sailboat_mask_width 16
#define sailboat_mask_height 16
#define sailboat_mask_x_hot 8
#define sailboat_mask_y_hot 0
static unsigned char sailboat_mask_bits[] = {
00, 0x03, 00, 0x07, 0x80, 0x07, 0xc0, 0x0f, 0xc0, 0x0f, 0xe0, 0x0f, 0xe0, 0x1f, 0xf0, 0x1f, 0xf0, 0x1f, 0xf8, 0x3f, 0xf8, 0x3f, 0xfc, 0x3f, 0xfc, 0xff, 0xfe, 0xff, 0xff, 0x1f, 0xfe, 0x07};
#define sb_down_arrow_width 7
#define sb_down_arrow_height 15
#define sb_down_arrow_x_hot 3
#define sb_down_arrow_y_hot 15
static unsigned char sb_down_arrow_bits[] = {
0x14, 0x14, 0x14, 0x14, 0x14, 0x14, 0x14, 0x14, 0x14, 0x14, 0x14, 0x7f, 0x3e, 0x1c, 0x08};
#define sb_down_arrow_mask_width 9
#define sb_down_arrow_mask_height 16
#define sb_down_arrow_mask_x_hot 4
#define sb_down_arrow_mask_y_hot 15
static unsigned char sb_down_arrow_mask_bits[] = {
0x7c, 0xc0, 0x7c, 00, 0x7c, 00, 0x7c, 00, 0x7c, 00, 0x7c, 00, 0x7c, 00, 0x7c, 00, 0x7c, 00, 0x7c, 00, 0xff, 0x01, 0xff, 0x01, 0xfe, 00, 0x7c, 00, 0x38, 00, 0x10, 00};
#define sb_h_double_arrow_width 15
#define sb_h_double_arrow_height 7
#define sb_h_double_arrow_x_hot 7
#define sb_h_double_arrow_y_hot 3
static unsigned char sb_h_double_arrow_bits[] = {
0x08, 0x08, 0x0c, 0x18, 0xfe, 0x3f, 0x0f, 0x78, 0xfe, 0x3f, 0x0c, 0x18, 0x08, 0x08};
#define sb_h_double_arrow_mask_width 15
#define sb_h_double_arrow_mask_height 9
#define sb_h_double_arrow_mask_x_hot 7
#define sb_h_double_arrow_mask_y_hot 4
static unsigned char sb_h_double_arrow_mask_bits[] = {
0x18, 0x8c, 0x1c, 0x1c, 0xfe, 0x3f, 0xff, 0x7f, 0xff, 0x7f, 0xff, 0x7f, 0xfe, 0x3f, 0x1c, 0x1c, 0x18, 0x0c};
#define sb_left_arrow_width 15
#define sb_left_arrow_height 7
#define sb_left_arrow_x_hot -1
#define sb_left_arrow_y_hot 3
static unsigned char sb_left_arrow_bits[] = {
0x08, 00, 0x0c, 00, 0xfe, 0x7f, 0x0f, 00, 0xfe, 0x7f, 0x0c, 00, 0x08, 00};
#define sb_left_arrow_mask_width 16
#define sb_left_arrow_mask_height 9
#define sb_left_arrow_mask_x_hot 0
#define sb_left_arrow_mask_y_hot 4
static unsigned char sb_left_arrow_mask_bits[] = {
0x30, 00, 0x38, 00, 0xfc, 0xff, 0xfe, 0xff, 0xff, 0xff, 0xfe, 0xff, 0xfc, 0xff, 0x38, 00, 0x30, 00};
#define sb_right_arrow_width 15
#define sb_right_arrow_height 7
#define sb_right_arrow_x_hot 15
#define sb_right_arrow_y_hot 3
static unsigned char sb_right_arrow_bits[] = {
00, 0x08, 00, 0x18, 0xff, 0x3f, 00, 0x78, 0xff, 0x3f, 00, 0x18, 00, 0x08};
#define sb_right_arrow_mask_width 16
#define sb_right_arrow_mask_height 9
#define sb_right_arrow_mask_x_hot 15
#define sb_right_arrow_mask_y_hot 4
static unsigned char sb_right_arrow_mask_bits[] = {
00, 0x0c, 00, 0x1c, 0xff, 0x3f, 0xff, 0x7f, 0xff, 0xff, 0xff, 0x7f, 0xff, 0x3f, 00, 0x1c, 00, 0x0c};
#define sb_up_arrow_width 7
#define sb_up_arrow_height 15
#define sb_up_arrow_x_hot 3
#define sb_up_arrow_y_hot -1
static unsigned char sb_up_arrow_bits[] = {
0x08, 0x9c, 0x3e, 0x7f, 0x14, 0x14, 0x14, 0x14, 0x14, 0x14, 0x14, 0x14, 0x14, 0x14, 0x14};
#define sb_up_arrow_mask_width 9
#define sb_up_arrow_mask_height 16
#define sb_up_arrow_mask_x_hot 4
#define sb_up_arrow_mask_y_hot 0
static unsigned char sb_up_arrow_mask_bits[] = {
0x10, 0xc0, 0x38, 00, 0x7c, 00, 0xfe, 00, 0xff, 0x01, 0xff, 0x01, 0x7c, 00, 0x7c, 00, 0x7c, 00, 0x7c, 00, 0x7c, 00, 0x7c, 00, 0x7c, 00, 0x7c, 00, 0x7c, 00, 0x7c, 00};
#define sb_v_double_arrow_width 7
#define sb_v_double_arrow_height 15
#define sb_v_double_arrow_x_hot 3
#define sb_v_double_arrow_y_hot 7
static unsigned char sb_v_double_arrow_bits[] = {
0x08, 0x9c, 0x3e, 0x7f, 0x14, 0x14, 0x14, 0x14, 0x14, 0x14, 0x14, 0x7f, 0x3e, 0x1c, 0x08};
#define sb_v_double_arrow_mask_width 9
#define sb_v_double_arrow_mask_height 15
#define sb_v_double_arrow_mask_x_hot 4
#define sb_v_double_arrow_mask_y_hot 7
static unsigned char sb_v_double_arrow_mask_bits[] = {
0x38, 0xc0, 0x7c, 00, 0xfe, 00, 0xff, 0x01, 0xff, 0x01, 0x7c, 00, 0x7c, 00, 0x7c, 00, 0x7c, 00, 0x7c, 00, 0xff, 0x01, 0xff, 0x01, 0xfe, 00, 0x7c, 00, 0x38, 00};
#define shuttle_width 15
#define shuttle_height 16
#define shuttle_x_hot 10
#define shuttle_y_hot 0
static unsigned char shuttle_bits[] = {
00, 0x84, 00, 0x0e, 00, 0x1f, 0x80, 0x7b, 0xa0, 0x7b, 0x90, 0x7b, 0x88, 0x7b, 0x88, 0x7b, 0x88, 0x7b, 0x88, 0x7b, 0x8c, 0x7b, 0x8e, 0x7b, 0xbf, 0x7b, 0x18, 0x11, 00, 0x1e, 00, 0x0c};
#define shuttle_mask_width 16
#define shuttle_mask_height 16
#define shuttle_mask_x_hot 11
#define shuttle_mask_y_hot 0
static unsigned char shuttle_mask_bits[] = {
00, 0x1c, 00, 0x3e, 00, 0x7f, 00, 0xff, 0x60, 0xff, 0x70, 0xff, 0x78, 0xff, 0x78, 0xff, 0x78, 0xff, 0x78, 0xff, 0x7c, 0xff, 0x7e, 0xff, 0x7f, 0xff, 0x7e, 0x7f, 0x30, 0x7e, 00, 0x3c};
#define sizing_width 14
#define sizing_height 14
#define sizing_x_hot 7
#define sizing_y_hot 7
static unsigned char sizing_bits[] = {
0xff, 0xc0, 0x01, 00, 0x01, 00, 0x01, 00, 0xf1, 0x03, 0x11, 0x02, 0x11, 0x22, 0x11, 0x22, 0x10, 0x22, 0xf0, 0x23, 00, 0x24, 00, 0x28, 00, 0x30, 0xc0, 0x3f};
#define sizing_mask_width 16
#define sizing_mask_height 16
#define sizing_mask_x_hot 8
#define sizing_mask_y_hot 8
static unsigned char sizing_mask_bits[] = {
0xff, 0x03, 0xff, 0x03, 0xff, 0x03, 0x07, 00, 0xf7, 0x0f, 0xf7, 0x0f, 0xf7, 0xef, 0x77, 0xee, 0x77, 0xee, 0xf7, 0xef, 0xf0, 0xef, 0xf0, 0xff, 00, 0xf8, 0xc0, 0xff, 0xc0, 0xff, 0xc0, 0xff};
#define spider_width 16
#define spider_height 16
#define spider_x_hot 6
#define spider_y_hot 7
static unsigned char spider_bits[] = {
0x04, 0x08, 0x08, 0x04, 0x08, 0x04, 0x10, 0x02, 0x10, 0x02, 0xe1, 0xe1, 0xe6, 0x19, 0xf8, 0x07, 0xf8, 0x07, 0xe6, 0x19, 0xe1, 0xe1, 0x10, 0x02, 0x10, 0x02, 0x08, 0x04, 0x08, 0x04, 0x04, 0x08};
#define spider_mask_width 16
#define spider_mask_height 16
#define spider_mask_x_hot 6
#define spider_mask_y_hot 7
static unsigned char spider_mask_bits[] = {
0x06, 0x18, 0x0c, 0x0c, 0x08, 0x04, 0x18, 0x06, 0xf1, 0x83, 0xf3, 0xf3, 0xf6, 0x3b, 0xfc, 0x0f, 0xfc, 0x07, 0xf6, 0x1f, 0xf3, 0xf3, 0xf1, 0x83, 0x18, 0x02, 0x18, 0x06, 0x0c, 0x0c, 0x06, 0x18};
#define spraycan_width 11
#define spraycan_height 16
#define spraycan_x_hot 9
#define spraycan_y_hot 2
static unsigned char spraycan_bits[] = {
00, 0xe6, 0x80, 00, 0x2c, 0x06, 0x9e, 00, 0x16, 0x06, 0x3f, 00, 0x21, 00, 0x27, 00, 0x25, 00, 0x27, 00, 0x25, 00, 0x27, 00, 0x27, 00, 0x21, 00, 0x21, 00, 0x3f, 00};
#define spraycan_mask_width 12
#define spraycan_mask_height 16
#define spraycan_mask_x_hot 10
#define spraycan_mask_y_hot 2
static unsigned char spraycan_mask_bits[] = {
00, 0x4c, 0x18, 0x0d, 0x7c, 0x0d, 0x7c, 0x0d, 0x7e, 0x0d, 0xff, 00, 0xff, 00, 0xff, 00, 0xff, 00, 0xff, 00, 0xff, 00, 0xff, 00, 0xff, 00, 0xff, 00, 0xff, 00, 0xff, 00};
#define star_width 15
#define star_height 16
#define star_x_hot 7
#define star_y_hot 7
static unsigned char star_bits[] = {
0x80, 0x80, 0x40, 0x01, 0x40, 0x01, 0x40, 0x01, 0x20, 0x02, 0x20, 0x02, 0x20, 0x02, 0x9c, 0x1c, 0x03, 0x60, 0x1c, 0x1c, 0x90, 0x04, 0x48, 0x09, 0x24, 0x12, 0x14, 0x14, 0x0c, 0x18, 0x04, 0x10};
#define star_mask_width 16
#define star_mask_height 16
#define star_mask_x_hot 7
#define star_mask_y_hot 7
static unsigned char star_mask_bits[] = {
0x80, 00, 0xc0, 0x01, 0xc0, 0x01, 0x60, 0x03, 0x60, 0x03, 0x30, 0x06, 0x38, 0x1e, 0x9f, 0x7c, 0x03, 0xe0, 0x1f, 0x7c, 0x9c, 0x1c, 0xcc, 0x19, 0x66, 0x33, 0x36, 0x36, 0x1e, 0x3c, 0x0e, 0x38};
#define target_width 15
#define target_height 13
#define target_x_hot 7
#define target_y_hot 6
static unsigned char target_bits[] = {
0xc0, 0x81, 0xf0, 0x07, 0x38, 0x0e, 0x0c, 0x18, 0x06, 0x30, 0x83, 0x60, 0x43, 0x61, 0x83, 0x60, 0x06, 0x30, 0x0c, 0x18, 0x38, 0x0e, 0xf0, 0x07, 0xc0, 0x01};
#define target_mask_width 16
#define target_mask_height 14
#define target_mask_x_hot 7
#define target_mask_y_hot 7
static unsigned char target_mask_bits[] = {
0xe0, 0x03, 0xf0, 0x07, 0xf8, 0x0f, 0x3c, 0x1e, 0x0e, 0x38, 0x87, 0x70, 0xc3, 0xe1, 0x63, 0xe3, 0xc3, 0xe1, 0x87, 0x70, 0x0e, 0x38, 0x3c, 0x1e, 0xf8, 0x0f, 0xe0, 0x03};
#define tcross_width 13
#define tcross_height 13
#define tcross_x_hot 6
#define tcross_y_hot 6
static unsigned char tcross_bits[] = {
0x40, 0xe0, 0x40, 00, 0x40, 00, 0x40, 00, 0x40, 00, 0x40, 00, 0xff, 0x1f, 0x40, 00, 0x40, 00, 0x40, 00, 0x40, 00, 0x40, 00, 0x40, 00};
#define tcross_mask_width 15
#define tcross_mask_height 15
#define tcross_mask_x_hot 7
#define tcross_mask_y_hot 7
static unsigned char tcross_mask_bits[] = {
0xc0, 0x01, 0xc0, 0x01, 0xc0, 0x01, 0xc0, 0x01, 0xc0, 0x01, 0xc0, 0x01, 0xff, 0x7f, 0xff, 0x7f, 0xff, 0x7f, 0xc0, 0x01, 0xc0, 0x01, 0xc0, 0x01, 0xc0, 0x01, 0xc0, 0x01, 0xc0, 0x01};
#define top_left_arrow_width 14
#define top_left_arrow_height 14
#define top_left_arrow_x_hot 0
#define top_left_arrow_y_hot 0
static unsigned char top_left_arrow_bits[] = {
0x03, 0xc0, 0x0f, 00, 0x3e, 00, 0xfe, 00, 0xfc, 0x03, 0xfc, 0x0f, 0xf8, 00, 0xf8, 00, 0x30, 0x01, 0x30, 0x02, 0x20, 0x04, 0x20, 0x08, 00, 0x10, 00, 0x20};
#define top_left_arrow_mask_width 16
#define top_left_arrow_mask_height 16
#define top_left_arrow_mask_x_hot 1
#define top_left_arrow_mask_y_hot 1
static unsigned char top_left_arrow_mask_bits[] = {
0x07, 00, 0x1f, 00, 0x7f, 00, 0xfe, 0x01, 0xfe, 0x07, 0xfc, 0x3f, 0xfc, 0x3f, 0xf8, 0x3f, 0xf8, 0x03, 0xf0, 0x07, 0xf0, 0x0e, 0xe0, 0x1c, 0xe0, 0x38, 0xe0, 0x70, 00, 0xe0, 00, 0xc0};
#define top_left_corner_width 14
#define top_left_corner_height 14
#define top_left_corner_x_hot 0
#define top_left_corner_y_hot 0
static unsigned char top_left_corner_bits[] = {
0xff, 0xff, 0xff, 0x3f, 0x03, 00, 0x03, 00, 0x03, 00, 0xe3, 0x0f, 0x63, 00, 0xa3, 00, 0x23, 0x01, 0x23, 0x02, 0x23, 0x04, 0x23, 0x08, 0x03, 00, 0x03, 00};
#define top_left_corner_mask_width 16
#define top_left_corner_mask_height 16
#define top_left_corner_mask_x_hot 1
#define top_left_corner_mask_y_hot 1
static unsigned char top_left_corner_mask_bits[] = {
0xff, 0xff, 0xff, 0xff, 0xff, 0xff, 0xff, 0xff, 0x0f, 00, 0xef, 0x3f, 0xef, 0x3f, 0xef, 0x3f, 0xef, 0x03, 0xef, 0x07, 0xef, 0x0e, 0xef, 0x1c, 0xef, 0x38, 0xef, 0x30, 0x0f, 00, 0x0f, 00};
#define top_right_corner_width 14
#define top_right_corner_height 14
#define top_right_corner_x_hot 13
#define top_right_corner_y_hot 0
static unsigned char top_right_corner_bits[] = {
0xff, 0xff, 0xff, 0x3f, 00, 0x30, 00, 0x30, 00, 0x30, 0xfc, 0x31, 0x80, 0x31, 0x40, 0x31, 0x20, 0x31, 0x10, 0x31, 0x08, 0x31, 0x04, 0x31, 00, 0x30, 00, 0x30};
#define top_right_corner_mask_width 16
#define top_right_corner_mask_height 16
#define top_right_corner_mask_x_hot 14
#define top_right_corner_mask_y_hot 1
static unsigned char top_right_corner_mask_bits[] = {
0xff, 0xff, 0xff, 0xff, 0xff, 0xff, 0xff, 0xff, 00, 0xf0, 0xfc, 0xf7, 0xfc, 0xf7, 0xfc, 0xf7, 0xc0, 0xf7, 0xe0, 0xf7, 0x70, 0xf7, 0x38, 0xf7, 0x1c, 0xf7, 0x0c, 0xf7, 00, 0xf0, 00, 0xf0};
#define top_side_width 13
#define top_side_height 14
#define top_side_x_hot 6
#define top_side_y_hot 0
static unsigned char top_side_bits[] = {
0xff, 0xff, 0xff, 0x1f, 00, 00, 0x40, 00, 0xe0, 00, 0x50, 0x01, 0x48, 0x02, 0x44, 0x04, 0x40, 00, 0x40, 00, 0x40, 00, 0x40, 00, 0x40, 00, 0x40, 00};
#define top_side_mask_width 15
#define top_side_mask_height 16
#define top_side_mask_x_hot 7
#define top_side_mask_y_hot 1
static unsigned char top_side_mask_bits[] = {
0xff, 0x7f, 0xff, 0x7f, 0xff, 0x7f, 0xff, 0x7f, 0xc0, 0x01, 0xe0, 0x03, 0xf0, 0x07, 0xf8, 0x0f, 0xdc, 0x1d, 0xcc, 0x19, 0xc0, 0x01, 0xc0, 0x01, 0xc0, 0x01, 0xc0, 0x01, 0xc0, 0x01, 0xc0, 0x01};
#define top_tee_width 14
#define top_tee_height 10
#define top_tee_x_hot 7
#define top_tee_y_hot 0
static unsigned char top_tee_bits[] = {
0xff, 0xff, 0xff, 0x3f, 0xc0, 00, 0xc0, 00, 0xc0, 00, 0xc0, 00, 0xc0, 00, 0xc0, 00, 0xc0, 00, 0xc0, 00};
#define top_tee_mask_width 16
#define top_tee_mask_height 12
#define top_tee_mask_x_hot 8
#define top_tee_mask_y_hot 1
static unsigned char top_tee_mask_bits[] = {
0xff, 0xff, 0xff, 0xff, 0xff, 0xff, 0xff, 0xff, 0xc0, 0x03, 0xc0, 0x03, 0xc0, 0x03, 0xc0, 0x03, 0xc0, 0x03, 0xc0, 0x03, 0xc0, 0x03, 0xc0, 0x03};
#define trek_width 7
#define trek_height 16
#define trek_x_hot 3
#define trek_y_hot 0
static unsigned char trek_bits[] = {
0x88, 0x80, 0x1c, 0x3e, 0x7f, 0x77, 0x7f, 0x3e, 0x1c, 0x08, 0x5d, 0x6b, 0x49, 0x41, 0x41, 0x41};
#define trek_mask_width 9
#define trek_mask_height 16
#define trek_mask_x_hot 4
#define trek_mask_y_hot 0
static unsigned char trek_mask_bits[] = {
0x38, 0x40, 0x38, 00, 0x7c, 00, 0xfe, 00, 0xff, 0x01, 0xff, 0x01, 0xff, 0x01, 0xfe, 00, 0x7c, 00, 0xba, 00, 0xff, 0x01, 0xff, 0x01, 0xff, 0x01, 0xd7, 0x01, 0xd7, 0x01, 0xc7, 0x01};
#define ul_angle_width 10
#define ul_angle_height 10
#define ul_angle_x_hot 0
#define ul_angle_y_hot 0
static unsigned char ul_angle_bits[] = {
0xff, 0xe3, 0xff, 0x03, 0x03, 00, 0x03, 00, 0x03, 00, 0x03, 00, 0x03, 00, 0x03, 00, 0x03, 00, 0x03, 00};
#define ul_angle_mask_width 12
#define ul_angle_mask_height 12
#define ul_angle_mask_x_hot 1
#define ul_angle_mask_y_hot 1
static unsigned char ul_angle_mask_bits[] = {
0xff, 0x4f, 0xff, 0x0f, 0xff, 0x0f, 0xff, 0x0f, 0x0f, 00, 0x0f, 00, 0x0f, 00, 0x0f, 00, 0x0f, 00, 0x0f, 00, 0x0f, 00, 0x0f, 00};
#define umbrella_width 14
#define umbrella_height 14
#define umbrella_x_hot 7
#define umbrella_y_hot 2
static unsigned char umbrella_bits[] = {
0x88, 0xc4, 0x20, 0x0a, 0xc9, 0x32, 0xf2, 0x09, 0x4c, 0x06, 0x43, 0x18, 0x40, 00, 0x40, 00, 0x40, 00, 0x40, 00, 0x40, 00, 0x40, 0x01, 0x40, 0x01, 0x80, 00};
#define umbrella_mask_width 16
#define umbrella_mask_height 16
#define umbrella_mask_x_hot 8
#define umbrella_mask_y_hot 2
static unsigned char umbrella_mask_bits[] = {
0xe8, 0x76, 0xfb, 0xdf, 0xfd, 0x3f, 0xfe, 0xff, 0xff, 0x3f, 0xff, 0xff, 0xcf, 0x79, 0xc0, 0x01, 0xc0, 0x01, 0xc0, 0x01, 0xc0, 0x01, 0xc0, 0x07, 0xc0, 0x07, 0xc0, 0x07, 0xc0, 0x07, 0x80, 0x03};
#define ur_angle_width 10
#define ur_angle_height 10
#define ur_angle_x_hot 9
#define ur_angle_y_hot 0
static unsigned char ur_angle_bits[] = {
0xff, 0xe3, 0xff, 0x03, 00, 0x03, 00, 0x03, 00, 0x03, 00, 0x03, 00, 0x03, 00, 0x03, 00, 0x03, 00, 0x03};
#define ur_angle_mask_width 12
#define ur_angle_mask_height 12
#define ur_angle_mask_x_hot 10
#define ur_angle_mask_y_hot 1
static unsigned char ur_angle_mask_bits[] = {
0xff, 0x4f, 0xff, 0x0f, 0xff, 0x0f, 0xff, 0x0f, 00, 0x0f, 00, 0x0f, 00, 0x0f, 00, 0x0f, 00, 0x0f, 00, 0x0f, 00, 0x0f, 00, 0x0f};
#define watch_width 16
#define watch_height 16
#define watch_x_hot 15
#define watch_y_hot 9
static unsigned char watch_bits[] = {
0xf8, 0x07, 0xf8, 0x07, 0xf8, 0x07, 0xfc, 0x0f, 0x86, 0x18, 0x83, 0x30, 0x81, 0xe0, 0xc1, 0xe1, 0xc1, 0xe1, 0x21, 0xe0, 0x13, 0x30, 0x06, 0x18, 0xfc, 0x0f, 0xf8, 0x07, 0xf8, 0x07, 0xf8, 0x07};
#define watch_mask_width 16
#define watch_mask_height 16
#define watch_mask_x_hot 15
#define watch_mask_y_hot 9
static unsigned char watch_mask_bits[] = {
0xfc, 0x0f, 0xfc, 0x0f, 0xfc, 0x0f, 0xfe, 0x1f, 0xff, 0x3f, 0xff, 0xff, 0xff, 0xff, 0xff, 0xff, 0xff, 0xff, 0xff, 0xff, 0xff, 0xff, 0xff, 0x3f, 0xfe, 0x1f, 0xfc, 0x0f, 0xfc, 0x0f, 0xfc, 0x0f};
#define xterm_width 7
#define xterm_height 14
#define xterm_x_hot 3
#define xterm_y_hot 7
static unsigned char xterm_bits[] = {
0xf7, 0x9c, 0x08, 0x08, 0x08, 0x08, 0x08, 0x08, 0x08, 0x08, 0x08, 0x08, 0x1c, 0x77};
#define xterm_mask_width 9
#define xterm_mask_height 16
#define xterm_mask_x_hot 4
#define xterm_mask_y_hot 8
static unsigned char xterm_mask_bits[] = {
0xef, 0x41, 0xff, 0x01, 0xff, 0x01, 0x7c, 00, 0x38, 00, 0x38, 00, 0x38, 00, 0x38, 00, 0x38, 00, 0x38, 00, 0x38, 00, 0x38, 00, 0x7c, 00, 0xff, 0x01, 0xff, 0x01, 0xef, 0x01};
