<?xml version="1.0" encoding="UTF-8" standalone="no"?>
<!-- Created with Inkscape (http://www.inkscape.org/) -->

<svg
   xmlns:dc="http://purl.org/dc/elements/1.1/"
   xmlns:cc="http://creativecommons.org/ns#"
   xmlns:rdf="http://www.w3.org/1999/02/22-rdf-syntax-ns#"
   xmlns:svg="http://www.w3.org/2000/svg"
   xmlns="http://www.w3.org/2000/svg"
   xmlns:sodipodi="http://sodipodi.sourceforge.net/DTD/sodipodi-0.dtd"
   xmlns:inkscape="http://www.inkscape.org/namespaces/inkscape"
   width="24"
   height="2"
   id="svg32934"
   version="1.1"
   inkscape:version="0.48.2 r9819"
   sodipodi:docname="pane-separator-grip-vertical.svg">
  <defs
     id="defs32936" />
  <sodipodi:namedview
     id="base"
     pagecolor="#ffffff"
     bordercolor="#666666"
     borderopacity="1.0"
     inkscape:pageopacity="0.0"
     inkscape:pageshadow="2"
     inkscape:zoom="8"
     inkscape:cx="-24.023431"
     inkscape:cy="12.438041"
     inkscape:current-layer="layer1"
     showgrid="true"
     inkscape:grid-bbox="true"
     inkscape:document-units="px"
     inkscape:window-width="1280"
     inkscape:window-height="741"
     inkscape:window-x="0"
     inkscape:window-y="27"
     inkscape:window-maximized="1" />
  <metadata
     id="metadata32939">
    <rdf:RDF>
      <cc:Work
         rdf:about="">
        <dc:format>image/svg+xml</dc:format>
        <dc:type
           rdf:resource="http://purl.org/dc/dcmitype/StillImage" />
        <dc:title />
      </cc:Work>
    </rdf:RDF>
  </metadata>
  <g
     id="layer1"
     inkscape:label="Layer 1"
     inkscape:groupmode="layer"
     transform="translate(0,-14)">
    <path
       sodipodi:type="arc"
       style="fill:#babdb6;fill-opacity:1;stroke:none;display:inline;enable-background:new"
       id="path5824"
       sodipodi:cx="868.63647"
       sodipodi:cy="617.14966"
       sodipodi:rx="1.9003495"
       sodipodi:ry="1.9003495"
       d="m 870.53682,617.14966 a 1.9003495,1.9003495 0 1 1 -3.80069,0 1.9003495,1.9003495 0 1 1 3.80069,0 z"
       transform="matrix(-0.52621972,0,0,-0.52621861,469.09367,339.75564)" />
    <path
       transform="matrix(-0.52621972,0,0,-0.52621861,474.59365,339.75564)"
       d="m 870.53682,617.14966 a 1.9003495,1.9003495 0 1 1 -3.80069,0 1.9003495,1.9003495 0 1 1 3.80069,0 z"
       sodipodi:ry="1.9003495"
       sodipodi:rx="1.9003495"
       sodipodi:cy="617.14966"
       sodipodi:cx="868.63647"
       id="path5828"
       style="fill:#babdb6;fill-opacity:1;stroke:none;display:inline;enable-background:new"
       sodipodi:type="arc" />
    <path
       sodipodi:type="arc"
       style="fill:#babdb6;fill-opacity:1;stroke:none;display:inline;enable-background:new"
       id="path5830"
       sodipodi:cx="868.63647"
       sodipodi:cy="617.14966"
       sodipodi:rx="1.9003495"
       sodipodi:ry="1.9003495"
       d="m 870.53682,617.14966 a 1.9003495,1.9003495 0 1 1 -3.80069,0 1.9003495,1.9003495 0 1 1 3.80069,0 z"
       transform="matrix(-0.52621972,0,0,-0.52621861,480.09364,339.75564)" />
    <path
       sodipodi:type="arc"
       style="fill:#babdb6;fill-opacity:1;stroke:none;display:inline;enable-background:new"
       id="path5824-3"
       sodipodi:cx="868.63647"
       sodipodi:cy="617.14966"
       sodipodi:rx="1.9003495"
       sodipodi:ry="1.9003495"
       d="m 870.53682,617.14966 a 1.9003495,1.9003495 0 1 1 -3.80069,0 1.9003495,1.9003495 0 1 1 3.80069,0 z"
       transform="matrix(-0.52621972,0,0,-0.52621861,458.09369,339.75564)" />
    <path
       transform="matrix(-0.52621972,0,0,-0.52621861,463.59368,339.75564)"
       d="m 870.53682,617.14966 a 1.9003495,1.9003495 0 1 1 -3.80069,0 1.9003495,1.9003495 0 1 1 3.80069,0 z"
       sodipodi:ry="1.9003495"
       sodipodi:rx="1.9003495"
       sodipodi:cy="617.14966"
       sodipodi:cx="868.63647"
       id="path5828-7"
       style="fill:#babdb6;fill-opacity:1;stroke:none;display:inline;enable-background:new"
       sodipodi:type="arc" />
  </g>
</svg>
