<?xml version="1.0" encoding="UTF-8"?>
<svg height="16px" viewBox="0 0 16 16" width="16px" xmlns="http://www.w3.org/2000/svg">
    <path d="m 5.75 1 c -0.414062 0 -0.75 0.335938 -0.75 0.75 v 4.5 c 0 0.414062 0.335938 0.75 0.75 0.75 h 0.191406 l -1 2 h -3.191406 c -0.414062 0 -0.75 0.335938 -0.75 0.75 v 4.5 c 0 0.414062 0.335938 0.75 0.75 0.75 h 4.5 c 0.414062 0 0.75 -0.335938 0.75 -0.75 v -4.5 c 0 -0.414062 -0.335938 -0.75 -0.75 -0.75 h -0.191406 l 1 -2 h 1.882812 l 1 2 h -0.191406 c -0.414062 0 -0.75 0.335938 -0.75 0.75 v 4.5 c 0 0.414062 0.335938 0.75 0.75 0.75 h 4.5 c 0.414062 0 0.75 -0.335938 0.75 -0.75 v -4.5 c 0 -0.414062 -0.335938 -0.75 -0.75 -0.75 h -3.191406 l -1 -2 h 0.191406 c 0.414062 0 0.75 -0.335938 0.75 -0.75 v -4.5 c 0 -0.414062 -0.335938 -0.75 -0.75 -0.75 z m 0 0"/>
</svg>
