<svg xmlns="http://www.w3.org/2000/svg" width="16" height="16"><path d="M3.384 3h3.231c.213 0 .385.224.385.502v2.996C7 6.776 6.828 7 6.615 7h-3.23C3.17 7 3 6.776 3 6.498V3.502C3 3.224 3.17 3 3.384 3zm6 0h3.231c.213 0 .385.224.385.502v2.996c0 .278-.172.502-.385.502h-3.23C9.17 7 9 6.776 9 6.498V3.502C9 3.224 9.17 3 9.384 3zm-6 6h3.231c.213 0 .385.224.385.502v2.996c0 .278-.172.502-.385.502h-3.23C3.17 13 3 12.776 3 12.498V9.502C3 9.224 3.17 9 3.384 9zm6 0h3.231c.213 0 .385.224.385.502v2.996c0 .278-.172.502-.385.502h-3.23C9.17 13 9 12.776 9 12.498V9.502C9 9.224 9.17 9 9.384 9z" style="marker:none" overflow="visible" color="#000" fill="#474747"/></svg>