<svg xmlns="http://www.w3.org/2000/svg" width="16" height="16"><g color="#bebebe" fill="#474747"><path d="M9.625 11h-3.25a.374.374 0 00-.375.375v1.25c0 .208.167.375.375.375h3.25a.374.374 0 00.375-.375v-1.25A.374.374 0 009.625 11zm0-11h-3.25A.374.374 0 006 .375v1.25c0 .208.167.375.375.375h3.25A.374.374 0 0010 1.625V.375A.374.374 0 009.625 0zm0 14h-3.25a.374.374 0 00-.375.375v1.25c0 .208.167.375.375.375h3.25a.374.374 0 00.375-.375v-1.25A.374.374 0 009.625 14zm0-11h-3.25A.374.374 0 006 3.375v1.25c0 .208.167.375.375.375h3.25A.374.374 0 0010 4.625v-1.25A.374.374 0 009.625 3z" style="marker:none" overflow="visible" opacity=".35"/><path d="M14 7H2v2h12z" style="marker:none" overflow="visible"/></g></svg>