<svg xmlns="http://www.w3.org/2000/svg" width="16" height="16"><g color="#bebebe" fill="#474747"><path d="M0 1v13h6c.176 0 .535.14.822.332.288.192.467.371.467.371l.719.727.711-.735S9.615 14 10 14h6V1h-6c-.901 0-1.572.353-2.043.701-.025-.017-.018-.018-.045-.035C7.452 1.362 6.828 1 6 1zm2 2h4c.138 0 .515.138.813.334.297.196.492.385.492.385l.717.693.695-.715S9.619 3 10 3h4v9h-4c-.89 0-1.562.348-2.033.693-.018-.012-.013-.013-.031-.025C7.476 12.36 6.836 12 6 12H2z" style="line-height:normal;font-variant-ligatures:normal;font-variant-position:normal;font-variant-caps:normal;font-variant-numeric:normal;font-variant-alternates:normal;font-feature-settings:normal;text-indent:0;text-align:start;text-decoration-line:none;text-decoration-style:solid;text-decoration-color:#000;text-transform:none;text-orientation:mixed;shape-padding:0;isolation:auto;mix-blend-mode:normal;marker:none" font-weight="400" font-family="sans-serif" overflow="visible"/><path d="M5.625 5h-2.25A.374.374 0 003 5.375v1.25c0 .207.167.375.375.375h2.25A.374.374 0 006 6.625v-1.25A.374.374 0 005.625 5zm0 3h-2.25A.374.374 0 003 8.375v1.25c0 .208.167.375.375.375h2.25A.374.374 0 006 9.625v-1.25A.374.374 0 005.625 8zm7-3h-2.25a.374.374 0 00-.375.375v1.25c0 .208.167.375.375.375h2.25A.374.374 0 0013 6.625v-1.25A.374.374 0 0012.625 5zm0 3h-2.25a.374.374 0 00-.375.375v1.25c0 .208.167.375.375.375h2.25A.374.374 0 0013 9.625v-1.25A.374.374 0 0012.625 8z" style="marker:none" overflow="visible" opacity=".35"/></g></svg>