<?xml version="1.0" encoding="UTF-8" standalone="no"?>
<!-- Created with Inkscape (http://www.inkscape.org/) -->
<svg
   xmlns:dc="http://purl.org/dc/elements/1.1/"
   xmlns:cc="http://web.resource.org/cc/"
   xmlns:rdf="http://www.w3.org/1999/02/22-rdf-syntax-ns#"
   xmlns:svg="http://www.w3.org/2000/svg"
   xmlns="http://www.w3.org/2000/svg"
   xmlns:xlink="http://www.w3.org/1999/xlink"
   xmlns:sodipodi="http://sodipodi.sourceforge.net/DTD/sodipodi-0.dtd"
   xmlns:inkscape="http://www.inkscape.org/namespaces/inkscape"
   width="24"
   height="24"
   id="svg4220"
   sodipodi:version="0.32"
   inkscape:version="0.44+devel"
   version="1.0"
   sodipodi:docbase="/home/lapo/Icone/svn/gnome-icon-theme-extras/temp/stock-icons/24"
   sodipodi:docname="gtk-open.svg"
   inkscape:export-filename="/home/hbons/GUI/Tango/GTK-stock/gtk-directory.png"
   inkscape:export-xdpi="90"
   inkscape:export-ydpi="90"
   inkscape:output_extension="org.inkscape.output.svg.inkscape"
   sodipodi:modified="true">
  <defs
     id="defs4222">
    <linearGradient
       id="linearGradient3162">
      <stop
         style="stop-color:#ffffff;stop-opacity:1;"
         offset="0"
         id="stop3164" />
      <stop
         style="stop-color:#eeeeec;stop-opacity:1;"
         offset="1"
         id="stop3166" />
    </linearGradient>
    <linearGradient
       id="linearGradient3154">
      <stop
         style="stop-color:#eeeeec;stop-opacity:1;"
         offset="0"
         id="stop3156" />
      <stop
         style="stop-color:#ffffff;stop-opacity:1;"
         offset="1"
         id="stop3158" />
    </linearGradient>
    <linearGradient
       inkscape:collect="always"
       id="linearGradient6174">
      <stop
         style="stop-color:#888a85;stop-opacity:1;"
         offset="0"
         id="stop6176" />
      <stop
         style="stop-color:#888a85;stop-opacity:0;"
         offset="1"
         id="stop6178" />
    </linearGradient>
    <linearGradient
       inkscape:collect="always"
       id="linearGradient6166">
      <stop
         style="stop-color:#eeeeec;stop-opacity:1;"
         offset="0"
         id="stop6168" />
      <stop
         style="stop-color:#eeeeec;stop-opacity:0;"
         offset="1"
         id="stop6170" />
    </linearGradient>
    <linearGradient
       inkscape:collect="always"
       xlink:href="#linearGradient6166"
       id="linearGradient6172"
       x1="13.03125"
       y1="9.3422022"
       x2="13.03125"
       y2="18.346088"
       gradientUnits="userSpaceOnUse" />
    <linearGradient
       inkscape:collect="always"
       xlink:href="#linearGradient6174"
       id="linearGradient6180"
       x1="8.5765314"
       y1="15.174199"
       x2="8.5765314"
       y2="9.1183167"
       gradientUnits="userSpaceOnUse" />
    <linearGradient
       inkscape:collect="always"
       xlink:href="#linearGradient3154"
       id="linearGradient3160"
       x1="4.2564278"
       y1="17.438328"
       x2="4.2564278"
       y2="7.0144176"
       gradientUnits="userSpaceOnUse" />
    <linearGradient
       inkscape:collect="always"
       xlink:href="#linearGradient3162"
       id="linearGradient3168"
       x1="8.483098"
       y1="12.013146"
       x2="8.483098"
       y2="20.040403"
       gradientUnits="userSpaceOnUse" />
  </defs>
  <sodipodi:namedview
     id="base"
     pagecolor="#ffffff"
     bordercolor="#666666"
     borderopacity="1.0"
     inkscape:pageopacity="0.0"
     inkscape:pageshadow="2"
     inkscape:zoom="1"
     inkscape:cx="15.212746"
     inkscape:cy="14.69922"
     inkscape:current-layer="layer1"
     showgrid="false"
     inkscape:grid-bbox="true"
     inkscape:document-units="px"
     width="24px"
     height="24px"
     inkscape:window-width="1274"
     inkscape:window-height="966"
     inkscape:window-x="6"
     inkscape:window-y="25"
     showguides="true"
     inkscape:guide-bbox="true"
     showborder="false" />
  <metadata
     id="metadata4225">
    <rdf:RDF>
      <cc:Work
         rdf:about="">
        <dc:format>image/svg+xml</dc:format>
        <dc:type
           rdf:resource="http://purl.org/dc/dcmitype/StillImage" />
      </cc:Work>
    </rdf:RDF>
  </metadata>
  <g
     id="layer1"
     inkscape:label="Layer 1"
     inkscape:groupmode="layer">
    <rect
       ry="1.6350584"
       rx="1.6350582"
       y="19"
       x="2.0000019"
       height="4"
       width="19.999998"
       id="rect5870"
       style="opacity:0.12663754;color:black;fill:black;fill-opacity:1;fill-rule:evenodd;stroke:none;stroke-width:0.9999997px;stroke-linecap:butt;stroke-linejoin:miter;marker:none;marker-start:none;marker-mid:none;marker-end:none;stroke-miterlimit:4;stroke-dasharray:none;stroke-dashoffset:0;stroke-opacity:1;visibility:visible;display:inline;overflow:visible"
       transform="matrix(1.1,0,0,1,-1.2,-1)" />
    <path
       style="fill:#ced3ae;fill-opacity:1;stroke:#777b61;stroke-width:1.01460242;stroke-miterlimit:4;stroke-opacity:1"
       d="M 4.012827,3.4879724 C 2.7424273,3.4879724 2.5,4.6029715 2.5,5.9879724 L 2.5,6.5 L 2.5,19.46875 C 2.5,20.032944 3.0159561,20.5 3.65625,20.5 L 19.34375,20.5 C 19.984044,20.5 20.5,20.032944 20.5,19.46875 L 20.5,7.53125 C 20.5,6.9670552 19.984043,6.5000002 19.34375,6.5 L 10.5,6.5 C 10.5,5.8412715 10.5,6.4411825 10.5,5.9879724 C 10.5,4.6029714 10.220981,3.4879724 8.9505814,3.4879724 L 4.012827,3.4879724 z "
       id="path6119"
       sodipodi:nodetypes="ccccccccccccc" />
    <path
       style="opacity:0.59770115;fill:url(#linearGradient6180);fill-opacity:1.0;stroke:url(#linearGradient3160);stroke-width:1.01460242;stroke-miterlimit:4;stroke-opacity:1;stroke-linejoin:round"
       d="M 4,4.5245639 C 3.6556188,4.5245639 3.7479961,4.4890573 3.65625,4.6808139 C 3.5645039,4.8725705 3.5,5.3869936 3.5,6.0245639 L 3.5,6.5 L 3.5,19.46875 C 3.5,19.426903 3.4993571,19.5 3.65625,19.5 L 19.34375,19.5 C 19.500643,19.5 19.5,19.426903 19.5,19.46875 L 19.5,7.53125 C 19.5,7.5730968 19.500643,7.5 19.34375,7.5 L 10.5,7.5 C 10.234306,7.5015677 9.9790403,7.3967143 9.791163,7.208837 C 9.6032857,7.0209597 9.4984323,6.765694 9.5,6.5 C 9.5,5.8412715 9.5,6.477774 9.5,6.0245639 C 9.5,5.4019461 9.4130999,4.9081539 9.3125,4.7120639 C 9.2119001,4.5159739 9.2818815,4.5245639 8.9375,4.5245639 L 4,4.5245639 z "
       id="path6128"
       sodipodi:nodetypes="cscccccccccsssscc" />
    <path
       transform="matrix(1.150483,0,0,0.634282,-2.50966,7.157176)"
       style="fill:#ced3ae;fill-opacity:1;stroke:#777b61;stroke-width:1.17062688;stroke-miterlimit:4;stroke-opacity:1;stroke-linecap:round"
       d="M 6.087791,15.518042 L 6.5171639,11.027925 C 6.5171639,10.458455 6.9756186,10 7.5450892,10 L 20.689566,10 C 21.259036,10 21.717491,10.458455 21.717491,11.027925 L 20.858746,20.008158 C 20.858746,20.577629 20.400291,21.036083 19.830821,21.036083 L 5.4141274,21.036083"
       id="rect6106"
       sodipodi:nodetypes="cccccccc" />
    <path
       transform="matrix(1.150483,0,0,0.553461,-2.50966,8.411933)"
       style="opacity:0.7;fill:url(#linearGradient6172);fill-opacity:1.0;stroke:url(#linearGradient3168);stroke-width:1.25318849;stroke-miterlimit:4;stroke-opacity:1"
       d="M 7.411804,11 C 7.3911555,11 7.380554,11.010602 7.380554,11.03125 C 7.3863373,11.093616 7.3863373,11.156384 7.380554,11.21875 L 6.3927728,20.03125 L 19.827496,20.03125 C 19.848144,20.03125 19.858746,20.020649 19.858746,20 C 19.852963,19.937634 19.852963,19.874866 19.858746,19.8125 L 20.846527,11 L 7.411804,11 z "
       id="path6117"
       sodipodi:nodetypes="cscccsccc" />
  </g>
</svg>
