<?xml version="1.0" encoding="UTF-8" standalone="no"?>
<!-- Created with Inkscape (http://www.inkscape.org/) -->
<svg
   xmlns:dc="http://purl.org/dc/elements/1.1/"
   xmlns:cc="http://web.resource.org/cc/"
   xmlns:rdf="http://www.w3.org/1999/02/22-rdf-syntax-ns#"
   xmlns:svg="http://www.w3.org/2000/svg"
   xmlns="http://www.w3.org/2000/svg"
   xmlns:xlink="http://www.w3.org/1999/xlink"
   xmlns:sodipodi="http://sodipodi.sourceforge.net/DTD/sodipodi-0.dtd"
   xmlns:inkscape="http://www.inkscape.org/namespaces/inkscape"
   width="24"
   height="24"
   id="svg2"
   sodipodi:version="0.32"
   inkscape:version="0.45+devel"
   version="1.0"
   sodipodi:docbase="/home/hbons/Desktop/gtk-stock"
   sodipodi:docname="gtk-clear.svg"
   inkscape:export-filename="/home/hbons/Desktop/Tango/GTK-stock/edit-clean.png"
   inkscape:export-xdpi="90"
   inkscape:export-ydpi="90"
   inkscape:output_extension="org.inkscape.output.svg.inkscape">
  <defs
     id="defs4">
    <linearGradient
       id="linearGradient5435">
      <stop
         style="stop-color:#fef5ae;stop-opacity:1;"
         offset="0"
         id="stop5437" />
      <stop
         style="stop-color:#bfab03;stop-opacity:1;"
         offset="1"
         id="stop5439" />
    </linearGradient>
    <linearGradient
       inkscape:collect="always"
       id="linearGradient5219">
      <stop
         style="stop-opacity:1;stop-color:#b4cd5a"
         offset="0"
         id="stop5221" />
      <stop
         style="stop-color:#677f0c;stop-opacity:1"
         offset="1"
         id="stop5223" />
    </linearGradient>
    <linearGradient
       inkscape:collect="always"
       id="linearGradient5165">
      <stop
         style="stop-color:#eeeeec;stop-opacity:1;"
         offset="0"
         id="stop5167" />
      <stop
         style="stop-color:#eeeeec;stop-opacity:0;"
         offset="1"
         id="stop5169" />
    </linearGradient>
    <linearGradient
       inkscape:collect="always"
       id="linearGradient5153">
      <stop
         style="stop-color:#886f00;stop-opacity:1;"
         offset="0"
         id="stop5155" />
      <stop
         style="stop-color:#886f00;stop-opacity:0;"
         offset="1"
         id="stop5157" />
    </linearGradient>
    <linearGradient
       inkscape:collect="always"
       id="linearGradient6108">
      <stop
         style="stop-color:#8f5902;stop-opacity:1;"
         offset="0"
         id="stop6110" />
      <stop
         style="stop-color:#8f5902;stop-opacity:0;"
         offset="1"
         id="stop6112" />
    </linearGradient>
    <linearGradient
       inkscape:collect="always"
       id="linearGradient6074">
      <stop
         style="stop-color:#8f5902;stop-opacity:1;"
         offset="0"
         id="stop6076" />
      <stop
         style="stop-color:#8f5902;stop-opacity:0;"
         offset="1"
         id="stop6078" />
    </linearGradient>
    <linearGradient
       inkscape:collect="always"
       id="linearGradient5184">
      <stop
         style="stop-color:#2e3436;stop-opacity:1;"
         offset="0"
         id="stop5186" />
      <stop
         style="stop-color:#2e3436;stop-opacity:0;"
         offset="1"
         id="stop5188" />
    </linearGradient>
    <linearGradient
       inkscape:collect="always"
       id="linearGradient5172">
      <stop
         style="stop-color:#babdb6;stop-opacity:1;"
         offset="0"
         id="stop5174" />
      <stop
         style="stop-color:#babdb6;stop-opacity:0;"
         offset="1"
         id="stop5176" />
    </linearGradient>
    <linearGradient
       inkscape:collect="always"
       id="linearGradient5152">
      <stop
         style="stop-color:white;stop-opacity:1;"
         offset="0"
         id="stop5154" />
      <stop
         style="stop-color:white;stop-opacity:0;"
         offset="1"
         id="stop5156" />
    </linearGradient>
    <linearGradient
       inkscape:collect="always"
       id="linearGradient30505">
      <stop
         style="stop-color:#000000;stop-opacity:1;"
         offset="0"
         id="stop30507" />
      <stop
         style="stop-color:#000000;stop-opacity:0;"
         offset="1"
         id="stop30509" />
    </linearGradient>
    <radialGradient
       inkscape:collect="always"
       xlink:href="#linearGradient30505"
       id="radialGradient30511"
       cx="25.375"
       cy="43.375"
       fx="25.375"
       fy="43.375"
       r="17.125"
       gradientTransform="matrix(1,0,0,0.343066,0,28.49453)"
       gradientUnits="userSpaceOnUse" />
    <radialGradient
       inkscape:collect="always"
       xlink:href="#linearGradient5152"
       id="radialGradient5158"
       cx="11.950698"
       cy="0.92213637"
       fx="11.950698"
       fy="0.92213637"
       r="8.2720985"
       gradientTransform="matrix(2.840731,0,0,1.975023,-21.99802,-0.253173)"
       gradientUnits="userSpaceOnUse" />
    <linearGradient
       inkscape:collect="always"
       xlink:href="#linearGradient5172"
       id="linearGradient5182"
       gradientUnits="userSpaceOnUse"
       x1="11.147169"
       y1="8.9595385"
       x2="18.361135"
       y2="8.9595385" />
    <linearGradient
       inkscape:collect="always"
       xlink:href="#linearGradient5184"
       id="linearGradient5190"
       x1="-14.58785"
       y1="8.9595385"
       x2="18.775976"
       y2="8.9595385"
       gradientUnits="userSpaceOnUse" />
    <linearGradient
       inkscape:collect="always"
       xlink:href="#linearGradient5184"
       id="linearGradient5194"
       gradientUnits="userSpaceOnUse"
       x1="-14.58785"
       y1="8.9595385"
       x2="18.622385"
       y2="8.9595385"
       gradientTransform="matrix(0.5664047,0,0,0.255161,-21.964833,12.21387)" />
    <linearGradient
       inkscape:collect="always"
       xlink:href="#linearGradient6074"
       id="linearGradient6080"
       x1="19.112127"
       y1="24.224634"
       x2="19.112127"
       y2="41.129253"
       gradientUnits="userSpaceOnUse" />
    <linearGradient
       inkscape:collect="always"
       xlink:href="#linearGradient6108"
       id="linearGradient6114"
       x1="10.128564"
       y1="21.668022"
       x2="10.128564"
       y2="20.305756"
       gradientUnits="userSpaceOnUse"
       gradientTransform="matrix(1.4706568,0,0,1.80806,-2.4496689,-15.72755)" />
    <linearGradient
       inkscape:collect="always"
       xlink:href="#linearGradient5153"
       id="linearGradient5159"
       x1="24.734924"
       y1="43.215755"
       x2="24.734924"
       y2="34.389748"
       gradientUnits="userSpaceOnUse" />
    <linearGradient
       inkscape:collect="always"
       xlink:href="#linearGradient5165"
       id="linearGradient5171"
       x1="11.250001"
       y1="17.672302"
       x2="12.818466"
       y2="22.453552"
       gradientUnits="userSpaceOnUse" />
    <filter
       inkscape:collect="always"
       x="-0.08241537"
       width="1.1648307"
       y="-0.40407744"
       height="1.8081549"
       id="filter5213">
      <feGaussianBlur
         inkscape:collect="always"
         stdDeviation="0.34394222"
         id="feGaussianBlur5215" />
    </filter>
    <linearGradient
       inkscape:collect="always"
       xlink:href="#linearGradient5219"
       id="linearGradient5225"
       x1="7.65625"
       y1="6.9999571"
       x2="19"
       y2="6.999957"
       gradientUnits="userSpaceOnUse" />
    <filter
       inkscape:collect="always"
       x="-0.41182266"
       width="1.8236453"
       y="-0.24022989"
       height="1.4804598"
       id="filter5313">
      <feGaussianBlur
         inkscape:collect="always"
         stdDeviation="0.3753592"
         id="feGaussianBlur5315" />
    </filter>
    <filter
       inkscape:collect="always"
       x="-0.29655172"
       width="1.5931034"
       y="-0.29655172"
       height="1.5931034"
       id="filter5431">
      <feGaussianBlur
         inkscape:collect="always"
         stdDeviation="0.28396028"
         id="feGaussianBlur5433" />
    </filter>
    <radialGradient
       inkscape:collect="always"
       xlink:href="#linearGradient5435"
       id="radialGradient5441"
       cx="12.198223"
       cy="23.843496"
       fx="12.198223"
       fy="23.843496"
       r="9.8232236"
       gradientTransform="matrix(3.342538,0,0,0.8282792,-28.574801,1.447604)"
       gradientUnits="userSpaceOnUse" />
  </defs>
  <sodipodi:namedview
     id="base"
     pagecolor="#ffffff"
     bordercolor="#e0e0e0"
     borderopacity="1"
     gridtolerance="10000"
     guidetolerance="10"
     objecttolerance="10"
     inkscape:pageopacity="0.0"
     inkscape:pageshadow="2"
     inkscape:zoom="1"
     inkscape:cx="12.031942"
     inkscape:cy="17.339171"
     inkscape:document-units="px"
     inkscape:current-layer="layer1"
     width="24px"
     height="24px"
     showgrid="false"
     inkscape:window-width="1274"
     inkscape:window-height="972"
     inkscape:window-x="380"
     inkscape:window-y="133"
     inkscape:showpageshadow="false"
     borderlayer="true" />
  <metadata
     id="metadata7">
    <rdf:RDF>
      <cc:Work
         rdf:about="">
        <dc:format>image/svg+xml</dc:format>
        <dc:type
           rdf:resource="http://purl.org/dc/dcmitype/StillImage" />
      </cc:Work>
    </rdf:RDF>
  </metadata>
  <g
     inkscape:label="Layer 1"
     inkscape:groupmode="layer"
     id="layer1">
    <rect
       style="opacity:0.41954023;fill:#000000;fill-opacity:1;stroke:none;stroke-width:1;stroke-miterlimit:4;stroke-dasharray:none;stroke-opacity:1;filter:url(#filter5213)"
       id="rect5141"
       width="10.015866"
       height="2.0428295"
       x="4"
       y="20"
       transform="matrix(2.1022107,0,0,1.489517,-7.4088407,-9.270677)"
       rx="1.1157459"
       ry="1.0214148" />
    <path
       style="stroke-opacity:1;stroke-miterlimit:4;stroke-width:1.00000011999999994;stroke:#886f00;fill-opacity:1;fill:url(#radialGradient5441)"
       d="M 4.6076898,11.39335 L 16.305441,11.39335 C 18.027101,11.39335 18.555101,13.044483 18.555101,15.04973 L 18.555101,18.917226 C 18.555101,19.732475 19.006668,21.278799 20.146447,22.500004 L 4.6076898,22.500004 C 2.8860296,22.500004 1.4999999,20.885672 1.4999999,18.880425 L 1.4999999,15.012929 C 1.4999999,13.007682 2.8860296,11.39335 4.6076898,11.39335 z"
       id="rect5315"
       sodipodi:nodetypes="ccccccccc" />
    <path
       sodipodi:nodetypes="cssccsscccssccsscccssccsscccssccsscccssccsscc"
       id="path5161"
       d="M 4.630381,19.501333 C 4.5852964,19.701163 4.5625005,19.924998 4.5625005,20.130174 C 4.5624999,21.024603 4.8978971,21.769512 5.544848,22.306464 C 6.1917991,22.843418 7.1354325,23 8.0922864,23 L 8.0922864,22.371159 C 7.2162136,22.371158 6.3375059,22.240296 5.7824297,21.779597 C 5.2273535,21.318898 5.0376632,20.757024 5.0376638,20.130174 C 5.0376638,19.976807 5.0371777,19.82388 5.0716041,19.67129 L 4.630381,19.501333 z M 7.5414052,18.869987 C 7.4963211,19.069817 7.4735247,19.293652 7.4735247,19.498829 C 7.4735241,20.393257 8.2429311,21.613262 8.889882,22.150214 C 9.536833,22.687167 10.393697,23 11.35055,23 L 11.60055,22.652409 C 10.724478,22.652408 9.68254,22.084046 9.127464,21.623347 C 8.572387,21.162648 7.9486882,20.125679 7.9486882,19.498829 C 7.9486882,19.345462 7.9482021,19.192534 7.9826284,19.039944 L 7.5414052,18.869987 z M 10.6734,19.627602 C 10.628316,19.827432 10.60552,20.051267 10.60552,20.256444 C 10.60552,21.150872 11.751195,21.894512 12.398146,22.431464 C 13.045098,22.968417 13.651961,23 14.608814,23 L 14.608814,22.371159 C 13.732742,22.371158 13.190804,22.365296 12.635728,21.904597 C 12.080652,21.443898 11.080683,20.883294 11.080683,20.256444 C 11.080684,20.103076 11.080197,19.950149 11.114623,19.797559 L 10.6734,19.627602 z M 13.74226,19.375064 C 13.697176,19.574893 13.67438,19.798728 13.67438,20.003905 C 13.67438,20.898334 14.103209,21.675762 14.75016,22.212714 C 15.397112,22.749668 16.910225,23 17.867078,23 L 17.867078,22.371159 C 16.991006,22.371158 15.542818,22.146546 14.987742,21.685847 C 14.432666,21.225148 14.149543,20.630755 14.149543,20.003905 C 14.149544,19.850538 14.149057,19.697611 14.183483,19.545021 L 13.74226,19.375064 z M 16.680106,16.344606 C 16.635022,16.544436 16.630941,16.769127 16.612225,16.973448 C 16.359687,19.730345 17.966813,21.613262 18.613764,22.150214 C 19.260716,22.687167 20.117578,23 21.074432,23 L 21.074432,22.371159 C 20.198359,22.371158 19.406422,22.084046 18.851346,21.623347 C 18.29627,21.162648 16.771716,18.862988 17.087389,16.973448 C 17.11266,16.822177 17.086903,16.667153 17.121329,16.514563 L 16.680106,16.344606 z"
       style="opacity:1;fill:url(#linearGradient5171);fill-opacity:1;stroke:none;stroke-width:0.43938526999999999;stroke-miterlimit:4;stroke-dasharray:none;stroke-opacity:1" />
    <path
       style="opacity:0.7030566;fill:none;fill-opacity:1;stroke:#ffffff;stroke-width:0.99999982;stroke-miterlimit:4;stroke-opacity:1"
       d="M 5.4106561,14.567878 L 14.751056,14.567878 C 16.351712,14.567878 17.689973,14.111698 17.689973,16.870984 L 17.752742,19.16559 C 17.752742,19.880609 18.118109,20.768316 18.500001,21.447995 L 6.719361,21.447995 C 4.3027173,21.738484 2.5213869,20.795198 2.5213869,19.036485 L 2.5213869,17.74245 C 2.3016977,13.756656 3.810001,14.567878 5.4106561,14.567878 z"
       id="path4234"
       sodipodi:nodetypes="ccccccccc" />
    <path
       style="stroke-opacity:1;stroke-dasharray:none;stroke-miterlimit:4;stroke-width:0.99999994000000003;stroke:#508303;fill-opacity:1;fill:url(#linearGradient5225)"
       d="M 10.055921,0.5 C 8.3142509,0.48866344 6.5302713,1.5545725 6.5302713,3.7683058 C 6.5302711,7.2899865 7.2319075,10.5 7.2319075,10.5 L 3.4292761,10.5 C 2.3868875,10.5 1.555921,10.964163 1.5559209,11.84375 L 1.5559209,11.90625 C 1.5559211,12.785837 1.4999999,12.393298 1.4999999,13.5 L 18.499999,13.5 C 18.5,12.433832 18.5,12.785837 18.499999,11.90625 L 18.499999,11.84375 C 18.5,10.964163 17.669032,10.5 16.626644,10.5 L 12.824013,10.53125 C 12.824013,10.53125 13.61684,6.723897 13.528452,3.8125 C 13.462651,1.6451117 11.79759,0.51133657 10.055921,0.5 z M 9.9999995,3.5 C 10.740841,3.5000001 11.563076,3.9496504 11.563076,5.0441942 C 11.563076,6.0945813 10.740841,6.5 9.9999995,6.5 C 9.2591583,6.4999998 8.4811176,5.960996 8.4811176,4.9558058 C 8.4811176,3.9506157 9.2591583,3.5 9.9999995,3.5 z"
       id="rect5303"
       sodipodi:nodetypes="csccccccccccscczszc" />
    <rect
       style="opacity:1;fill:#d3d7cf;fill-opacity:1;stroke:#888a85;stroke-width:1.00000036;stroke-miterlimit:4;stroke-dasharray:none;stroke-opacity:1"
       id="rect5313"
       width="17"
       height="2"
       x="1.5"
       y="13.5" />
    <path
       style="stroke-opacity:1;stroke-dasharray:none;stroke-miterlimit:4;stroke-width:0.43938526999999999;stroke:none;fill-opacity:1;fill:url(#linearGradient5159);opacity:1"
       d="M 9.2187502,38.660756 C 9.1357282,39.028183 9.0937502,39.439748 9.0937502,39.817006 C 9.0937492,41.46159 9.7113735,42.831253 10.902715,43.818547 C 12.094057,44.805842 13.831731,45.09375 15.59375,45.09375 L 15.59375,43.9375 C 13.980487,43.937499 12.362372,43.696883 11.340215,42.849797 C 10.318058,42.00271 9.9687488,40.969594 9.9687498,39.817006 C 9.9687498,39.53501 9.9678548,39.253823 10.03125,38.973256 L 9.2187502,38.660756 z M 14.579318,37.499902 C 14.496297,37.867329 14.454318,38.278894 14.454318,38.656152 C 14.454317,40.300736 15.871158,42.543956 17.0625,43.53125 C 18.253842,44.518545 19.831731,45.09375 21.59375,45.09375 L 22.054118,44.454634 C 20.440855,44.454633 18.522157,43.409586 17.5,42.5625 C 16.477842,41.715413 15.329318,39.80874 15.329318,38.656152 C 15.329318,38.374156 15.328423,38.092969 15.391818,37.812402 L 14.579318,37.499902 z M 20.346797,38.892927 C 20.263776,39.260354 20.221797,39.671919 20.221797,40.049177 C 20.221797,41.693761 22.331526,43.06109 23.522868,44.048384 C 24.714211,45.035679 25.831731,45.09375 27.59375,45.09375 L 27.59375,43.9375 C 25.980488,43.937499 24.982525,43.92672 23.960368,43.079634 C 22.938211,42.232547 21.096797,41.201765 21.096797,40.049177 C 21.096798,39.767181 21.095902,39.485994 21.159297,39.205427 L 20.346797,38.892927 z M 25.998015,38.428585 C 25.914994,38.796012 25.873015,39.207577 25.873015,39.584835 C 25.873015,41.229419 26.662692,42.658875 27.854034,43.646169 C 29.045377,44.633464 31.831731,45.09375 33.59375,45.09375 L 33.59375,43.9375 C 31.980488,43.937499 29.313691,43.524505 28.291534,42.677419 C 27.269377,41.830332 26.748015,40.737423 26.748015,39.584835 C 26.748016,39.302839 26.74712,39.021652 26.810515,38.741085 L 25.998015,38.428585 z M 31.407974,32.856488 C 31.324953,33.223915 31.317439,33.637053 31.282974,34.012738 C 30.817932,39.08184 33.777408,42.543956 34.96875,43.53125 C 36.160093,44.518545 37.737981,45.09375 39.5,45.09375 L 39.5,43.9375 C 37.886736,43.937499 36.428407,43.409586 35.40625,42.5625 C 34.384094,41.715413 31.576672,37.487033 32.157974,34.012738 C 32.204511,33.734597 32.157079,33.449555 32.220474,33.168988 L 31.407974,32.856488 z"
       id="path5349"
       transform="matrix(0.543044,0,0,0.543863,-0.938306,-1.524822)"
       sodipodi:nodetypes="cssccsscccssccsscccssccsscccssccsscccssccsscc" />
    <rect
       style="opacity:1;fill:url(#linearGradient5190);fill-opacity:1;stroke:none;stroke-width:1;stroke-miterlimit:4;stroke-dasharray:none;stroke-opacity:1"
       id="rect5170"
       width="10.593139"
       height="3.9190769"
       x="7"
       y="7"
       transform="matrix(0.660805,0,0,0.255161,-2.625639,12.21387)" />
    <rect
       style="opacity:1;fill:url(#linearGradient5194);fill-opacity:1;stroke:none;stroke-width:1;stroke-miterlimit:4;stroke-dasharray:none;stroke-opacity:1"
       id="rect5192"
       width="6.0000038"
       height="0.99999559"
       x="-18"
       y="13.999997"
       transform="scale(-1,1)" />
    <path
       transform="matrix(0.8820135,0,0,1,0.2986533,0)"
       style="opacity:0.29310345;fill:none;fill-opacity:1;stroke:#eeeeec;stroke-width:1.06478608;stroke-miterlimit:4;stroke-opacity:1"
       d="M 11.0625,1.46875 C 9.3556958,1.4245558 8.6061739,2.4824532 8.1635071,3.8345971 C 8.1635069,7.1370144 8.8125,10.15625 8.8125,10.15625 C 8.9221379,10.454001 8.8801093,10.786472 8.6998254,11.047573 C 8.5195415,11.308674 8.2235308,11.465777 7.90625,11.46875 L 3.65625,11.46875 C 3.2032741,11.46875 2.8509462,11.589734 2.6875,11.6875 C 2.5240538,11.785266 2.53125,11.747247 2.53125,11.84375 L 2.53125,11.90625 C 2.5312501,12.262481 2.5125764,12.39172 2.5,12.53125 L 19.53125,12.53125 C 19.53125,12.405316 19.53125,12.251186 19.53125,11.90625 L 19.53125,11.84375 C 19.53125,11.747248 19.538446,11.785266 19.375,11.6875 C 19.211554,11.589734 18.859226,11.46875 18.40625,11.46875 L 14.15625,11.5 C 13.841223,11.50362 13.543842,11.35487 13.357803,11.100616 C 13.171765,10.846363 13.119974,10.517913 13.21875,10.21875 C 13.21875,10.21875 13.892531,6.2620729 13.892531,3.8566942 C 13.807029,2.276792 12.744251,1.5129442 11.0625,1.46875 z M 11,2.4649587 C 12.355741,2.4649589 13.944757,3.5779663 13.944757,4.9337087 C 13.944757,6.6210521 12.355741,7.46875 11,7.46875 C 9.6442595,7.4687497 8.155455,6.3778395 8.155455,5.0220971 C 8.1554557,3.6663553 9.6442591,2.4649587 11,2.4649587 z"
       id="path5137"
       sodipodi:nodetypes="cccsccsccccccsccscczcsssc" />
    <path
       style="fill:none;fill-opacity:1;stroke:url(#linearGradient6114);stroke-width:1.00000012;stroke-miterlimit:4;stroke-opacity:1"
       d="M 4.4441273,11.39335 L 15.861153,11.39335 C 17.492199,11.39335 17.99241,13.044483 17.99241,15.04973 L 17.99241,18.917226 C 17.99241,19.732475 18.42021,21.278799 19.500001,22.500004 L 4.4441273,22.500004 C 2.8130808,22.500004 1.4999999,20.885672 1.4999999,18.880425 L 1.4999999,15.012929 C 1.4999999,13.007682 2.8130808,11.39335 4.4441273,11.39335 z"
       id="path6082"
       sodipodi:nodetypes="ccccccccc" />
    <rect
       style="opacity:0.60919542;color:#000000;fill:#ffffff;fill-opacity:1;fill-rule:evenodd;stroke:none;stroke-width:1;stroke-linecap:round;stroke-linejoin:round;marker:none;marker-start:none;marker-mid:none;marker-end:none;stroke-miterlimit:10;stroke-dasharray:none;stroke-dashoffset:0;stroke-opacity:1;visibility:visible;display:inline;overflow:visible;enable-background:accumulate"
       id="rect5217"
       width="15.922873"
       height="0.92807764"
       x="2.0771263"
       y="11.051107"
       rx="0.46403882"
       ry="0.46403882" />
    <path
       style="enable-background:accumulate;filter:url(#filter5313);overflow:visible;display:inline;visibility:visible;stroke-opacity:1;stroke-dashoffset:0;stroke-dasharray:none;stroke-miterlimit:10;marker-end:none;marker-mid:none;marker-start:none;marker:none;stroke-linejoin:round;stroke-linecap:round;stroke-width:1;stroke:none;fill-rule:evenodd;fill-opacity:1;fill:#ffffff;color:#000000;opacity:0.52298851"
       d="M 8.9375,11.03125 C 8.9375,10.78125 8,7.28125 8,7.28125 L 10.1875,7.625 L 9.8125,10.9375 L 8.9375,11.03125 z"
       id="path5227" />
    <path
       sodipodi:type="arc"
       style="enable-background:accumulate;overflow:visible;display:inline;visibility:visible;stroke-opacity:1;stroke-dashoffset:0;stroke-dasharray:none;stroke-miterlimit:10;marker-end:none;marker-mid:none;marker-start:none;marker:none;stroke-linejoin:round;stroke-linecap:round;stroke-width:1;stroke:none;fill-rule:evenodd;fill-opacity:1;fill:#ffffff;color:#000000;opacity:0.52298847000000004;filter:url(#filter5431)"
       id="path5317"
       sodipodi:cx="8.9714174"
       sodipodi:cy="2.4774373"
       sodipodi:rx="1.1490486"
       sodipodi:ry="1.1490486"
       d="M 10.120466,2.4774373 A 1.1490486,1.1490486 0 1 1 7.8223689,2.4774373 A 1.1490486,1.1490486 0 1 1 10.120466,2.4774373 z" />
  </g>
</svg>
