<?xml version="1.0" encoding="UTF-8" standalone="no"?>
<!-- Created with Inkscape (http://www.inkscape.org/) -->
<svg
   xmlns:dc="http://purl.org/dc/elements/1.1/"
   xmlns:cc="http://web.resource.org/cc/"
   xmlns:rdf="http://www.w3.org/1999/02/22-rdf-syntax-ns#"
   xmlns:svg="http://www.w3.org/2000/svg"
   xmlns="http://www.w3.org/2000/svg"
   xmlns:xlink="http://www.w3.org/1999/xlink"
   xmlns:sodipodi="http://sodipodi.sourceforge.net/DTD/sodipodi-0.dtd"
   xmlns:inkscape="http://www.inkscape.org/namespaces/inkscape"
   width="24"
   height="24"
   id="svg2"
   sodipodi:version="0.32"
   inkscape:version="0.45+devel"
   version="1.0"
   sodipodi:docbase="/home/jimmac/src/cvs/gnome/gnome-icon-theme-extras/temp/stock-icons/24"
   sodipodi:docname="gtk-execute.svg"
   inkscape:output_extension="org.inkscape.output.svg.inkscape">
  <defs
     id="defs4">
    <linearGradient
       id="linearGradient5130">
      <stop
         style="stop-color:#eef0ed;stop-opacity:1;"
         offset="0"
         id="stop5132" />
      <stop
         style="stop-color:#a5ad9d;stop-opacity:1;"
         offset="1"
         id="stop5134" />
    </linearGradient>
    <linearGradient
       inkscape:collect="always"
       id="linearGradient5367">
      <stop
         style="stop-color:#000000;stop-opacity:1;"
         offset="0"
         id="stop5369" />
      <stop
         style="stop-color:#000000;stop-opacity:0;"
         offset="1"
         id="stop5371" />
    </linearGradient>
    <linearGradient
       inkscape:collect="always"
       id="linearGradient5139">
      <stop
         style="stop-color:#ffffff;stop-opacity:1;"
         offset="0"
         id="stop5141" />
      <stop
         style="stop-color:#ffffff;stop-opacity:0;"
         offset="1"
         id="stop5143" />
    </linearGradient>
    <linearGradient
       inkscape:collect="always"
       xlink:href="#linearGradient5139"
       id="linearGradient5145"
       x1="8.53125"
       y1="20.53125"
       x2="8.53125"
       y2="5.03125"
       gradientUnits="userSpaceOnUse" />
    <filter
       inkscape:collect="always"
       x="-0.13490566"
       width="1.2698113"
       y="-0.38648649"
       height="1.772973"
       id="filter5363">
      <feGaussianBlur
         inkscape:collect="always"
         stdDeviation="0.74479167"
         id="feGaussianBlur5365" />
    </filter>
    <radialGradient
       inkscape:collect="always"
       xlink:href="#linearGradient5367"
       id="radialGradient5373"
       cx="8.75"
       cy="21.0625"
       fx="8.75"
       fy="21.0625"
       r="6.625"
       gradientTransform="matrix(1,0,0,0.3490566,0,13.710495)"
       gradientUnits="userSpaceOnUse" />
    <radialGradient
       inkscape:collect="always"
       xlink:href="#linearGradient5130"
       id="radialGradient5136"
       cx="8.5533476"
       cy="10.605124"
       fx="8.5533476"
       fy="10.605124"
       r="8.4733345"
       gradientUnits="userSpaceOnUse"
       gradientTransform="matrix(1.6785995,0,0,1.6785995,-5.804297,-7.1966321)" />
  </defs>
  <sodipodi:namedview
     id="base"
     pagecolor="#ffffff"
     bordercolor="#dedede"
     borderopacity="1"
     gridtolerance="10000"
     guidetolerance="10"
     objecttolerance="10"
     inkscape:pageopacity="0.0"
     inkscape:pageshadow="2"
     inkscape:zoom="1"
     inkscape:cx="7.3321998"
     inkscape:cy="9.4790036"
     inkscape:document-units="px"
     inkscape:current-layer="layer1"
     width="24px"
     height="24px"
     borderlayer="true"
     inkscape:showpageshadow="false"
     showgrid="false"
     inkscape:window-width="872"
     inkscape:window-height="775"
     inkscape:window-x="496"
     inkscape:window-y="240" />
  <metadata
     id="metadata7">
    <rdf:RDF>
      <cc:Work
         rdf:about="">
        <dc:format>image/svg+xml</dc:format>
        <dc:type
           rdf:resource="http://purl.org/dc/dcmitype/StillImage" />
        <dc:title>Execute</dc:title>
        <dc:creator>
          <cc:Agent>
            <dc:title>Jakub Steiner</dc:title>
          </cc:Agent>
        </dc:creator>
        <cc:license
           rdf:resource="http://creativecommons.org/licenses/LGPL/2.1/" />
      </cc:Work>
      <cc:License
         rdf:about="http://creativecommons.org/licenses/LGPL/2.1/">
        <cc:permits
           rdf:resource="http://web.resource.org/cc/Reproduction" />
        <cc:permits
           rdf:resource="http://web.resource.org/cc/Distribution" />
        <cc:requires
           rdf:resource="http://web.resource.org/cc/Notice" />
        <cc:permits
           rdf:resource="http://web.resource.org/cc/DerivativeWorks" />
        <cc:requires
           rdf:resource="http://web.resource.org/cc/ShareAlike" />
        <cc:requires
           rdf:resource="http://web.resource.org/cc/SourceCode" />
      </cc:License>
    </rdf:RDF>
  </metadata>
  <g
     inkscape:label="Layer 1"
     inkscape:groupmode="layer"
     id="layer1">
    <path
       sodipodi:type="arc"
       style="opacity:0.95977011;color:#000000;fill:url(#radialGradient5373);fill-opacity:1;fill-rule:evenodd;stroke:none;stroke-width:1;stroke-linecap:round;stroke-linejoin:round;marker:none;marker-start:none;marker-mid:none;marker-end:none;stroke-miterlimit:10;stroke-dasharray:none;stroke-dashoffset:0;stroke-opacity:1;visibility:visible;display:inline;overflow:visible;filter:url(#filter5363);enable-background:accumulate"
       id="path5209"
       sodipodi:cx="8.75"
       sodipodi:cy="21.0625"
       sodipodi:rx="6.625"
       sodipodi:ry="2.3125"
       d="M 15.375,21.0625 A 6.625,2.3125 0 1 1 2.125,21.0625 A 6.625,2.3125 0 1 1 15.375,21.0625 z"
       transform="matrix(1.2162162,0,0,1.2162162,-1.8918919,-4.5540541)" />
    <path
       style="opacity:1;color:#000000;fill:url(#radialGradient5136);fill-opacity:1.0;fill-rule:evenodd;stroke:#555753;stroke-width:1;stroke-linecap:round;stroke-linejoin:round;marker:none;marker-start:none;marker-mid:none;marker-end:none;stroke-miterlimit:10;stroke-dasharray:none;stroke-dashoffset:0;stroke-opacity:1;visibility:visible;display:inline;overflow:visible;enable-background:accumulate"
       d="M 5.4035914,7.9388819 C 4.9657028,8.1217752 4.5573911,8.3471281 4.1698684,8.5932839 L 4.4926294,10.753825 C 4.2535626,10.958742 4.0458793,11.183732 3.8431429,11.419247 L 1.6688856,11.098548 C 1.1645897,11.89517 0.78648546,12.789815 0.58001295,13.709576 L 2.3519091,15.009817 C 2.3277301,15.325869 2.3293185,15.639195 2.3543665,15.95939 L 0.58635535,17.27747 C 0.68930564,17.731856 0.82642312,18.185314 1.0121051,18.629879 C 1.1949983,19.067768 1.4203513,19.476079 1.666507,19.863602 L 3.8270485,19.540841 C 4.0319652,19.779909 4.2569551,19.987592 4.4924709,20.190327 L 4.171771,22.364585 C 4.9683924,22.868881 5.863038,23.246985 6.7827987,23.453459 L 8.0830401,21.681562 C 8.3990928,21.70574 8.7124185,21.704152 9.0326127,21.679104 L 10.350694,23.447115 C 10.805079,23.344165 11.258538,23.207048 11.703103,23.021365 C 12.140992,22.838472 12.549303,22.61312 12.936826,22.366963 L 12.614066,20.206423 C 12.853134,20.001506 13.060816,19.776516 13.263551,19.541001 L 15.437809,19.8617 C 15.942105,19.065078 16.320209,18.170432 16.526682,17.250671 L 14.754786,15.95043 C 14.778964,15.634378 14.777376,15.321052 14.752328,15.000858 L 16.520339,13.682778 C 16.417389,13.228391 16.280272,12.774934 16.094589,12.330368 C 15.911696,11.892479 15.686344,11.484168 15.440187,11.096645 L 13.279647,11.419406 C 13.074731,11.180339 12.84974,10.972656 12.614225,10.76992 L 12.934924,8.5956629 C 12.138302,8.0913666 11.243656,7.7132621 10.323895,7.5067896 L 9.0236534,9.2786858 C 8.7076014,9.2545071 8.3942749,9.2560959 8.0740815,9.2811435 L 6.7560013,7.513132 C 6.3016148,7.6160823 5.8481573,7.7531997 5.4035914,7.9388819 z M 7.3483428,12.659164 C 8.9408952,11.994002 10.773243,12.746666 11.438406,14.339218 C 12.103569,15.93177 11.350904,17.764118 9.7583513,18.429281 C 8.1657993,19.094443 6.3334516,18.341779 5.668289,16.749227 C 5.0031266,15.156674 5.7557907,13.324327 7.3483428,12.659164 z"
       id="path4542"
       sodipodi:nodetypes="cccccccccsccccccccsccccccccsccccccccccsssc" />
    <path
       id="path5135"
       d="M 18.517463,0.54579671 C 18.227178,0.54579671 17.943579,0.57673617 17.666807,0.62431882 L 17.339633,1.9199326 C 17.156381,1.9792373 16.986112,2.0572707 16.816152,2.1424118 L 15.664496,1.4488004 C 15.192036,1.7795643 14.767699,2.1954087 14.434317,2.6658926 L 15.127929,3.8175494 C 15.03977,3.9902453 14.966799,4.1674769 14.905448,4.3541164 L 13.596748,4.6812916 C 13.547734,4.9620419 13.518226,5.2503229 13.518226,5.5450345 C 13.518226,5.8353193 13.549165,6.1189196 13.596748,6.3956898 L 14.892362,6.7228651 C 14.951667,6.9061176 15.029699,7.0763868 15.114842,7.2463456 L 14.421229,8.3980027 C 14.751994,8.8704604 15.167838,9.294799 15.638321,9.6281811 L 16.789979,8.9345701 C 16.962674,9.0227281 17.139906,9.0957001 17.326545,9.1570491 L 17.65372,10.465749 C 17.934471,10.514763 18.222752,10.544272 18.517463,10.544272 C 18.807748,10.544272 19.091348,10.513333 19.368119,10.465749 L 19.695295,9.1701361 C 19.878547,9.1108321 20.048816,9.0327981 20.218775,8.9476569 L 21.370431,9.641268 C 21.842891,9.3105043 22.267229,8.8946606 22.60061,8.4241765 L 21.906998,7.2725195 C 21.995157,7.0998236 22.068128,6.9225911 22.129478,6.7359523 L 23.438179,6.4087772 C 23.487193,6.128027 23.516701,5.8397458 23.516701,5.5450345 C 23.516701,5.2547496 23.485761,4.9711493 23.438179,4.6943789 L 22.142566,4.3672037 C 22.083261,4.1839519 22.005227,4.013682 21.920086,3.8437234 L 22.613697,2.6920665 C 22.282934,2.2196084 21.867088,1.7952695 21.396605,1.4618874 L 20.244948,2.155499 C 20.072252,2.0673403 19.895021,1.9943689 19.708381,1.9330198 L 19.381206,0.62431882 C 19.100455,0.57530545 18.812175,0.54579671 18.517463,0.54579671 z M 18.517463,4.5398195 C 19.072342,4.5398195 19.522678,4.9901557 19.522678,5.5450345 C 19.522678,6.0999131 19.072342,6.5502492 18.517463,6.5502492 C 17.962585,6.5502492 17.512249,6.0999131 17.512249,5.5450345 C 17.512249,4.9901557 17.962585,4.5398195 18.517463,4.5398195 z"
       style="opacity:1;color:#000000;fill:#d3d7cf;fill-opacity:1;fill-rule:evenodd;stroke:#888a85;stroke-width:1;stroke-linecap:round;stroke-linejoin:round;marker:none;marker-start:none;marker-mid:none;marker-end:none;stroke-miterlimit:10;stroke-dasharray:none;stroke-dashoffset:0;stroke-opacity:1;visibility:visible;display:inline;overflow:visible;enable-background:accumulate"
       sodipodi:nodetypes="cccccccccsccccccccsccccccccsccccccccccsssc" />
    <path
       sodipodi:type="inkscape:offset"
       inkscape:radius="-0.88939059"
       inkscape:original="M 6.75 7.5 C 6.2956133 7.6029502 5.8508159 7.7518178 5.40625 7.9375 C 4.9683612 8.1203933 4.5437727 8.3475942 4.15625 8.59375 L 4.5 10.75 C 4.2609331 10.954917 4.0464864 11.170735 3.84375 11.40625 L 1.65625 11.09375 C 1.1519541 11.890372 0.80022251 12.798989 0.59375 13.71875 L 2.34375 15 C 2.3195709 15.316052 2.318702 15.648555 2.34375 15.96875 L 0.59375 17.28125 C 0.69670031 17.735636 0.81431802 18.180435 1 18.625 C 1.1828932 19.062889 1.4100943 19.487477 1.65625 19.875 L 3.8125 19.53125 C 4.0174167 19.770319 4.2644842 19.984765 4.5 20.1875 L 4.15625 22.375 C 4.9528714 22.879295 5.8614893 23.262276 6.78125 23.46875 L 8.09375 21.6875 C 8.4098026 21.711678 8.7110558 21.712548 9.03125 21.6875 L 10.34375 23.4375 C 10.798135 23.33455 11.242935 23.216933 11.6875 23.03125 C 12.125389 22.848358 12.549977 22.621157 12.9375 22.375 L 12.625 20.21875 C 12.864068 20.013833 13.047265 19.766765 13.25 19.53125 L 15.4375 19.875 C 15.941796 19.078378 16.324777 18.169761 16.53125 17.25 L 14.75 15.9375 C 14.774178 15.621448 14.775048 15.320194 14.75 15 L 16.53125 13.6875 C 16.428301 13.233113 16.279433 12.788316 16.09375 12.34375 C 15.910857 11.905861 15.683657 11.481273 15.4375 11.09375 L 13.28125 11.40625 C 13.076334 11.167183 12.860515 10.983986 12.625 10.78125 L 12.9375 8.59375 C 12.140878 8.0894535 11.232261 7.7064725 10.3125 7.5 L 9.03125 9.28125 C 8.7151984 9.2570715 8.3826934 9.2562024 8.0625 9.28125 L 6.75 7.5 z M 7.34375 12.65625 C 8.9363023 11.991088 10.772337 12.751198 11.4375 14.34375 C 12.102663 15.936302 11.342553 17.772337 9.75 18.4375 C 8.157448 19.102662 6.3214126 18.342552 5.65625 16.75 C 4.9910874 15.157446 5.7511979 13.321413 7.34375 12.65625 z "
       xlink:href="#path4542"
       style="opacity:1;color:#000000;fill:none;fill-opacity:1;fill-rule:evenodd;stroke:url(#linearGradient5145);stroke-width:1;stroke-linecap:round;stroke-linejoin:round;marker:none;marker-start:none;marker-mid:none;marker-end:none;stroke-miterlimit:10;stroke-dasharray:none;stroke-dashoffset:0;stroke-opacity:1;visibility:visible;display:inline;overflow:visible;enable-background:accumulate"
       id="path5137"
       inkscape:href="#path4542"
       d="M 6.46875,8.53125 C 6.233576,8.6029337 6.0031489,8.6573193 5.78125,8.75 C 5.5812707,8.8335256 5.3803964,8.9551 5.1875,9.0625 L 5.40625,10.625 C 5.458318,10.926167 5.3521155,11.232974 5.125,11.4375 C 4.9206746,11.612638 4.7381932,11.795901 4.5625,12 C 4.3579738,12.227115 4.0511666,12.333318 3.75,12.28125 L 2.25,12.0625 C 2.0209457,12.491196 1.8610656,12.944372 1.71875,13.40625 L 2.9375,14.28125 C 3.1777061,14.466091 3.3072571,14.760525 3.28125,15.0625 C 3.2605664,15.332862 3.2600603,15.635377 3.28125,15.90625 C 3.3072571,16.208225 3.1777061,16.502659 2.9375,16.6875 L 1.65625,17.625 C 1.7263075,17.845907 1.7808423,18.055815 1.875,18.28125 C 1.9632742,18.492599 2.0773577,18.701531 2.1875,18.90625 L 3.75,18.65625 C 4.0511666,18.604182 4.3579738,18.710385 4.5625,18.9375 C 4.7376359,19.141825 4.9209018,19.32431 5.125,19.5 C 5.3521155,19.704526 5.458318,20.011333 5.40625,20.3125 L 5.1875,21.84375 C 5.608729,22.071487 6.0503389,22.234582 6.5,22.375 L 7.40625,21.15625 C 7.5910911,20.916044 7.8855251,20.786493 8.1875,20.8125 C 8.4623123,20.833523 8.7246441,20.83404 9,20.8125 C 9.3019749,20.786493 9.5964089,20.916044 9.78125,21.15625 L 10.75,22.40625 C 10.970945,22.343677 11.20025,22.304791 11.40625,22.21875 C 11.606228,22.135226 11.807103,22.01365 12,21.90625 L 11.78125,20.34375 C 11.729182,20.042583 11.835385,19.735776 12.0625,19.53125 C 12.232903,19.385189 12.423932,19.171078 12.625,18.9375 C 12.829526,18.710385 13.136333,18.604182 13.4375,18.65625 L 14.9375,18.90625 C 15.166554,18.477554 15.326434,18.024379 15.46875,17.5625 L 14.28125,16.65625 C 14.041044,16.471409 13.911493,16.176975 13.9375,15.875 C 13.954077,15.658304 13.932276,15.395196 13.90625,15.0625 C 13.880243,14.760525 14.009794,14.466091 14.25,14.28125 L 15.53125,13.34375 C 15.461193,13.122844 15.406658,12.912935 15.3125,12.6875 C 15.215487,12.455229 15.102644,12.266939 15,12.0625 L 13.4375,12.28125 C 13.136333,12.333318 12.829526,12.227115 12.625,12 C 12.474788,11.824754 12.300847,11.673924 12.0625,11.46875 C 11.835385,11.264224 11.729182,10.957417 11.78125,10.65625 L 12,9.125 C 11.578771,8.8972632 11.13716,8.734167 10.6875,8.59375 L 9.78125,9.8125 C 9.5964089,10.052706 9.3019749,10.182257 9,10.15625 C 8.7251915,10.135227 8.462857,10.13471 8.1875,10.15625 C 7.8855251,10.182257 7.5910911,10.052706 7.40625,9.8125 L 6.46875,8.53125 z M 8.625,11.53125 C 10.182542,11.545498 11.646091,12.479285 12.28125,14 C 13.129156,16.03008 12.196831,18.397709 10.15625,19.25 C 8.1170283,20.101723 5.7569462,19.130512 4.90625,17.09375 C 4.054527,15.054527 5.0257389,12.694446 7.0625,11.84375 C 7.5713509,11.631218 8.1058193,11.526501 8.625,11.53125 z" />
  </g>
</svg>
