<?xml version="1.0" encoding="UTF-8" standalone="no"?>
<!-- Created with Inkscape (http://www.inkscape.org/) -->
<svg
   xmlns:dc="http://purl.org/dc/elements/1.1/"
   xmlns:cc="http://web.resource.org/cc/"
   xmlns:rdf="http://www.w3.org/1999/02/22-rdf-syntax-ns#"
   xmlns:svg="http://www.w3.org/2000/svg"
   xmlns="http://www.w3.org/2000/svg"
   xmlns:xlink="http://www.w3.org/1999/xlink"
   xmlns:sodipodi="http://sodipodi.sourceforge.net/DTD/sodipodi-0.dtd"
   xmlns:inkscape="http://www.inkscape.org/namespaces/inkscape"
   width="24"
   height="24"
   id="svg4220"
   sodipodi:version="0.32"
   inkscape:version="0.44.1"
   version="1.0"
   sodipodi:docbase="/home/hbons/GUI/Tango/GTK-stock"
   sodipodi:docname="gtk-zoom-100.svg"
   inkscape:export-filename="/home/hbons/GUI/Tango/GTK-stock/gtk-zoom-100.png"
   inkscape:export-xdpi="90"
   inkscape:export-ydpi="90">
  <defs
     id="defs4222">
    <linearGradient
       inkscape:collect="always"
       id="linearGradient6270">
      <stop
         style="stop-color:#d3d7cf;stop-opacity:1;"
         offset="0"
         id="stop6272" />
      <stop
         style="stop-color:#d3d7cf;stop-opacity:0;"
         offset="1"
         id="stop6274" />
    </linearGradient>
    <radialGradient
       inkscape:collect="always"
       xlink:href="#linearGradient6270"
       id="radialGradient6280"
       gradientUnits="userSpaceOnUse"
       gradientTransform="matrix(1.303243,0,0,1.303243,-1.390396,-1.679419)"
       cx="5.3041911"
       cy="5.7778945"
       fx="5.3041911"
       fy="5.7778945"
       r="5.6350406" />
    <radialGradient
       inkscape:collect="always"
       xlink:href="#linearGradient6270"
       id="radialGradient6288"
       gradientUnits="userSpaceOnUse"
       gradientTransform="matrix(1.303243,0,0,1.303243,-1.390396,-1.679419)"
       cx="5.3041911"
       cy="5.7778945"
       fx="5.3041911"
       fy="5.7778945"
       r="5.6350406" />
  </defs>
  <sodipodi:namedview
     id="base"
     pagecolor="#ffffff"
     bordercolor="#666666"
     borderopacity="1.0"
     inkscape:pageopacity="0.0"
     inkscape:pageshadow="2"
     inkscape:zoom="27.328699"
     inkscape:cx="18.41063"
     inkscape:cy="15.942754"
     inkscape:current-layer="layer1"
     showgrid="true"
     inkscape:grid-bbox="true"
     inkscape:document-units="px"
     width="24px"
     height="24px"
     inkscape:window-width="1274"
     inkscape:window-height="966"
     inkscape:window-x="3"
     inkscape:window-y="25"
     showguides="true"
     inkscape:guide-bbox="true"
     inkscape:grid-points="true"
     inkscape:object-bbox="true"
     inkscape:guide-points="true" />
  <metadata
     id="metadata4225">
    <rdf:RDF>
      <cc:Work
         rdf:about="">
        <dc:format>image/svg+xml</dc:format>
        <dc:type
           rdf:resource="http://purl.org/dc/dcmitype/StillImage" />
      </cc:Work>
    </rdf:RDF>
  </metadata>
  <g
     id="layer1"
     inkscape:label="Layer 1"
     inkscape:groupmode="layer">
    <path
       sodipodi:type="arc"
       style="opacity:1;fill:#eeeeec;fill-opacity:1;stroke:none;stroke-width:0.80489224;stroke-miterlimit:4;stroke-dasharray:none;stroke-opacity:1"
       id="path6267"
       sodipodi:cx="11.270204"
       sodipodi:cy="5.8505816"
       sodipodi:rx="5.2325945"
       sodipodi:ry="5.2325945"
       d="M 16.502798 5.8505816 A 5.2325945 5.2325945 0 1 1  6.0376091,5.8505816 A 5.2325945 5.2325945 0 1 1  16.502798 5.8505816 z"
       transform="matrix(-0.946088,0.946088,-0.946088,-0.946088,25.19777,3.872561)" />
    <rect
       style="opacity:1;fill:#555753;fill-opacity:1;stroke:none;stroke-width:1;stroke-miterlimit:4;stroke-dasharray:none;stroke-opacity:1"
       id="rect6228"
       width="1.5629359"
       height="1.7663882"
       x="10"
       y="11"
       transform="matrix(0.479866,-0.479867,1.273788,1.273789,-4.81034,5.536993)" />
    <rect
       style="opacity:1;fill:#555753;fill-opacity:1;stroke:#2e3436;stroke-width:1.54414654;stroke-miterlimit:4;stroke-dasharray:none;stroke-opacity:1"
       id="rect6226"
       width="4.45367"
       height="7.8160248"
       x="10"
       y="10"
       rx="2.1017323"
       ry="0.94518352"
       transform="matrix(0.30332,-0.30332,0.69134,0.691339,5.176196,12.59349)" />
    <path
       sodipodi:type="arc"
       style="opacity:1;fill:none;fill-opacity:1;stroke:#2e3436;stroke-width:0.69762242;stroke-miterlimit:4;stroke-dasharray:none;stroke-opacity:1"
       id="path6230"
       sodipodi:cx="11.270204"
       sodipodi:cy="5.8505816"
       sodipodi:rx="5.2325945"
       sodipodi:ry="5.2325945"
       d="M 16.502798 5.8505816 A 5.2325945 5.2325945 0 1 1  6.0376091,5.8505816 A 5.2325945 5.2325945 0 1 1  16.502798 5.8505816 z"
       transform="matrix(1.013524,-1.013666,1.013524,1.013666,-8.353373,14.49368)" />
    <path
       sodipodi:type="arc"
       style="opacity:1;fill:none;fill-opacity:1;stroke:url(#radialGradient6280);stroke-width:1.74393415;stroke-miterlimit:4;stroke-dasharray:none;stroke-opacity:1"
       id="path6278"
       sodipodi:cx="11.270204"
       sodipodi:cy="5.8505816"
       sodipodi:rx="5.2325945"
       sodipodi:ry="5.2325945"
       d="M 16.502798 5.8505816 A 5.2325945 5.2325945 0 1 1  6.0376091,5.8505816 A 5.2325945 5.2325945 0 1 1  16.502798 5.8505816 z"
       transform="matrix(0.810933,-0.810933,0.810933,0.810933,-4.883813,13.39495)" />
    <path
       sodipodi:type="arc"
       style="opacity:1;fill:none;fill-opacity:1;stroke:url(#radialGradient6288);stroke-width:1.74393415;stroke-miterlimit:4;stroke-dasharray:none;stroke-opacity:1"
       id="path6286"
       sodipodi:cx="11.270204"
       sodipodi:cy="5.8505816"
       sodipodi:rx="5.2325945"
       sodipodi:ry="5.2325945"
       d="M 16.502798 5.8505816 A 5.2325945 5.2325945 0 1 1  6.0376091,5.8505816 A 5.2325945 5.2325945 0 1 1  16.502798 5.8505816 z"
       transform="matrix(-0.810933,0.810933,-0.810933,-0.810933,22.88381,4.605049)" />
    <image
       id="image6326"
       height="24"
       width="24"
       sodipodi:absref="/home/hbons/GUI/Tango/GTK-stock/stock-icons/24/gtk-zoom-100.png"
       xlink:href="stock-icons/24/gtk-zoom-100.png"
       transform="translate(-27,0)" />
    <path
       style="opacity:1;fill:#555753;fill-opacity:1;stroke:none;stroke-width:2;stroke-miterlimit:4;stroke-dasharray:none;stroke-opacity:1"
       d="M -13 6 L -15 9 L -14 9 L -14 14 L -12 14 L -12 9 L -12 8 L -12 6 L -13 6 z "
       id="rect6329" />
    <rect
       style="opacity:1;fill:#555753;fill-opacity:1;stroke:none;stroke-width:2;stroke-miterlimit:4;stroke-dasharray:none;stroke-opacity:1"
       id="rect6335"
       width="1"
       height="1.5217662"
       x="-18"
       y="7"
       transform="matrix(2,0,0,1.314262,18,-2.199836)" />
    <rect
       style="opacity:1;fill:#555753;fill-opacity:1;stroke:none;stroke-width:2;stroke-miterlimit:4;stroke-dasharray:none;stroke-opacity:1"
       id="rect6337"
       width="1"
       height="1.5217662"
       x="-18"
       y="7"
       transform="matrix(2,0,0,1.314262,18,1.800166)" />
    <path
       style="opacity:1;fill:#555753;fill-opacity:1;stroke:none;stroke-width:2;stroke-miterlimit:4;stroke-dasharray:none;stroke-opacity:1"
       d="M -13,6 L -15,9 L -14,9 L -14,14 L -12,14 L -12,9 L -12,8 L -12,6 L -13,6 z "
       id="path6340"
       transform="translate(-8,0)" />
    <path
       style="opacity:1;fill:#555753;fill-opacity:1;stroke:none;stroke-width:2;stroke-miterlimit:4;stroke-dasharray:none;stroke-opacity:1"
       d="M -13,6 L -15,9 L -14,9 L -14,14 L -12,14 L -12,9 L -12,8 L -12,6 L -13,6 z "
       id="path6342"
       transform="translate(25,-1)" />
    <rect
       style="opacity:1;fill:#555753;fill-opacity:1;stroke:none;stroke-width:2;stroke-miterlimit:4;stroke-dasharray:none;stroke-opacity:1"
       id="rect6344"
       width="1"
       height="1.5217662"
       x="-18"
       y="7"
       transform="matrix(1,0,0,1.314262,26,-2.199831)"
       rx="0.5"
       ry="0.5" />
    <rect
       style="opacity:1;fill:#555753;fill-opacity:1;stroke:none;stroke-width:2;stroke-miterlimit:4;stroke-dasharray:none;stroke-opacity:1"
       id="rect6346"
       width="1"
       height="1.5217662"
       x="-18"
       y="7"
       transform="matrix(1,0,0,1.314263,26,0.800158)"
       rx="0.5"
       ry="0.5" />
    <path
       style="opacity:1;fill:#555753;fill-opacity:1;stroke:none;stroke-width:2;stroke-miterlimit:4;stroke-dasharray:none;stroke-opacity:1"
       d="M -13,6 L -15,9 L -14,9 L -14,14 L -12,14 L -12,9 L -12,8 L -12,6 L -13,6 z "
       id="path6348"
       transform="translate(19,-1)" />
  </g>
</svg>
