/* XPM */
static char * theme_led_off2_xpm[] = {
"12 12 65 1",
" 	c None",
".	c #404040",
"+	c #393939",
"@	c #464646",
"#	c #727272",
"$	c #2F2F2F",
"%	c #242424",
"&	c #2A2A2A",
"*	c #323232",
"=	c #3E3E3E",
"-	c #515151",
";	c #6C6C6C",
">	c #9F9F9F",
",	c #1B1B1B",
"'	c #360F0F",
")	c #3C0101",
"!	c #270000",
"~	c #5C1717",
"{	c #898989",
"]	c #BFBFBF",
"^	c #2A0000",
"/	c #250000",
"(	c #260000",
"_	c #661919",
":	c #B2B2B2",
"<	c #280000",
"[	c #F4DBDB",
"}	c #9A1C1C",
"|	c #310000",
"1	c #240000",
"2	c #1F0000",
"3	c #2F0101",
"4	c #BABABA",
"5	c #E9E9E9",
"6	c #2F0000",
"7	c #BD0707",
"8	c #930707",
"9	c #4B0000",
"0	c #230000",
"a	c #190000",
"b	c #170000",
"c	c #C8C8C8",
"d	c #EFEFEF",
"e	c #400000",
"f	c #580000",
"g	c #1E0000",
"h	c #140000",
"i	c #100000",
"j	c #D9D9D9",
"k	c #FEFEFE",
"l	c #3A0101",
"m	c #1D0000",
"n	c #0D0000",
"o	c #150000",
"p	c #ECECEC",
"q	c #FFFFFF",
"r	c #571717",
"s	c #1C0000",
"t	c #160000",
"u	c #0F0000",
"v	c #0C0000",
"w	c #551919",
"x	c #5F1919",
"y	c #110000",
"z	c #571919",
"    .+@#    ",
"  $%&*=-;>  ",
" $,')!!)~{] ",
" %'!!^//(_: ",
".&)<[}|12345",
"+*!67890abcd",
"@=!!ef|ghijk",
"#-l0/!mhnopq",
" ;rgstuvvwq ",
" >{x(yvozqq ",
"  ]:4cjpqq  ",
"    5dkq    "};
