/* XPM */
static char * theme_led_off1_xpm[] = {
"12 12 71 1",
" 	c None",
".	c #A7A7A7",
"+	c #9F9F9F",
"@	c #ACACAC",
"#	c #C7C7C7",
"$	c #919191",
"%	c #7B7B7B",
"&	c #888888",
"*	c #969696",
"=	c #A5A5A5",
"-	c #B4B4B4",
";	c #C4C4C4",
">	c #DBDBDB",
",	c #666666",
"'	c #9B3A3A",
")	c #A20303",
"!	c #830000",
"~	c #BB5A5A",
"{	c #D2D2D2",
"]	c #E7E7E7",
"^	c #880000",
"/	c #7F0000",
"(	c #810000",
"_	c #C16060",
":	c #E2E2E2",
"<	c #840000",
"[	c #FAF1F1",
"}	c #D96767",
"|	c #940000",
"1	c #7D0000",
"2	c #710000",
"3	c #910202",
"4	c #E5E5E5",
"5	c #F6F6F6",
"6	c #910000",
"7	c #E61A1A",
"8	c #D61A1A",
"9	c #B00000",
"0	c #790000",
"a	c #5F0000",
"b	c #590000",
"c	c #EAEAEA",
"d	c #F8F8F8",
"e	c #820000",
"f	c #A70000",
"g	c #B90000",
"h	c #6D0000",
"i	c #4D0000",
"j	c #3F0000",
"k	c #F0F0F0",
"l	c #FEFEFE",
"m	c #A00202",
"n	c #7E0000",
"o	c #6C0000",
"p	c #4F0000",
"q	c #330000",
"r	c #540000",
"s	c #F7F7F7",
"t	c #FFFFFF",
"u	c #B85858",
"v	c #6E0000",
"w	c #670000",
"x	c #550000",
"y	c #3C0000",
"z	c #2F0000",
"A	c #B76060",
"B	c #BD5E5E",
"C	c #440000",
"D	c #2E0000",
"E	c #530000",
"F	c #B85F5F",
"    .+@#    ",
"  $%&*=-;>  ",
" $,')!!)~{] ",
" %'!!^//(_: ",
".&)<[}|12345",
"+*!67890abcd",
"@=!efg|hijkl",
"#-m0neopqrst",
" ;uvwxyzzAt ",
" >{B(CDEFtt ",
"  ]:4ckstt  ",
"    5dlt    "};
