<svg xmlns="http://www.w3.org/2000/svg" width="16" height="16">
    <path d="M11.25 0c-1.034 0-1.905.594-2.375 1.438l-.156-.157-1.156-.25-.97.969.688.719 1 1L4 8l-1 2.438.5.562L6 10l4.281-4.281 1 1 .719.687 1.125-1.125-.406-1-.156-.156C13.405 4.655 14 3.784 14 2.75A2.75 2.75 0 0 0 11.25 0zM8.781 4.219l1 1L7 8H5zm-6.125 6.875S.844 13.57.844 14.438c0 .867.726 1.562 1.594 1.562C3.304 16 4 15.305 4 14.437c0-.867-1.344-3.343-1.344-3.343z" style="marker:none" color="#000" overflow="visible" fill="#474747"/>
</svg>
