<svg xmlns="http://www.w3.org/2000/svg" width="16" height="16"><g fill="#2e3436"><path d="M4 7.028v1c0 .265.093.53.281.718l3 3 .282.282h.875l.28-.282 3-3A1.01 1.01 0 0012 8.028v-1h-1c-.265 0-.53.093-.719.281L8 9.59 5.719 7.31A1.015 1.015 0 005 7.028z" style="line-height:normal;-inkscape-font-specification:'Bitstream Vera Sans';text-indent:0;text-align:start;text-decoration-line:none;text-transform:none;marker:none" color="#000" font-weight="400" font-family="Bitstream Vera Sans" overflow="visible"/><path d="M7 3.027v7h2v-7z" style="line-height:normal;font-variant-ligatures:normal;font-variant-position:normal;font-variant-caps:normal;font-variant-numeric:normal;font-variant-alternates:normal;font-feature-settings:normal;text-indent:0;text-align:start;text-decoration-line:none;text-decoration-style:solid;text-decoration-color:#000;text-transform:none;text-orientation:mixed;shape-padding:0;isolation:auto;mix-blend-mode:normal" color="#000" font-weight="400" font-family="sans-serif" overflow="visible"/><path d="M2 13v2h12v-2z" style="marker:none" color="#000" overflow="visible" fill-rule="evenodd"/><path d="M5.994 1a1 1 0 01-1 1 1 1 0 01-1-1 1 1 0 011-1 1 1 0 011 1zm3 0a1 1 0 01-1 1 1 1 0 01-1-1 1 1 0 011-1 1 1 0 011 1zm3 0a1 1 0 01-1 1 1 1 0 01-1-1 1 1 0 011-1 1 1 0 011 1z"/></g></svg>