<?xml version="1.0" encoding="UTF-8"?>
<svg height="16px" viewBox="0 0 16 16" width="16px" xmlns="http://www.w3.org/2000/svg">
    <g fill="#2e3436">
        <path d="m 1 3 c -0.550781 0 -1 0.449219 -1 1 v 9 s -0.015625 0.457031 0.230469 0.949219 c 0.246093 0.488281 0.9375 1.050781 1.769531 1.050781 h 12 s 0.457031 0.015625 0.949219 -0.230469 c 0.488281 -0.246093 1.050781 -0.9375 1.050781 -1.769531 v -3 c 0 -0.550781 -0.449219 -1 -1 -1 h -11 c -0.550781 0 -1 0.449219 -1 1 v 3 h -1 v -5 h 1 v -5 z m 0 0" fill-rule="evenodd"/>
        <path d="m 15 10 h 1 v 1 h -1 z m 0 0"/>
        <path d="m 3 9 h 1 v 1 h -1 z m 0 0"/>
        <path d="m 5 0 c -0.550781 0 -1 0.449219 -1 1 v 7 h 2 v -6 h 5.085938 l 2.914062 2.914062 v 3.085938 h 2 v -3.5 c 0 -0.265625 -0.105469 -0.519531 -0.292969 -0.707031 l -3.5 -3.5 c -0.1875 -0.1875 -0.441406 -0.292969 -0.707031 -0.292969 z m 0 0" fill-rule="evenodd"/>
        <path d="m 11 1 v 4 h 4 z m 0 0" fill-rule="evenodd"/>
        <path d="m 15 9 h 1 v 1 h -1 z m 0 0"/>
    </g>
</svg>
