<svg xmlns="http://www.w3.org/2000/svg" width="16" height="16"><g fill="#2e3436"><path d="M3 14h13v1H3z" style="marker:none"/><path d="M9.984 1a1 1 0 00-.691.294l-8.5 8.5a1 1 0 000 1.414L2.586 13h6.828l5.793-5.793a1 1 0 000-1.414l-4.5-4.5a1 1 0 00-.723-.292zM6.401 6.9l3.137 3.095s.5.5 0 1L8.56 12H3.398l-1.584-1.5 3.587-3.601c.5-.5 1 0 1 0z" style="line-height:normal;font-variant-ligatures:normal;font-variant-position:normal;font-variant-caps:normal;font-variant-numeric:normal;font-variant-alternates:normal;font-feature-settings:normal;text-indent:0;text-align:start;text-decoration-line:none;text-decoration-style:solid;text-decoration-color:#000;text-transform:none;text-orientation:mixed;white-space:normal;shape-padding:0;isolation:auto;mix-blend-mode:normal;solid-color:#000;solid-opacity:1" color="#000" font-weight="400" font-family="sans-serif" overflow="visible" fill-rule="evenodd"/></g></svg>