<svg xmlns="http://www.w3.org/2000/svg" width="16" height="16"><path d="M8 7h6c.554 0 1 .446 1 1v6c0 .554-.446 1-1 1H8c-.554 0-1-.446-1-1V8c0-.554.446-1 1-1m4-3H7.362A3.36 3.36 135 0 0 4 7.362V12M1 9V6.8A5.8 5.8 135 0 1 6.8 1H9" class="foreground-stroke transparent-fill" style="fill:none;stroke:#241f31;stroke-width:2;stroke-linecap:round;stroke-linejoin:round;paint-order:markers stroke fill"/><path d="M12.514 12.492 9.508 9.508m0 3.006 3.006-3.006" class="foreground-stroke transparent-fill" style="fill:none;stroke:#241f31;stroke-width:1;stroke-linecap:round;stroke-linejoin:round;stroke-dasharray:none;paint-order:markers stroke fill"/></svg>
