<?xml version="1.0" encoding="UTF-8"?>
<svg height="16px" viewBox="0 0 16 16" width="16px" xmlns="http://www.w3.org/2000/svg">
    <g fill="#2e3436">
        <path d="m 1.5 0 c 0.828125 0 1.5 0.671875 1.5 1.5 s -0.671875 1.5 -1.5 1.5 s -1.5 -0.671875 -1.5 -1.5 s 0.671875 -1.5 1.5 -1.5 z m 0 0"/>
        <path d="m 14.5 0 c 0.828125 0 1.5 0.671875 1.5 1.5 s -0.671875 1.5 -1.5 1.5 s -1.5 -0.671875 -1.5 -1.5 s 0.671875 -1.5 1.5 -1.5 z m 0 0"/>
        <path d="m 1.5 13 c 0.828125 0 1.5 0.671875 1.5 1.5 s -0.671875 1.5 -1.5 1.5 s -1.5 -0.671875 -1.5 -1.5 s 0.671875 -1.5 1.5 -1.5 z m 0 0"/>
        <path d="m 14.5 13 c 0.828125 0 1.5 0.671875 1.5 1.5 s -0.671875 1.5 -1.5 1.5 s -1.5 -0.671875 -1.5 -1.5 s 0.671875 -1.5 1.5 -1.5 z m 0 0"/>
        <path d="m 0 4 h 2 v 4 h -2 z m 0 0"/>
        <path d="m 0 9 h 2 v 3 h -2 z m 0 0"/>
        <path d="m 14 4 h 2 v 3 h -2 z m 0 0"/>
        <path d="m 14 8 h 2 v 4 h -2 z m 0 0"/>
        <path d="m 4 9 h 2 c 0.550781 0 1 0.449219 1 1 v 2 c 0 0.550781 -0.449219 1 -1 1 h -2 c -0.550781 0 -1 -0.449219 -1 -1 v -2 c 0 -0.550781 0.449219 -1 1 -1 z m 0 0"/>
        <path d="m 4 3 h 2 c 0.550781 0 1 0.449219 1 1 v 2 c 0 0.550781 -0.449219 1 -1 1 h -2 c -0.550781 0 -1 -0.449219 -1 -1 v -2 c 0 -0.550781 0.449219 -1 1 -1 z m 0 0"/>
        <path d="m 10 9 h 2 c 0.550781 0 1 0.449219 1 1 v 2 c 0 0.550781 -0.449219 1 -1 1 h -2 c -0.550781 0 -1 -0.449219 -1 -1 v -2 c 0 -0.550781 0.449219 -1 1 -1 z m 0 0"/>
        <path d="m 10 3 h 2 c 0.550781 0 1 0.449219 1 1 v 2 c 0 0.550781 -0.449219 1 -1 1 h -2 c -0.550781 0 -1 -0.449219 -1 -1 v -2 c 0 -0.550781 0.449219 -1 1 -1 z m 0 0"/>
        <path d="m 12 0 v 2 h -4 v -2 z m 0 0"/>
        <path d="m 7 0 v 2 h -3 v -2 z m 0 0"/>
        <path d="m 12 14 v 2 h -3 v -2 z m 0 0"/>
        <path d="m 8 14 v 2 h -4 v -2 z m 0 0"/>
    </g>
</svg>
