<svg xmlns="http://www.w3.org/2000/svg" width="16" height="16" viewBox="0 0 16 16"><rect width="12" height="13" x="2" y="2" class="foreground-stroke" rx="1.979" ry="1.979" style="fill:none;stroke:#241f31;stroke-width:2;stroke-linecap:round;paint-order:stroke markers fill"/><path d="M6.49 4h3.02a.49.49 135 0 0 .49-.49V2.49a1.18 1.18 67.5 0 0-.346-.836l-.308-.308A1.18 1.18 22.5 0 0 8.51 1H7.49a1.18 1.18 157.5 0 0-.836.346l-.308.308A1.18 1.18 112.5 0 0 6 2.49v1.02a.49.49 45 0 0 .49.49Z" class="foreground-stroke" style="fill:none;stroke:#241f31;stroke-width:2;stroke-linecap:round;paint-order:stroke markers fill"/></svg>