<svg xmlns="http://www.w3.org/2000/svg" width="16" height="16" viewBox="0 0 16 16"><path d="M6 1H5m6 0H9m6 5V5m0 6V9m-5 6h1m-6 0h2m-6-5v1m0-6v2m4.028 2h1.944c.016 0 .028.012.028.028v1.944a.03.03 0 0 1-.028.028H5.028A.03.03 0 0 1 5 10.972V9.028C5 9.012 5.012 9 5.028 9Zm4-4h1.944c.016 0 .028.012.028.028v1.944a.03.03 0 0 1-.028.028H9.028A.03.03 0 0 1 9 6.972V5.028C9 5.012 9.012 5 9.028 5Zm1 5h.944c.016 0 .028.012.028.028v.944a.03.03 0 0 1-.028.028h-.944a.03.03 0 0 1-.028-.028v-.944c0-.016.012-.028.028-.028Zm-5-5h.944q.026.002.028.028v.944A.03.03 0 0 1 5.972 6h-.944A.03.03 0 0 1 5 5.972v-.944q.002-.026.028-.028ZM14 1h1v1h-1ZM1 14h1v1H1Zm13 0h1v1h-1ZM1 1h1v1H1Z" class="foreground-stroke transparent-fill" style="fill:none;stroke:#241f31;stroke-width:2;stroke-linecap:round;paint-order:stroke markers fill"/></svg>