<?xml version="1.0" encoding="UTF-8"?>
<svg height="16px" viewBox="0 0 16 16" width="16px" xmlns="http://www.w3.org/2000/svg">
    <g fill="#2e3436">
        <path d="m 11 8 c 0 1.65625 -1.34375 3 -3 3 s -3 -1.34375 -3 -3 s 1.34375 -3 3 -3 s 3 1.34375 3 3 z m 0 0"/>
        <path d="m 8 1 c -3.851562 0 -7 3.144531 -7 7 s 3.148438 7 7 7 s 7 -3.144531 7 -7 s -3.148438 -7 -7 -7 z m 0 2 c 2.773438 0 5 2.230469 5 5 s -2.226562 4.996094 -5 4.996094 s -5 -2.226563 -5 -4.996094 s 2.226562 -5 5 -5 z m 0 0"/>
        <path d="m 7 0 h 2 v 3 h -2 z m 0 0"/>
        <path d="m 7 13 h 2 v 3 h -2 z m 0 0"/>
        <path d="m 16 7 v 2 h -3 v -2 z m 0 0"/>
        <path d="m 3 7 v 2 h -3 v -2 z m 0 0"/>
    </g>
</svg>
