<?xml version="1.0" encoding="UTF-8"?>
<svg height="16px" viewBox="0 0 16 16" width="16px" xmlns="http://www.w3.org/2000/svg">
    <path d="m 3 1 c -1.644531 0 -3 1.355469 -3 3 v 8 c 0 1.644531 1.355469 3 3 3 h 3 c 0.550781 0 1 -0.449219 1 -1 s -0.449219 -1 -1 -1 h -3 c -0.5625 0 -1 -0.4375 -1 -1 v -7 h 11 c 0.5625 0 1 0.4375 1 1 v 1 c 0 0.550781 0.449219 1 1 1 s 1 -0.449219 1 -1 v -1 c 0 -1.644531 -1.355469 -3 -3 -3 h -3.585938 l -1.707031 -1.707031 c -0.1875 -0.1875 -0.441406 -0.292969 -0.707031 -0.292969 z m 0 2 h 3.585938 l 1 1 h -5.585938 c 0 -0.5625 0.4375 -1 1 -1 z m 8 5 v 3 h -3 v 2 h 3 v 3 h 2 v -3 h 3 v -2 h -3 v -3 z m 0 0" fill="#2e3436"/>
</svg>
