<svg xmlns="http://www.w3.org/2000/svg" width="16" height="16"><g fill="#2e3436"><path d="M12 10.008v1.997h-2v1.997h2v1.996h2v-1.996h2v-1.997h-2v-1.997z"/><path d="M2 1s-.459-.014-.947.23C.564 1.475 0 2.167 0 3v10s-.014.459.23.947C.476 14.436 1.168 15 2 15h7v-2H2V3h4.586l1.707 1.707A1 1 0 009 5h5v4h2V5s.014-.459-.23-.947C15.525 3.564 14.833 3 14 3H9.414L7.707 1.293A1 1 0 007 1z" style="line-height:normal;font-variant-ligatures:normal;font-variant-position:normal;font-variant-caps:normal;font-variant-numeric:normal;font-variant-alternates:normal;font-feature-settings:normal;text-indent:0;text-align:start;text-decoration-line:none;text-decoration-style:solid;text-decoration-color:#000;text-transform:none;text-orientation:mixed;white-space:normal;shape-padding:0;isolation:auto;mix-blend-mode:normal;solid-color:#000;solid-opacity:1" color="#000" font-weight="400" font-family="sans-serif" overflow="visible" fill-rule="evenodd"/></g></svg>