<?xml version="1.0" encoding="UTF-8"?>
<svg height="16px" viewBox="0 0 16 16" width="16px" xmlns="http://www.w3.org/2000/svg">
    <g fill="#2e3436">
        <path d="m 11.996094 10.007812 v 1.996094 h -2 v 1.996094 h 2 v 2 h 2 v -2 h 2 v -1.996094 h -2 v -1.996094 z m 0 0"/>
        <path d="m 1.996094 1 s -0.457032 -0.015625 -0.945313 0.230469 c -0.488281 0.246093 -1.05468725 0.9375 -1.05468725 1.769531 v 10 s -0.01171875 0.457031 0.23046825 0.949219 c 0.246094 0.488281 0.9375 1.050781 1.769532 1.050781 h 7 v -2 h -7 v -10 h 4.585937 l 1.707031 1.707031 c 0.1875 0.1875 0.445313 0.292969 0.707032 0.292969 h 5 v 4 h 2 v -4 s 0.015625 -0.457031 -0.230469 -0.949219 c -0.242187 -0.488281 -0.933594 -1.050781 -1.769531 -1.050781 h -4.585938 l -1.707031 -1.707031 c -0.1875 -0.1875 -0.441406 -0.292969 -0.707031 -0.292969 z m 0 0" fill-rule="evenodd"/>
    </g>
</svg>
