<svg height="16px" width="16px">
  <path
    d="M 13 1 C 11.902344 1 11 1.902344 11 3 C 11 3.1786207 11.023617 3.3523482 11.068359 3.5175781 L 3.5175781 11.068359 C 3.3523482 11.023617 3.1786207 11 3 11 C 1.902344 11 1 11.902344 1 13 C 1 14.097656 1.902344 15 3 15 C 4.097656 15 5 14.097656 5 13 C 5 12.821379 4.9763835 12.647652 4.9316406 12.482422 L 12.482422 4.9316406 C 12.647652 4.9763835 12.821379 5 13 5 C 14.097656 5 15 4.097656 15 3 C 15 1.902344 14.097656 1 13 1 z M 13 2 C 13.558594 2 14 2.441406 14 3 C 14 3.558594 13.558594 4 13 4 C 12.441406 4 12 3.558594 12 3 C 12 2.441406 12.441406 2 13 2 z M 3 12 C 3.558594 12 4 12.441406 4 13 C 4 13.558594 3.558594 14 3 14 C 2.441406 14 2 13.558594 2 13 C 2 12.441406 2.441406 12 3 12 z"/>
</svg>
