<svg xmlns="http://www.w3.org/2000/svg" width="16" height="16"><filter id="a" width="1" height="1" x="0" y="0"><feColorMatrix in="SourceGraphic" values="0 0 0 0 1 0 0 0 0 1 0 0 0 0 1 0 0 0 1 0"/></filter><mask id="c"><g filter="url(#a)"><path fill-opacity=".3" d="M0 0h16v16H0z"/></g></mask><clipPath id="b"><path d="M0 0h1600v1200H0z"/></clipPath><mask id="e"><g filter="url(#a)"><path fill-opacity=".05" d="M0 0h16v16H0z"/></g></mask><clipPath id="d"><path d="M0 0h1600v1200H0z"/></clipPath><mask id="g"><g filter="url(#a)"><path fill-opacity=".05" d="M0 0h16v16H0z"/></g></mask><clipPath id="f"><path d="M0 0h1600v1200H0z"/></clipPath><mask id="i"><g filter="url(#a)"><path fill-opacity=".05" d="M0 0h16v16H0z"/></g></mask><clipPath id="h"><path d="M0 0h1600v1200H0z"/></clipPath><mask id="k"><g filter="url(#a)"><path fill-opacity=".05" d="M0 0h16v16H0z"/></g></mask><clipPath id="j"><path d="M0 0h1600v1200H0z"/></clipPath><mask id="m"><g filter="url(#a)"><path fill-opacity=".05" d="M0 0h16v16H0z"/></g></mask><clipPath id="l"><path d="M0 0h1600v1200H0z"/></clipPath><mask id="o"><g filter="url(#a)"><path fill-opacity=".05" d="M0 0h16v16H0z"/></g></mask><clipPath id="n"><path d="M0 0h1600v1200H0z"/></clipPath><mask id="q"><g filter="url(#a)"><path fill-opacity=".3" d="M0 0h16v16H0z"/></g></mask><clipPath id="p"><path d="M0 0h1600v1200H0z"/></clipPath><mask id="s"><g filter="url(#a)"><path fill-opacity=".5" d="M0 0h16v16H0z"/></g></mask><clipPath id="r"><path d="M0 0h1600v1200H0z"/></clipPath><g clip-path="url(#b)" mask="url(#c)" transform="translate(-16 -816)"><path fill="#2e3436" d="M562.46 212.059h10.45c-1.183.492-1.297 2.46 0 3h-10.45zm0 0"/></g><g clip-path="url(#d)" mask="url(#e)" transform="translate(-16 -816)"><path fill="#2e3436" fill-rule="evenodd" d="M16 748h1v1h-1zm0 0"/></g><g clip-path="url(#f)" mask="url(#g)" transform="translate(-16 -816)"><path fill="#2e3436" fill-rule="evenodd" d="M17 747h1v1h-1zm0 0"/></g><g clip-path="url(#h)" mask="url(#i)" transform="translate(-16 -816)"><path fill="#2e3436" fill-rule="evenodd" d="M18 750h1v1h-1zm0 0"/></g><g clip-path="url(#j)" mask="url(#k)" transform="translate(-16 -816)"><path fill="#2e3436" fill-rule="evenodd" d="M16 750h1v1h-1zm0 0"/></g><g clip-path="url(#l)" mask="url(#m)" transform="translate(-16 -816)"><path fill="#2e3436" fill-rule="evenodd" d="M17 751h1v1h-1zm0 0"/></g><g clip-path="url(#n)" mask="url(#o)" transform="translate(-16 -816)"><path fill="#2e3436" fill-rule="evenodd" d="M19 751h1v1h-1zm0 0"/></g><g clip-path="url(#p)" mask="url(#q)" transform="translate(-16 -816)"><path fill="#2e3436" d="M136 776v7h7v-7zm0 0"/></g><g clip-path="url(#r)" mask="url(#s)" transform="translate(-16 -816)"><path fill="#2e3436" d="M219 758h3v12h-3zm0 0"/></g><path d="M13.002.963a2.04 2.04 0 0 0-2.031 2.031c0 .21.032.411.091.602l-7.457 7.457a2.007 2.007 0 0 0-.63-.102 2.04 2.04 0 0 0-2.032 2.031 2.04 2.04 0 0 0 2.032 2.032 2.04 2.04 0 0 0 1.98-2.483l7.565-7.564a2.04 2.04 0 0 0 2.514-1.973A2.04 2.04 0 0 0 13.001.963zm0 1.06c.542 0 .969.43.969.971 0 .542-.427.97-.969.97a.963.963 0 0 1-.97-.97c0-.542.428-.97.97-.97zM2.975 12.012c.542 0 .97.428.97.97a.962.962 0 0 1-.97.97.962.962 0 0 1-.971-.97c0-.542.429-.97.97-.97z" style="font-variation-settings:&quot;opsz&quot;32,&quot;wght&quot;700;baseline-shift:baseline;display:inline;overflow:visible;vector-effect:none;stroke-linecap:round;enable-background:accumulate;stop-color:#000;stop-opacity:1;opacity:1;fill:#241f31"/></svg>