<?xml version="1.0" encoding="UTF-8" standalone="no"?>
<svg width="64" height="64">
  <path
     d="M30.979 13.31a4 4 0 0 0-3.93 4.067l.053 22.877c0 .643-.673.88-.91.373l-7.45-15.822a4 4 0 0 0-3.465-2.344c-3.031-.135-5.103 3.022-3.773 5.75l8.004 16.998c-.774.824-1.942 1.03-3.832.1l-2.961-5.13c-1.16-2.007-3.627-2.738-5.533-1.638l-.383.22c-1.906 1.101-2.507 3.604-1.348 5.612l6.397 11.08c.146.253.312.484.496.695l1.6 3.55c.662 1.43 1.502 2.302 3.535 2.302h30.828c2.6 0 4.693-2.133 4.693-4.783V39c0-2.216-1.784-4-4-4a3.981 3.981 0 0 0-3.861 3H44v-2c0-2.216-1.682-4-3.771-4h-.458C37.682 32 36 33.784 36 36v2h-.9l-.051-20.643a4 4 0 0 0-4.07-4.046z"/>
  <path
     d="m 21.349627,20.375154 c 3.495882,3.508107 3.485892,9.232098 -0.02222,12.727981 -3.508107,3.495882 -9.232098,3.485892 -12.7279806,-0.02222 -3.4958825,-3.508107 -3.4858922,-9.232098 0.022215,-12.72798 3.5081066,-3.495883 9.2320976,-3.485893 12.7279806,0.02221 z m -2.124701,2.118295 a 5.977,5.977 0 0 0 -8.485987,-0.01481 5.977,5.977 0 0 0 -0.01481,8.484987 5.977,5.977 0 0 0 8.485987,0.01481 5.977,5.977 0 0 0 0.01481,-8.484987 z M 37.357569,10.682078 c 3.496882,3.508109 3.486892,9.2321 -0.02221,12.727981 -3.508107,3.495883 -9.231098,3.485894 -12.727981,-0.02221 -3.495882,-3.508107 -3.485892,-9.232099 0.02221,-12.727981 3.509107,-3.4958808 9.232098,-3.4858923 12.727981,0.02221 z m -2.124699,2.117295 a 5.977,5.977 0 0 0 -8.484987,-0.01481 5.978,5.978 0 0 0 -0.01481,8.485987 5.977,5.977 0 0 0 8.484987,0.01481 5.977,5.977 0 0 0 0.01481,-8.485987 z"/>
  <path
     d="M 44.973973,3.8130425 40.242185,8.5223082 45.18702,13.006685 Z"/>
  <path
     d="m 43.074673,8.4033566 a 11.002,11.002 0 0 1 8.757784,2.5985304 11.002,11.002 0 0 1 3.776989,8.31554"/>
</svg>
