<svg xmlns="http://www.w3.org/2000/svg" width="64" height="64">
  <path d="M30.979 13.31a4 4 0 0 0-3.93 4.067l.053 22.877c0 .643-.673.88-.91.373l-7.45-15.822a4 4 0 0 0-3.465-2.344c-3.031-.135-5.103 3.022-3.773 5.75l8.004 16.998c-.774.824-1.942 1.03-3.832.1l-2.961-5.13c-1.16-2.007-3.627-2.738-5.533-1.638l-.383.22c-1.906 1.101-2.507 3.604-1.348 5.612l6.397 11.08c.146.253.312.484.496.695l1.6 3.55c.662 1.43 1.502 2.302 3.535 2.302h30.828c2.6 0 4.693-2.133 4.693-4.783V39c0-2.216-1.784-4-4-4a3.981 3.981 0 0 0-3.861 3H44v-2c0-2.216-1.682-4-3.771-4h-.458C37.682 32 36 33.784 36 36v2h-.9l-.051-20.643a4 4 0 0 0-4.07-4.046z"/>
  <path d="M-1055.796 661.454c3.502 3.502 3.502 9.226 0 12.728-3.502 3.502-9.226 3.502-12.728 0-3.502-3.502-3.502-9.226 0-12.728 3.502-3.502 9.226-3.502 12.728 0zm-2.121 2.122a5.977 5.977 0 0 0-8.486 0 5.977 5.977 0 0 0 0 8.485 5.977 5.977 0 0 0 8.486 0 5.977 5.977 0 0 0 0-8.485zm18.112-11.843c3.503 3.502 3.503 9.226 0 12.728-3.502 3.502-9.225 3.502-12.728 0-3.502-3.502-3.502-9.226 0-12.728 3.503-3.502 9.226-3.502 12.728 0zm-2.121 2.121a5.977 5.977 0 0 0-8.485 0 5.978 5.978 0 0 0 0 8.486 5.977 5.977 0 0 0 8.485 0 5.977 5.977 0 0 0 0-8.486z"/>
  <path d="m-1032.161 644.893-4.74 4.701 4.937 4.493z" transform="translate(1077.143 -641.076)"/>
  <path d="M-1079.514-570.792a11.002 11.002 0 0 1 2.144 8.88 11.002 11.002 0 0 1-5.3 7.438" transform="rotate(-60 -16.617 -1253.371)"/>
</svg>
