<svg xmlns="http://www.w3.org/2000/svg" width="64" height="64">
  <path d="M40 16c-2.216 0-4 1.867-4 4.186V36h-1v-6.814c0-.163-.028-.317-.045-.475a4 4 0 0 0-2.557-3.717l-4.437-1.74C27.578 18.648 23.7 15 19 15c-4.953 0-9 4.047-9 9 0 1.419.341 2.759.932 3.955C6.01 27.993 2 32.021 2 36.951c0 4.953 4.047 9 9 9 .657 0 1.296-.076 1.914-.21L22 57h36c2.216 0 4-1.867 4-4.186V29.186C62 26.866 60.216 25 58 25s-4 1.867-4 4.186V36h-1V23.186C53 20.866 51.216 19 49 19s-4 1.867-4 4.186V36h-1V20.186C44 17.866 42.216 16 40 16Zm-21 2a5.97 5.97 0 0 1 5.637 3.95l-4.223-1.659a4 4 0 0 0-1.562-.297c-4.423.055-5.5 6.186-1.36 7.744l4.174 1.639A6.004 6.004 0 0 1 19 30c-3.331 0-6-2.669-6-6s2.669-6 6-6zm5.996 12.684L27 31.47v11.065l-4.395 1.948-3.355-3.95a8.907 8.907 0 0 0-.182-7.537 8.954 8.954 0 0 0 5.928-2.313zM11 30.95a5.977 5.977 0 0 1 5.934 6.856l-2.829-3.328a4 4 0 0 0-3.128-1.524c-3.401-.011-5.264 3.957-3.082 6.566l2.753 3.413A5.97 5.97 0 0 1 5 36.95c0-3.331 2.669-6 6-6z"/>
</svg>
