<?xml version="1.0" encoding="UTF-8" standalone="no"?>
<svg
   width="64"
   height="64"
   version="1.1"
   id="svg4"
   sodipodi:docname="gesture-rotate-anticlockwise-symbolic.svg"
   inkscape:version="1.4.2 (ebf0e940d0, 2025-05-08)"
   xmlns:inkscape="http://www.inkscape.org/namespaces/inkscape"
   xmlns:sodipodi="http://sodipodi.sourceforge.net/DTD/sodipodi-0.dtd"
   xmlns="http://www.w3.org/2000/svg"
   xmlns:svg="http://www.w3.org/2000/svg">
  <defs
     id="defs4">
    <inkscape:path-effect
       effect="fillet_chamfer"
       id="path-effect8"
       is_visible="true"
       lpeversion="1"
       nodesatellites_param="F,0,0,1,0,0,0,1 @ F,0,0,1,0,8,0,1 @ F,0,0,1,0,0,0,1"
       radius="0"
       unit="px"
       method="auto"
       mode="F"
       chamfer_steps="1"
       flexible="false"
       use_knot_distance="true"
       apply_no_radius="true"
       apply_with_radius="true"
       only_selected="false"
       hide_knots="false" />
    <inkscape:path-effect
       effect="fillet_chamfer"
       id="path-effect5"
       is_visible="true"
       lpeversion="1"
       nodesatellites_param="F,0,0,1,0,7.9800776,0,1 @ F,0,0,1,0,7.9800776,0,1 @ F,0,0,1,0,3,0,1 @ F,0,0,1,0,3,0,1 @ F,0,0,1,0,1.4703836,0,1 @ F,0,0,1,0,1.4703836,0,1 @ F,0,0,1,0,3,0,1 @ F,0,0,1,0,3,0,1 @ F,0,0,1,0,1.4703836,0,1 @ F,0,0,1,0,1.4703836,0,1 @ F,0,0,1,0,3,0,1 @ F,0,0,1,0,3,0,1 @ F,0,0,1,0,1.2360086,0,1 @ F,0,1,1,0,1.2360086,0,1 @ F,0,0,1,0,3,0,1 @ F,0,0,1,0,3,0,1 @ F,0,0,1,0,1.4703836,0,1 @ F,0,0,1,0,1.4703836,0,1 @ F,0,0,1,0,1.4703836,0,1 @ F,0,0,1,0,3,0,1 @ F,0,0,1,0,3,0,1"
       radius="0"
       unit="px"
       method="auto"
       mode="F"
       chamfer_steps="1"
       flexible="false"
       use_knot_distance="true"
       apply_no_radius="true"
       apply_with_radius="true"
       only_selected="false"
       hide_knots="false" />
  </defs>
  <sodipodi:namedview
     id="namedview4"
     pagecolor="#ffffff"
     bordercolor="#000000"
     borderopacity="0.25"
     inkscape:showpageshadow="2"
     inkscape:pageopacity="0.0"
     inkscape:pagecheckerboard="0"
     inkscape:deskcolor="#d1d1d1"
     showgrid="true"
     inkscape:zoom="8"
     inkscape:cx="20.1875"
     inkscape:cy="44.1875"
     inkscape:window-width="1972"
     inkscape:window-height="1316"
     inkscape:window-x="26"
     inkscape:window-y="23"
     inkscape:window-maximized="0"
     inkscape:current-layer="svg4">
    <inkscape:grid
       id="grid4"
       units="px"
       originx="0"
       originy="0"
       spacingx="1"
       spacingy="1"
       empcolor="#0099e5"
       empopacity="0.30196078"
       color="#0099e5"
       opacity="0.14901961"
       empspacing="5"
       enabled="true"
       visible="true" />
  </sodipodi:namedview>
  <path
     style="fill:#000000;fill-opacity:0;stroke:#241f31;stroke-width:2;stroke-linecap:round;stroke-dasharray:none;paint-order:stroke markers fill"
     d="M 23.980078,61 H 44.019922 A 7.9800776,7.9800776 135 0 0 52,53.019922 V 39 a 3,3 45 0 0 -3,-3 3,3 135 0 0 -3,3 v 0.529616 A 1.4703836,1.4703836 135 0 1 44.529616,41 h -0.05923 A 1.4703836,1.4703836 45 0 1 43,39.529616 V 36 a 3,3 45 0 0 -3,-3 3,3 135 0 0 -3,3 v 1.529616 A 1.4703836,1.4703836 135 0 1 35.529616,39 h -0.05923 A 1.4703836,1.4703836 45 0 1 34,37.529616 V 17 a 3,3 45 0 0 -3,-3 3,3 135 0 0 -3,3 v 23.076491 a 1.4791624,1.4791624 129.8826 0 1 -1.216341,1.455626 1.4878634,1.4878634 30.932458 0 1 -1.557065,-0.933083 L 18.270395,25.717737 a 3.0320887,3.0320887 20.251254 0 0 -4.001494,-1.476328 l -0.0378,0.01718 a 2.9470941,2.9470941 110.04635 0 0 -1.441298,3.949991 l 8.078032,16.963867 a 1.6187778,1.6187778 106.78645 0 1 -0.628677,2.084057 2.6555523,2.6555523 178.07349 0 1 -2.554307,0.08592 L 16.315151,46.657576 A 5.9199905,5.9199905 40.513687 0 1 14.145357,44.8035 L 11.743715,41.4412 A 3.2495847,3.2495847 11.749283 0 0 7.4275212,40.543487 2.9625921,2.9625921 102.84893 0 0 6.5031088,44.596279 l 5.4985832,9.497552 A 13.841024,13.841024 29.965709 0 0 23.980078,61 Z"
     id="path5"
     sodipodi:nodetypes="cccccccccccccccccccccc"
     inkscape:path-effect="#path-effect5"
     inkscape:original-d="M 16,61 H 52 V 36 h -6 v 5 h -3 v -8 h -6 v 6 H 34 V 14 H 28 V 41.3125 L 25.75,41.71875 17,23 l -5.5,2.5 10,21 L 19,48 15,46 10,39 5,42 Z" />
  <path
     style="fill:#000000;fill-opacity:0;stroke:#241f31;stroke-width:4;stroke-linecap:round;stroke-dasharray:none;paint-order:stroke markers fill"
     id="path6"
     sodipodi:type="arc"
     sodipodi:cx="15.433428"
     sodipodi:cy="26.862181"
     sodipodi:rx="7.1949081"
     sodipodi:ry="7.1949081"
     sodipodi:start="2.3561945"
     sodipodi:end="6.0213859"
     sodipodi:open="true"
     sodipodi:arc-type="arc"
     d="m 10.345859,31.949749 a 7.1949081,7.1949081 0 0 1 -1.4332325,-8.128268 7.1949081,7.1949081 0 0 1 7.1478785,-4.12683 7.1949081,7.1949081 0 0 1 6.32267,5.30535" />
  <path
     style="fill:#000000;fill-opacity:0;stroke:#241f31;stroke-width:4;stroke-linecap:round;stroke-dasharray:none;paint-order:stroke markers fill"
     id="circle6"
     sodipodi:type="arc"
     sodipodi:cx="31"
     sodipodi:cy="17"
     sodipodi:rx="7"
     sodipodi:ry="7"
     sodipodi:start="2.8797933"
     sodipodi:end="0.26179939"
     sodipodi:open="true"
     sodipodi:arc-type="arc"
     d="m 24.238519,18.811733 a 7,7 0 0 1 2.746446,-7.545797 7,7 0 0 1 8.03007,0 7,7 0 0 1 2.746446,7.545797" />
  <path
     style="fill:#000000;fill-opacity:0;stroke:#241f31;stroke-width:2;stroke-linecap:round;stroke-dasharray:none;paint-order:stroke markers fill;stroke-linejoin:round"
     d="m 45,4 -4,4 4,4"
     id="path7" />
  <path
     style="fill:#000000;fill-opacity:0;stroke:#241f31;stroke-width:2;stroke-linecap:round;stroke-dasharray:none;paint-order:stroke markers fill"
     d="m 42,8 h 5 a 8,8 45 0 1 8,8 v 1"
     id="path8"
     inkscape:path-effect="#path-effect8"
     inkscape:original-d="m 42,8 h 13 v 9"
     sodipodi:nodetypes="ccc" />
</svg>
