<svg xmlns="http://www.w3.org/2000/svg" width="64" height="64"><path d="m-1054.764 644.893 4.74 4.701-4.937 4.493z" style="color:#000;display:inline;overflow:visible;visibility:visible;fill:#000;fill-opacity:1;fill-rule:nonzero;stroke:none;stroke-width:6;marker:none;enable-background:accumulate" transform="translate(1077.143 -641.076)"/><path d="M-36.051 1236.539a11.002 11.002 0 0 1 2.144 8.879 11.002 11.002 0 0 1-5.3 7.438" style="color:#000;display:inline;overflow:visible;visibility:visible;fill:none;stroke:#000;stroke-width:3;stroke-linecap:butt;stroke-linejoin:miter;stroke-miterlimit:4;stroke-dasharray:none;stroke-dashoffset:0;stroke-opacity:1;marker:none;enable-background:accumulate" transform="scale(-1 1) rotate(-60 -1093.754 612.29)"/><path d="M-1030.628 653.564a4 4 0 0 0-3.785 2.277l-10.896 22.092c-.038.059-.086.107-.122.168l-.15.262v-.006c-.378.598-1.14.487-1.234-.318l1.244-14.87a4 4 0 0 0-2.631-4.152 3.987 3.987 0 0 0-.111-.035 3.968 3.968 0 0 0-.664-.158l-.112-.014c-.09-.01-.18-.019-.27-.023-.053-.002-.107-.002-.161-.002a4.07 4.07 0 0 0-.157-.004l-.062.006c-.08.004-.16.01-.24.02-.045.003-.09.01-.135.015a4.031 4.031 0 0 0-.374.07 2.881 2.881 0 0 0-.108.023 4 4 0 0 0-2.96 3.764l-2.247 26.828s-3.31-.31-3.31-1.687v-8.905c0-2.318-1.784-4.185-4-4.185s-4 1.867-4 4.185v10.63c0 .13.026.251.037.378l-.05.063c0 1.508.134 2.82.62 4.234l.049.018 3.258 6.463c.662 1.414 1.502 2.277 3.535 2.277l26.804-.002c1.547 0 3.621-1.07 4.268-2.133l8.127-14.074c1.16-2.008.548-4.517-1.371-5.625-1.92-1.108-4.397-.383-5.557 1.625l-.394.682-.868-.5 1.68-2.909c1.16-2.008.548-4.517-1.37-5.625-1.92-1.108-4.398-.383-5.558 1.625l-1.68 2.91-1.017-.587 9.016-18.274a4 4 0 0 0 .43-.885c1.163-2.578-.643-5.517-3.47-5.642z" style="color:#000;clip-rule:nonzero;display:inline;overflow:visible;visibility:visible;opacity:1;isolation:auto;mix-blend-mode:normal;color-interpolation:sRGB;color-interpolation-filters:linearRGB;solid-color:#000;solid-opacity:1;fill:#000;fill-opacity:1;fill-rule:nonzero;stroke:none;stroke-width:0;stroke-linecap:round;stroke-linejoin:miter;stroke-miterlimit:4;stroke-dasharray:none;stroke-dashoffset:0;stroke-opacity:1;marker:none;color-rendering:auto;image-rendering:auto;shape-rendering:auto;text-rendering:auto;enable-background:accumulate" transform="translate(1077.143 -641.076)"/><path d="M-1041.104 660.64c1.282 4.783-1.582 9.74-6.366 11.022s-9.741-1.58-11.023-6.364 1.58-9.74 6.364-11.022 9.743 1.58 11.025 6.363zm-2.898.776a5.98 5.98 0 0 0-7.35-4.243 5.977 5.977 0 0 0-4.243 7.349 5.977 5.977 0 0 0 7.348 4.243 5.98 5.98 0 0 0 4.245-7.35zm21.813-6.062c1.282 4.784-1.58 9.741-6.364 11.023s-9.74-1.58-11.023-6.364c-1.281-4.784 1.58-9.74 6.364-11.023 4.784-1.281 9.741 1.58 11.023 6.364zm-2.898.777a5.977 5.977 0 0 0-7.348-4.243 5.978 5.978 0 0 0-4.243 7.349 5.978 5.978 0 0 0 7.349 4.242 5.977 5.977 0 0 0 4.242-7.348z" style="color:#000;font-style:normal;font-variant:normal;font-weight:400;font-stretch:normal;font-size:medium;line-height:normal;font-family:sans-serif;text-indent:0;text-align:start;text-decoration:none;text-decoration-line:none;text-decoration-style:solid;text-decoration-color:#000;letter-spacing:normal;word-spacing:normal;text-transform:none;writing-mode:lr-tb;direction:ltr;baseline-shift:baseline;text-anchor:start;white-space:normal;clip-rule:nonzero;display:inline;overflow:visible;visibility:visible;opacity:1;isolation:auto;mix-blend-mode:normal;color-interpolation:sRGB;color-interpolation-filters:linearRGB;solid-color:#000;solid-opacity:1;fill:#000;fill-opacity:1;fill-rule:nonzero;stroke:none;stroke-width:3;stroke-linecap:round;stroke-linejoin:miter;stroke-miterlimit:4;stroke-dasharray:none;stroke-dashoffset:0;stroke-opacity:1;marker:none;color-rendering:auto;image-rendering:auto;shape-rendering:auto;text-rendering:auto;enable-background:accumulate" transform="translate(1077.143 -641.076)"/></svg>