<svg height="64" width="64" xmlns="http://www.w3.org/2000/svg">
  <path d="m24.498798 23.607523-2.839143 20.435409a2.6852014 2.6852014 138.95481 0 1 -2.659655 2.315689 2.2528671 2.2528671 51.11646 0 1 -2-2.480085v-8.031108a3.5862069 3.5862069 45 0 0 -3.586207-3.586207 3.5199753 3.5199753 133.91152 0 0 -3.4524733 3.586207v9.113892a16.03868 16.03868 45 0 0 16.0386803 16.03868h15.064768a12.51426 12.51426 150.6443 0 0 10.694212-6.01499l5.789196-9.525823a3.9578759 3.9578759 75.644301 0 0 -1.403313-5.48314 3.8604498 3.8604498 161.55408 0 0 -5.130446 1.711241l-.253482.420709a1.5729032 1.5729032 165.77288 0 1 -2.145007.54385 1.4392452 1.4392452 80.649742 0 1 -.329312-1.999992l1.659041-2.873543a3.2081187 3.2081187 75 0 0 -1.174253-4.382371 3.2041325 3.2041325 164.92867 0 0 -4.375463 1.178241l-1.243653 2.154071a1.4684876 1.4684876 165 0 1 -2.005992.537503 1.3979357 1.3979357 77.969911 0 1 -.412052-1.933561l9.611383-16.647405a3.6434853 3.6434853 74.999999 0 0 -1.333608-4.977094 3.5312813 3.5312813 163.14925 0 0 -4.77956 1.447655l-12.30338 21.31008a.9819488.9819488 172.5 0 1 -1.544735.203368 1.8866761 1.8866761 82.477632 0 1 -.218308-1.653228l1.361407-10.404184a3.6853489 3.6853489 52.792504 0 0 -3.133011-4.126468 3.5235685 3.5235685 141.28556 0 0 -3.895634 3.122604z"
        class="foreground-fill foreground-stroke"/>
  <path d="m22.585786 4 4 4-4 4"
        class="transparent-fill foreground-stroke"/>
  <path d="m24 8 h -5 a 8 8 45 0 0 -8 8 v1"
        class="transparent-fill foreground-stroke"/>
  <path d="m20.272593 26.070552a8 8 0 0 1 4.66594-9.461588 8 8 0 0 1 9.98967 3.391036" stroke-linejoin="round"
        class="transparent-fill foreground-stroke"/>
  <path d="m39 17a8 8 0 0 1 5.929448-7.7274067 8 8 0 0 1 8.998755 3.7274067 8 8 0 0 1 -1.271349 9.656854" stroke-linejoin="round"
        class="transparent-fill foreground-stroke"/>
</svg>
