<?xml version="1.0" encoding="UTF-8" standalone="no"?>
<svg
   width="64"
   height="64"
   viewBox="0 0 64 64.000001"
   id="svg6535"
   version="1.1"
   xmlns="http://www.w3.org/2000/svg"
   xmlns:svg="http://www.w3.org/2000/svg"
   xmlns:rdf="http://www.w3.org/1999/02/22-rdf-syntax-ns#"
   xmlns:cc="http://creativecommons.org/ns#"
   xmlns:dc="http://purl.org/dc/elements/1.1/">
  <defs
     id="defs6537" />
  <metadata
     id="metadata6540">
    <rdf:RDF>
      <cc:Work
         rdf:about="">
        <dc:format>image/svg+xml</dc:format>
        <dc:type
           rdf:resource="http://purl.org/dc/dcmitype/StillImage" />
      </cc:Work>
    </rdf:RDF>
  </metadata>
  <g
     id="layer1"
     transform="translate(180,-470.14793)">
    <path
       style="color:#000000;clip-rule:nonzero;display:inline;overflow:visible;visibility:visible;opacity:1;isolation:auto;mix-blend-mode:normal;color-interpolation:sRGB;color-interpolation-filters:linearRGB;solid-color:#000000;solid-opacity:1;fill:#000000;fill-opacity:1;fill-rule:nonzero;stroke:#4a90d9;stroke-width:0;stroke-linecap:round;stroke-linejoin:miter;stroke-miterlimit:4;stroke-dasharray:none;stroke-dashoffset:0;stroke-opacity:1;marker:none;color-rendering:auto;image-rendering:auto;shape-rendering:auto;text-rendering:auto;enable-background:accumulate"
       d="m 46.037109,10.148438 v 7 H 30.539062 C 29.339581,13.585082 25.967822,11 22.011719,11 c -4.95279,0 -9,4.0472 -9,9 0,3.501407 2.027427,6.543111 4.96289,8.029297 V 47 h -1 v -7.814453 c 0,-2.318759 -1.784002,-4.185547 -4,-4.185547 -2.215997,0 -3.9999996,1.866788 -3.9999996,4.185547 V 47 55.814453 60 h 3.9999996 25 11 c 2.215998,0 4,-1.866788 4,-4.185547 v -12.628906 -9 c 0,-2.318759 -1.784002,-4.185547 -4,-4.185547 -2.215997,0 -4,1.866788 -4,4.185547 V 39 h -1 V 31.185547 C 43.974609,28.866788 42.301836,27 40.222656,27 h -0.49414 c -2.07918,0 -3.753907,1.866788 -3.753907,4.185547 V 39 h -1 v -7.814453 c 0,-2.318759 -1.784002,-4.185547 -4,-4.185547 -2.215997,0 -4,1.866788 -4,4.185547 V 39 h -1 V 28.064453 c 2.350493,-1.163155 4.123013,-3.319 4.765625,-5.916015 h 15.296875 v 7 l 10,-9.5 z M 22.011719,14 c 3.33147,0 6,2.66852 6,6 0,1.806375 -0.787744,3.414863 -2.03711,4.511719 v -4.326172 c 0,-2.318759 -1.784002,-4.185547 -4,-4.185547 -2.215997,0 -4,1.866788 -4,4.185547 v 4.257812 C 16.769053,23.34842 16.011719,21.769849 16.011719,20 c 0,-3.33148 2.66853,-6 6,-6 z"
       transform="translate(-180,470.14793)"
       id="rect7529" />
  </g>
</svg>
