<?xml version="1.0" encoding="UTF-8" standalone="no"?>
<svg
   width="64"
   height="64"
   version="1.1"
   id="svg1"
   sodipodi:docname="gesture-pinch-symbolic.svg"
   inkscape:version="1.4.2 (ebf0e940d0, 2025-05-08)"
   xmlns:inkscape="http://www.inkscape.org/namespaces/inkscape"
   xmlns:sodipodi="http://sodipodi.sourceforge.net/DTD/sodipodi-0.dtd"
   xmlns="http://www.w3.org/2000/svg"
   xmlns:svg="http://www.w3.org/2000/svg">
  <defs
     id="defs1">
    <inkscape:path-effect
       effect="fillet_chamfer"
       id="path-effect1"
       is_visible="true"
       lpeversion="1"
       nodesatellites_param="F,0,1,1,0,9,0,1 @ F,0,0,1,0,9,0,1 @ F,0,0,1,0,3,0,1 @ F,0,0,1,0,3,0,1 @ F,0,0,1,0,1.5374369,0,1 @ F,0,0,1,0,1.5374369,0,1 @ F,0,0,1,0,3,0,1 @ F,0,0,1,0,3,0,1 @ F,0,0,1,0,1.5374369,0,1 @ F,0,0,1,0,1.5374369,0,1 @ F,0,0,1,0,3,0,1 @ F,0,0,1,0,3,0,1 @ F,0,0,1,0,1.5374369,0,1 @ F,0,0,1,0,1.5374369,0,1 @ F,0,0,1,0,6.3235822,0,1 @ F,0,0,1,0,3.1590159,0,1 @ F,0,0,1,0,3.1590159,0,1 @ F,0,0,1,0,2.2294816,0,1 @ F,0,0,1,0,2.2294816,0,1 @ F,0,0,1,0,2.2294816,0,1 @ F,0,0,1,0,3.2394388,0,1 @ F,0,0,1,0,3.2394388,0,1"
       radius="0"
       unit="px"
       method="auto"
       mode="F"
       chamfer_steps="1"
       flexible="false"
       use_knot_distance="true"
       apply_no_radius="true"
       apply_with_radius="true"
       only_selected="false"
       hide_knots="false" />
    <inkscape:path-effect
       effect="fillet_chamfer"
       id="path-effect3"
       is_visible="true"
       lpeversion="1"
       nodesatellites_param="F,0,0,1,0,0,0,1 @ F,0,0,1,0,0,0,1 @ F,0,0,1,0,3,0,1 @ F,0,0,1,0,3,0,1 @ F,0,1,1,0,1.53125,0,1 @ F,0,1,1,0,1.53125,0,1 @ F,0,0,1,0,3,0,1 @ F,0,0,1,0,3,0,1 @ F,0,1,1,0,1.53125,0,1 @ F,0,1,1,0,1.53125,0,1 @ F,0,0,1,0,3,0,1 @ F,0,0,1,0,3,0,1 @ F,0,0,1,0,1.53125,0,1 @ F,0,1,1,0,1.53125,0,1 @ F,0,0,1,0,5,0,1 @ F,0,0,1,0,3,0,1 @ F,0,0,1,0,3,0,1 @ F,0,0,1,0,2,0,1 @ F,0,0,1,0,2.2294816,0,1 @ F,0,0,1,0,2.2294816,0,1 @ F,0,0,1,0,3,0,1 @ F,0,0,1,0,3,0,1"
       radius="0"
       unit="px"
       method="auto"
       mode="F"
       chamfer_steps="1"
       flexible="false"
       use_knot_distance="true"
       apply_no_radius="true"
       apply_with_radius="true"
       only_selected="false"
       hide_knots="false" />
  </defs>
  <sodipodi:namedview
     id="namedview1"
     pagecolor="#ffffff"
     bordercolor="#000000"
     borderopacity="0.25"
     inkscape:showpageshadow="2"
     inkscape:pageopacity="0.0"
     inkscape:pagecheckerboard="0"
     inkscape:deskcolor="#d1d1d1"
     showgrid="true"
     inkscape:zoom="8"
     inkscape:cx="16.5625"
     inkscape:cy="46.875"
     inkscape:window-width="2106"
     inkscape:window-height="1245"
     inkscape:window-x="26"
     inkscape:window-y="23"
     inkscape:window-maximized="0"
     inkscape:current-layer="svg1">
    <inkscape:grid
       id="grid1"
       units="px"
       originx="0"
       originy="0"
       spacingx="1"
       spacingy="1"
       empcolor="#0099e5"
       empopacity="0.30196078"
       color="#0099e5"
       opacity="0.14901961"
       empspacing="5"
       enabled="true"
       visible="true" />
  </sodipodi:namedview>
  <path
     style="fill:none;stroke:#241f31;stroke-width:2;stroke-linecap:round;paint-order:stroke markers fill"
     d="m 33,59 19,0 a 9,9 135 0 0 9,-9 V 29 a 3,3 45 0 0 -3,-3 3,3 135 0 0 -3,3 v 6.462563 A 1.5374369,1.5374369 135 0 1 53.462563,37 1.5004671,1.5004671 46.429687 0 1 52,35.462563 V 23 a 3,3 45 0 0 -3,-3 3,3 135 0 0 -3,3 V 35.462563 A 1.5374369,1.5374369 135 0 1 44.462563,37 1.5004671,1.5004671 46.429687 0 1 43,35.462563 V 20 a 3,3 45 0 0 -3,-3 3,3 135 0 0 -3,3 V 35.462563 A 1.5374369,1.5374369 135 0 1 35.462563,37 1.5004671,1.5004671 46.429687 0 1 34,35.462563 v -3.138981 a 8.9377349,8.9377349 54.720017 0 0 -5.963077,-8.428197 l -8.058002,-2.844001 a 3.1040807,3.1040807 153.93749 0 0 -3.97789,1.945522 l -0.0021,0.0062 a 3.3058693,3.3058693 64.73623 0 0 1.949485,4.130927 l 7.970669,3.065642 A 3.2461918,3.2461918 55.518756 0 1 28,33.229482 v 7.541036 a 3.937689,3.937689 119.51812 0 1 -1.911765,3.376541 l -1.17647,0.705882 a 2.6399889,2.6399889 9.2174744 0 1 -3.362692,-0.54569 L 13.108199,34.459565 A 3.351111,3.351111 5.3694486 0 0 8.4704233,34.023661 3.2362082,3.2362082 95.975968 0 0 7.9964929,38.551074 L 18.453226,51.912455 A 18.471977,18.471977 25.976479 0 0 33,59 Z"
     id="path2"
     sodipodi:nodetypes="ccccccccccccccccccccccc"
     class="foreground-stroke transparent-fill"
     inkscape:path-effect="#path-effect1"
     inkscape:original-d="M 24,59 H 61 V 26 H 55 V 37 H 52 V 20 H 46 V 37 H 43 V 17 H 37 V 37 H 34 V 26 l -17,-6 -2,6 13,5 V 43 L 23,46 11,32 6,36 Z" />
  <path
     style="fill:none;stroke:#241f31;stroke-width:4;stroke-linecap:round;stroke-dasharray:none;paint-order:stroke markers fill"
     id="path3"
     sodipodi:type="arc"
     sodipodi:cx="10"
     sodipodi:cy="36"
     sodipodi:rx="8"
     sodipodi:ry="8"
     sodipodi:start="2.0204855"
     sodipodi:end="4.9741884"
     sodipodi:open="true"
     sodipodi:arc-type="arc"
     d="M 6.522515,43.204658 A 8,8 0 0 1 2.5008998,33.213695 8,8 0 0 1 12.070553,28.272593"
     class="foreground-stroke transparent-fill" />
  <path
     style="fill:none;stroke:#241f31;stroke-width:4;stroke-linecap:round;stroke-dasharray:none;paint-order:stroke markers fill"
     id="circle3"
     sodipodi:type="arc"
     sodipodi:cx="19"
     sodipodi:cy="24"
     sodipodi:rx="8"
     sodipodi:ry="8"
     sodipodi:start="2.5823821"
     sodipodi:end="5.5906835"
     sodipodi:open="true"
     sodipodi:arc-type="arc"
     d="m 12.218606,28.244137 a 8,8 0 0 1 2.095063,-10.727832 8,8 0 0 1 10.84354,1.375977"
     class="foreground-stroke transparent-fill" />
</svg>
