<?xml version="1.0" encoding="UTF-8" standalone="no"?>
<svg
   width="64"
   height="64"
   viewBox="0 0 64.000001 64"
   id="svg6660"
   version="1.1"
   xmlns="http://www.w3.org/2000/svg"
   xmlns:svg="http://www.w3.org/2000/svg"
   xmlns:rdf="http://www.w3.org/1999/02/22-rdf-syntax-ns#"
   xmlns:cc="http://creativecommons.org/ns#"
   xmlns:dc="http://purl.org/dc/elements/1.1/">
  <defs
     id="defs6662" />
  <metadata
     id="metadata6665">
    <rdf:RDF>
      <cc:Work
         rdf:about="">
        <dc:format>image/svg+xml</dc:format>
        <dc:type
           rdf:resource="http://purl.org/dc/dcmitype/StillImage" />
      </cc:Work>
    </rdf:RDF>
  </metadata>
  <g
     id="layer1"
     transform="translate(1077.1429,-641.07582)">
    <path
       transform="rotate(-59.999999)"
       style="color:#000000;display:inline;overflow:visible;visibility:visible;fill:none;stroke:#000000;stroke-width:3;stroke-linecap:round;stroke-linejoin:miter;stroke-miterlimit:4;stroke-dasharray:none;stroke-dashoffset:0;stroke-opacity:1;marker:none;enable-background:accumulate"
       id="path4223"
       ry="7.5000024"
       rx="7.4999938"
       cy="-577.37189"
       cx="-1106.7941"
       d="" />
    <path
       style="color:#000000;clip-rule:nonzero;display:inline;overflow:visible;visibility:visible;opacity:1;isolation:auto;mix-blend-mode:normal;color-interpolation:sRGB;color-interpolation-filters:linearRGB;solid-color:#000000;solid-opacity:1;fill:#000000;fill-opacity:1;fill-rule:nonzero;stroke:#4a90d9;stroke-width:0;stroke-linecap:round;stroke-linejoin:miter;stroke-miterlimit:4;stroke-dasharray:none;stroke-dashoffset:0;stroke-opacity:1;marker:none;color-rendering:auto;image-rendering:auto;shape-rendering:auto;text-rendering:auto;enable-background:accumulate"
       d="m 30.978516,13.310547 c -2.207639,0.03872 -3.966459,1.858733 -3.929688,4.066406 l 0.05273,22.876953 c 0,0.642649 -0.67295,0.87956 -0.910156,0.373047 L 18.742188,24.804688 c -0.621941,-1.370965 -1.960897,-2.276685 -3.464844,-2.34375 -3.031568,-0.134912 -5.103626,3.02251 -3.773438,5.75 l 8.003906,16.998046 c -0.773572,0.82429 -1.941423,1.030647 -3.832031,0.09961 L 12.714844,40.179688 C 11.555464,38.171583 9.0877248,37.440537 7.1816406,38.541016 l -0.3828125,0.220703 c -1.9060842,1.100478 -2.5070358,3.603224 -1.3476562,5.611328 l 6.3964841,11.080078 c 0.145898,0.252702 0.312481,0.484172 0.496094,0.695313 l 1.599609,3.548828 C 14.606259,61.127306 15.445616,62 17.478516,62 h 12.875 0.0098 17.94336 C 50.907298,62 53,59.866806 53,57.216797 V 42.783203 39 c 0,-2.215997 -1.784003,-4 -4,-4 -1.868548,0 -3.417636,1.273706 -3.861328,3 H 44 v -2 c 0,-2.215997 -1.682015,-4 -3.771484,-4 H 39.771484 C 37.682015,32 36,33.784003 36,36 v 2 h -0.900391 l -0.05078,-20.642578 c 0.02655,-2.255146 -1.815356,-4.086446 -4.070313,-4.046875 z"
       transform="translate(-1077.1429,641.07582)"
       id="rect4211" />
    <path
       style="color:#000000;font-style:normal;font-variant:normal;font-weight:normal;font-stretch:normal;font-size:medium;line-height:normal;font-family:sans-serif;text-indent:0;text-align:start;text-decoration:none;text-decoration-line:none;text-decoration-style:solid;text-decoration-color:#000000;letter-spacing:normal;word-spacing:normal;text-transform:none;writing-mode:lr-tb;direction:ltr;baseline-shift:baseline;text-anchor:start;white-space:normal;clip-rule:nonzero;display:inline;overflow:visible;visibility:visible;opacity:1;isolation:auto;mix-blend-mode:normal;color-interpolation:sRGB;color-interpolation-filters:linearRGB;solid-color:#000000;solid-opacity:1;fill:#000000;fill-opacity:1;fill-rule:nonzero;stroke:none;stroke-width:3;stroke-linecap:round;stroke-linejoin:miter;stroke-miterlimit:4;stroke-dasharray:none;stroke-dashoffset:0;stroke-opacity:1;marker:none;color-rendering:auto;image-rendering:auto;shape-rendering:auto;text-rendering:auto;enable-background:accumulate"
       d="m -1055.796,661.45421 c 3.5021,3.50216 3.5021,9.22577 0,12.72793 -3.5022,3.50215 -9.2258,3.50215 -12.728,0 -3.5021,-3.50216 -3.5021,-9.22577 0,-12.72793 3.5022,-3.50215 9.2258,-3.50215 12.728,0 z m -2.1214,2.12132 c -2.3557,-2.3557 -6.1295,-2.35572 -8.4852,0 -2.3558,2.35573 -2.3558,6.12958 0,8.48529 2.3557,2.3557 6.1295,2.35572 8.4852,0 2.3558,-2.35573 2.3557,-6.12958 0,-8.48529 z"
       id="path4223-9" />
    <path
       style="color:#000000;font-style:normal;font-variant:normal;font-weight:normal;font-stretch:normal;font-size:medium;line-height:normal;font-family:sans-serif;text-indent:0;text-align:start;text-decoration:none;text-decoration-line:none;text-decoration-style:solid;text-decoration-color:#000000;letter-spacing:normal;word-spacing:normal;text-transform:none;writing-mode:lr-tb;direction:ltr;baseline-shift:baseline;text-anchor:start;white-space:normal;clip-rule:nonzero;display:inline;overflow:visible;visibility:visible;opacity:1;isolation:auto;mix-blend-mode:normal;color-interpolation:sRGB;color-interpolation-filters:linearRGB;solid-color:#000000;solid-opacity:1;fill:#000000;fill-opacity:1;fill-rule:nonzero;stroke:none;stroke-width:3;stroke-linecap:round;stroke-linejoin:miter;stroke-miterlimit:4;stroke-dasharray:none;stroke-dashoffset:0;stroke-opacity:1;marker:none;color-rendering:auto;image-rendering:auto;shape-rendering:auto;text-rendering:auto;enable-background:accumulate"
       d="m -1039.8047,651.73291 c 3.5022,3.50215 3.5022,9.22576 0,12.72792 -3.5021,3.50216 -9.2258,3.50215 -12.7279,0 -3.5022,-3.50216 -3.5022,-9.22576 0,-12.72792 3.5022,-3.50216 9.2258,-3.50216 12.7279,0 z m -2.1213,2.12132 c -2.3557,-2.35571 -6.1296,-2.35573 -8.4853,0 -2.3556,2.35566 -2.3557,6.12958 0,8.48528 2.3557,2.35571 6.1296,2.35566 8.4853,0 2.3557,-2.35573 2.3557,-6.12958 0,-8.48528 z"
       id="path4225" />
    <path
       id="path4245"
       d="m -1032.1613,644.89328 -4.7401,4.70081 4.9374,4.49282 z"
       style="color:#000000;display:inline;overflow:visible;visibility:visible;fill:#000000;fill-opacity:1;fill-rule:nonzero;stroke:none;stroke-width:6;marker:none;enable-background:accumulate" />
    <path
       id="ellipse4229"
       style="color:#000000;display:inline;overflow:visible;visibility:visible;fill:none;stroke:#000000;stroke-width:3;stroke-linecap:butt;stroke-linejoin:miter;stroke-miterlimit:4;stroke-dasharray:none;stroke-dashoffset:0;stroke-opacity:1;marker:none;enable-background:accumulate"
       transform="rotate(-59.999999)"
       d="m -1079.5138,-570.79169 a 11.002314,11.002327 0 0 1 2.1442,8.87888 11.002314,11.002327 0 0 1 -5.3009,7.4386" />
  </g>
</svg>
