<?xml version="1.0" encoding="UTF-8" standalone="no"?>
<svg width="64" height="64">
  <path
     d="M51, 5.146 v7h-14.48c-.869-2.58-2.88-4.743-5.64-5.675a8.934 8.934 0 0 0-3.474-.452 9.036 9.036 0 0 0-7.504 5.061 8.893 8.893 0 0 0-2.164-.022c-3.455.408-6.517 2.812-7.582 6.336-1.307 4.33.838 8.916 4.844 10.768v18.836h-1v-7.815c0-2.318-1.784-4.185-4-4.185s-4 1.867-4 4.185v20.815h40c2.216 0 4-1.867 4-4.186v-21.629c0-2.318-1.784-4.185-4-4.185s-4 1.867-4 4.185v4.815h-1v-10.815c0-2.318-1.784-4.185-4-4.185s-4 1.867-4 4.185v10.815h-1V23.19a8.978 8.978 0 0 0 4.604-5.402c.05-.164.084-.328.125-.493H51v7l10-9.5-10-9.5zm-22.828 3.85c.58.018 1.168.12 1.748.316a5.976 5.976 0 0 1 4.08 5.567v.232a5.988 5.988 0 0 1-2 4.36v-4.288c0-2.318-1.784-4.185-4-4.185s-4 1.867-4 4.185v7.76a5.961 5.961 0 0 1-1 1.317v-4.077c0-2.318-1.784-4.185-4-4.185s-4 1.867-4 4.185v4.483a5.973 5.973 0 0 1-1.973-6.402 5.98 5.98 0 0 1 7.407-4.032 1.5 1.5 0 0 0 1.927-1.289 1.5 1.5 0 0 0 .01-.023 5.978 5.978 0 0 1 5.801-3.924zM180, -470.14793 m-156 497.451v11.697h-1v-11.072a9.11 9.11 0 0 0 1-.625z"
     fill-rule="winding"/>
</svg>
