<svg xmlns="http://www.w3.org/2000/svg" width="64" height="64">
  <path d="M38.271 6.004a9.036 9.036 0 0 0-8.37 5.078 8.923 8.923 0 0 0-2.163-.02c-3.371.399-6.364 2.7-7.496 6.086H12v-7l-10 9.5 10 9.5v-7h8.049A9.018 9.018 0 0 0 25 28.162V47h-1v-7.814C24 36.866 22.216 35 20 35s-4 1.867-4 4.186V60h40c2.216 0 4-1.867 4-4.186V34.186C60 31.866 58.216 30 56 30s-4 1.867-4 4.186V39h-1V28.186C51 25.866 49.216 24 47 24s-4 1.867-4 4.186V39h-1V23.043a8.978 8.978 0 0 0 4.604-5.402c1.425-4.643-1.122-9.614-5.723-11.168a8.939 8.939 0 0 0-2.61-.47zm-.1 2.994a6.04 6.04 0 0 1 1.749.318 5.98 5.98 0 0 1 3.816 7.446A5.986 5.986 0 0 1 42 19.475v-4.29C42 12.868 40.216 11 38 11s-4 1.867-4 4.186v7.76a5.961 5.961 0 0 1-1 1.316v-4.076C33 17.866 31.216 16 29 16s-4 1.867-4 4.186v4.48a5.97 5.97 0 0 1-1.973-6.4 5.98 5.98 0 0 1 7.407-4.032 1.5 1.5 0 0 0 1.927-1.289 1.5 1.5 0 0 0 .01-.023 5.977 5.977 0 0 1 5.8-3.924zM34 27.303V39h-1V27.926c.347-.185.68-.395 1-.623z"/>
</svg>
