<?xml version="1.0" encoding="UTF-8" standalone="no"?>
<svg
   width="64"
   height="64"
   viewBox="0 0 64 64.000001"
   id="svg6535"
   version="1.1"
   xmlns="http://www.w3.org/2000/svg"
   xmlns:svg="http://www.w3.org/2000/svg"
   xmlns:rdf="http://www.w3.org/1999/02/22-rdf-syntax-ns#"
   xmlns:cc="http://creativecommons.org/ns#"
   xmlns:dc="http://purl.org/dc/elements/1.1/">
  <defs
     id="defs6537" />
  <metadata
     id="metadata6540">
    <rdf:RDF>
      <cc:Work
         rdf:about="">
        <dc:format>image/svg+xml</dc:format>
        <dc:type
           rdf:resource="http://purl.org/dc/dcmitype/StillImage" />
      </cc:Work>
    </rdf:RDF>
  </metadata>
  <g
     id="layer1"
     transform="translate(180,-470.14793)">
    <path
       style="color:#000000;clip-rule:nonzero;display:inline;overflow:visible;visibility:visible;opacity:1;isolation:auto;mix-blend-mode:normal;color-interpolation:sRGB;color-interpolation-filters:linearRGB;solid-color:#000000;solid-opacity:1;fill:#000000;fill-opacity:1;fill-rule:nonzero;stroke:#4a90d9;stroke-width:0;stroke-linecap:round;stroke-linejoin:miter;stroke-miterlimit:4;stroke-dasharray:none;stroke-dashoffset:0;stroke-opacity:1;marker:none;color-rendering:auto;image-rendering:auto;shape-rendering:auto;text-rendering:auto;enable-background:accumulate"
       d="m 40,16 c -2.215997,0 -4,1.866788 -4,4.185547 V 36 h -1 v -6.814453 c 0,-0.162661 -0.02783,-0.316886 -0.04492,-0.474609 -0.0058,-1.647124 -1.020514,-3.12235 -2.55664,-3.716797 l -4.4375,-1.740235 C 27.578317,18.647747 23.701182,15 19,15 c -4.95279,0 -9,4.0472 -9,9 0,1.418791 0.341256,2.758764 0.931641,3.955078 C 6.0103696,27.99252 2,32.021431 2,36.951172 c 0,4.9528 4.04721,9 9,9 0.65701,0 1.296258,-0.07583 1.914062,-0.210938 L 22,57 H 31 33.097656 58 c 2.215997,0 4,-1.866788 4,-4.185547 v -12.628906 -11 C 62,26.866788 60.215997,25 58,25 c -2.215997,0 -4,1.866788 -4,4.185547 V 36 H 53 V 23.185547 C 53,20.866788 51.215997,19 49,19 c -2.215997,0 -4,1.866788 -4,4.185547 V 36 H 44 V 20.185547 C 44,17.866788 42.215997,16 40,16 Z m -21,2 c 2.608824,0 4.804048,1.639507 5.636719,3.949219 l -4.222657,-1.658203 c -0.495714,-0.202539 -1.027046,-0.303492 -1.5625,-0.296875 -4.422659,0.05488 -5.498941,6.186285 -1.359374,7.74414 l 4.173828,1.638672 C 20.863524,29.772856 19.960933,30 19,30 c -3.33147,0 -6,-2.66852 -6,-6 0,-3.33148 2.66853,-6 6,-6 z M 24.996094,30.683594 27,31.470703 v 8.714844 2.349609 L 22.605469,44.484375 19.25,40.533203 C 19.730663,39.433901 20,38.223149 20,36.951172 c 0,-1.419158 -0.340972,-2.758533 -0.931641,-3.955078 2.275008,-0.01731 4.348251,-0.894537 5.927735,-2.3125 z M 11,30.951172 c 3.33147,0 6,2.66852 6,6 0,0.291198 -0.02697,0.57574 -0.06641,0.855469 l -2.828125,-3.328125 c -0.75588,-0.95863 -1.908117,-1.519648 -3.128907,-1.523438 -3.400849,-0.0111 -5.2634806,3.957356 -3.0820308,6.566406 l 2.7539068,3.41211 C 7.4835407,42.75281 5,40.164051 5,36.951172 c 0,-3.33148 2.66853,-6 6,-6 z"
       transform="translate(-180,470.14793)"
       id="rect6515" />
  </g>
</svg>
