<svg xmlns="http://www.w3.org/2000/svg" width="64" height="64"><path d="M30.979 13.31a4 4 0 0 0-3.93 4.067l.053 22.877c0 .643-.673.88-.91.373l-7.45-15.822a4 4 0 0 0-3.465-2.344c-3.031-.135-5.103 3.022-3.773 5.75l8.004 16.998c-.774.824-1.942 1.03-3.832.1l-2.961-5.13c-1.16-2.007-3.627-2.738-5.533-1.638l-.383.22c-1.906 1.101-2.507 3.604-1.348 5.612l6.397 11.08c.146.253.312.484.496.695l1.6 3.55c.662 1.43 1.502 2.302 3.535 2.302h30.828c2.6 0 4.693-2.133 4.693-4.783V39c0-2.216-1.784-4-4-4a3.981 3.981 0 0 0-3.861 3H44v-2c0-2.216-1.682-4-3.771-4h-.458C37.682 32 36 33.784 36 36v2h-.9l-.051-20.643a4 4 0 0 0-4.07-4.046z" style="color:#000;clip-rule:nonzero;display:inline;overflow:visible;visibility:visible;opacity:1;isolation:auto;mix-blend-mode:normal;color-interpolation:sRGB;color-interpolation-filters:linearRGB;solid-color:#000;solid-opacity:1;fill:#000;fill-opacity:1;fill-rule:nonzero;stroke:#4a90d9;stroke-width:0;stroke-linecap:round;stroke-linejoin:miter;stroke-miterlimit:4;stroke-dasharray:none;stroke-dashoffset:0;stroke-opacity:1;marker:none;color-rendering:auto;image-rendering:auto;shape-rendering:auto;text-rendering:auto;enable-background:accumulate"/><path d="M-1055.796 661.454c3.502 3.502 3.502 9.226 0 12.728-3.502 3.502-9.226 3.502-12.728 0-3.502-3.502-3.502-9.226 0-12.728 3.502-3.502 9.226-3.502 12.728 0zm-2.121 2.122a5.977 5.977 0 0 0-8.486 0 5.977 5.977 0 0 0 0 8.485 5.977 5.977 0 0 0 8.486 0 5.977 5.977 0 0 0 0-8.485zm18.112-11.843c3.503 3.502 3.503 9.226 0 12.728-3.502 3.502-9.225 3.502-12.728 0-3.502-3.502-3.502-9.226 0-12.728 3.503-3.502 9.226-3.502 12.728 0zm-2.121 2.121a5.977 5.977 0 0 0-8.485 0 5.978 5.978 0 0 0 0 8.486 5.977 5.977 0 0 0 8.485 0 5.977 5.977 0 0 0 0-8.486z" style="color:#000;font-style:normal;font-variant:normal;font-weight:400;font-stretch:normal;font-size:medium;line-height:normal;font-family:sans-serif;text-indent:0;text-align:start;text-decoration:none;text-decoration-line:none;text-decoration-style:solid;text-decoration-color:#000;letter-spacing:normal;word-spacing:normal;text-transform:none;writing-mode:lr-tb;direction:ltr;baseline-shift:baseline;text-anchor:start;white-space:normal;clip-rule:nonzero;display:inline;overflow:visible;visibility:visible;opacity:1;isolation:auto;mix-blend-mode:normal;color-interpolation:sRGB;color-interpolation-filters:linearRGB;solid-color:#000;solid-opacity:1;fill:#000;fill-opacity:1;fill-rule:nonzero;stroke:none;stroke-width:3;stroke-linecap:round;stroke-linejoin:miter;stroke-miterlimit:4;stroke-dasharray:none;stroke-dashoffset:0;stroke-opacity:1;marker:none;color-rendering:auto;image-rendering:auto;shape-rendering:auto;text-rendering:auto;enable-background:accumulate" transform="translate(1077.143 -641.076)"/><path d="m-1032.161 644.893-4.74 4.701 4.937 4.493z" style="color:#000;display:inline;overflow:visible;visibility:visible;fill:#000;fill-opacity:1;fill-rule:nonzero;stroke:none;stroke-width:6;marker:none;enable-background:accumulate" transform="translate(1077.143 -641.076)"/><path d="M-1079.514-570.792a11.002 11.002 0 0 1 2.144 8.88 11.002 11.002 0 0 1-5.3 7.438" style="color:#000;display:inline;overflow:visible;visibility:visible;fill:none;stroke:#000;stroke-width:3;stroke-linecap:butt;stroke-linejoin:miter;stroke-miterlimit:4;stroke-dasharray:none;stroke-dashoffset:0;stroke-opacity:1;marker:none;enable-background:accumulate" transform="rotate(-60 -16.617 -1253.371)"/></svg>