<?xml version="1.0" encoding="UTF-8" standalone="no"?>
<svg
   width="64"
   height="64"
   viewBox="0 0 64 64.000001"
   id="svg6535"
   version="1.1"
   xmlns="http://www.w3.org/2000/svg"
   xmlns:svg="http://www.w3.org/2000/svg"
   xmlns:rdf="http://www.w3.org/1999/02/22-rdf-syntax-ns#"
   xmlns:cc="http://creativecommons.org/ns#"
   xmlns:dc="http://purl.org/dc/elements/1.1/">
  <defs
     id="defs6537" />
  <metadata
     id="metadata6540">
    <rdf:RDF>
      <cc:Work
         rdf:about="">
        <dc:format>image/svg+xml</dc:format>
        <dc:type
           rdf:resource="http://purl.org/dc/dcmitype/StillImage" />
      </cc:Work>
    </rdf:RDF>
  </metadata>
  <g
     id="layer1"
     transform="translate(180,-470.14793)">
    <path
       style="color:#000000;clip-rule:nonzero;display:inline;overflow:visible;visibility:visible;opacity:1;isolation:auto;mix-blend-mode:normal;color-interpolation:sRGB;color-interpolation-filters:linearRGB;solid-color:#000000;solid-opacity:1;fill:#000000;fill-opacity:1;fill-rule:nonzero;stroke:#4a90d9;stroke-width:0;stroke-linecap:round;stroke-linejoin:miter;stroke-miterlimit:4;stroke-dasharray:none;stroke-dashoffset:0;stroke-opacity:1;marker:none;color-rendering:auto;image-rendering:auto;shape-rendering:auto;text-rendering:auto;enable-background:accumulate"
       d="m 13,10.148438 -10,9.5 10,9.5 v -7 h 8.308594 C 21.944495,24.718331 23.685966,26.857732 26,28.029297 V 47 H 25 V 39.185547 C 25,36.866788 23.215997,35 21,35 c -2.215997,0 -4,1.866788 -4,4.185547 V 47 55.814453 60 h 4 25 11 c 2.215997,0 4,-1.866788 4,-4.185547 v -12.628906 -9 C 61,31.866788 59.215997,30 57,30 c -2.215997,0 -4,1.866788 -4,4.185547 V 39 H 52 V 31.185547 C 52,28.866788 50.325274,27 48.246094,27 H 47.753906 C 45.674726,27 44,28.866788 44,31.185547 V 39 H 43 V 31.185547 C 43,28.866788 41.215997,27 39,27 c -2.215997,0 -4,1.866788 -4,4.185547 V 39 H 34 V 28.064453 C 36.975121,26.592197 39.037109,23.530537 39.037109,20 c 0,-4.9528 -4.04721,-9 -9,-9 -3.956103,0 -7.327861,2.585082 -8.527343,6.148438 H 13 Z M 30.037109,14 c 3.33147,0 6,2.66852 6,6 0,1.806375 -0.787744,3.414863 -2.037109,4.511719 V 20.185547 C 34,17.866788 32.215997,16 30,16 c -2.215997,0 -4,1.866788 -4,4.185547 v 4.257812 C 24.794444,23.34842 24.037109,21.769849 24.037109,20 c 0,-3.33148 2.66853,-6 6,-6 z"
       transform="translate(-180,470.14793)"
       id="rect7439" />
  </g>
</svg>
