<?xml version="1.0" encoding="UTF-8" standalone="no"?>
<svg
   width="64"
   height="64"
   viewBox="0 0 64.000001 64.000001"
   id="svg4317"
   version="1.1"
   xmlns="http://www.w3.org/2000/svg"
   xmlns:svg="http://www.w3.org/2000/svg"
   xmlns:rdf="http://www.w3.org/1999/02/22-rdf-syntax-ns#"
   xmlns:cc="http://creativecommons.org/ns#"
   xmlns:dc="http://purl.org/dc/elements/1.1/">
  <defs
     id="defs4319" />
  <metadata
     id="metadata4322">
    <rdf:RDF>
      <cc:Work
         rdf:about="">
        <dc:format>image/svg+xml</dc:format>
        <dc:type
           rdf:resource="http://purl.org/dc/dcmitype/StillImage" />
      </cc:Work>
    </rdf:RDF>
  </metadata>
  <g
     id="layer1"
     transform="translate(0,-988.3622)">
    <path
       style="color:#000000;clip-rule:nonzero;display:inline;overflow:visible;visibility:visible;opacity:1;isolation:auto;mix-blend-mode:normal;color-interpolation:sRGB;color-interpolation-filters:linearRGB;solid-color:#000000;solid-opacity:1;fill:#000000;fill-opacity:1;fill-rule:nonzero;stroke:#4a90d9;stroke-width:0;stroke-linecap:round;stroke-linejoin:miter;stroke-miterlimit:4;stroke-dasharray:none;stroke-dashoffset:0;stroke-opacity:1;marker:none;color-rendering:auto;image-rendering:auto;shape-rendering:auto;text-rendering:auto;enable-background:accumulate"
       d="m 25,8 c -4.952793,0 -9,4.0472 -9,9 0,4.849398 3.882333,8.820253 8.693359,8.984375 L 27,30.894531 v 10.291016 2.308594 l -6.535156,0.791015 -1.050782,-1.126953 C 19.786753,42.17281 20,41.112337 20,40 c 0,-4.9528 -4.047207,-9 -9,-9 -4.9527933,0 -9,4.0472 -9,9 0,4.9528 4.0472067,9 9,9 0.857115,0 1.684113,-0.129335 2.470703,-0.355469 L 22,58 h 9 4 23 c 2.215997,0 4,-1.866788 4,-4.185547 v -12.628906 -9 C 62,29.866788 60.215997,28 58,28 c -2.215997,0 -4,1.866788 -4,4.185547 V 37 H 53 V 23.301664 c 0,-2.318759 -1.784003,-4.185547 -4,-4.185547 -2.215997,0 -4,1.866788 -4,4.185547 V 37 H 44 V 19.185547 C 44,16.866788 42.215997,15 40,15 c -2.215997,0 -4,1.866788 -4,4.185547 V 37 h -1 v -6.814453 c 0,-0.0047 -0.0019,-0.009 -0.002,-0.01367 0.02716,-0.644977 -0.102172,-1.286946 -0.376953,-1.871094 L 31.974609,22.667969 C 33.238019,21.117771 34,19.145357 34,17 34,12.0472 29.952793,8 25,8 Z m 0,3 c 3.331471,0 6,2.6686 6,6 0,0.882507 -0.192071,1.714615 -0.529297,2.466797 L 29.060547,16.462891 C 28.784734,14.482317 27.050784,13.004414 25,13.001953 c -0.05798,7.56e-4 -0.115934,0.0027 -0.173828,0.0059 -2.177747,0.03849 -3.924494,1.812154 -3.929688,3.990235 V 17 c 6.19e-4,0.0091 0.0013,0.01823 0.002,0.02734 0.0024,0.598878 0.139225,1.189577 0.40039,1.728515 l 1.857422,3.955079 C 20.73678,21.938685 19,19.686937 19,17 c 0,-3.3314 2.668529,-6 6,-6 z M 11,34 c 3.331471,0 6,2.6686 6,6 0,0.182439 -0.01167,0.36093 -0.02734,0.539062 L 13.964844,37.3125 c -0.72627,-0.8008 -1.745732,-1.273547 -2.826172,-1.310547 -3.5866703,-0.1227 -5.5081907,4.174325 -3.0253908,6.765625 l 2.9433598,3.230469 C 11.037592,45.998222 11.019093,46 11,46 7.6685289,46 5,43.3315 5,40 5,36.6686 7.6685289,34 11,34 Z"
       transform="translate(0,988.3622)"
       id="rect4249" />
  </g>
</svg>
