<?xml version="1.0" encoding="UTF-8" standalone="no"?>
<svg
   width="64"
   height="64"
   viewBox="0 0 64 64.000001"
   id="svg6535"
   version="1.1"
   xmlns="http://www.w3.org/2000/svg"
   xmlns:svg="http://www.w3.org/2000/svg"
   xmlns:rdf="http://www.w3.org/1999/02/22-rdf-syntax-ns#"
   xmlns:cc="http://creativecommons.org/ns#"
   xmlns:dc="http://purl.org/dc/elements/1.1/">
  <defs
     id="defs6537" />
  <metadata
     id="metadata6540">
    <rdf:RDF>
      <cc:Work
         rdf:about="">
        <dc:format>image/svg+xml</dc:format>
        <dc:type
           rdf:resource="http://purl.org/dc/dcmitype/StillImage" />
      </cc:Work>
    </rdf:RDF>
  </metadata>
  <g
     id="layer1"
     transform="translate(180,-470.14793)">
    <path
       style="color:#000000;clip-rule:nonzero;display:inline;overflow:visible;visibility:visible;opacity:1;isolation:auto;mix-blend-mode:normal;color-interpolation:sRGB;color-interpolation-filters:linearRGB;solid-color:#000000;solid-opacity:1;fill:#000000;fill-opacity:1;fill-rule:nonzero;stroke:#4a90d9;stroke-width:0;stroke-linecap:round;stroke-linejoin:miter;stroke-miterlimit:4;stroke-dasharray:none;stroke-dashoffset:0;stroke-opacity:1;marker:none;color-rendering:auto;image-rendering:auto;shape-rendering:auto;text-rendering:auto;enable-background:accumulate"
       d="m 38.271484,6.0039062 c -0.289592,-0.00827 -0.578781,-0.002 -0.865234,0.017578 -3.159873,0.2159427 -6.073275,2.1034501 -7.503906,5.0605468 -0.728551,-0.09199 -1.454487,-0.103329 -2.164063,-0.01953 -3.371561,0.398168 -6.364362,2.699584 -7.496093,6.085938 H 12 v -7 l -10,9.5 10,9.5 v -7 h 8.048828 C 20.694441,24.742195 22.473591,26.994506 25,28.162109 V 47 H 24 V 39.185547 C 24,36.866788 22.215997,35 20,35 c -2.215997,0 -4,1.866788 -4,4.185547 V 47 55.814453 60 h 4 25 11 c 2.215997,0 4,-1.866788 4,-4.185547 v -12.628906 -9 C 60,31.866788 58.215997,30 56,30 c -2.215997,0 -4,1.866788 -4,4.185547 V 39 H 51 V 28.185547 C 51,25.866788 49.215997,24 47,24 c -2.215997,0 -4,1.866788 -4,4.185547 V 39 H 42 V 23.042969 c 2.136586,-1.064156 3.853243,-2.958512 4.603516,-5.402344 1.42528,-4.64253 -1.121747,-9.6135688 -5.722657,-11.1679688 -0.862672,-0.2914499 -1.740596,-0.4439446 -2.609375,-0.46875 z m -0.09961,2.9941407 c 0.580249,0.018444 1.168117,0.1224312 1.748047,0.3183593 3.09296,1.0449398 4.774556,4.3243628 3.816406,7.4453128 C 43.402083,17.85044 42.787396,18.769252 42,19.474609 V 15.185547 C 42,12.866788 40.215997,11 38,11 c -2.215997,0 -4,1.866788 -4,4.185547 v 7.759765 c -0.27497,0.491626 -0.613366,0.931636 -1,1.316407 V 20.185547 C 33,17.866788 31.215997,16 29,16 c -2.215997,0 -4,1.866788 -4,4.185547 v 4.480469 c -1.849718,-1.486355 -2.702865,-3.98219 -1.972656,-6.400391 0.95426,-3.16014 4.23426,-4.94532 7.40625,-4.03125 a 1.50015,1.50015 0 0 0 1.927734,-1.289063 1.50015,1.50015 0 0 0 0.0098,-0.02344 c 0.91888,-2.488346 3.286367,-4.0037509 5.800781,-3.9238281 z M 34,27.302734 V 39 H 33 V 27.925781 c 0.346618,-0.184881 0.679606,-0.394512 1,-0.623047 z"
       transform="translate(-180,470.14793)"
       id="rect7308" />
  </g>
</svg>
