<?xml version="1.0" encoding="UTF-8" standalone="no"?>
<svg
   width="64"
   height="64"
   version="1.1"
   id="svg1"
   sodipodi:docname="gesture-pinch-symbolic.svg"
   inkscape:version="1.4.2 (ebf0e940d0, 2025-05-08)"
   xmlns:inkscape="http://www.inkscape.org/namespaces/inkscape"
   xmlns:sodipodi="http://sodipodi.sourceforge.net/DTD/sodipodi-0.dtd"
   xmlns="http://www.w3.org/2000/svg"
   xmlns:svg="http://www.w3.org/2000/svg">
  <defs
     id="defs1">
    <inkscape:path-effect
       effect="fillet_chamfer"
       id="path-effect3"
       is_visible="true"
       lpeversion="1"
       nodesatellites_param="F,0,0,1,0,0,0,1 @ F,0,0,1,0,0,0,1 @ F,0,0,1,0,3,0,1 @ F,0,0,1,0,3,0,1 @ F,0,1,1,0,1.53125,0,1 @ F,0,1,1,0,1.53125,0,1 @ F,0,0,1,0,3,0,1 @ F,0,0,1,0,3,0,1 @ F,0,1,1,0,1.53125,0,1 @ F,0,1,1,0,1.53125,0,1 @ F,0,0,1,0,3,0,1 @ F,0,0,1,0,3,0,1 @ F,0,0,1,0,1.53125,0,1 @ F,0,1,1,0,1.53125,0,1 @ F,0,0,1,0,5,0,1 @ F,0,0,1,0,3,0,1 @ F,0,0,1,0,3,0,1 @ F,0,0,1,0,2,0,1 @ F,0,0,1,0,2.2294816,0,1 @ F,0,0,1,0,2.2294816,0,1 @ F,0,0,1,0,3,0,1 @ F,0,0,1,0,3,0,1"
       radius="0"
       unit="px"
       method="auto"
       mode="F"
       chamfer_steps="1"
       flexible="false"
       use_knot_distance="true"
       apply_no_radius="true"
       apply_with_radius="true"
       only_selected="false"
       hide_knots="false" />
  </defs>
  <sodipodi:namedview
     id="namedview1"
     pagecolor="#ffffff"
     bordercolor="#000000"
     borderopacity="0.25"
     inkscape:showpageshadow="2"
     inkscape:pageopacity="0.0"
     inkscape:pagecheckerboard="0"
     inkscape:deskcolor="#d1d1d1"
     showgrid="true"
     inkscape:zoom="1"
     inkscape:cx="55.5"
     inkscape:cy="52"
     inkscape:window-width="2560"
     inkscape:window-height="1371"
     inkscape:window-x="0"
     inkscape:window-y="0"
     inkscape:window-maximized="1"
     inkscape:current-layer="svg1">
    <inkscape:grid
       id="grid1"
       units="px"
       originx="0"
       originy="0"
       spacingx="1"
       spacingy="1"
       empcolor="#0099e5"
       empopacity="0.30196078"
       color="#0099e5"
       opacity="0.14901961"
       empspacing="5"
       enabled="true"
       visible="true" />
  </sodipodi:namedview>
  <path
     style="fill:none;stroke:#241f31;stroke-width:2;stroke-linecap:round;paint-order:stroke markers fill"
     d="M 22,56 H 61 V 29 a 3,3 45 0 0 -3,-3 3,3 135 0 0 -3,3 v 6.46875 A 1.53125,1.53125 135 0 1 53.46875,37 1.5003255,1.5003255 46.193489 0 1 52,35.46875 V 23 a 3,3 45 0 0 -3,-3 3,3 135 0 0 -3,3 V 35.46875 A 1.53125,1.53125 135 0 1 44.46875,37 1.5003255,1.5003255 46.193489 0 1 43,35.46875 V 20 a 3,3 45 0 0 -3,-3 3,3 135 0 0 -3,3 V 35.46875 A 1.53125,1.53125 135 0 1 35.46875,37 1.5003255,1.5003255 46.193489 0 1 34,35.46875 V 31 A 7.0669872,7.0669872 54.720017 0 0 29.285048,24.335899 L 19.828971,20.99846 a 2.9478301,2.9478301 153.93749 0 0 -3.777654,1.84759 l -0.102634,0.3079 a 3.1394612,3.1394612 64.73623 0 0 1.851354,3.922987 l 8.333272,3.205105 A 2.9120597,2.9120597 55.518756 0 1 28,33 v 7.770518 a 3.937689,3.937689 119.51812 0 1 -1.911765,3.376541 l -1.17647,0.705882 a 2.6399889,2.6399889 9.2174744 0 1 -3.362692,-0.54569 L 12.952374,34.27777 A 3.1034181,3.1034181 5.3694486 0 0 8.6573936,33.874085 l -0.3147872,0.25183 a 3,3 96.340192 0 0 -0.4685213,4.216691 z"
     id="path2"
     inkscape:original-d="M 22,56 H 61 V 26 H 55 V 37 H 52 V 20 H 46 V 37 H 43 V 17 H 37 V 37 H 34 V 26 l -17,-6 -2,6 13,5 V 43 L 23,46 11,32 6,36 Z"
     inkscape:path-effect="#path-effect3"
     sodipodi:nodetypes="ccccccccccccccccccccccc"
     class="foreground-stroke" />
  <path
     style="fill:none;stroke:#241f31;stroke-width:4;stroke-linecap:round;stroke-dasharray:none;paint-order:stroke markers fill"
     id="path3"
     sodipodi:type="arc"
     sodipodi:cx="10"
     sodipodi:cy="36"
     sodipodi:rx="8"
     sodipodi:ry="8"
     sodipodi:start="2.0204855"
     sodipodi:end="4.9741884"
     sodipodi:open="true"
     sodipodi:arc-type="arc"
     d="M 6.522515,43.204658 A 8,8 0 0 1 2.5008998,33.213695 8,8 0 0 1 12.070553,28.272593"
     class="foreground-stroke" />
  <path
     style="fill:none;stroke:#241f31;stroke-width:4;stroke-linecap:round;stroke-dasharray:none;paint-order:stroke markers fill"
     id="circle3"
     sodipodi:type="arc"
     sodipodi:cx="19"
     sodipodi:cy="24"
     sodipodi:rx="8"
     sodipodi:ry="8"
     sodipodi:start="2.5823821"
     sodipodi:end="5.5906835"
     sodipodi:open="true"
     sodipodi:arc-type="arc"
     d="m 12.218606,28.244137 a 8,8 0 0 1 2.095063,-10.727832 8,8 0 0 1 10.84354,1.375977"
     class="foreground-stroke" />
</svg>
