<svg xmlns="http://www.w3.org/2000/svg" width="64" height="64">
  <path d="m13 10.148-10 9.5 10 9.5v-7h8.309A9.047 9.047 0 0 0 26 28.03V47h-1v-7.814C25 36.866 23.216 35 21 35s-4 1.867-4 4.186V60h40c2.216 0 4-1.867 4-4.186V34.186C61 31.866 59.216 30 57 30s-4 1.867-4 4.186V39h-1v-7.814C52 28.866 50.325 27 48.246 27h-.492C45.674 27 44 28.867 44 31.186V39h-1v-7.814C43 28.866 41.216 27 39 27s-4 1.867-4 4.186V39h-1V28.064c2.975-1.472 5.037-4.533 5.037-8.064 0-4.953-4.047-9-9-9-3.956 0-7.328 2.585-8.527 6.148H13ZM30.037 14c3.332 0 6 2.669 6 6A5.976 5.976 0 0 1 34 24.512v-4.326C34 17.866 32.216 16 30 16s-4 1.867-4 4.186v4.257A5.974 5.974 0 0 1 24.037 20c0-3.331 2.669-6 6-6z"/>
</svg>
