<svg xmlns="http://www.w3.org/2000/svg" width="16" height="16">
    <g fill="#474747">
        <path d="M2 0v9h12V0zm2 2h8v5H4z" style="line-height:normal;-inkscape-font-specification:Sans;text-indent:0;text-align:start;text-decoration-line:none;text-transform:none;marker:none" color="#000" font-weight="400" font-family="Sans" overflow="visible"/>
        <path d="M5 5c2.32 1 3.045-1.66 6 0v1H5z" style="marker:none" color="#000" overflow="visible" opacity=".35"/>
        <path d="M11.003 11.039h-1c-.258 0-.53.13-.72.313L8 12.634l-1.283-1.282c-.19-.183-.462-.313-.72-.313h-1v1.001c0 .31.09.553.281.75L8 15.45l2.722-2.66c.191-.197.281-.44.281-.75v-1.001z" style="line-height:normal;-inkscape-font-specification:'Bitstream Vera Sans';text-indent:0;text-align:start;text-decoration-line:none;text-transform:none;marker:none" color="#bebebe" font-weight="400" font-family="Bitstream Vera Sans" overflow="visible"/>
    </g>
</svg>
