<svg xmlns="http://www.w3.org/2000/svg" width="16" height="16" fill="none">
  <path class="foreground-stroke" stroke="#241F30" stroke-linecap="round" stroke-linejoin="round" stroke-width="2" d="M9.5 10.071V11.5m0-1.429c.793 0 1.525-.259 2.117-.697m-2.117.697c-.793 0-1.525-.259-2.117-.697M9.5 2.929V1.5m0 1.429c.793 0 1.525.259 2.117.697M9.5 2.929c-.793 0-1.525.259-2.117.697m4.234 0 .811-1.169m-.81 1.169A3.579 3.579 0 0 1 12.893 5.4M7.383 3.626l-.807-1.169m.807 1.169A3.578 3.578 0 0 0 6.106 5.4m5.511 3.974.811 1.176m-.81-1.176A3.579 3.579 0 0 0 12.893 7.6M7.383 9.374l-.807 1.176m.807-1.176A3.578 3.578 0 0 1 6.106 7.6m0-2.2L4.75 4.957m1.356.443c-.229.71-.229 1.49 0 2.2m0 0-1.356.45m8.144-.45 1.356.45m-1.356-.45c.229-.71.229-1.49 0-2.2m0 0 1.356-.443"/>
  <path class="foreground-stroke" stroke="#241F30" stroke-width="2" d="M4 12.5a1.5 1.5 0 1 1-3 0 1.5 1.5 0 0 1 3 0Z"/>
</svg>
