<?xml version="1.0" encoding="UTF-8"?>
<svg height="16px" viewBox="0 0 16 16" width="16px" xmlns="http://www.w3.org/2000/svg">
    <path d="m 9.5 0.5 c -0.550781 0 -1 0.449219 -1 1 c 0.003906 0.035156 0.007812 0.066406 0.015625 0.097656 c -0.003906 0.003906 -0.011719 0.003906 -0.015625 0.003906 c 0.054688 0.210938 -0.011719 0.433594 -0.175781 0.574219 c -0.058594 0.046875 -0.125 0.085938 -0.195313 0.109375 c -0.285156 0.089844 -0.589844 -0.058594 -0.699218 -0.332031 c 0 0 -0.003907 0 -0.007813 0.003906 c -0.015625 -0.03125 -0.035156 -0.0625 -0.054687 -0.089843 c -0.199219 -0.273438 -0.523438 -0.429688 -0.863282 -0.410157 c -0.191406 0.011719 -0.375 0.078125 -0.53125 0.191407 c -0.445312 0.324218 -0.546875 0.949218 -0.222656 1.394531 c 0.023438 0.027343 0.050781 0.050781 0.074219 0.074219 c 0 0.003906 -0.003907 0.007812 -0.007813 0.011718 c 0.164063 0.136719 0.238282 0.355469 0.1875 0.566406 c -0.015625 0.070313 -0.046875 0.140626 -0.09375 0.199219 c -0.175781 0.242188 -0.507812 0.300781 -0.757812 0.144531 c 0 0 0 0.003907 -0.003906 0.003907 c -0.03125 -0.015625 -0.0625 -0.027344 -0.09375 -0.039063 c -0.089844 -0.03125 -0.1875 -0.046875 -0.28125 -0.046875 c -0.445313 -0.015625 -0.84375 0.265625 -0.980469 0.691407 c -0.171875 0.523437 0.117187 1.085937 0.640625 1.257812 c 0.035156 0.007812 0.066406 0.011719 0.101562 0.015625 c 0 0.003906 0 0.007813 -0.003906 0.015625 c 0.21875 0.011719 0.410156 0.144531 0.492188 0.347656 c 0.027343 0.066406 0.042968 0.140625 0.042968 0.214844 c 0 0.300781 -0.238281 0.542969 -0.535156 0.5625 c 0.003906 0.003906 0.003906 0.007812 0.003906 0.015625 c -0.035156 0.003906 -0.066406 0.007813 -0.101562 0.015625 c -0.523438 0.171875 -0.8125 0.734375 -0.640625 1.261719 c 0.171875 0.523437 0.734375 0.8125 1.261719 0.640625 c 0.03125 -0.011719 0.0625 -0.023438 0.09375 -0.039063 c 0.003906 0.003907 0.003906 0.003907 0.003906 0.007813 c 0.085937 -0.054688 0.179687 -0.085938 0.277344 -0.089844 c 0.113281 -0.007812 0.222656 0.019531 0.320312 0.082031 c 0.0625 0.039063 0.121094 0.089844 0.164062 0.152344 c 0.175782 0.242187 0.125 0.574219 -0.101562 0.761719 l 0.011719 0.011718 c -0.023438 0.023438 -0.050781 0.046876 -0.074219 0.074219 c -0.324219 0.445313 -0.222656 1.070313 0.222656 1.398438 c 0.445313 0.324219 1.070313 0.222656 1.394532 -0.222657 c 0.019531 -0.027343 0.039062 -0.054687 0.054687 -0.085937 c 0.003906 0 0.003906 0 0.007813 0.003906 c 0.078124 -0.203125 0.261718 -0.34375 0.480468 -0.359375 c 0.074219 -0.007812 0.148438 0.003906 0.21875 0.027344 c 0.289063 0.089844 0.449219 0.394531 0.371094 0.679688 c 0.007812 0 0.011719 0 0.015625 0.003906 c -0.007813 0.03125 -0.011719 0.066406 -0.015625 0.097656 c 0 0.550781 0.449219 1 1 1 s 1 -0.449219 1 -1 c 0 -0.035156 -0.003906 -0.066406 -0.007812 -0.101562 h 0.003906 c -0.074219 -0.289063 0.089844 -0.589844 0.375 -0.683594 c 0.074218 -0.023438 0.148437 -0.03125 0.222656 -0.023438 c 0.207031 0.015625 0.394531 0.152344 0.472656 0.359375 c 0.007813 -0.003906 0.011719 -0.007812 0.015625 -0.007812 c 0.015625 0.03125 0.03125 0.058593 0.046875 0.089843 c 0.328125 0.445313 0.953125 0.546876 1.398438 0.222657 c 0.445312 -0.328125 0.546875 -0.953125 0.21875 -1.398438 c -0.023438 -0.027343 -0.046875 -0.050781 -0.074219 -0.074219 c 0.003906 -0.003906 0.007813 -0.003906 0.011719 -0.007812 c -0.226563 -0.191406 -0.273438 -0.527344 -0.097656 -0.769531 c 0.113281 -0.15625 0.296874 -0.238281 0.476562 -0.230469 c 0.097656 0.003906 0.195312 0.03125 0.28125 0.085938 c 0.003906 -0.003907 0.007812 -0.007813 0.011719 -0.011719 c 0.027343 0.015625 0.058593 0.03125 0.089843 0.046875 c 0.527344 0.171875 1.089844 -0.117188 1.261719 -0.640625 c 0.171875 -0.527344 -0.117187 -1.089844 -0.640625 -1.261719 c -0.035156 -0.007812 -0.066406 -0.011719 -0.101562 -0.019531 c 0 -0.003907 0 -0.007813 0.003906 -0.011719 c -0.296875 -0.019531 -0.535156 -0.265625 -0.535156 -0.566406 c 0 -0.296875 0.238281 -0.539063 0.535156 -0.558594 c -0.003906 -0.003906 -0.003906 -0.011719 -0.003906 -0.015625 c 0.035156 -0.003906 0.066406 -0.007813 0.101562 -0.015625 c 0.523438 -0.171875 0.8125 -0.734375 0.640625 -1.261719 c -0.136719 -0.421875 -0.535156 -0.703125 -0.980469 -0.6875 c -0.09375 0 -0.191406 0.015625 -0.28125 0.046875 c -0.03125 0.015625 -0.0625 0.03125 -0.089843 0.046875 c -0.003907 -0.003906 -0.007813 -0.007812 -0.011719 -0.015625 c -0.246094 0.160156 -0.582031 0.101563 -0.757812 -0.144531 c -0.175782 -0.238281 -0.128907 -0.574219 0.097656 -0.765625 c -0.003906 0 -0.007813 -0.003906 -0.011719 -0.007812 c 0.027344 -0.023438 0.050781 -0.046876 0.074219 -0.074219 c 0.328125 -0.445313 0.226562 -1.070313 -0.21875 -1.398438 c -0.15625 -0.109375 -0.339844 -0.175781 -0.53125 -0.1875 c -0.339844 -0.019531 -0.664063 0.136719 -0.867188 0.410157 c -0.015625 0.03125 -0.03125 0.058593 -0.046875 0.089843 c -0.003906 0 -0.007812 -0.003906 -0.011719 -0.003906 c -0.109374 0.273437 -0.414062 0.421875 -0.703124 0.328125 c -0.285157 -0.089844 -0.445313 -0.394531 -0.371094 -0.679688 c 0 0 0 0 -0.003906 0 c 0.003906 -0.035156 0.007812 -0.066406 0.007812 -0.101562 c 0 -0.550781 -0.449219 -1 -1 -1 z m 0 3.5 c 1.378906 0 2.5 1.121094 2.5 2.5 s -1.121094 2.5 -2.5 2.5 s -2.5 -1.121094 -2.5 -2.5 s 1.121094 -2.5 2.5 -2.5 z m -7.011719 6 c -1.367187 0 -2.4999998 1.132812 -2.4999998 2.5 s 1.1328128 2.5 2.4999998 2.5 c 1.367188 0 2.5 -1.132812 2.5 -2.5 s -1.132812 -2.5 -2.5 -2.5 z m 0 2 c 0.289063 0 0.5 0.210938 0.5 0.5 s -0.210937 0.5 -0.5 0.5 c -0.289062 0 -0.5 -0.210938 -0.5 -0.5 s 0.210938 -0.5 0.5 -0.5 z m 0 0" fill="#2e3436"/>
</svg>
