<svg xmlns="http://www.w3.org/2000/svg" width="16" height="16"><g color="#000" font-weight="400" font-family="sans-serif" fill="#474747"><path d="M6.508 1C3.48 1 1.002 3.473 1.002 6.5c0 3.026 2.478 5.5 5.506 5.5s5.504-2.474 5.504-5.5c0-3.027-2.476-5.5-5.504-5.5zm0 2a3.486 3.486 0 013.504 3.5c0 1.944-1.556 3.5-3.504 3.5a3.488 3.488 0 01-3.506-3.5C3.002 4.555 4.56 3 6.508 3z" style="line-height:normal;font-variant-ligatures:normal;font-variant-position:normal;font-variant-caps:normal;font-variant-numeric:normal;font-variant-alternates:normal;font-feature-settings:normal;text-indent:0;text-align:start;text-decoration-line:none;text-decoration-style:solid;text-decoration-color:#000;text-transform:none;text-orientation:mixed;shape-padding:0;isolation:auto;mix-blend-mode:normal;marker:none" overflow="visible"/><path d="M10 8.99a1 1 0 00-.695 1.717l4.004 4a1 1 0 101.414-1.414l-4.004-4A1 1 0 0010 8.99z" style="line-height:normal;font-variant-ligatures:normal;font-variant-position:normal;font-variant-caps:normal;font-variant-numeric:normal;font-variant-alternates:normal;font-feature-settings:normal;text-indent:0;text-align:start;text-decoration-line:none;text-decoration-style:solid;text-decoration-color:#000;text-transform:none;text-orientation:mixed;shape-padding:0;isolation:auto;mix-blend-mode:normal;marker:none" overflow="visible"/></g></svg>