<?xml version="1.0" encoding="UTF-8"?>
<svg height="16px" viewBox="0 0 16 16" width="16px" xmlns="http://www.w3.org/2000/svg">
  <path fill="#123456" d="M 15 2 L 7 2 L 7 4 L 15 4 L 15 2 Z M 15 7 L 7 7 L 7 9 L 15 9 L 15 7 Z M 4 1 L 2 1 C 1.44921899 1, 1 1.44921899, 1 2 L 1 4 C 1 4.55078077, 1.44921899 5, 2 5 L 4 5 C 4.55078077 5, 5 4.55078077, 5 4 L 5 2 C 5 1.44921899, 4.55078077 1, 4 1 Z M 4 6.015625 L 2 6.015625 C 1.44921899 6.015625, 1 6.46484423, 1 7.015625 L 1 8.99609375 C 1 9.546875, 1.44921899 9.99609375, 2 9.99609375 L 4 9.99609375 C 4.55078077 9.99609375, 5 9.546875, 5 8.99609375 L 5 7.015625 C 5 6.46484423, 4.55078077 6.015625, 4 6.015625 Z M 15 11.984375 L 7 11.984375 L 7 13.984375 L 15 13.984375 L 15 11.984375 Z M 4 11 L 2 11 C 1.44921899 11, 1 11.4492188, 1 12 L 1 13.9804688 C 1 14.53125, 1.44921899 14.9804688, 2 14.9804688 L 4 14.9804688 C 4.55078077 14.9804688, 5 14.53125, 5 13.9804688 L 5 12 C 5 11.4492188, 4.55078077 11, 4 11 Z"/>
</svg>
