<svg xmlns="http://www.w3.org/2000/svg" width="16" height="16">
    <g color="#000" fill="#474747">
        <path d="M6.384 0h3.231c.213 0 .385.224.385.502v2.996c0 .278-.172.502-.385.502h-3.23C6.17 4 6 3.776 6 3.498V.502C6 .224 6.17 0 6.384 0zM6.384 6h3.231c.213 0 .385.224.385.502v2.996c0 .278-.172.502-.385.502h-3.23C6.17 10 6 9.776 6 9.498V6.502C6 6.224 6.17 6 6.384 6zM6.384 12h3.231c.213 0 .385.224.385.502v2.996c0 .278-.172.502-.385.502h-3.23C6.17 16 6 15.776 6 15.498v-2.996c0-.278.171-.502.384-.502z" style="marker:none" overflow="visible"/>
    </g>
</svg>
