<svg xmlns="http://www.w3.org/2000/svg" width="16" height="16" viewBox="0 0 16 16"><path fill="none" d="M1 2v3a1 1 45 0 0 1 1h3a1 1 135 0 0 1-1V2a1 1 45 0 0-1-1H2a1 1 135 0 0-1 1M10 2v3a1 1 45 0 0 1 1h3a1 1 135 0 0 1-1V2a1 1 45 0 0-1-1h-3a1 1 135 0 0-1 1M10 11v3a1 1 45 0 0 1 1h3a1 1 135 0 0 1-1v-3a1 1 45 0 0-1-1h-3a1 1 135 0 0-1 1M6 11v3a1 1 135 0 1-1 1H2a1 1 45 0 1-1-1v-3a1 1 135 0 1 1-1h3a1 1 45 0 1 1 1" class="foreground-stroke" style="fill:#000;fill-opacity:0;stroke:#241f31;stroke-width:2;stroke-linecap:round;stroke-linejoin:round;paint-order:stroke markers fill"/></svg>